<?xml version="1.0" encoding="utf-8"?>
<!-- Generator: Adobe Illustrator 16.0.0, SVG Export Plug-In . SVG Version: 6.00 Build 0)  -->
<!DOCTYPE svg PUBLIC "-//W3C//DTD SVG 1.1//EN" "http://www.w3.org/Graphics/SVG/1.1/DTD/svg11.dtd">
<svg version="1.1" id="Layer_1" xmlns="http://www.w3.org/2000/svg" xmlns:xlink="http://www.w3.org/1999/xlink" x="0px" y="0px"
	 width="560px" height="420px" viewBox="0 0 560 420" enable-background="new 0 0 560 420" xml:space="preserve">
<g id="samples">
		<g id="extracellular" >
			<path fill="none" stroke="#FFFFFF" stroke-width="2" stroke-miterlimit="10" d="M519.666,205
				c1.667-23.333,7.667-66,8.334-89c1-19,4.999-41-4.334-55.667c-10-14.667-21.999-39-43.999-38.667c-27.334-2-51.668-3-88.001,2.333
				c-33,4.333-87.333,10.667-124.333,5.333c-31.333-4.333-69.001-4.001-124-3.334c-35.333,1.667-57,6-68,11
				c-8,3.667-23.333,26-27.333,37.667c-3,6.334,3.333,30.666,4.333,43.333s5.333,51.667,4.667,72c-0.667,24,1.334,51-3.333,94
				c-2.333,21-5.334,47.332-2,60.666c2.667,7,11.667,20.334,32.667,40.334c4.333,4,13,4.666,22,5.666
				c10.5,0.334,31,1.334,80.667-2.333c19.333-1,39.667-5.335,91.667-6.334c27-0.999,68.667-2,118.667-0.333
				c28.667,0.667,69.333,1.001,82.333-0.666c8-0.667,16.417-2.333,25.667-11.667c0,0,13.668-11.999,17.334-16.333
				c3.666-4.667,9.333-7.666,5.333-31C523.667,298,517.999,227.333,519.666,205z M511.334,255.334C514,287.667,524,335,510,349.333
				c-8.666,8-19.665,19-42.999,20c-21.667,1-113.001,2.333-158.001,1.333C269.667,372,189,376,140,379
				c-18.667,1.333-61,3.666-71.667-30C62,331.667,59.667,317,66,281c4.667-39.333,5-89.666,3.333-115.333
				c-1.333-27.333-8.333-53-8-75.667c0.132-8.999,1-19,11.667-30.667c10-11,19.333-13,36.333-15.667c17-3,41.333-6.333,68-6
				s60.333,2.667,93.667,5c28,2.667,51.001,5,103.667-4.667c31.666-5.667,108.001-16.333,126.334,5.667
				c8.999,12,22.999,28.667,17.666,79C516.667,144.667,508.668,209.334,511.334,255.334z"/>
		</g>
		<g id="cytosol">
			<path  fill="none" stroke="#FFFFFF" stroke-width="2" stroke-miterlimit="10" d="M65.333,92.017
				c0.129-8.75,0.981-18.474,11.454-29.817c9.818-10.695,18.982-12.64,35.673-15.233c16.691-2.917,40.583-6.157,66.764-5.834
				c26.182,0.324,59.236,2.593,91.964,4.862C298.682,48.586,328.29,50.4,380,41.001c34.667-5.333,99.011-15.426,117.01,5.965
				c8.836,11.668,22.582,27.874,17.35,76.813c-1.968,21.391-9.817,84.268-7.2,128.995c2.618,31.438,13.258,77.96-0.488,91.896
				c-8.509,7.778-20.128,17.979-43.039,18.951c-21.271,0.972-110.942,2.269-155.129,1.296c-38.619,1.297-117.819,5.187-165.929,8.104
				c-18.327,1.299-60.763,5.721-71.236-27.018c-6.218-16.854-7.637-33.268-1.419-68.271c4.582-38.243,4.91-87.187,3.273-112.143
				C71.879,139.013,65.006,114.056,65.333,92.017z"/>
		</g>
		<g id="plasma_membrane">
			<path  fill="none" stroke="#FFFFFF" stroke-width="2" stroke-miterlimit="10" d="M501.001,43.667
				c-18.333-22-94.668-11.333-126.334-5.667C322.001,47.667,299,45.333,271,42.667c-33.334-2.333-67-4.667-93.667-5s-51,3-68,6
				C92.333,46.334,83,48.333,73,59.333C62.333,71,61.466,81.001,61.333,90c-0.333,22.667,6.667,48.333,8,75.667
				C71,191.334,70.667,241.667,66,281c-6.333,36-4,50.667,2.333,68c10.667,33.666,53,31.333,71.667,30c49-3,129.667-7,169-8.334
				c45,1,136.334-0.333,158.001-1.333c23.334-1,34.333-12,42.999-20c14-14.333,4-61.666,1.334-93.999
				c-2.666-46,5.333-110.667,7.333-132.667C524,72.334,510,55.667,501.001,43.667z M514.355,124.779
				c-1.968,21.391-9.817,84.268-7.2,128.995c2.618,31.438,13.258,77.96-0.488,91.896c-8.509,7.778-20.128,17.979-43.039,18.951
				c-21.272,0.972-110.946,2.269-155.129,1.296c-38.619,1.297-117.819,5.187-165.929,8.104c-18.327,1.3-60.763,5.722-71.236-27.017
				c-6.218-16.854-7.637-33.268-1.419-68.271c4.582-38.244,4.91-87.187,3.273-112.143c-1.309-26.577-8.182-51.534-7.854-73.573
				c0.129-8.75,0.981-18.474,11.454-29.817c9.818-10.695,18.982-12.64,35.673-15.233c16.691-2.917,40.583-6.157,66.764-5.834
				c26.182,0.324,59.236,2.593,91.964,4.862C298.682,49.586,328.29,51.4,380,42.001c34.667-5.333,99.011-15.426,117.01,5.965
				C505.846,59.634,519.592,75.84,514.355,124.779z"/>
		</g>
	<g id="cytoskeleton">
		<g>
			<path fill="none" stroke="#FFFFFF" stroke-width="2" stroke-miterlimit="10" d="M121.895,78.396
				c-9.878,7.89-15.814,17.639-19.83,29.377c-2.259,6.602-4.119,15.318-6.065,22.016c-1.091,3.755-3.262,7.488-4.559,11.177
				c-1.726,4.91-4.104,8.487-6.759,12.833c-0.681,1.116,0.361,1.35,1.118,0.636c9.909-9.346,14.626-23.333,16.95-36.685
				c3.995-14.926,8.056-28.122,19.449-38.897C122.532,78.537,122.316,78.06,121.895,78.396L121.895,78.396z"/>
		</g>
		<g>
			<path fill="none" stroke="#FFFFFF" stroke-width="2" stroke-miterlimit="10" d="M162.679,51.528
				c-12.418,12.937-30.887,11.813-47.135,15.75c-7.809,1.893-15.394,4.821-22.321,8.9c-3.738,2.201-9.682,5.562-9.745,10.507
				c-0.018,1.39,1.849-0.196,2.079-0.648C95,81,97.5,78.25,106.75,74.25c12.25-4.25,17-5.25,25.667-6.667
				c12.041-2.025,22.239-6.329,30.737-15.61C163.622,51.46,163.158,51.029,162.679,51.528L162.679,51.528z"/>
		</g>
		<g>
			<path fill="none" stroke="#FFFFFF" stroke-width="2" stroke-miterlimit="10" d="M108.593,57.806
				c5.326,0.143,10.772-0.94,16.088-1.297c8.449-0.567,17.215-0.655,25.544,0.96c7.238,1.404,13.91,4.748,21.284,5.478
				c6.767,0.669,14.308,0.189,20.923-1.42c0.228-0.055,0.646-0.728,0.239-0.683c-6.877,0.753-13.584-0.812-20.501-1.343
				c-8.274-0.635-16.017-4.743-24.17-6.251c-6.88-1.272-14.34-1.428-21.314-1.101c-5.563,0.261-11.436,1.103-16.922,2.097
				C108.866,54.408,106.906,57.761,108.593,57.806L108.593,57.806z"/>
		</g>
		<g>
			<path fill="none" stroke="#FFFFFF" stroke-width="2" stroke-miterlimit="10" d="M213.582,62.112
				c5.614,1.147,11.223,1.583,16.739,3.253c6.573,1.991,12.665,5.265,19.084,7.679c11.649,4.379,26.229,7.229,38.551,4.142
				c0.122-0.03,0.369-0.385,0.133-0.379c-7.098,0.15-13.817-1.234-20.932-2.177c-6.396-0.848-12.662-2.978-18.598-5.44
				c-5.74-2.381-11.073-4.605-16.887-6.823c-5.376-2.051-9.999-2.417-15.587-3.479C215.082,58.698,212.481,61.887,213.582,62.112
				L213.582,62.112z"/>
		</g>
		<g>
			<path fill="none" stroke="#FFFFFF" stroke-width="2" stroke-miterlimit="10" d="M197.173,74.414
				c5.557-0.269,10.045-0.195,15.604-0.416c6.289-0.249,12.49,1.263,18.409,3.225c10.068,3.337,20.398,7.475,31.312,6.813
				c0.302-0.019,0.791-0.737,0.337-0.737c-11.503-0.012-21.983-5.876-32.671-9.419c-11.041-3.66-21.535-3.572-33.004-2.625
				c-0.893,0.072-2.288,2.221-0.987,2.159L197.173,74.414z"/>
		</g>
		<g>
			<path fill="none" stroke="#FFFFFF" stroke-width="2" stroke-miterlimit="10" d="M86.197,219.361
				c14.874,0.17,28.111,10.003,41.419,15.695c6.992,2.987,14.084,4.479,21.493,5.973c6.91,1.394,13.938,1.132,21.038,0.711
				c0.329-0.02,0.88-0.801,0.372-0.814c-14.633-0.42-30.465-3.48-43.878-9.412c-12.549-5.551-25.218-14.709-39.504-14.209
				C86.282,217.335,84.937,219.348,86.197,219.361L86.197,219.361z"/>
		</g>
		<g>
			<path fill="none" stroke="#FFFFFF" stroke-width="2" stroke-miterlimit="10" d="M124.869,250.684
				c9.176,0.201,18.859-2.771,27.206-6.216c8.688-3.583,15.646-8.61,23.277-14.085c0.036-0.025,0.083-0.146-0.003-0.117
				c-8.687,3.021-16.324,7.938-24.86,11.451c-8.179,3.365-15.815,5.533-24.692,5.936
				C124.964,247.689,123.614,250.654,124.869,250.684L124.869,250.684z"/>
		</g>
	</g>
	<g id="nucleus">
		<g id="XMLID_1">
			<path fill="none" stroke="#FFFFFF" stroke-width="2" stroke-miterlimit="10" d="M209.06,197.19c0.21,0.17,0.42,0.31,0.63,0.42
				l-0.2,0.37c-0.03-0.03-0.11-0.03-0.24,0.02l-0.25,0.75l-0.04,0.06c-1.19-0.87-3.19-0.68-4.96,0.69
				c-3.14,2.43-5.79,5.25-9.26,7.44c-3.28,2.07-6.85,4.05-10.3,5.75c-4.36,2.16-8.99,3.66-13.68,4.91
				c-3.28,0.869-6.76,0.979-10.01,1.649c-1.34,0.28-2.96,1.06-3.87,2.12l-0.13-0.12l-3.75,0.47c-0.42-1.38-1.76-2.84-3.25-3.47
				c-5.76-2.44-12.07-5.83-16.6-10.29c-2.24-2.21-8.96-12.49-12.8-9.87l-0.1-0.09l-1.25-2.25l-0.09-0.25
				c2.37-0.72,1.36-5.79,0.89-7.55c-0.92-3.56-2.1-7.42-2.3-11.2c-0.42-7.93,0.24-16.22,3.82-23.19c1.49-2.92,4.61-7.2,3.49-10.62
				c-0.52-1.57-1.36-2.24-2.32-2.33l0.01-0.11c0.46-0.5,0.85-1.29,1-2l0.16-0.16c0.51,0.67,1.41,1.11,2.85,1.17
				c3.28,0.15,6.29-4.89,8.5-7.21c6.24-6.55,12.79-8.44,18.49-10.3c3.37-1.1,8.36-1.12,11.51-2.81c2.14-1.16,2.95-2.79,2.52-4.19
				l2.97,0.25l0.35,0.13c-0.31,0.81-0.27,1.72,0.36,2.65c1.84,2.74,7.74,1.67,10.53,2.23c2.01,0.4,7.02,1.7,7.72-1.52l0.04,0.01
				l5.25,1.5l0.24,0.17c-0.09,0.18-0.17,0.37-0.24,0.58c-1.54,4.6,5.28,7.21,7.83,9.99c3.76,4.1,6.95,8.63,9.11,13.78
				c4.17,9.9,4.9,21.32,2.3,31.72C212.87,180.93,205.5,194.25,209.06,197.19z"/>
			<path fill="none" stroke="#FFFFFF" stroke-width="2" stroke-miterlimit="10" d="M222.49,158.01c0.84,8.23-0.22,15.68-2.18,23.49
				c-0.73,2.87-5.63,18.63-10.62,16.11c-0.21-0.11-0.42-0.25-0.63-0.42c-3.56-2.94,3.81-16.26,4.93-20.7
				c2.6-10.4,1.87-21.82-2.3-31.72c-2.16-5.15-5.35-9.68-9.11-13.78c-2.55-2.78-9.37-5.39-7.83-9.99c0.07-0.21,0.15-0.4,0.24-0.58
				c1.69-3.33,6.69-1.1,9.08,0.77c4.63,3.63,9.88,9.87,12.87,14.87C220.9,142.65,221.74,150.53,222.49,158.01z"/>
			<path fill="none" stroke="#FFFFFF" stroke-width="2" stroke-miterlimit="10" d="M209,198.75l0.25-0.75
				c0.13-0.05,0.21-0.05,0.24-0.02C209.6,198.06,209.18,198.52,209,198.75z"/>
			<path fill="none" stroke="#FFFFFF" stroke-width="2" stroke-miterlimit="10" d="M204,199.5c1.77-1.37,3.77-1.56,4.96-0.69
				c0.92,0.65,1.36,1.93,0.85,3.75c-0.92,3.27-4.58,5.67-7.3,7.68c-7.51,5.51-10.7,8.318-19.01,11.76c-5.81,2.41-9.25,3.5-17,4
				c-2.36,0.15-7.64,0.79-9.48-1.12c-1.22-1.28-0.99-2.51-0.14-3.51c0.91-1.062,2.53-1.841,3.87-2.12
				c3.25-0.67,6.73-0.779,10.01-1.65c4.69-1.25,9.32-2.75,13.68-4.908c3.45-1.697,7.02-3.682,10.3-5.75
				C198.21,204.75,200.86,201.93,204,199.5z"/>
			<path fill="none" stroke="#FFFFFF" stroke-width="2" stroke-miterlimit="10" d="M189.5,118.75c1.95,0.12,3.52,0.75,5.25,1.5
				L189.5,118.75z"/>
			<path fill="none" stroke="#FFFFFF" stroke-width="2" stroke-miterlimit="10" d="M189.25,116c0.31,1.15,0.36,2.05,0.21,2.74
				c-0.7,3.22-5.71,1.92-7.72,1.52c-2.79-0.56-8.69,0.51-10.53-2.23c-0.63-0.93-0.67-1.84-0.36-2.65c0.42-1.14,1.54-2.07,2.66-2.59
				C175.75,111.75,188.5,113.25,189.25,116z"/>
			<path fill="none" stroke="#FFFFFF" stroke-width="2" stroke-miterlimit="10" d="M170.5,115.25l-2.97-0.25
				C168.56,115,169.74,114.92,170.5,115.25z"/>
			<path fill="none" stroke="#FFFFFF" stroke-width="2" stroke-miterlimit="10" d="M167.53,115c0.43,1.4-0.38,3.03-2.52,4.19
				c-3.15,1.69-8.14,1.71-11.51,2.81c-5.7,1.86-12.25,3.75-18.49,10.3c-2.21,2.32-5.22,7.36-8.5,7.21c-1.44-0.06-2.34-0.5-2.85-1.17
				c-1.62-2.12,0.67-6.53,1.99-8.31c4.21-5.7,9.92-10.06,16.29-13.09c5.91-2.82,15.63-6.06,22.3-4.43
				C166.08,112.96,167.19,113.9,167.53,115z"/>
			<path fill="none" stroke="#FFFFFF" stroke-width="2" stroke-miterlimit="10" d="M153.01,221.75c0.45,1.54-0.26,2.96-3.26,3
				c-3.49,0.04-8.02-2.02-11.06-3.689c-6.94-3.811-11.66-7.67-15.88-12.816c-1.62-1.97-5.48-7.23-2.88-9.81
				c0.13-0.13,0.27-0.25,0.42-0.34c3.84-2.62,10.56,7.66,12.8,9.87c4.53,4.46,10.84,7.853,16.6,10.29
				c1.49,0.63,2.83,2.09,3.25,3.473l3.75-0.473C155.86,221.939,154.32,221.77,153.01,221.75z"/>
			<path fill="none" stroke="#FFFFFF" stroke-width="2" stroke-miterlimit="10" d="M124.81,142.94c1.12,3.42-2,7.7-3.49,10.62
				c-3.58,6.97-4.24,15.26-3.82,23.19c0.2,3.78,1.38,7.64,2.3,11.2c0.47,1.76,1.48,6.83-0.89,7.55c-0.53,0.17-1.24,0.11-2.16-0.25
				c-4.49-1.77-5.98-11.01-6.56-14.94c-1.91-13.01-0.06-25.34,7.24-36.37c1.15-1.74,3.29-3.51,5.06-3.33
				C123.45,140.7,124.29,141.37,124.81,142.94z"/>
			<path fill="none" stroke="#FFFFFF" stroke-width="2" stroke-miterlimit="10" d="M122.5,140.5l1-2
				C123.35,139.21,122.96,140,122.5,140.5z"/>
			<path fill="none" stroke="#FFFFFF" stroke-width="2" stroke-miterlimit="10" d="M119,195.75l1.25,2.25
				C119.6,197.37,119.03,196.08,119,195.75z"/>
		</g>
	</g>
	<g id="endoplasmic_reticulum">
		<g>
			<path fill="none" stroke="#FFFFFF" stroke-width="2" stroke-miterlimit="10" d="M199.5,118.917
				c-3.688-1.542,1.16-4.784,3.5-4.667c2.959,0.147,5.322,1.799,7.5,3.75c4.039,3.619,7.235,9.307,9.688,14.013
				c2.081,3.994,5.903,19.149,11.813,17.737c7.771-1.856,2.847-15.556,0.438-19.757c-1.89-3.296-3.738-6.812-6.188-9.743
				c-2.356-2.82-6.917-6.951-9.5-9.5c-5.734-5.659-9.008-7.46-15.75-11.5c-3.07-1.84-6.846-3.376-10.014-4.999
				c-1.406-0.721-4.087-1.401-3.041-3.312c0.915-1.67,3.57-0.746,4.999-0.384c7.035,1.781,13.144,5.028,19.5,9.25
				c13.214,8.777,22.565,21.912,27.306,36.444c1.189,3.645,2.029,8.13,2.986,11.751c0.84,3.175,1.028,8.251,5.52,8.255
				c3.755,0.003,5.676-4.709,6.487-7.763c1.052-3.962,0.019-7.752-1.235-11.5c-5-14.939-12.441-26.423-23.757-37.743
				c-5.712-5.714-12.891-11.325-20-14.75c-6.513-3.138-11.835-5.181-18.75-7.25c-14.67-4.39-35.75-4.75-48.188-0.438
				c-2.851,0.988-7.558,3.049-4.5,6.89c2.403,3.018,7.765,1.561,10.938,1.243c3.133-0.314,22.538-0.633,21.212,4.012
				c0.536,2.544-25.714,2.794-42.02,7.989c-3.414,1.088-7.397,1.921-7.694,6.055c-0.365,5.074,3.765,6.26,8,6
				c7.637-0.468,15.034-3.573,22.556-4.694c7.697-1.147,15.713-2.963,23.5-1.361c4.556,0.937,19.28,3.245,12.944,11.306
				c0,0,2.25,1.438,1.813,4.563c1.063,0.125,4.5,0.938,5.438,1.563C196.188,117.813,199.5,118.917,199.5,118.917z"/>
			<path fill="none" stroke="#FFFFFF" stroke-width="2" stroke-miterlimit="10" d="M194.688,120.188
				c-0.25-3.75-0.415-5.361,1.563-7.938c2.281-2.971,7.344-1.94,10-0.5c7.439,4.036,10.417,8.583,13.417,13.25
				c1.95,3.032,4.167,7,7,12.333c0.574,1.08,2.153,4.809,3.583,5.417c2.396,1.017,1.462-3.272,1.243-4.749
				c-1.063-7.183-7.324-13.853-11.993-19.501c-4.757-5.754-10.264-9.694-16.25-14c-3.127-2.25-6.671-3.658-10-5.499
				c-3.147-1.741-7.056-2.504-9.5-5.495c-3.224-3.946,0.652-6.944,4.501-6.757c3.706,0.181,7.796,1.093,11.236,2.258
				c13.263,4.493,26.382,14.205,34.325,26.438c4.138,6.374,6.962,13.444,9.5,20.554c1.225,3.431,2.517,6.723,3.493,10.195
				c0.356,1.266,0.567,4.554,2.45,4.312c1.526-0.197,2.343-3.344,2.243-4.507c-0.749-8.749-3.732-14.707-7.249-21.499
				c-1.86-3.592-4.14-8.172-6.688-11.256c-2.527-3.06-4.569-6.659-7.375-9.431c-4.981-4.922-11.004-10.634-17-14.25
				c-6.44-3.885-14.32-6.118-21.438-8.313c-16.237-5.007-42.75-5.75-47.474-1.687C140.75,84,155.667,81.333,161,81.667
				c8.707,0.543,11.917,0.722,15.438,5.146c6.239,7.839-11.213,7.396-15.438,7.938c-9.75,1.25-15.889,2.338-23.749,4.007
				c-1.797,0.381-9.697,1.243-10.319,3.425c-1.027,3.606,9.213,0.806,10.818,0.568c7.999-1.184,11.5-2,22.75-3.25
				c7.848-0.872,17.11-0.64,24.244,1.993c7.138,2.634,11.213,10.758,5.006,16.757l0.25,0.5l1.938,0.563l1.813,0.625L194.688,120.188
				z"/>
		</g>
		<g>
			<path fill="none" stroke="#FFFFFF" stroke-width="2" stroke-miterlimit="10" d="M209.25,204.25
				c3.936,0.565-0.634,6.37-1.812,7.934c-2.238,2.971-5.007,4.965-8.25,6.762c-5.938,3.289-11.688,7.059-17.626,11.867
				c-2.508,2.031-4.971,6.646-1.874,9.5c2.76,2.543,7.321-0.34,10.076-1.562c6.705-2.972,12.563-8.006,19.249-11.438
				c5.441-2.793,2.251,3.388,0.175,5.627c-2.556,2.764-5.465,5.104-8.438,7.312c-5.795,4.311-13.953,7.376-19.5,11.75
				c-2.768,2.184-3.943,5.131,0,7.25c3.396,1.825,9.511,0.955,12.75-0.25c6.98-2.6,12.583-6.197,18.5-11.25
				c5.926-5.062,12.34-11.9,17.5-17.75c3.75-4.25,5.419-5.775,7.438-9.244c2.247-3.857,4.317-7.711,6.062-11.756
				c1.674-3.881,2.827-7.958,3.5-12.25c0.667-4.25-0.419-8.09-4.25-9.75c-5.362-2.323-6.45,4.813-7.493,8.007
				c-1.264,3.871-2.486,7.728-4.702,11.304c-1.39,2.244-3.205,7.682-6.361,7.882c-5.339,0.341-0.103-7.881,1.124-9.888
				c4.169-6.819,7.572-15.034,9.925-22.55c1.197-3.822,1.617-8.083,1.255-12.255c-0.392-4.52-3.999-7.001-6.749-4.001
				c-2.546,2.778-3.774,8.84-4.493,12.244c-0.801,3.791-1.71,7.954-3.188,11.507c-0.706,1.697-5.848,12.463-7.819,6.499
				c0,0-1.042,1-1.292,1.292c-0.542,0.417-1.833,1.083-3.292,0.625c-0.417,0.458-0.75,1.042-0.75,1.042
				c0.542,0.458,1.416,1.5,1.083,2.917C209.708,202.75,209.25,204.25,209.25,204.25z"/>
			<path fill="none" stroke="#FFFFFF" stroke-width="2" stroke-miterlimit="10" d="M212,198c1.188,2.147,4.536,3.482,7,2
				c2.184-1.313,4.802-5.916,5.75-8.25c3.25-8,3.155-10.738,4.736-16.764c0.239-0.91,0.964-4.185,1.827-4.729
				c1.813-1.141,1.939,2.195,1.937,3.742c-0.005,3.802-1.361,7.778-2.938,11.312c-3.148,7.056-6.737,13.849-9.813,20.938
				c-1.513,3.488-3.789,10.558-1.25,12.25c3,2,5.831,0.422,8.188-1.813c5.254-4.979,8.038-11.72,10.312-18.188
				c0.448-1.272,1.474-7.11,3.5-5.75c1.298,0.872,0.083,3.75-0.694,6.056c-1.216,3.606-2.582,6.898-4,10.444
				c-2.658,6.646-7.063,13.801-11.868,19.244c-4.972,5.631-10.236,12.242-16.425,16.562c-6.158,4.297-10.763,7.94-19.763,10.607
				c-4,0.75-4.275-0.762-2.5-2.5c1.775-1.741,5.768-4.049,6.694-4.732c3.119-2.312,6.542-4.152,9.807-6.185
				c5.209-3.236,14.095-10.915,13.749-17.75c-0.489-9.681-12.004,2.866-15.557,4.931c-2.847,1.653-15.556,10.443-18.193,7.069
				c0.25-2,3.681-4.99,6.507-6.938c5.985-4.123,10.805-6.854,16.743-11.062c2.625-1.861,7.185-5.498,8.499-8.5
				c1.231-2.813-0.793-7.349-3.999-8.25c0,0-0.208-2.291-1.292-2.958c0.333-0.75,0.667-1.208,0.667-1.208
				C210.042,197.917,212,198,212,198z"/>
		</g>
	</g>
	<g id="golgi">
		<path fill="none" stroke="#FFFFFF" stroke-width="2" stroke-miterlimit="10" d="M349.916,118.258
			c8.991-6.104-0.463-18.268-8.916-14.591C331.372,107.854,341.105,124.24,349.916,118.258z"/>
		<path fill="none" stroke="#FFFFFF" stroke-width="2" stroke-miterlimit="10" d="M326.75,84.917
			c2.215,2.37,2.784-1.067,5.251-1.583c2.64-0.55,5.871,1.753,6.915,4.073c0.984,2.188,0.443,5.518-0.249,7.592
			c-1.11,3.323-2.394,3.264-5.258,4.75c-7.815,4.055-5.979,22.279-1.824,28.657c3.13,4.802,8.306,3.984,12,7.676
			c3.44,3.438,3.663,10.177-1.251,12.177c-2.246,0.914-4.281-0.322-6.618,0.125c-1.247,3.942,1.228,9.861,2.628,13.624
			c0.553,1.483,1.415,4.594,3.324,5.008c2.417,0.524,3.779-2.695,6.332-2.689c4.945,0.011,6.92,5.374,6.667,9.34
			c-0.351,5.47-4.457,8.016-9.95,7.717c-0.183,3.618,3.617,13.616-5.049,11.949c-3.33-0.641-5.49-6.908-6.668-9.999
			c-2.666-7-3.364-11.515-4.646-16.684c-1.207-4.859-2.973-9.782-3.686-14.65c-1.555-10.612-4.001-18.666-6.001-31.666
			C317.329,111.64,316.02,105.453,315,99c-1-6.333-1.411-11.421-1.301-16.456c0.094-4.338,4.045-12.815,9.395-8.081
			C326.035,77.067,324.117,82.1,326.75,84.917z"/>
		<path fill="none" stroke="#FFFFFF" stroke-width="2" stroke-miterlimit="10" d="M297.76,76.085
			c5.172-3.387,8.094,2.512,9.833,6.323c4.063,8.901,4.524,19.389,6.082,28.918c1.683,10.293,3.825,20.331,6.345,30.34
			c2.453,9.75,3.198,20.198,5.309,30.001c1.428,6.64,9.378,26.019,0.434,30.083c-6.424,2.917-9.344-4.244-10.494-8.009
			C313.88,189.233,314.23,182.8,314,178c-1.031-21.366-4.666-38.333-10-63c-1.741-8.052-3.867-14.646-6.577-22.417
			C295.855,88.087,292.561,79.489,297.76,76.085z"/>
		<path fill="none" stroke="#FFFFFF" stroke-width="2" stroke-miterlimit="10" d="M278.667,97.667c0,0-8.667-11,1-15.333
			c4.667-1.333,10.667,2.333,16.667,18.333c4.666,14.333,21.334,65,11,101C304,206,300.668,208,296.334,205
			c-2.667-2.667-2.667-11,3-27c4.666-19-1.667-45-12.667-66.333C283,105.333,281,102,278.667,97.667z"/>
		<path fill="none" stroke="#FFFFFF" stroke-width="2" stroke-miterlimit="10" d="M271,117.667c0,0,14.333,21.333,13,43.333
			c0,16.667-8.667,25.333,2.667,29c4.333,0.333,12.334-3,10.667-26.667c-1.667-24-7.667-46-19-57.333c-4.333-4.333-9.333-6-12-1
			C265,107.333,266.333,109.666,271,117.667z"/>
		<path fill="none" stroke="#FFFFFF" stroke-width="2" stroke-miterlimit="10" d="M346.99,115.268
			c4.842-2.66,1.22-9.445-3.641-7.934C337.577,109.13,341.926,118.051,346.99,115.268z"/>
		<path fill="none" stroke="#FFFFFF" stroke-width="2" stroke-miterlimit="10" d="M319.334,84.667
			c0.24-3.812,1.372-4.032,2.648-0.649c0.677,1.794,0.463,5.512,1.75,6.917c2.301,2.512,3.394,0.015,5.342-1.193
			c6.033-3.744,7.193,3.062,3.009,6.342c-3.935,3.083-5.751,5.18-6.748,10.251c-1,5.093,0.054,10.864,0.981,15.666
			c0.803,4.15,2.082,11.044,6.271,13.1c1.979,0.97,13.951,3.343,9.324,8.833c-3.135,3.719-11.104-5.477-9.998,3.474
			c0.604,4.871,2.702,10.495,4.072,15.269c1.342,4.673,2.266,10.29,7.666,7.575c2.512-1.262,4.757-2.96,6.604,0.416
			c1.414,2.587,0.403,5.393-1.925,6.342c-2.216,0.903-5.534-0.73-7.091,1.641c-1.508,2.29,1.007,5.858,0.089,8.351
			c-2.004,5.441-5.526-5.891-6.259-8.333c-1.329-4.454-1.992-8.908-3.48-13.334c-3.242-9.654-5.1-19.979-6.593-30
			C322.527,118.731,318.27,101.571,319.334,84.667z"/>
		<path fill="none" stroke="#FFFFFF" stroke-width="2" stroke-miterlimit="10" d="M301.334,91c-0.514-0.831-2.061-6.238-1.35-7.35
			c2.043-3.198,3.832,1.121,4.272,2.757c1.302,4.793,2.787,9.533,3.729,14.268c1.947,9.782,4.191,19.112,5.656,28.991
			c1.562,10.526,3.688,18.667,6.342,31.351c2.037,9.733,5.141,21.074,5.679,31.316c0.333,6.333-6.562,7.24-7.593,0.667
			c-0.854-5.456,0.072-11.267-0.727-16.667c-1.586-10.732-1.916-21.93-4.009-32.334c-1.685-8.372-3.688-16.306-5.603-24.407
			c-0.943-4.001-1.315-8.372-2.488-12.251c-1.143-3.776-1.918-5.675-2.918-12.008L301.334,91z"/>
		<path fill="none" stroke="#FFFFFF" stroke-width="2" stroke-miterlimit="10" d="M283.667,98c0,0-2.134-3.133-2.333-5.333
			c-0.305-3.361,1.895-5.455,7.333,2c3.667,5,14.667,31.667,19,69.667c1,12.667,0.667,28.333-4.333,35c-1.667,2-7.001,4-4.334-7.333
			c3.334-13,8.667-38-0.333-60.667C294.334,119.667,288.667,106.333,283.667,98z"/>
		<path fill="none" stroke="#FFFFFF" stroke-width="2" stroke-miterlimit="10" d="M275,116c0,0-6.667-9-1-8
			c2.667,0.333,8.666,8.333,12,17c3,9,10.668,34,7.334,52.667c-0.667,4.333-7,13-7,1.667c0-10.667,7.332-15.667-2.334-43
			C279.667,125.333,279,123,275,116z"/>
	</g>
	<g id="peroxisome">
		<circle fill="none" stroke="#FFFFFF" stroke-width="2" stroke-miterlimit="10" cx="95.667" cy="253.333" r="9"/>
		<ellipse fill="none" stroke="#FFFFFF" stroke-width="2" stroke-miterlimit="10" cx="198.833" cy="294.666" rx="8.167" ry="8"/>
		<circle fill="none" stroke="#FFFFFF" stroke-width="2" stroke-miterlimit="10" cx="109.667" cy="355.334" r="6.333"/>
		
			<ellipse fill="none" stroke="#FFFFFF" stroke-width="2" stroke-miterlimit="10" cx="478.667" cy="322.501" rx="9.666" ry="10.166"/>
		<circle fill="none" stroke="#FFFFFF" stroke-width="2" stroke-miterlimit="10" cx="389.333" cy="68.667" r="9"/>
	</g>
	<g id="mitochondrion">
		<g>
			<g>
				<path fill="none" stroke="#FFFFFF" stroke-width="2" stroke-miterlimit="10" d="M109.25,276.75c0,0,11-11.25,25.75-16.5
					c7.25-1.5,15-2,14.75,11.25c-0.5,9-6.5,26.5-24,42c-8.25,7.25-25.333,18.083-32.583,7.333C89.667,316.333,90.25,305.5,96,294
					C99.75,286.5,104.25,281.75,109.25,276.75z"/>
			</g>
			<path fill="none" stroke="#FFFFFF" stroke-width="2" stroke-miterlimit="10" d="M151,318.333c0,0-3-15.166,13.667-18.333
				c7.167-0.167,21.5,1.832,28,22.666c3.333,11.834-0.5,28.834-17.5,26.167C168.667,347.166,152.333,336.833,151,318.333z"/>
			<path fill="none" stroke="#FFFFFF" stroke-width="2" stroke-miterlimit="10" d="M426.25,70.75c0,0-6.75-10,2-18.25
				c2.75-2.75,14-6.25,28.75-0.25S489,69.5,494.75,82c3.25,5.5,4.75,19.5-10,21.75c-7.5,1-23,2.5-44-15
				C434.75,84,430,77.75,426.25,70.75z"/>
		</g>
		<g>
			<path fill="none" stroke="#FFFFFF" stroke-width="2" stroke-miterlimit="10" d="M139.859,269.857
				c-0.519,1.802,3.558,3.017,4.438,4.643c0.985,1.82,0.958,5.234-0.297,6.999c-2.312,3.251-9.363-2.897-12.203-4.296
				c-0.872-0.43-2.129-1.128-3.108-1.174c0.438,1.287,3.889,2.642,5.125,3.471c1.792,1.202,4.341,2.221,5.875,3.688
				c1.92,1.838,1.678,4.104,0.692,6.313c-1.258,2.821-2.972,3.604-5.583,2.041c-3.637-2.177-7.683-6.992-12-7.504
				c-3.13-0.371,1.787,2.405,2.87,2.963c2.243,1.153,3.528,2.056,5.634,3.541c1.996,1.408,4.428,3.136,4.042,5.959
				c-0.298,2.172-2.417,4.832-4.301,5.875c-4.717,2.608-8.815-3.203-12.245-5.663c-1.121-0.804-4.825-3.912-5.979-2.712
				c0.89,1.789,4.654,3.376,6.341,4.541c2.097,1.449,4.336,2.69,6.346,4.251c5.718,4.438-2.417,9.377-7.171,7.504
				c-4.326-1.704-8.597-8.9-13.475-8.271c-0.286,1.392,4.647,3.679,5.798,4.516c1.929,1.404,3.903,2.771,5.797,4.171
				c2.264,1.669,1.991,3.588-0.247,5.162c-2.391,1.682-4.418,1.229-6.586-0.496c-2.035-1.619-5.105-4.479-7.764-4.683
				c-0.052,0.253-0.046,0.525,0.004,0.775c2.376,1.184,11.409,5.312,7.466,8.654c-3.84,3.257-10.428,0.854-12.954-2.996
				c-1.46-2.227-1.074-4.398,1.968-3.175c2.045,0.823,3.753,2.546,5.798,3.357c0.007-1.335-4.431-3.34-5.641-4.146
				c-2.262-1.514-3.849-2.673-3.625-5.604c0.501-6.553,8.705-0.165,11.287,1.312c1.374,0.786,2.888,1.651,4.455,1.925
				c-2.014-1.375-4.363-2.354-6.413-3.845c-1.759-1.275-4.338-1.964-5.579-3.742c-1.174-1.685-0.987-5.582,0.25-7.171
				c1.67-2.145,3.517-1.697,5.792-0.708c2.371,1.03,4.736,2.616,6.7,4.292c1.536,1.311,4.816,4.548,6.945,4.184
				c-0.271-1.234-3.645-3.47-4.812-4.476c-1.811-1.562-4.195-2.83-6.204-4.13c-2.108-1.365-4.931-1.463-4.467-4.703
				c0.352-2.458,2.264-4.4,4.633-5.036c8.014-2.149,14.537,8.411,21.187,10.515c-1.032-1.726-3.924-3.418-5.604-4.687
				c-2.003-1.513-4.281-2.808-6.416-4.08c-1.63-0.974-4.15-2.235-4.758-4.25c-0.73-2.418,1.883-5.005,3.787-5.962
				c2.991-1.503,6.321,1.561,8.837,3.042c2.494,1.469,6.431,4.839,9.317,4.929c-0.654-1.738-3.278-2.846-4.812-3.805
				c-2.866-1.792-5.621-3.616-7.5-5.333c-2.251-2.058,0.197-3.962,2.671-5.671c2.372-1.639,4.547-1.012,6.833,0.463
				c2.56,1.648,5.16,4.27,8.313,4.516c-0.875-2.197-10.915-7.133-6.992-9.641c3.862-2.469,12.156-3.545,13.717,1.338
				c0.771,2.412,0.896,4.287-0.292,5.287C144.531,273.15,139.979,269.441,139.859,269.857z"/>
			<path fill="none" stroke="#FFFFFF" stroke-width="2" stroke-miterlimit="10" d="M436.688,56.688
				c-0.895,2.516-3.152,4.724-3.195,7.474c2.938-2.936,8.881-16.886,14.82-9.725c2.235,2.695-0.789,6.582-1.998,9.319
				c-0.905,2.054-4.829,7.829-4.062,9.993c0.062,0.17,0.022,0.533,0.048,0.724c4.863-3.97,4.599-14.687,11.438-16.738
				c4.815-1.445,7.358,1.77,5.771,6.021c-1.217,3.249-3.328,6.001-5.006,8.994c-1.562,2.786-2.879,5.894-3.471,8.967
				c1.942-0.836,3.554-6.471,4.653-8.53c1.617-3.015,3.007-6.712,5.504-9.194c2.426-2.409,6.974-2.543,9.122,0.5
				c2.235,3.164-0.938,7.255-2.5,10c-1.185,2.081-2.058,4.365-3.125,6.506c-0.978,1.954-3.271,4.54-3.139,6.724
				c2.302-1.968,4.216-6.031,5.764-8.711c1.589-2.748,2.854-7.049,5.25-9.201C475.574,67.108,479.775,69.3,480,73
				c0.214,3.535-2.558,7.361-4,10.5c-1.499,3.262-4.75,9-4,9.75c1,0.75,2.515-5.45,4.182-8.306c1.52-2.596,3.479-7.194,6.006-8.964
				c3.562-2.494,6.348,2.246,6.312,5.519c-0.032,3.287-2.492,6.752-3.513,9.988c-0.312,0.989-0.577,2.236-0.688,3.188
				c1.278-2.247,1.939-5.186,4.015-6.863c3.258-2.638,4.104,1.353,3.384,4.133c-1.562,6.023-8.195,7.27-13.658,7.018
				c-1.933-4.684,6.666-10.404,6.413-15.443c-3.876,4.332-5.473,14.465-12.188,15.743c-3.47,0.661-8.763-1.059-7.512-5.263
				c0.987-3.319,4.271-6.841,5.938-9.999c1.446-2.748,2.982-5.533,3.526-8.457c-2.205,0.106-4.934,6.762-6.028,8.693
				c-1.606,2.827-2.662,6.844-4.75,9.214c-2.591,2.937-7.138,2.169-8.938-1.188c-1.9-3.538,0.921-6.795,2.682-9.832
				c1.499-2.584,2.828-5.319,4.384-7.875c1.224-2.014,3.402-4.131,3.394-6.524c-2.833,0.886-4.516,5.887-5.761,8.413
				c-1.579,3.203-3.121,6.322-4.882,9.368c-0.913,1.578-1.562,3.28-3.313,3.688c-1.893,0.44-4.095-0.671-5.062-2.188
				c-2.268-3.548,0.735-8.128,2.513-11.313c1.906-3.422,4.93-7.033,4.25-11.224c-1.239,1.172-1.526,3.437-2.396,4.973
				c-0.8,1.414-1.671,2.703-2.489,4.063c-1.368,2.264-2.69,8.155-5.619,8.881c-3.301,0.818-6.655-5.185-6.442-7.943
				c0.268-3.427,3.622-7.384,5.188-10.513c0.788-1.577,1.629-3.402,1.513-5.211c-2.57,2.582-5.843,16.699-11.505,13.042
				c-2.835-1.832-3.104-6.77-2.945-9.816c0.16-3.081,1.816-5.69,4.477-7.305C434.654,53.621,437.986,53.037,436.688,56.688z"/>
			<path fill="none" stroke="#FFFFFF" stroke-width="2" stroke-miterlimit="10" d="M188.638,335.025
				c0.646,2.614-0.147,4.424-2.259,6.35c-1.848,1.686-4.816,2.85-7.208,2.962c-2.152,0.104-5.528-0.363-6.963-2.212
				c-1.878-2.421,1.938-4.291,3.787-5.5c2.572-1.682,6.333-3.87,7.488-6.925c-2.014,0.093-4.931,3.322-6.655,4.425
				c-2.082,1.331-4.236,2.745-6.496,3.662c-2.558,1.037-4.815,0.281-6.878-1.58c-0.798-0.72-1.978-1.924-2.125-3.041
				c-0.194-1.472,0.901-2.18,1.878-3.124c2.05-1.979,4.364-3.645,6.667-5.338c1.699-1.251,6.125-4.538,6.433-5.846
				c-1.913-0.146-4.921,3.256-6.469,4.349c-2.119,1.495-4.391,2.86-6.542,4.256c-1.922,1.247-4.151,2.63-5.842,0.407
				c-1.499-1.971-1.123-4.406,0.338-6.245c3.449-4.343,9.302-6.009,12.515-10.583c-1.204-0.598-4.542,2.647-5.682,3.421
				c-2.115,1.438-2.959,2.37-5.959,4.37c-0.827,0.552-2.279,1.907-3.378,1.378c-0.949-0.456-0.958-2.501-0.792-3.382
				c0.412-2.19,1.028-4.715,2.171-6.663c1.01-1.723,2.471-3.405,4.167-4.5c1.569-1.014,3.165-1.857,5.102-1.96
				c1.589-0.084,3.076,0.622,1.698,2.248c-1.097,1.294-4.45,2.194-4.437,4.188c4.344-1.252,8.806-7.131,13.641-3.02
				c4.286,3.645-6.056,8.344-8.216,10c-1.194,0.915-3.036,2.078-3.434,3.512c1.644,0.018,4.814-3.534,6.275-4.513
				c2.128-1.424,4.212-3.577,6.574-4.421c4.754-1.699,9.414,4.929,6.251,8.93c-1.666,2.106-4.414,3.78-6.617,5.242
				c-1.881,1.248-5.648,3.301-6.483,5.433c2.266-0.231,5.095-3.442,7.015-4.767c2.074-1.426,4.204-3.272,6.63-3.995
				c2.927-0.871,3.825,2.17,4.157,4.463c0.427,2.941-0.91,4.467-3.032,6.45c-1.343,1.254-4.795,3.067-5.104,4.845
				C183.601,338.254,185.56,334.667,188.638,335.025z"/>
		</g>
		<g>
			<path fill="none" stroke="#FFFFFF" stroke-width="2" stroke-miterlimit="10" d="M488.766,79.663
				c-0.339-1.391-1.022-2.749-1.915-3.646c-0.444-0.453-0.937-0.766-1.44-0.968c-2.044-2.458-4.127-4.448-5.656-5.549
				c-11.777-9.422-23.204-14.19-31.787-16.155c-1.006-0.942-2.075-0.427-3.189-0.427c-0.705,0-1.395-0.81-2.062-0.484
				c-1.9-0.214-3.582-0.272-4.96-0.184c-7.229,0.92-9.479,4.81-9.991,8.292c-0.13,0.548-0.228,1.106-0.258,1.683
				c-0.154,2.967,0.053,8.246,3.173,10.262c0.074,0.048,0.149,0.083,0.228,0.126c1.53,2.515,3.575,5.05,6.103,8.136
				c6.208,6.518,12.703,10.914,18.883,13.835c0.705,0.517,1.513,0.876,2.369,1.052c2.451,1.028,4.837,1.831,7.12,2.448
				c-1.69-1.549,7.136,1.814,6.368,1.814c0.562,0,0.104-0.049,0.616-0.146c0.233-0.045,0.467-0.103,0.688-0.168
				c5.948,0.715,10.543,0.228,12.701-0.335C495.438,95.56,493.299,86.862,488.766,79.663z M465.621,96.892
				c-0.573-0.769-0.705-1.694-0.391-2.75c0.582-1.957,2.026-4.041,3.432-6.056c0.93-1.338,1.809-2.602,2.469-3.852l0.253-0.479
				c1.377-2.601,2.8-5.291,3.326-8.119l0.116-0.621l-0.632,0.03c-1.893,0.091-3.726,3.495-5.589,7.277
				c-0.344,0.688-0.634,1.277-0.854,1.668c-0.624,1.097-1.172,2.383-1.703,3.626c-0.854,2.012-1.745,4.093-2.985,5.504
				c-0.938,1.066-2.223,1.653-3.606,1.653c-1.874,0-3.604-1.053-4.514-2.748c-1.466-2.721,0.182-5.338,1.771-7.869
				c0.312-0.498,0.62-0.989,0.902-1.475c0.663-1.143,1.292-2.314,1.923-3.487c0.781-1.455,1.59-2.959,2.452-4.379
				c0.314-0.525,0.705-1.057,1.109-1.62c1.161-1.6,2.362-3.255,2.354-5.167l-0.004-0.677l-0.646,0.202
				c-2.532,0.792-4.151,4.438-5.34,7.1c-0.257,0.578-0.496,1.114-0.72,1.569c-1.521,3.076-3.085,6.257-4.866,9.339
				c-0.145,0.249-0.281,0.5-0.418,0.75c-0.705,1.292-1.312,2.407-2.575,2.701c-1.549,0.358-3.629-0.561-4.523-1.97
				c-1.909-2.992,0.282-6.852,2.05-9.954l0.478-0.846c0.374-0.671,0.791-1.349,1.215-2.038c1.723-2.795,3.668-5.963,3.096-9.509
				l-0.15-0.932l-0.687,0.649c-0.853,0.803-1.276,2.007-1.689,3.172c-0.249,0.701-0.483,1.363-0.798,1.918
				c-0.485,0.86-1.01,1.691-1.52,2.495c-0.322,0.516-0.647,1.031-0.969,1.556c-0.419,0.693-0.827,1.694-1.26,2.753
				c-0.99,2.427-2.223,5.447-4.052,5.901c-1.214,0.301-2.485-0.657-3.229-1.458c-1.688-1.823-2.706-4.555-2.598-5.962
				c0.172-2.223,1.735-4.712,3.249-7.119c0.711-1.131,1.382-2.2,1.887-3.208c0.858-1.719,1.688-3.557,1.564-5.467l-0.071-1.106
				l-0.782,0.786c-0.842,0.846-1.688,2.704-2.678,4.856c-1.763,3.849-3.956,8.64-6.635,8.64c-0.515,0-1.023-0.17-1.566-0.521
				c-2.798-1.808-2.832-7.155-2.718-9.371c0.146-2.884,1.653-5.335,4.229-6.903c1.479-0.896,3.21-1.216,3.608-0.653
				c0.221,0.313,0.177,0.953-0.124,1.8c-0.323,0.909-0.832,1.773-1.371,2.688c-0.896,1.527-1.829,3.106-1.854,4.946l-0.021,1.232
				l0.873-0.87c0.729-0.725,1.591-2.035,2.593-3.551c2.242-3.396,5.313-8.048,8.335-8.048c1.102,0,2.13,0.602,3.157,1.84
				c1.562,1.88,0.128,4.569-1.136,6.941c-0.352,0.655-0.68,1.274-0.938,1.856c-0.226,0.511-0.653,1.282-1.153,2.176
				c-1.95,3.485-3.52,6.506-2.923,8.176c0.014,0.048,0.014,0.197,0.014,0.286c0.001,0.13,0.003,0.255,0.015,0.347l0.118,0.888
				l0.694-0.566c2.17-1.771,3.356-4.809,4.512-7.746c1.502-3.831,3.054-7.791,6.752-8.9c2.244-0.674,4.095-0.29,5.003,1.018
				c0.736,1.062,0.793,2.647,0.156,4.349c-0.803,2.142-2.035,4.116-3.229,6.025c-0.587,0.94-1.19,1.913-1.748,2.899
				c-1.786,3.188-2.974,6.256-3.521,9.117l-0.178,0.926l0.862-0.372c1.567-0.673,2.771-3.659,3.832-6.293
				c0.395-0.969,0.762-1.883,1.068-2.46c0.405-0.755,0.796-1.553,1.191-2.364c1.183-2.412,2.4-4.906,4.222-6.711
				c1.057-1.049,2.562-1.651,4.14-1.651c1.747,0,3.286,0.76,4.226,2.085c1.73,2.452-0.22,5.652-1.783,8.223
				c-0.271,0.437-0.521,0.853-0.741,1.242c-0.729,1.284-1.349,2.654-1.947,3.98c-0.388,0.858-0.771,1.715-1.188,2.549
				c-0.277,0.556-0.675,1.175-1.096,1.832c-1.028,1.616-2.198,3.448-2.098,5.147l0.062,1.001l0.763-0.652
				c1.904-1.629,3.491-4.525,4.891-7.08c0.344-0.625,0.669-1.221,0.979-1.761c0.532-0.921,1.018-1.987,1.529-3.115
				c1.022-2.255,2.087-4.587,3.617-5.964c0.784-0.704,1.7-1.076,2.649-1.076c2.085,0,3.822,1.723,3.956,3.922
				c0.148,2.498-1.342,5.278-2.659,7.731c-0.476,0.885-0.924,1.72-1.296,2.529c-0.38,0.826-0.872,1.812-1.383,2.834
				c-2.367,4.736-3.257,6.738-2.463,7.525c0.142,0.106,0.306,0.163,0.474,0.163c0.879,0,1.454-1.4,2.569-4.312
				c0.57-1.498,1.224-3.196,1.87-4.304c0.351-0.6,0.725-1.306,1.123-2.06c1.283-2.429,2.889-5.452,4.734-6.747
				c1.299-0.912,2.562-0.787,3.666,0.331c1.11,1.122,1.875,3.085,1.858,4.773c-0.021,1.988-1.016,4.125-1.977,6.193
				c-0.56,1.203-1.138,2.446-1.517,3.65c-0.315,1.002-0.593,2.29-0.706,3.282l-0.275,2.426l1.208-2.123
				c0.421-0.74,0.778-1.557,1.125-2.347c0.716-1.627,1.449-3.31,2.769-4.375c1.021-0.826,1.775-1.006,2.262-0.382
				c0.581,0.75,0.72,2.47,0.323,4.001c-1.504,5.806-8.091,6.673-11.884,6.673c-0.313,0-0.625-0.006-0.938-0.016
				c-0.668-2.203,1.151-4.748,3.072-7.436c1.771-2.483,3.607-5.051,3.48-7.546l-0.062-1.215l-0.812,0.906
				c-1.405,1.573-2.487,3.814-3.638,6.188c-2.046,4.235-4.16,8.615-8.271,9.397c-0.447,0.085-0.932,0.128-1.432,0.128
				C468.54,98.9,466.531,98.112,465.621,96.892z"/>
			<path fill="none" stroke="#FFFFFF" stroke-width="2" stroke-miterlimit="10" d="M146.518,266.686
				c-0.778-2.434-3.128-3.771-6.62-3.771c-2.705,0-5.783,0.854-7.843,2.168c-0.12,0.076-0.215,0.161-0.316,0.244
				C124.532,268.204,118,273.5,118,273.5c-5.33,4.227-9.426,8.391-12.595,12.322c-1.448,0.902-2.494,2.295-2.917,3.916
				c-1.212,1.771-2.244,3.479-3.117,5.104c-0.31,0.247-0.61,0.529-0.892,0.893c-0.593,0.765-0.946,1.947-1.075,3.195
				c-0.982,2.297-1.658,4.358-2.141,6.114c-0.453,0.513-0.796,1.283-0.888,2.479c-0.033,0.428-0.02,0.812,0.018,1.182
				c-0.021,0.099-0.042,0.2-0.061,0.294c-1.664,10.296,3.032,13.06,8.54,12.915c0.677,0.142,1.359,0.237,2.034,0.237
				c1.729,0,3.274-0.522,4.509-1.482c1.102-0.354,2.151-0.758,3.083-1.17c5.161-2.75,9.707-6.307,13.661-10.22
				c0.37-0.307,0.698-0.629,0.966-0.979c2.119-2.182,4.057-4.458,5.819-6.76c0.939-0.896,1.807-2.042,2.351-3.228
				c1.473-2.127,2.796-4.242,3.974-6.291c0.588-0.522,1.108-1.295,1.566-2.32c0.246-0.551,0.417-1.07,0.549-1.576
				c1.119-2.193,2.049-4.25,2.796-6.088c0.075-0.084,0.159-0.155,0.227-0.251c0.598-0.841,0.919-1.966,1.031-3.124
				c0.222-0.667,0.411-1.282,0.562-1.832c0.379-1.947,0.586-3.609,0.651-5.031C147.508,270.359,147.018,268.25,146.518,266.686z
				 M104.907,321.152c-3.068,0-6.481-1.812-8.115-4.302c-0.745-1.136-0.859-2.049-0.643-2.446c0.041-0.075,0.164-0.308,0.681-0.308
				c0.356,0,0.802,0.106,1.325,0.317c0.97,0.391,1.857,0.991,2.796,1.627c0.947,0.646,1.927,1.306,3.003,1.735l0.681,0.271
				l0.004-0.729c0.007-1.207-1.959-2.39-4.53-3.806c-0.564-0.311-1.052-0.578-1.332-0.766c-2.308-1.545-3.604-2.546-3.405-5.15
				c0.167-2.187,1.22-2.438,1.997-2.438c2.046,0,5.114,1.971,7.144,3.271c0.553,0.355,1.032,0.663,1.398,0.872
				c1.388,0.795,2.96,1.694,4.618,1.983l2.275,0.396l-1.908-1.303c-0.953-0.646-1.99-1.221-2.993-1.771
				c-1.147-0.635-2.333-1.283-3.409-2.063c-0.667-0.479-1.443-0.885-2.194-1.271c-1.252-0.646-2.547-1.315-3.269-2.353
				c-1.014-1.454-0.883-5.144,0.234-6.575c0.711-0.914,1.473-1.341,2.396-1.341c0.883,0,1.869,0.376,2.802,0.782
				c2.15,0.936,4.485,2.432,6.574,4.213c0.196,0.167,0.42,0.366,0.667,0.585c1.808,1.603,4.627,4.062,6.688,3.711l0.517-0.089
				l-0.109-0.51c-0.225-1.021-1.779-2.278-3.788-3.812c-0.476-0.363-0.899-0.688-1.186-0.935c-1.32-1.138-2.917-2.11-4.461-3.056
				c-0.615-0.375-1.222-0.742-1.797-1.115c-0.57-0.369-1.173-0.646-1.755-0.907c-1.614-0.731-2.781-1.265-2.488-3.306
				c0.31-2.164,2.025-4.021,4.268-4.623c0.668-0.183,1.353-0.271,2.036-0.271c3.915,0,7.555,2.938,11.076,5.776
				c2.66,2.146,5.172,4.173,7.795,5.002l1.256,0.396l-0.676-1.131c-0.84-1.404-2.72-2.712-4.377-3.863
				c-0.493-0.342-0.958-0.666-1.355-0.965c-1.738-1.312-3.668-2.455-5.534-3.562l-1.492-0.882c-1.553-0.902-3.485-2.026-3.97-3.633
				c-0.615-2.037,1.657-4.43,3.533-5.371c0.47-0.235,0.959-0.354,1.495-0.354c1.753,0,3.638,1.265,5.302,2.373
				c0.545,0.364,1.069,0.716,1.562,1.004c0.641,0.381,1.395,0.896,2.192,1.438c2.386,1.636,5.089,3.484,7.363,3.56l0.747,0.022
				l-0.263-0.698c-0.581-1.544-2.448-2.593-3.949-3.438c-0.384-0.215-0.749-0.42-1.066-0.617c-2.587-1.615-5.493-3.51-7.428-5.275
				c-0.518-0.477-0.754-0.93-0.723-1.396c0.078-1.148,1.765-2.406,3.34-3.498c1.907-1.313,3.67-1.207,6.278,0.476
				c0.634,0.407,1.265,0.873,1.932,1.364c2.023,1.488,4.115,3.031,6.613,3.229l0.801,0.062l-0.297-0.744
				c-0.35-0.881-1.675-1.916-3.354-3.229c-2.036-1.59-4.569-3.564-4.507-4.885c0.006-0.126,0.024-0.51,0.674-0.926
				c1.91-1.221,4.777-2.01,7.304-2.01c1.749,0,4.811,0.398,5.667,3.078c0.796,2.491,0.753,4.004-0.138,4.752
				c-0.062,0.053-0.176,0.062-0.261,0.062c-0.882,0-2.556-1.021-3.663-1.694c-0.953-0.582-1.297-0.783-1.589-0.783l-0.433,0.033
				l-0.104,0.358c-0.407,1.414,1.061,2.392,2.48,3.333c0.834,0.557,1.696,1.127,1.998,1.688c0.946,1.748,0.815,4.953-0.264,6.473
				c-0.353,0.494-0.838,0.728-1.527,0.728c-2.005,0-5.095-2.036-7.351-3.521c-1.067-0.703-1.988-1.312-2.697-1.658l-0.354-0.18
				c-0.888-0.444-1.994-1.004-2.952-1.049l-0.733-0.031l0.237,0.691c0.374,1.102,2.209,2.057,3.829,2.897
				c0.591,0.308,1.149,0.599,1.49,0.827c0.688,0.461,1.492,0.899,2.27,1.326c1.291,0.705,2.625,1.434,3.538,2.308
				c1.503,1.438,1.688,3.267,0.581,5.748c-1.014,2.272-2.056,2.536-2.752,2.536c-0.604,0-1.317-0.242-2.117-0.721
				c-1.197-0.718-2.442-1.729-3.759-2.8c-2.672-2.175-5.435-4.418-8.439-4.772c-0.218-0.025-0.401-0.037-0.553-0.037
				c-0.583,0-0.924,0.191-1.016,0.568c-0.22,0.907,2.135,2.336,4.15,3.372c2.239,1.149,3.495,2.037,5.575,3.505
				c1.959,1.385,4.181,2.95,3.834,5.479c-0.286,2.082-2.363,4.573-4.048,5.507c-0.726,0.4-1.445,0.6-2.201,0.6
				c-2.456,0-4.842-2.16-6.947-4.063c-0.893-0.81-1.737-1.571-2.563-2.165c-0.141-0.102-0.324-0.238-0.538-0.4
				c-1.711-1.295-3.65-2.678-5.012-2.678c-0.556,0-0.895,0.23-1.082,0.426l-0.244,0.254l0.157,0.315
				c0.7,1.405,2.807,2.591,4.667,3.636c0.703,0.396,1.367,0.771,1.838,1.094c0.825,0.57,1.672,1.109,2.519,1.646
				c1.278,0.812,2.6,1.652,3.805,2.59c1.035,0.801,2.158,2.079,1.634,3.608c-0.632,1.847-3.471,3.405-6.199,3.405
				c-0.776,0-1.489-0.125-2.117-0.371c-1.638-0.646-3.286-2.14-5.031-3.715c-2.712-2.451-5.537-4.998-8.69-4.589l-0.354,0.048
				l-0.072,0.35c-0.265,1.287,1.822,2.593,4.578,4.166c0.615,0.351,1.146,0.653,1.416,0.851c0.859,0.625,1.727,1.244,2.593,1.861
				c1.078,0.77,2.152,1.534,3.202,2.308c0.629,0.467,1.377,1.2,1.367,2.079c-0.008,0.753-0.563,1.539-1.605,2.271
				c-2.042,1.437-3.735,1.312-5.987-0.479c-0.291-0.229-0.604-0.484-0.933-0.759c-2.081-1.714-4.671-3.846-7.104-4.031l-0.439-0.03
				l-0.089,0.432c-0.063,0.308-0.062,0.655,0.004,0.979l0.048,0.239l0.649,0.32c2.034,0.996,7.436,3.641,7.729,6
				c0.071,0.571-0.188,1.1-0.794,1.614C107.919,320.665,106.502,321.152,104.907,321.152z"/>
			<path fill="none" stroke="#FFFFFF" stroke-width="2" stroke-miterlimit="10" d="M185.143,314.766
				c-0.542-1.115-1.333-2.037-2.254-2.69c-1.583-1.771-3.305-3.312-5.066-4.604c-0.18-0.251-0.39-0.496-0.661-0.727
				c-0.858-0.73-1.743-1.184-2.673-1.4c-0.443-0.24-0.884-0.471-1.322-0.678c-2.114-0.826-3.998-1.203-5.685-1.262
				c-0.442-0.153-0.978-0.229-1.572-0.197c-2.097,0.109-3.809,1.046-5.347,2.039c-1.649,1.062-3.186,2.723-4.326,4.667
				c-1.251,2.132-1.873,4.916-2.231,6.823c-0.162,0.859-0.172,2.631,0.58,3.521c0.267,1.854,0.778,3.646,1.456,5.356
				c0.096,0.908,0.429,1.785,1.016,2.557c0.103,0.135,0.216,0.239,0.326,0.354c1.107,2.093,2.43,4.021,3.812,5.75
				c0.371,0.706,1.011,1.475,1.926,2.301c0.077,0.066,0.154,0.122,0.23,0.188c2.741,2.933,5.403,4.972,6.816,5.733
				c11.167,6,18.667,0.5,20-6.001c1.537-8.405-0.9-15.777-4.912-21.46C185.215,314.948,185.187,314.856,185.143,314.766z
				 M183.896,320.322c-1.426,1.805-3.713,3.305-5.73,4.629l-0.771,0.507c-0.31,0.206-0.67,0.433-1.061,0.679
				c-2.049,1.29-4.855,3.062-5.611,4.988l-0.3,0.765l0.817-0.085c1.725-0.179,3.626-1.818,5.304-3.271
				c0.707-0.611,1.375-1.188,1.943-1.579c0.462-0.317,0.926-0.655,1.396-0.998c1.615-1.176,3.285-2.392,5.093-2.93
				c1.904-0.567,3.045,0.769,3.52,4.056c0.396,2.729-0.824,4.092-2.879,6.013c-0.381,0.355-0.969,0.778-1.593,1.229
				c-1.599,1.146-3.412,2.453-3.663,3.896l-0.104,0.601l0.605-0.015c1.427-0.022,2.624-0.875,3.782-1.692
				c1.165-0.826,2.265-1.607,3.56-1.607c0.008,0,0.017,0,0.025,0c0.425,2.129-0.209,3.7-2.19,5.506
				c-1.707,1.561-4.542,2.724-6.894,2.832c-2.146,0.093-5.279-0.39-6.544-2.02c-0.329-0.424-0.454-0.827-0.381-1.23
				c0.21-1.166,1.996-2.269,3.299-3.073c0.269-0.164,0.523-0.32,0.748-0.471l0.739-0.479c2.601-1.68,5.837-3.766,6.943-6.688
				l0.269-0.711l-0.76,0.035c-1.54,0.07-3.379,1.628-5.002,3.003c-0.708,0.599-1.375,1.165-1.899,1.5l-0.376,0.241
				c-1.945,1.245-3.957,2.534-6.038,3.379c-2.202,0.893-4.248,0.412-6.355-1.488c-1.504-1.354-1.899-2.233-1.965-2.732
				c-0.125-0.944,0.377-1.454,1.275-2.274c0.151-0.138,0.305-0.278,0.456-0.424c1.882-1.818,4.043-3.406,6.133-4.94l0.482-0.354
				c4.333-3.189,6.376-5.082,6.624-6.136l0.134-0.567l-0.583-0.044c-1.567-0.116-3.53,1.609-5.239,3.131
				c-0.588,0.521-1.143,1.018-1.556,1.309c-1.429,1.011-2.952,1.976-4.424,2.903c-0.707,0.447-1.411,0.896-2.102,1.341
				c-1.033,0.671-2.318,1.506-3.425,1.506c-0.683,0-1.239-0.312-1.748-0.979c-1.494-1.964-0.808-4.196,0.332-5.632
				c1.601-2.019,3.803-3.481,5.932-4.899c2.395-1.595,4.87-3.243,6.601-5.707l0.334-0.476l-0.521-0.262
				c-1.065-0.527-2.933,0.821-5.07,2.575c-0.457,0.375-0.848,0.697-1.115,0.878c-0.95,0.646-1.647,1.19-2.386,1.771
				c-0.94,0.734-1.914,1.496-3.57,2.601c-0.15,0.104-0.319,0.229-0.503,0.36c-0.718,0.529-1.769,1.278-2.382,0.982
				c-0.559-0.271-0.697-1.886-0.518-2.842c0.345-1.835,0.939-4.505,2.111-6.503c1.063-1.812,2.486-3.351,4.007-4.333
				c1.643-1.062,3.097-1.785,4.857-1.881c0.938-0.049,1.573,0.225,1.688,0.475c0.092,0.197-0.053,0.547-0.398,0.953
				c-0.342,0.4-0.989,0.792-1.674,1.205c-1.355,0.819-2.892,1.747-2.882,3.312l0.004,0.659l0.634-0.186
				c1.404-0.401,2.816-1.269,4.182-2.104c1.878-1.148,3.819-2.336,5.727-2.336c1.156,0,2.225,0.432,3.27,1.316
				c0.62,0.527,0.897,1.073,0.848,1.67c-0.179,2.165-4.435,4.719-6.978,6.24c-0.907,0.543-1.624,0.973-2.066,1.313
				c-0.173,0.132-0.359,0.27-0.554,0.412c-1.19,0.88-2.672,1.973-3.058,3.358l-0.166,0.634h0.657c1.309,0,3.149-1.647,4.773-3.104
				c0.685-0.614,1.332-1.194,1.77-1.488c0.726-0.486,1.453-1.06,2.157-1.614c1.381-1.09,2.81-2.217,4.308-2.752
				c2.227-0.799,4.847,0.571,6.037,3.027C185.123,317.021,184.994,318.935,183.896,320.322z"/>
		</g>
	</g>
	<g id="plastid">
		<g>
			<g>
				<path fill="none" stroke="#FFFFFF" stroke-width="2" stroke-miterlimit="10" d="M313.333,335.167
					c0,0,29.335-23.834,65.501-24.334c22.166-0.666,40.499,7.501,58.499,19.334c5.333,3.833,13.333,15.334-1.667,24
					c-5.333,2.5-42.334,9.5-90.5,7.333c-16.333,0.333-27.833-1.667-36.333-6.667C305.333,352.667,301.666,344.334,313.333,335.167z"
					/>
			</g>
		</g>
		<g>
			<g>
				<path fill="none" stroke="#FFFFFF" stroke-width="2" stroke-miterlimit="10" d="M477,139.667c0,0,21.334-22.333,27-2
					c2.666,9.667,3,26-1,39s-3.668,42.667-0.334,62c1.667,12.333,2.667,38.999-9.333,41.666
					c-5.667,0.334-29.666-7.333-41.333-51.666C447.666,213.667,448.666,168,477,139.667z"/>
			</g>
		</g>
	</g>
	<g id="vacuole">
		<path  fill="none" stroke="#FFFFFF" stroke-width="2" stroke-miterlimit="10" d="M343,204.333
		c0,0,32-14.667,29.333-65.333c-2-32.667-2.002-52.667,33.999-50.667C428.333,93,469,104.333,457,133.667
		S428.333,197,448.333,248.333c10.667,24.667,15.335,33.333,7.334,50C449,311,444.332,316.334,415.666,311
		c-24.666-4.667-61.332-12-97.999,14c-16.667,11.333-26.001,39.332-64.001,28.666c-19.333-6-30.666-12-35.333-48
		c-2.667-27.333,8-49.332,35.333-76.666c17.333-14.667,26-16,56-14.667C325.666,216.333,335.667,210.333,343,204.333z"/>
	</g>
</g>
<g id="outlines">
	<g id="lines">
		<g id="neighborCells">
			<path fill="none" stroke="#000000" stroke-linecap="round" stroke-linejoin="round" stroke-miterlimit="10" d="M36.333,0
				c0,0,25.333,32,15.333,48C42,63.333,29,63.333,8,63"/>
			<path fill="none" stroke="#000000" stroke-linecap="round" stroke-linejoin="round" stroke-miterlimit="10" d="M500.333,0
				c0,0-3.666,12.667-31.666,11.667C442.667,11,396.333,10,346,17c-27.333,4-44,6-65.667,2.333S233.666,16.666,199.666,13
				c-17.333-2.667-57.333-2-86.667,4.333c-21,4.667-33,5-40-5S65,0,65,0"/>
			<path fill="none" stroke="#000000" stroke-linecap="round" stroke-linejoin="round" stroke-miterlimit="10" d="M46,81"/>
			<path fill="none" stroke="#000000" stroke-linecap="round" stroke-linejoin="round" stroke-miterlimit="10" d="M9,84.667
				C9,84.667,33,81,36,98s8,46,9,94.333c0.333,37.667-2.666,84.666-4.333,110c-1.667,21,0.333,33.666-16.667,38
				C12.333,343.333,6,345,6,345"/>
			<path fill="none" stroke="#000000" stroke-linecap="round" stroke-linejoin="round" stroke-miterlimit="10" d="M12.333,365
				c0,0,32-9,42.667,1.667c9,9,18.667,20.999,21.667,25.999c3,5.334,3,16.001-0.667,27.334"/>
			<path fill="none" stroke="#000000" stroke-linecap="round" stroke-linejoin="round" stroke-miterlimit="10" d="M101.667,420
				c0,0,2.333-13,20.333-17.334c11.667-2.333,55-2.331,95.333-5.332C259.333,395,325,390.999,367,393.666
				c41,0.667,75.666,2.334,91.333,1.667c11.334-0.333,24.002-2.666,31.668,24.667"/>
			<path fill="none" stroke="#000000" stroke-linecap="round" stroke-linejoin="round" stroke-miterlimit="10" d="M511.666,411.333
				c0,0-10.666-20-1.332-29c10-11.333,17.666-17.667,21.333-19.667s6.999-4.664,28.333,5.668"/>
			<path fill="none" stroke="#000000" stroke-linecap="round" stroke-linejoin="round" stroke-miterlimit="10" d="M560,79
				c0,0-19.333,4.333-20.333,14c-1,11-6.667,84.333-8.334,109.333c-1.667,25.333,0.333,61.334,4,94.667
				c1.333,12.666,1.001,29.668,24.667,44.334"/>
			<path fill="none" stroke="#000000" stroke-linecap="round" stroke-linejoin="round" stroke-miterlimit="10" d="M526.333,0
				c0,0-6.332,10.667-8.666,17.333C516,22,517.333,28,523.333,37c5.667,8.333,11.333,18,22,19C552.916,56.5,560,54.667,560,54.667"
				/>
		</g>
		<g id="Nucleus">
			<g>
				<path fill="none" stroke="#FFFFFF" stroke-linecap="round" stroke-linejoin="round" stroke-miterlimit="10" d="M184.189,170.188
					c-0.937,2.904,3.439,3.192,4.346,0.999C189.668,168.441,185.041,167.545,184.189,170.188z"/>
				<path fill="none" stroke="#FFFFFF" stroke-linecap="round" stroke-linejoin="round" stroke-miterlimit="10" d="M192.312,166.676
					c2.015,0.854,0.688,4.584-1.209,4.22C189.313,170.553,189.657,165.55,192.312,166.676z"/>
				<path fill="none" stroke="#FFFFFF" stroke-linecap="round" stroke-linejoin="round" stroke-miterlimit="10" d="M196.813,173.061
					c-1.77,2.143-4.667-0.789-3.316-2.73C194.998,168.174,198.882,170.556,196.813,173.061z"/>
				<path fill="none" stroke="#FFFFFF" stroke-linecap="round" stroke-linejoin="round" stroke-miterlimit="10" d="M191,171.5
					c-2.019,1.991,1.808,3.914,3.25,2"/>
				<path fill="none" stroke="#FFFFFF" stroke-linecap="round" stroke-linejoin="round" stroke-miterlimit="10" d="M198.313,178.061
					c-2.315,1.067-4.257-2.193-1.918-3.332C198.412,173.746,201.17,176.743,198.313,178.061z"/>
				<path fill="none" stroke="#FFFFFF" stroke-linecap="round" stroke-linejoin="round" stroke-miterlimit="10" d="M199.5,178.25
					c1.973,1.072,1.286,3.684-0.737,4.263c-2.708,0.775-3.833-3.133-2.013-4.013"/>
				<path fill="none" stroke="#FFFFFF" stroke-linecap="round" stroke-linejoin="round" stroke-miterlimit="10" d="M199.25,182.75
					c0.397,1.838-1.292,2.93-2.963,2.463c-0.363-1.052-0.639-2.309,0.463-2.963"/>
				<path fill="none" stroke="#FFFFFF" stroke-linecap="round" stroke-linejoin="round" stroke-miterlimit="10" d="M196.5,185.75
					c2.062,0.921,3.042,4.549-0.013,4.762c-2.064,0.144-3.801-2.788-5.95-3.049c-0.234-1.031,0.271-2.098,0.963-2.713L196.5,185.75z
					"/>
				<path fill="none" stroke="#FFFFFF" stroke-linecap="round" stroke-linejoin="round" stroke-miterlimit="10" d="M195.25,185.25
					c-1.313-1.761-1.357-4.572-4.25-4.249c-2.633,0.294-3.631,4.584-0.25,3.999L195.25,185.25z"/>
				<path fill="none" stroke="#FFFFFF" stroke-linecap="round" stroke-linejoin="round" stroke-miterlimit="10" d="M188.25,183
					c-6.169-1.426,0.262,7.812,2.25,2.25L188.25,183z"/>
				<path fill="none" stroke="#FFFFFF" stroke-linecap="round" stroke-linejoin="round" stroke-miterlimit="10" d="M189,187.25
					c-3.128,0.134,0.902,5.188,2.5,1"/>
				<path fill="none" stroke="#FFFFFF" stroke-linecap="round" stroke-linejoin="round" stroke-miterlimit="10" d="M189.75,189.75
					c-2.539,2.25,3.892,4.202,3-0.75"/>
				<path fill="none" stroke="#FFFFFF" stroke-linecap="round" stroke-linejoin="round" stroke-miterlimit="10" d="M188.5,191
					c-2.474,2.615-3.831-3.861-1-3"/>
				<path fill="none" stroke="#FFFFFF" stroke-linecap="round" stroke-linejoin="round" stroke-miterlimit="10" d="M185.75,189.25
					c-3.728,1.984-2.979-5.868,0.25-3.75"/>
				<path fill="none" stroke="#FFFFFF" stroke-linecap="round" stroke-linejoin="round" stroke-miterlimit="10" d="M182.75,187.75
					c-5.535-0.654,0.478,8.539,2,2.5"/>
				<path fill="none" stroke="#FFFFFF" stroke-linecap="round" stroke-linejoin="round" stroke-miterlimit="10" d="M184.5,190.75
					c-1.661,2.897,5.977,3.813,5.25,1"/>
				<path fill="none" stroke="#FFFFFF" stroke-linecap="round" stroke-linejoin="round" stroke-miterlimit="10" d="M182.255,180.494
					c2.319,0.248,2.948,4.858-0.009,4.268C180.166,184.347,179.551,180.205,182.255,180.494z"/>
				<path fill="none" stroke="#FFFFFF" stroke-linecap="round" stroke-linejoin="round" stroke-miterlimit="10" d="M186.937,179.313
					c2.446,1.463-0.233,4.812-2.131,3.847C182.943,182.213,184.463,177.833,186.937,179.313z"/>
				<path fill="none" stroke="#FFFFFF" stroke-linecap="round" stroke-linejoin="round" stroke-miterlimit="10" d="M188.25,181.5
					c-1.092-6.54,5.687-2.927,2.75-0.25"/>
				<path fill="none" stroke="#FFFFFF" stroke-linecap="round" stroke-linejoin="round" stroke-miterlimit="10" d="M193.25,181.25
					c-0.815-1.269,0.173-3.593,2-2.5"/>
				<path fill="none" stroke="#FFFFFF" stroke-linecap="round" stroke-linejoin="round" stroke-miterlimit="10" d="M193.75,183
					c0.97,0.042,1.771-0.381,2.25-1.25"/>
				<path fill="none" stroke="#FFFFFF" stroke-linecap="round" stroke-linejoin="round" stroke-miterlimit="10" d="M191,177.75
					c-0.416-1.343-0.67-3.644,1.5-3.25"/>
				<path fill="none" stroke="#FFFFFF" stroke-linecap="round" stroke-linejoin="round" stroke-miterlimit="10" d="M193.75,174.75
					c1.367,0.668,1.367,2.738,0.25,3.75"/>
				<path fill="none" stroke="#FFFFFF" stroke-linecap="round" stroke-linejoin="round" stroke-miterlimit="10" d="M188.5,177.75
					c-2.746-0.069-0.422-4.36,2.25-3"/>
				<path fill="none" stroke="#FFFFFF" stroke-linecap="round" stroke-linejoin="round" stroke-miterlimit="10" d="M187.25,176
					c-1.417-0.472-2.039-2.202-1-3.25"/>
				<path fill="none" stroke="#FFFFFF" stroke-linecap="round" stroke-linejoin="round" stroke-miterlimit="10" d="M185.75,174.75
					c-1.16-0.498-8.084-0.36-6.199,2.449c0.958,1.428,6.628,0.465,8.199,0.801"/>
				<path fill="none" stroke="#FFFFFF" stroke-linecap="round" stroke-linejoin="round" stroke-miterlimit="10" d="M183.25,174.25
					c-1.118-0.888-0.434-2.834,1.25-2.5"/>
				<path fill="none" stroke="#FFFFFF" stroke-linecap="round" stroke-linejoin="round" stroke-miterlimit="10" d="M188.833,171.333
					c0.394-0.119,1.104-0.02,1.333,0.667"/>
				<path fill="none" stroke="#FFFFFF" stroke-linecap="round" stroke-linejoin="round" stroke-miterlimit="10" d="M188.333,168.833
					c0.286-0.375,0.652-0.604,1-0.667"/>
				<path fill="none" stroke="#FFFFFF" stroke-linecap="round" stroke-linejoin="round" stroke-miterlimit="10" d="M182.667,178
					c-0.488,0.705-0.84,1.761,0,2.333"/>
				<path fill="none" stroke="#FFFFFF" stroke-linecap="round" stroke-linejoin="round" stroke-miterlimit="10" d="M181.5,185
					c-0.876,0.472-1.421,2.162-0.667,2.833"/>
			</g>
		</g>
		<g id="ChloroplastPlastid">
			<g>
				<g>
					<path fill="none" stroke="#FFFFFF" stroke-linecap="round" stroke-linejoin="round" stroke-miterlimit="10" d="M317.333,354.5
						c0,0-13.167-2.834-4.667-12.667c8.167-9,20.168-16.167,46.834-24c7.166-1.833,34.999-5.666,60.666,6.834
						c14.834,7.833,20.333,12.332,19.5,18.666c-0.5,4.5-3.333,8.834-18.333,10.834c-10.833,1.333-46.166,4.666-82.833,3.333
						C332,357.167,325.166,356.5,317.333,354.5z"/>
					<path fill="none" stroke="#FFFFFF" stroke-linecap="round" stroke-linejoin="round" stroke-miterlimit="10" d="M331.5,332
						c0,0,46.333-17.166,86-5.5"/>
					<path fill="none" stroke="#FFFFFF" stroke-linecap="round" stroke-linejoin="round" stroke-miterlimit="10" d="M321.667,339
						c0,0,59.667-23.666,103-7.5"/>
					<path fill="none" stroke="#FFFFFF" stroke-linecap="round" stroke-linejoin="round" stroke-miterlimit="10" d="M317.75,344
						c0,0,25.25-15.5,110.75-7"/>
					<path fill="none" stroke="#FFFFFF" stroke-linecap="round" stroke-linejoin="round" stroke-miterlimit="10" d="M319,346.5
						c0,0,29-12.25,107-5"/>
					<path fill="none" stroke="#FFFFFF" stroke-linecap="round" stroke-linejoin="round" stroke-miterlimit="10" d="M323.5,347.5
						c0,0,3.25,1.75,31.25-2.75c28.25-4.5,61.25-0.5,78.5-0.5"/>
					<path fill="none" stroke="#FFFFFF" stroke-linecap="round" stroke-linejoin="round" stroke-miterlimit="10" d="M324.5,348.75
						c0,0,32,0.5,63.75,0c15.25,0,23.75,0,34.75-2"/>
					<path fill="none" stroke="#FFFFFF" stroke-linecap="round" stroke-linejoin="round" stroke-miterlimit="10" d="M325.5,352
						c0,0,7.5,1.25,30.75,1c21.75,0.75,25-0.75,43.75-1c12,0,23.75-0.75,31-4.5"/>
				</g>
				<g>
					<path fill="#FFFFFF" stroke="#FFFFFF" stroke-miterlimit="10" d="M334.834,334.5l0.167,3.833c0,0,15.917-2.75,18.917-2.833
						c0-1.917,0-5.667,0-5.667S338.917,333.25,334.834,334.5z"/>
					<path fill="#FFFFFF" stroke="#FFFFFF" stroke-miterlimit="10" d="M368.584,334.666l-0.083,4.667c0,0,16.25-0.333,19.5-0.083
						c0.166-1.917,0.083-4.667,0.083-4.667S373.334,334.499,368.584,334.666z"/>
					<path fill="#FFFFFF" stroke="#FFFFFF" stroke-miterlimit="10" d="M335.834,349l-0.25,3.667
						C337.834,352.833,351,353,353.417,353c0.084-1.417,0.084-3.833,0.084-3.833L335.834,349z"/>
					<path fill="#FFFFFF" stroke="#FFFFFF" stroke-miterlimit="10" d="M378.251,349.167l0.167,3.666c0,0,15.25-1,20.333-0.833
						c0.167-1.417,0.083-3,0.083-3S384.418,348.501,378.251,349.167z"/>
					<path fill="#FFFFFF" stroke="#FFFFFF" stroke-miterlimit="10" d="M397.001,339.666l0.083,3.084c0,0,14.251,0.417,17.834,0.75
						c0.166-1,0-2.834,0-2.834S401.584,339.666,397.001,339.666z"/>
					<path fill="#FFFFFF" stroke="#FFFFFF" stroke-miterlimit="10" d="M396.918,322.916l0.166,2.917c0,0,9.416,0.833,15.75,2.25
						c0-1.583-0.083-2.583-0.083-2.583C409.918,324.75,402.585,323.166,396.918,322.916z"/>
				</g>
			</g>
			<g>
				<g>
					<path fill="none" stroke="#FFFFFF" stroke-linecap="round" stroke-linejoin="round" stroke-miterlimit="10" d="M479,143.667
						c0,0,20.334-21.333,22,3.667c2,16.667-4.334,47.667-3.667,61c0,0,0.667,21.333,2,33c1,8.667,2,39.001-13,33.334
						c-8-3.667-29.667-23.001-32-61.667C453.333,196.667,459.667,164.333,479,143.667z"/>
					<path fill="none" stroke="#FFFFFF" stroke-linecap="round" stroke-linejoin="round" stroke-miterlimit="10" d="
						M494.666,143.667c0,0,2.668,14.333-0.999,37c-3.667,21.667-3.001,52,1.666,84"/>
					<path fill="none" stroke="#FFFFFF" stroke-linecap="round" stroke-linejoin="round" stroke-miterlimit="10" d="M491,265.667
						c0,0-7.333-49.667-4-69.667c3-19.333,6-37.666,3-54.333"/>
					<path fill="none" stroke="#FFFFFF" stroke-linecap="round" stroke-linejoin="round" stroke-miterlimit="10" d="
						M486.666,145.667c0,0-1.666,29-1.333,41.667s-7.333,47,2.667,78"/>
					<path fill="none" stroke="#FFFFFF" stroke-linecap="round" stroke-linejoin="round" stroke-miterlimit="10" d="
						M482.333,149.333c0,0-2.333,27.333-5.333,42s-5.668,49.333,8.666,76.333"/>
					<path fill="none" stroke="#FFFFFF" stroke-linecap="round" stroke-linejoin="round" stroke-miterlimit="10" d="
						M477.666,150.667c0,0-10.332,26.999-8.999,64.666c1.666,21.001,4.333,37.667,15.666,55.334"/>
					<path fill="none" stroke="#FFFFFF" stroke-linecap="round" stroke-linejoin="round" stroke-miterlimit="10" d="M472,158
						c0,0-5.002,17-6.668,29c-1.999,12-6.999,28.333,7.001,66"/>
					<path fill="none" stroke="#FFFFFF" stroke-linecap="round" stroke-linejoin="round" stroke-miterlimit="10" d="M463,178
						c0,0-9.001,23-1.334,56c2,9.334,7.667,16.334,10.334,19.667"/>
				</g>
				<g>
					<path fill="#FFFFFF" stroke="#FFFFFF" stroke-miterlimit="10" d="M458.5,205.25l4.25-0.25c0,0-0.375,8.125,1.875,22
						c-1.375,0.25-4.25,0.625-4.25,0.625C459.875,224.875,458.125,210.5,458.5,205.25z"/>
					<path fill="#FFFFFF" stroke="#FFFFFF" stroke-miterlimit="10" d="M469.5,224.125h5.125c0,0,0.375,8.5,2.5,19.625
						c-1.375,0-4.25-0.125-4.25-0.125S469.75,230,469.5,224.125z"/>
					<path fill="#FFFFFF" stroke="#FFFFFF" stroke-miterlimit="10" d="M488.125,240.25l4.25-0.125l1.875,17.5
						c-1.125-0.25-4.375,0.125-4.375,0.125L488.125,240.25z"/>
					<path fill="#FFFFFF" stroke="#FFFFFF" stroke-miterlimit="10" d="M485.5,189h2.375c0,0-2.125,11.625-1.75,24.375
						c-1.5,0-2.625-0.125-2.625-0.125C483.625,207.5,485.125,192.875,485.5,189z"/>
					<path fill="#FFFFFF" stroke="#FFFFFF" stroke-miterlimit="10" d="M469.75,166h3.5c-0.875,2.625-3.375,15.25-3.5,21.375
						c-1.625,0-4.418-0.375-4.418-0.375C466,183.5,468.875,169,469.75,166z"/>
					<path fill="#FFFFFF" stroke="#FFFFFF" stroke-miterlimit="10" d="M486.5,150.625l4.5-0.125c0,0,0.625,9-0.125,13.125
						c-1.375,0.125-5.125,0.125-5.125,0.125C485.875,161.125,486.125,152.375,486.5,150.625z"/>
				</g>
			</g>
		</g>
	</g>
	<g id="Mitochondria-details">
		<g>
			<g>
				<g>
					<path fill="#FFFFFF" d="M96.375,317.129c-1.46-2.227-1.074-4.396,1.968-3.175c2.045,0.823,3.753,2.546,5.798,3.361
						c0.007-1.335-4.431-3.344-5.641-4.149c-2.262-1.514-3.849-2.673-3.625-5.604c0.501-6.557,8.705-0.165,11.287,1.312
						c1.374,0.786,2.888,1.651,4.455,1.925c-2.014-1.375-4.363-2.354-6.413-3.845c-1.759-1.274-4.338-1.964-5.579-3.742
						c-1.174-1.685-0.987-5.582,0.25-7.171c1.67-2.145,3.517-1.697,5.792-0.708c2.371,1.03,4.736,2.616,6.7,4.292
						c1.536,1.311,4.816,4.548,6.945,4.184c-0.271-1.231-3.645-3.47-4.812-4.476c-1.811-1.562-4.195-2.83-6.204-4.13
						c-2.108-1.365-4.931-1.462-4.467-4.703c0.352-2.458,2.264-4.4,4.633-5.036c8.014-2.149,14.537,8.411,21.187,10.515
						c-1.032-1.726-3.924-3.418-5.604-4.687c-2.003-1.513-4.281-2.808-6.416-4.08c-1.63-0.974-4.15-2.235-4.758-4.25
						c-0.73-2.418,1.883-5.005,3.787-5.962c2.991-1.503,6.321,1.561,8.837,3.042c2.494,1.469,6.431,4.839,9.317,4.929
						c-0.654-1.738-3.278-2.846-4.812-3.805c-2.866-1.792-5.621-3.616-7.5-5.333c-2.251-2.058,0.197-3.962,2.671-5.671
						c2.372-1.639,4.547-1.012,6.833,0.463c2.56,1.648,5.16,4.27,8.313,4.516c-0.875-2.197-10.915-7.133-6.992-9.641
						c0.948-0.605,2.165-1.126,3.482-1.497C127.195,266.025,118,273.5,118,273.5c-19.333,15.333-22.5,29.833-23.667,35.5
						c-1.961,12.138,4.915,13.81,11.542,12.586C102.321,322.02,98.241,319.974,96.375,317.129z"/>
					<path fill="#FFFFFF" d="M142.109,263.639c1.854,0.406,3.355,1.396,3.932,3.199c0.771,2.412,0.896,4.287-0.292,5.287
						c-1.219,1.025-5.771-2.684-5.891-2.268c-0.519,1.802,3.558,3.017,4.438,4.643c0.985,1.82,0.958,5.234-0.297,6.999
						c-2.312,3.251-9.363-2.897-12.203-4.296c-0.872-0.43-2.129-1.128-3.108-1.174c0.438,1.287,3.889,2.642,5.125,3.471
						c1.792,1.202,4.341,2.221,5.875,3.688c1.92,1.838,1.678,4.104,0.692,6.313c-1.258,2.821-2.972,3.604-5.583,2.041
						c-3.637-2.177-7.683-6.992-12-7.504c-3.13-0.371,1.787,2.405,2.87,2.963c2.243,1.153,3.528,2.056,5.634,3.541
						c1.996,1.408,4.428,3.136,4.042,5.959c-0.298,2.172-2.417,4.832-4.301,5.875c-4.717,2.608-8.815-3.203-12.245-5.663
						c-1.121-0.804-4.825-3.912-5.979-2.712c0.89,1.789,4.654,3.376,6.341,4.541c2.097,1.449,4.336,2.69,6.346,4.251
						c5.718,4.438-2.417,9.377-7.171,7.504c-4.326-1.704-8.597-8.9-13.475-8.271c-0.286,1.392,4.647,3.679,5.798,4.516
						c1.929,1.404,3.903,2.771,5.797,4.171c2.264,1.669,1.991,3.588-0.247,5.162c-2.391,1.682-4.418,1.229-6.586-0.496
						c-2.035-1.619-5.105-4.479-7.764-4.683c-0.052,0.253-0.046,0.525,0.004,0.775c2.376,1.184,11.409,5.312,7.466,8.654
						c-0.683,0.579-1.455,0.972-2.272,1.217c1.967-0.463,3.864-1.144,5.444-1.842c20.333-10.833,31.167-34.167,33.5-42.667
						C148.022,266.454,145.138,264.145,142.109,263.639z"/>
					<path fill="#FFFFFF" d="M142.109,263.639c-1.929-0.423-4.239-0.217-6.302,0.364c1.428-0.336,2.841-0.526,4.193-0.503
						C140.669,263.5,141.394,263.52,142.109,263.639z"/>
					<path fill="#FFFFFF" d="M107.056,321.342c-0.392,0.092-0.786,0.172-1.181,0.244
						C106.277,321.537,106.671,321.457,107.056,321.342z"/>
				</g>
			</g>
			<path fill="#FFFFFF" d="M173.167,304.666c-14.5-5.667-18.5,9.334-18.5,9.334c-2.5,14,11.5,26.333,15.5,28.5
				c11.167,6,18.667,0.5,20-6.001C193,320.998,182.333,309,173.167,304.666z M188.638,335.025c0.646,2.614-0.147,4.424-2.259,6.35
				c-1.848,1.686-4.816,2.85-7.208,2.962c-2.152,0.104-5.528-0.363-6.963-2.212c-1.878-2.421,1.938-4.291,3.787-5.5
				c2.572-1.682,6.333-3.87,7.488-6.925c-2.014,0.093-4.931,3.322-6.655,4.425c-2.082,1.331-4.236,2.745-6.496,3.662
				c-2.558,1.037-4.815,0.281-6.878-1.58c-0.798-0.72-1.978-1.924-2.125-3.041c-0.194-1.472,0.901-2.18,1.878-3.124
				c2.05-1.979,4.364-3.645,6.667-5.338c1.699-1.251,6.125-4.538,6.433-5.846c-1.913-0.146-4.921,3.256-6.469,4.349
				c-2.119,1.495-4.391,2.86-6.542,4.256c-1.922,1.247-4.151,2.63-5.842,0.407c-1.499-1.971-1.123-4.406,0.338-6.245
				c3.449-4.343,9.302-6.009,12.515-10.583c-1.204-0.598-4.542,2.647-5.682,3.421c-2.115,1.438-2.959,2.37-5.959,4.37
				c-0.827,0.552-2.279,1.907-3.378,1.378c-0.949-0.456-0.958-2.501-0.792-3.382c0.412-2.19,1.028-4.715,2.171-6.663
				c1.01-1.723,2.471-3.405,4.167-4.5c1.569-1.014,3.165-1.857,5.102-1.96c1.589-0.084,3.076,0.622,1.698,2.248
				c-1.097,1.294-4.45,2.194-4.437,4.188c4.344-1.252,8.806-7.131,13.641-3.02c4.286,3.645-6.056,8.344-8.216,10
				c-1.194,0.915-3.036,2.078-3.434,3.512c1.644,0.018,4.814-3.534,6.275-4.513c2.128-1.424,4.212-3.577,6.574-4.421
				c4.754-1.699,9.414,4.929,6.251,8.93c-1.666,2.106-4.414,3.78-6.617,5.242c-1.881,1.248-5.648,3.301-6.483,5.433
				c2.266-0.231,5.095-3.442,7.015-4.767c2.074-1.426,4.204-3.272,6.63-3.995c2.927-0.871,3.825,2.17,4.157,4.463
				c0.427,2.941-0.91,4.467-3.032,6.45c-1.343,1.254-4.795,3.067-5.104,4.845C183.601,338.254,185.56,334.667,188.638,335.025z"/>
			<g>
				<path fill="#FFFFFF" d="M464.751,94c0.987-3.319,4.271-6.841,5.938-9.999c1.446-2.748,2.982-5.533,3.526-8.457
					c-2.205,0.106-4.934,6.762-6.028,8.693c-1.606,2.827-2.662,6.844-4.75,9.214c-2.591,2.937-7.138,2.169-8.938-1.188
					c-1.9-3.538,0.921-6.795,2.682-9.832c1.499-2.584,2.828-5.319,4.382-7.875c1.226-2.014,3.404-4.131,3.396-6.524
					c-2.833,0.886-4.516,5.887-5.761,8.413c-1.579,3.203-3.121,6.322-4.882,9.368c-0.913,1.578-1.562,3.28-3.313,3.688
					c-1.893,0.44-4.095-0.671-5.062-2.188c-2.268-3.548,0.735-8.128,2.513-11.313c1.906-3.422,4.93-7.033,4.25-11.224
					c-1.239,1.172-1.526,3.437-2.396,4.973c-0.799,1.414-1.67,2.703-2.488,4.063c-1.368,2.264-2.69,8.155-5.619,8.881
					c-3.301,0.818-6.655-5.185-6.442-7.943c0.267-3.427,3.622-7.384,5.188-10.513c0.788-1.577,1.629-3.402,1.513-5.211
					c-2.57,2.582-5.843,16.699-11.505,13.042c-0.256-0.166-0.483-0.364-0.699-0.576c1.587,2.894,3.854,5.713,6.754,9.258
					c9.993,10.493,20.734,15.493,29.699,17.683C465.121,97.557,464.131,96.085,464.751,94z"/>
				<path fill="#FFFFFF" d="M448.312,54.438c2.232,2.695-0.79,6.582-1.999,9.319c-0.907,2.054-4.831,7.829-4.062,9.993
					c0.062,0.17,0.022,0.533,0.048,0.724c4.863-3.97,4.6-14.687,11.438-16.738c4.815-1.445,7.358,1.77,5.771,6.021
					c-1.217,3.249-3.328,6.001-5.006,8.994c-1.562,2.786-2.879,5.894-3.471,8.967c1.942-0.836,3.554-6.471,4.654-8.53
					c1.616-3.015,3.006-6.712,5.504-9.194c2.425-2.409,6.973-2.543,9.122,0.5c2.234,3.164-0.938,7.255-2.5,10
					c-1.186,2.081-2.059,4.365-3.125,6.506c-0.979,1.954-3.271,4.54-3.14,6.724c2.302-1.968,4.216-6.031,5.765-8.711
					c1.589-2.748,2.854-7.049,5.25-9.201C475.574,67.108,479.775,69.3,480,73c0.214,3.535-2.558,7.361-4,10.5
					c-1.499,3.262-4.75,9-4,9.75c1,0.75,2.515-5.45,4.182-8.306c1.52-2.596,3.479-7.194,6.006-8.964
					c1.646-1.15,3.115-0.753,4.229,0.321c-2.348-3.033-4.882-5.518-6.664-6.801c-12.291-9.833-24.208-14.605-32.898-16.404
					C447.336,53.417,447.823,53.85,448.312,54.438z"/>
				<path fill="#FFFFFF" d="M428,62.251c0.16-3.081,1.816-5.69,4.473-7.305c2.186-1.326,5.518-1.91,4.215,1.742
					c-0.895,2.516-3.152,4.724-3.195,7.474c2.187-2.181,6.023-10.438,10.295-11.602c-2.358-0.329-4.398-0.416-6.033-0.311
					c-11.972,1.524-10.299,11.194-9.665,13.67C427.945,64.608,427.944,63.314,428,62.251z"/>
				<path fill="#FFFFFF" d="M487.546,77.834c0.612,1.146,0.965,2.497,0.953,3.665c-0.032,3.287-2.492,6.752-3.513,9.988
					c-0.312,0.989-1.486,3.013-0.688,3.188c1.449,0.075,1.939-5.186,4.011-6.863c3.262-2.638,4.104,1.353,3.388,4.133
					c-1.562,6.023-8.195,7.27-13.658,7.018c-1.935-4.684,6.666-10.404,6.413-15.443c-3.876,4.332-5.476,14.465-12.188,15.743
					c-0.267,0.051-0.547,0.083-0.832,0.105c6.733,1.022,11.973,0.495,14.319-0.118C496.271,95.241,492.844,85.322,487.546,77.834z"
					/>
				<path fill="#FFFFFF" d="M471.431,99.368c-1.508-0.229-3.089-0.535-4.729-0.936C468.059,99.187,469.85,99.493,471.431,99.368z"/>
				<path fill="#FFFFFF" d="M486.414,76.301c0.384,0.497,0.762,1.01,1.132,1.533C487.233,77.25,486.854,76.725,486.414,76.301z"/>
				<path fill="#FFFFFF" d="M443.783,52.561c0.969,0.135,1.993,0.313,3.062,0.535C445.814,52.412,444.787,52.287,443.783,52.561z"/>
				<path fill="#FFFFFF" d="M428.085,65.92c0.224,2.107,0.821,4.253,2.161,5.572c-0.876-1.597-1.552-3.214-1.996-4.992
					C428.25,66.5,428.179,66.288,428.085,65.92z"/>
			</g>
		</g>
		<g display="none">
			<path display="inline" fill="none" d="M139.859,269.857c-0.519,1.802,3.558,3.017,4.438,4.643
				c0.985,1.82,0.958,5.234-0.297,6.999c-2.312,3.251-9.363-2.897-12.203-4.296c-0.872-0.43-2.129-1.128-3.108-1.174
				c0.438,1.287,3.889,2.642,5.125,3.471c1.792,1.202,4.341,2.221,5.875,3.688c1.92,1.838,1.678,4.104,0.692,6.313
				c-1.258,2.821-2.972,3.604-5.583,2.041c-3.637-2.177-7.683-6.992-12-7.504c-3.13-0.371,1.787,2.405,2.87,2.963
				c2.243,1.153,3.528,2.056,5.634,3.541c1.996,1.408,4.428,3.136,4.042,5.959c-0.298,2.172-2.417,4.832-4.301,5.875
				c-4.717,2.608-8.815-3.203-12.245-5.663c-1.121-0.804-4.825-3.912-5.979-2.712c0.89,1.789,4.654,3.376,6.341,4.541
				c2.097,1.449,4.336,2.69,6.346,4.251c5.718,4.438-2.417,9.377-7.171,7.504c-4.326-1.704-8.597-8.9-13.475-8.271
				c-0.286,1.392,4.647,3.679,5.798,4.516c1.929,1.404,3.903,2.771,5.797,4.171c2.264,1.669,1.991,3.588-0.247,5.162
				c-2.391,1.682-4.418,1.229-6.586-0.496c-2.035-1.619-5.105-4.479-7.764-4.683c-0.052,0.253-0.046,0.525,0.004,0.775
				c2.376,1.184,11.409,5.312,7.466,8.654c-3.84,3.257-10.428,0.854-12.954-2.996c-1.46-2.227-1.074-4.398,1.968-3.175
				c2.045,0.823,3.753,2.546,5.798,3.357c0.007-1.335-4.431-3.34-5.641-4.146c-2.262-1.514-3.849-2.673-3.625-5.604
				c0.501-6.553,8.705-0.165,11.287,1.312c1.374,0.786,2.888,1.651,4.455,1.925c-2.014-1.375-4.363-2.354-6.413-3.845
				c-1.759-1.275-4.338-1.964-5.579-3.742c-1.174-1.685-0.987-5.582,0.25-7.171c1.67-2.145,3.517-1.697,5.792-0.708
				c2.371,1.03,4.736,2.616,6.7,4.292c1.536,1.311,4.816,4.548,6.945,4.184c-0.271-1.234-3.645-3.47-4.812-4.476
				c-1.811-1.562-4.195-2.83-6.204-4.13c-2.108-1.365-4.931-1.463-4.467-4.703c0.352-2.458,2.264-4.4,4.633-5.036
				c8.014-2.149,14.537,8.411,21.187,10.515c-1.032-1.726-3.924-3.418-5.604-4.687c-2.003-1.513-4.281-2.808-6.416-4.08
				c-1.63-0.974-4.15-2.235-4.758-4.25c-0.73-2.418,1.883-5.005,3.787-5.962c2.991-1.503,6.321,1.561,8.837,3.042
				c2.494,1.469,6.431,4.839,9.317,4.929c-0.654-1.738-3.278-2.846-4.812-3.805c-2.866-1.792-5.621-3.616-7.5-5.333
				c-2.251-2.058,0.197-3.962,2.671-5.671c2.372-1.639,4.547-1.012,6.833,0.463c2.56,1.648,5.16,4.27,8.313,4.516
				c-0.875-2.197-10.915-7.133-6.992-9.641c3.862-2.469,12.156-3.545,13.717,1.338c0.771,2.412,0.896,4.287-0.292,5.287
				C144.531,273.15,139.979,269.441,139.859,269.857z"/>
			<path display="inline" fill="none" d="M436.688,56.688c-0.895,2.516-3.152,4.724-3.195,7.474
				c2.938-2.936,8.881-16.886,14.82-9.725c2.235,2.695-0.789,6.582-1.998,9.319c-0.905,2.054-4.829,7.829-4.062,9.993
				c0.062,0.17,0.022,0.533,0.048,0.724c4.863-3.97,4.599-14.687,11.438-16.738c4.815-1.445,7.358,1.77,5.771,6.021
				c-1.217,3.249-3.328,6.001-5.006,8.994c-1.562,2.786-2.879,5.894-3.471,8.967c1.942-0.836,3.554-6.471,4.653-8.53
				c1.617-3.015,3.007-6.712,5.504-9.194c2.426-2.409,6.974-2.543,9.122,0.5c2.235,3.164-0.938,7.255-2.5,10
				c-1.185,2.081-2.058,4.365-3.125,6.506c-0.978,1.954-3.271,4.54-3.139,6.724c2.302-1.968,4.216-6.031,5.764-8.711
				c1.589-2.748,2.854-7.049,5.25-9.201C475.574,67.108,479.775,69.3,480,73c0.214,3.535-2.558,7.361-4,10.5
				c-1.499,3.262-4.75,9-4,9.75c1,0.75,2.515-5.45,4.182-8.306c1.52-2.596,3.479-7.194,6.006-8.964
				c3.562-2.494,6.348,2.246,6.312,5.519c-0.032,3.287-2.492,6.752-3.513,9.988c-0.312,0.989-0.577,2.236-0.688,3.188
				c1.278-2.247,1.939-5.186,4.015-6.863c3.258-2.638,4.104,1.353,3.384,4.133c-1.562,6.023-8.195,7.27-13.658,7.018
				c-1.933-4.684,6.666-10.404,6.413-15.443c-3.876,4.332-5.473,14.465-12.188,15.743c-3.47,0.661-8.763-1.059-7.512-5.263
				c0.987-3.319,4.271-6.841,5.938-9.999c1.446-2.748,2.982-5.533,3.526-8.457c-2.205,0.106-4.934,6.762-6.028,8.693
				c-1.606,2.827-2.662,6.844-4.75,9.214c-2.591,2.937-7.138,2.169-8.938-1.188c-1.9-3.538,0.921-6.795,2.682-9.832
				c1.499-2.584,2.828-5.319,4.384-7.875c1.224-2.014,3.402-4.131,3.394-6.524c-2.833,0.886-4.516,5.887-5.761,8.413
				c-1.579,3.203-3.121,6.322-4.882,9.368c-0.913,1.578-1.562,3.28-3.313,3.688c-1.893,0.44-4.095-0.671-5.062-2.188
				c-2.268-3.548,0.735-8.128,2.513-11.313c1.906-3.422,4.93-7.033,4.25-11.224c-1.239,1.172-1.526,3.437-2.396,4.973
				c-0.8,1.414-1.671,2.703-2.489,4.063c-1.368,2.264-2.69,8.155-5.619,8.881c-3.301,0.818-6.655-5.185-6.442-7.943
				c0.268-3.427,3.622-7.384,5.188-10.513c0.788-1.577,1.629-3.402,1.513-5.211c-2.57,2.582-5.843,16.699-11.505,13.042
				c-2.835-1.832-3.104-6.77-2.945-9.816c0.16-3.081,1.816-5.69,4.477-7.305C434.654,53.621,437.986,53.037,436.688,56.688z"/>
			<path display="inline" fill="none" d="M188.638,335.025c0.646,2.614-0.147,4.424-2.259,6.35c-1.848,1.686-4.816,2.85-7.208,2.962
				c-2.152,0.104-5.528-0.363-6.963-2.212c-1.878-2.421,1.938-4.291,3.787-5.5c2.572-1.682,6.333-3.87,7.488-6.925
				c-2.014,0.093-4.931,3.322-6.655,4.425c-2.082,1.331-4.236,2.745-6.496,3.662c-2.558,1.037-4.815,0.281-6.878-1.58
				c-0.798-0.72-1.978-1.924-2.125-3.041c-0.194-1.472,0.901-2.18,1.878-3.124c2.05-1.979,4.364-3.645,6.667-5.338
				c1.699-1.251,6.125-4.538,6.433-5.846c-1.913-0.146-4.921,3.256-6.469,4.349c-2.119,1.495-4.391,2.86-6.542,4.256
				c-1.922,1.247-4.151,2.63-5.842,0.407c-1.499-1.971-1.123-4.406,0.338-6.245c3.449-4.343,9.302-6.009,12.515-10.583
				c-1.204-0.598-4.542,2.647-5.682,3.421c-2.115,1.438-2.959,2.37-5.959,4.37c-0.827,0.552-2.279,1.907-3.378,1.378
				c-0.949-0.456-0.958-2.501-0.792-3.382c0.412-2.19,1.028-4.715,2.171-6.663c1.01-1.723,2.471-3.405,4.167-4.5
				c1.569-1.014,3.165-1.857,5.102-1.96c1.589-0.084,3.076,0.622,1.698,2.248c-1.097,1.294-4.45,2.194-4.437,4.188
				c4.344-1.252,8.806-7.131,13.641-3.02c4.286,3.645-6.056,8.344-8.216,10c-1.194,0.915-3.036,2.078-3.434,3.512
				c1.644,0.018,4.814-3.534,6.275-4.513c2.128-1.424,4.212-3.577,6.574-4.421c4.754-1.699,9.414,4.929,6.251,8.93
				c-1.666,2.106-4.414,3.78-6.617,5.242c-1.881,1.248-5.648,3.301-6.483,5.433c2.266-0.231,5.095-3.442,7.015-4.767
				c2.074-1.426,4.204-3.272,6.63-3.995c2.927-0.871,3.825,2.17,4.157,4.463c0.427,2.941-0.91,4.467-3.032,6.45
				c-1.343,1.254-4.795,3.067-5.104,4.845C183.601,338.254,185.56,334.667,188.638,335.025z"/>
		</g>
	</g>
</g>
</svg>
