<?xml version="1.0" encoding="utf-8"?>
<!-- Generator: Adobe Illustrator 16.0.0, SVG Export Plug-In . SVG Version: 6.00 Build 0)  -->
<!DOCTYPE svg PUBLIC "-//W3C//DTD SVG 1.1//EN" "http://www.w3.org/Graphics/SVG/1.1/DTD/svg11.dtd">
<svg xmlns="http://www.w3.org/2000/svg" xmlns:xlink="http://www.w3.org/1999/xlink" version="1.1" id="Layer_1" x="0px" y="0px" width="100%" viewBox="0 0 900 600" enable-background="new 0 0 900 600" xml:space="preserve">
<g id="Samples">
	<g id="Gibberellic_Acid_Inhibitors_at_12_Hours">
		
		<g id="Uniconazole_Treated_at_12_Hours" fill="#FFFFFF" onclick="mouseClick(this);" onmouseover="mouseOverTissue(this);" onmouseout="mouseOut();">
			<path id="leafs_161_" stroke="#000000" stroke-width="0.5" stroke-miterlimit="10" d="M185.344,125.083     c0,0,3.634-5.589,15.745-2.329c1.492,0.746,2.889,1.771,5.031,1.304c2.142-0.745,6.243-2.33,13.881-1.118     c1.398,0.839,5.497,2.795,4.006,6.708c-1.025,1.305-3.448,2.981-9.689-0.465c-2.702-1.677-5.031-3.447-8.479-2.981     c-2.516,0.186-2.516,0.186-2.516,0.186c-1.211-0.374-3.261-0.186-4.845,0.745c-2.236,1.118-7.733,4.006-11.18,2.701     C185.344,128.903,183.853,128.343,185.344,125.083z"/>
			<path id="root_161_" stroke="#000000" stroke-width="0.5" stroke-miterlimit="10" d="M203.325,126.387     c0,0,1.863-0.28,2.516-0.186c0.187,2.05,0.28,10.155,0,16.211c-0.186,2.516,0.28,3.634-2.981,7.268     c-2.236,2.329-5.777,5.589-6.429,6.429c-0.839,1.677-3.354,7.826-3.541,9.037c0.093-3.354,0.187-8.571,2.889-10.901     c2.236-2.05,4.938-4.192,7.92-9.969C203.604,140.176,203.792,127.411,203.325,126.387z"/>
		</g>
		
		<g id="Propiconazole_Treated_at_12_Hours" fill="#FFFFFF" onclick="mouseClick(this);" onmouseover="mouseOverTissue(this);" onmouseout="mouseOut();">
			<path id="leafs_159_" stroke="#000000" stroke-width="0.5" stroke-miterlimit="10" d="M185.344,76.593     c0,0,3.634-5.589,15.745-2.329c1.492,0.746,2.889,1.771,5.031,1.304c2.142-0.745,6.243-2.329,13.881-1.118     c1.398,0.839,5.497,2.795,4.006,6.708c-1.025,1.305-3.448,2.981-9.689-0.465c-2.702-1.677-5.031-3.447-8.479-2.981     c-2.516,0.186-2.516,0.186-2.516,0.186c-1.211-0.374-3.261-0.186-4.845,0.745c-2.236,1.118-7.733,4.006-11.18,2.701     C185.344,80.414,183.853,79.854,185.344,76.593z"/>
			<path id="root_159_" stroke="#000000" stroke-width="0.5" stroke-miterlimit="10" d="M203.325,77.898     c0,0,1.863-0.28,2.516-0.186c0.187,2.05,0.28,10.155,0,16.212c-0.186,2.515,0.28,3.634-2.981,7.268     c-2.236,2.329-5.777,5.589-6.429,6.429c-0.839,1.677-3.354,7.826-3.541,9.037c0.093-3.354,0.187-8.571,2.889-10.901     c2.236-2.051,4.938-4.193,7.92-9.969C203.604,91.687,203.792,78.922,203.325,77.898z"/>
		</g>
		
		<g id="Prohexadione_Treated_at_12_Hours" fill="#FFFFFF" onclick="mouseClick(this);" onmouseover="mouseOverTissue(this);" onmouseout="mouseOut();">
			<path id="leafs_158_" stroke="#000000" stroke-width="0.5" stroke-miterlimit="10" d="M377.361,125.083     c0,0,3.634-5.589,15.745-2.329c1.492,0.746,2.889,1.771,5.031,1.304c2.146-0.745,6.243-2.33,13.881-1.118     c1.398,0.839,5.497,2.795,4.011,6.708c-1.025,1.305-3.447,2.981-9.689-0.465c-2.702-1.677-5.031-3.447-8.479-2.981     c-2.521,0.186-2.521,0.186-2.521,0.186c-1.211-0.374-3.262-0.186-4.845,0.745c-2.237,1.118-7.733,4.006-11.181,2.701     C377.361,128.903,375.87,128.343,377.361,125.083z"/>
			<path id="root_158_" stroke="#000000" stroke-width="0.5" stroke-miterlimit="10" d="M395.342,126.387     c0,0,1.863-0.28,2.521-0.186c0.187,2.05,0.275,10.155,0,16.211c-0.188,2.516,0.275,3.634-2.981,7.268     c-2.236,2.329-5.777,5.589-6.429,6.429c-0.839,1.677-3.354,7.826-3.541,9.037c0.093-3.354,0.187-8.571,2.889-10.901     c2.236-2.05,4.938-4.192,7.92-9.969C395.622,140.176,395.809,127.411,395.342,126.387z"/>
		</g>
		
		<g id="Paclobutrazol_Treated_at_12_Hours" fill="#FFFFFF" onclick="mouseClick(this);" onmouseover="mouseOverTissue(this);" onmouseout="mouseOut();">
			<path id="leafs_154_" stroke="#000000" stroke-width="0.5" stroke-miterlimit="10" d="M377.361,76.593     c0,0,3.634-5.589,15.745-2.329c1.492,0.746,2.889,1.771,5.031,1.304c2.146-0.745,6.243-2.329,13.881-1.118     c1.398,0.839,5.497,2.795,4.011,6.708c-1.025,1.305-3.447,2.981-9.689-0.465c-2.702-1.677-5.031-3.447-8.479-2.981     c-2.521,0.186-2.521,0.186-2.521,0.186c-1.211-0.374-3.262-0.186-4.845,0.745c-2.237,1.118-7.733,4.006-11.181,2.701     C377.361,80.414,375.87,79.854,377.361,76.593z"/>
			<path id="root_154_" stroke="#000000" stroke-width="0.5" stroke-miterlimit="10" d="M395.342,77.898     c0,0,1.863-0.28,2.521-0.186c0.187,2.05,0.275,10.155,0,16.212c-0.188,2.515,0.275,3.634-2.981,7.268     c-2.236,2.329-5.777,5.589-6.429,6.429c-0.839,1.677-3.354,7.826-3.541,9.037c0.093-3.354,0.187-8.571,2.889-10.901     c2.236-2.051,4.938-4.193,7.92-9.969C395.622,91.687,395.809,78.922,395.342,77.898z"/>
		</g>
		<g id="Control_at_12_Hours" fill="#FFFFFF" onclick="mouseClick(this);" onmouseover="mouseOverTissue(this);" onmouseout="mouseOut();">
			<path id="leafs_155_" stroke="#000000" stroke-width="0.5" stroke-miterlimit="10" d="M196.707,37.255     c0,0,1.989-3.061,8.621-1.275c0.816,0.408,1.582,0.97,2.754,0.713c1.173-0.407,3.418-1.275,7.601-0.611     c0.765,0.459,3.01,1.53,2.193,3.672c-0.561,0.714-1.887,1.632-5.305-0.255c-1.479-0.918-2.754-1.887-4.642-1.632     c-1.377,0.102-1.377,0.102-1.377,0.102c-0.663-0.204-1.786-0.102-2.652,0.409c-1.224,0.612-4.233,2.193-6.122,1.479     C196.707,39.347,195.891,39.041,196.707,37.255z"/>
			<path id="root_155_" stroke="#000000" stroke-width="0.5" stroke-miterlimit="10" d="M206.551,37.97     c0,0,1.02-0.153,1.377-0.102c0.102,1.122,0.153,5.56,0,8.875c-0.102,1.377,0.153,1.989-1.632,3.979     c-1.224,1.275-3.163,3.061-3.52,3.52c-0.458,0.918-1.837,4.284-1.938,4.948c0.051-1.837,0.102-4.693,1.581-5.968     c1.225-1.122,2.704-2.295,4.336-5.457C206.704,45.519,206.806,38.53,206.551,37.97z"/>
		</g>
		
		<g id="Control_at_12_Hours_1_" fill="#FFFFFF" onclick="mouseClick(this);" onmouseover="mouseOverTissue(this);" onmouseout="mouseOut();">
			<path id="leafs_150_" stroke="#000000" stroke-width="0.5" stroke-miterlimit="10" d="M388.724,37.255     c0,0,1.989-3.061,8.621-1.275c0.816,0.408,1.582,0.97,2.754,0.713c1.178-0.407,3.417-1.275,7.604-0.611     c0.765,0.459,3.01,1.53,2.188,3.672c-0.561,0.714-1.887,1.632-5.305-0.255c-1.479-0.918-2.754-1.887-4.642-1.632     c-1.377,0.102-1.377,0.102-1.377,0.102c-0.663-0.204-1.786-0.102-2.652,0.409c-1.224,0.612-4.233,2.193-6.122,1.479     C388.724,39.347,387.908,39.041,388.724,37.255z"/>
			<path id="root_150_" stroke="#000000" stroke-width="0.5" stroke-miterlimit="10" d="M398.568,37.97     c0,0,1.02-0.153,1.377-0.102c0.102,1.122,0.148,5.56,0,8.875c-0.104,1.377,0.148,1.989-1.632,3.979     c-1.229,1.275-3.167,3.061-3.521,3.52c-0.458,0.918-1.836,4.284-1.938,4.948c0.051-1.837,0.102-4.693,1.581-5.968     c1.225-1.122,2.704-2.295,4.336-5.457C398.721,45.519,398.823,38.53,398.568,37.97z"/>
		</g>
	</g>
	<g id="Gibberellic_Acid_Inhibitors_at_3_Hours">
		
		<g id="Uniconazole_Treated_at_3_Hours" fill="#FFFFFF" onclick="mouseClick(this);" onmouseover="mouseOverTissue(this);" onmouseout="mouseOut();">
			<path id="leafs_152_" stroke="#000000" stroke-width="0.5" stroke-miterlimit="10" d="M135.885,125.083     c0,0,3.634-5.589,15.745-2.329c1.492,0.746,2.889,1.771,5.031,1.304c2.142-0.745,6.243-2.33,13.881-1.118     c1.398,0.839,5.497,2.795,4.007,6.708c-1.025,1.305-3.448,2.981-9.689-0.465c-2.702-1.677-5.031-3.447-8.479-2.981     c-2.516,0.186-2.516,0.186-2.516,0.186c-1.211-0.374-3.261-0.186-4.845,0.745c-2.237,1.118-7.733,4.006-11.181,2.701     C135.885,128.903,134.394,128.343,135.885,125.083z"/>
			<path id="root_152_" stroke="#000000" stroke-width="0.5" stroke-miterlimit="10" d="M153.866,126.387     c0,0,1.863-0.28,2.516-0.186c0.187,2.05,0.28,10.155,0,16.211c-0.186,2.516,0.28,3.634-2.981,7.268     c-2.236,2.329-5.777,5.589-6.429,6.429c-0.839,1.677-3.354,7.826-3.541,9.037c0.093-3.354,0.186-8.571,2.889-10.901     c2.236-2.05,4.938-4.192,7.92-9.969C154.146,140.176,154.333,127.411,153.866,126.387z"/>
		</g>
		
		<g id="Propiconazole_Treated_at_3_Hours" fill="#FFFFFF" onclick="mouseClick(this);" onmouseover="mouseOverTissue(this);" onmouseout="mouseOut();">
			<path id="leafs_145_" stroke="#000000" stroke-width="0.5" stroke-miterlimit="10" d="M135.885,76.593     c0,0,3.634-5.589,15.745-2.329c1.492,0.746,2.889,1.771,5.031,1.304c2.142-0.745,6.243-2.329,13.881-1.118     c1.398,0.839,5.497,2.795,4.007,6.708c-1.025,1.305-3.448,2.981-9.689-0.465c-2.702-1.677-5.031-3.447-8.479-2.981     c-2.516,0.186-2.516,0.186-2.516,0.186c-1.211-0.374-3.261-0.186-4.845,0.745c-2.237,1.118-7.733,4.006-11.181,2.701     C135.885,80.414,134.394,79.854,135.885,76.593z"/>
			<path id="root_145_" stroke="#000000" stroke-width="0.5" stroke-miterlimit="10" d="M153.866,77.898     c0,0,1.863-0.28,2.516-0.186c0.187,2.05,0.28,10.155,0,16.212c-0.186,2.515,0.28,3.634-2.981,7.268     c-2.236,2.329-5.777,5.589-6.429,6.429c-0.839,1.677-3.354,7.826-3.541,9.037c0.093-3.354,0.186-8.571,2.889-10.901     c2.236-2.051,4.938-4.193,7.92-9.969C154.146,91.687,154.333,78.922,153.866,77.898z"/>
		</g>
		<g id="Control_at_3_Hours" fill="#FFFFFF" onclick="mouseClick(this);" onmouseover="mouseOverTissue(this);" onmouseout="mouseOut();">
			<path id="leafs_149_" stroke="#000000" stroke-width="0.5" stroke-miterlimit="10" d="M147.248,37.255     c0,0,1.989-3.061,8.621-1.275c0.816,0.408,1.582,0.97,2.754,0.713c1.174-0.407,3.418-1.275,7.601-0.611     c0.765,0.459,3.01,1.53,2.193,3.672c-0.561,0.714-1.887,1.632-5.305-0.255c-1.479-0.918-2.754-1.887-4.642-1.632     c-1.377,0.102-1.377,0.102-1.377,0.102c-0.663-0.204-1.786-0.102-2.652,0.409c-1.224,0.612-4.233,2.193-6.122,1.479     C147.248,39.347,146.432,39.041,147.248,37.255z"/>
			<path id="root_149_" stroke="#000000" stroke-width="0.5" stroke-miterlimit="10" d="M157.092,37.97     c0,0,1.02-0.153,1.377-0.102c0.102,1.122,0.153,5.56,0,8.875c-0.102,1.377,0.153,1.989-1.632,3.979     c-1.224,1.275-3.163,3.061-3.52,3.52c-0.458,0.918-1.836,4.284-1.938,4.948c0.051-1.837,0.102-4.693,1.581-5.968     c1.225-1.122,2.704-2.295,4.336-5.457C157.245,45.519,157.347,38.53,157.092,37.97z"/>
		</g>
		<g id="Control_at_3_Hours_1_" fill="#FFFFFF" onclick="mouseClick(this);" onmouseover="mouseOverTissue(this);" onmouseout="mouseOut();">
			<path id="leafs_140_" stroke="#000000" stroke-width="0.5" stroke-miterlimit="10" d="M340.235,37.255     c0,0,1.989-3.061,8.621-1.275c0.817,0.408,1.582,0.97,2.754,0.713c1.173-0.407,3.417-1.275,7.601-0.611     c0.765,0.459,3.01,1.53,2.193,3.672c-0.561,0.714-1.887,1.632-5.304-0.255c-1.479-0.918-2.755-1.887-4.643-1.632     c-1.377,0.102-1.377,0.102-1.377,0.102c-0.664-0.204-1.786-0.102-2.653,0.409c-1.224,0.612-4.233,2.193-6.121,1.479     C340.235,39.347,339.418,39.041,340.235,37.255z"/>
			<path id="root_140_" stroke="#000000" stroke-width="0.5" stroke-miterlimit="10" d="M350.08,37.97     c0,0,1.02-0.153,1.377-0.102c0.102,1.122,0.153,5.56,0,8.875c-0.102,1.377,0.153,1.989-1.632,3.979     c-1.224,1.275-3.163,3.061-3.52,3.52c-0.458,0.918-1.836,4.284-1.938,4.948c0.051-1.837,0.102-4.693,1.581-5.968     c1.225-1.122,2.704-2.295,4.336-5.457C350.231,45.519,350.334,38.53,350.08,37.97z"/>
		</g>
		
		<g id="Prohexadione_Treated_at_3_Hours" fill="#FFFFFF" onclick="mouseClick(this);" onmouseover="mouseOverTissue(this);" onmouseout="mouseOut();">
			<path id="leafs_147_" stroke="#000000" stroke-width="0.5" stroke-miterlimit="10" d="M328.872,125.083     c0,0,3.634-5.589,15.745-2.329c1.492,0.746,2.889,1.771,5.031,1.304c2.142-0.745,6.243-2.33,13.881-1.118     c1.398,0.839,5.497,2.795,4.007,6.708c-1.025,1.305-3.448,2.981-9.689-0.465c-2.702-1.677-5.031-3.447-8.479-2.981     c-2.515,0.186-2.515,0.186-2.515,0.186c-1.211-0.374-3.262-0.186-4.845,0.745c-2.237,1.118-7.733,4.006-11.181,2.701     C328.872,128.903,327.38,128.343,328.872,125.083z"/>
			<path id="root_147_" stroke="#000000" stroke-width="0.5" stroke-miterlimit="10" d="M346.853,126.387     c0,0,1.863-0.28,2.515-0.186c0.187,2.05,0.28,10.155,0,16.211c-0.186,2.516,0.28,3.634-2.981,7.268     c-2.236,2.329-5.777,5.589-6.428,6.429c-0.839,1.677-3.354,7.826-3.542,9.037c0.093-3.354,0.187-8.571,2.889-10.901     c2.236-2.05,4.938-4.192,7.92-9.969C347.132,140.176,347.319,127.411,346.853,126.387z"/>
		</g>
		
		<g id="Paclobutrazol_Treated_at_3_Hours" fill="#FFFFFF" onclick="mouseClick(this);" onmouseover="mouseOverTissue(this);" onmouseout="mouseOut();">
			<path id="leafs_136_" stroke="#000000" stroke-width="0.5" stroke-miterlimit="10" d="M328.872,76.593     c0,0,3.634-5.589,15.745-2.329c1.492,0.746,2.889,1.771,5.031,1.304c2.142-0.745,6.243-2.329,13.881-1.118     c1.398,0.839,5.497,2.795,4.007,6.708c-1.025,1.305-3.448,2.981-9.689-0.465c-2.702-1.677-5.031-3.447-8.479-2.981     c-2.515,0.186-2.515,0.186-2.515,0.186c-1.211-0.374-3.262-0.186-4.845,0.745c-2.237,1.118-7.733,4.006-11.181,2.701     C328.872,80.414,327.38,79.854,328.872,76.593z"/>
			<path id="root_136_" stroke="#000000" stroke-width="0.5" stroke-miterlimit="10" d="M346.853,77.898     c0,0,1.863-0.28,2.515-0.186c0.187,2.05,0.28,10.155,0,16.212c-0.186,2.515,0.28,3.634-2.981,7.268     c-2.236,2.329-5.777,5.589-6.428,6.429c-0.839,1.677-3.354,7.826-3.542,9.037c0.093-3.354,0.187-8.571,2.889-10.901     c2.236-2.051,4.938-4.193,7.92-9.969C347.132,91.687,347.319,78.922,346.853,77.898z"/>
		</g>
	</g>
	<g id="Auxin_Inhibitors_1_">
		
		<g id="PCIB_Treated" fill="#FFFFFF" onclick="mouseClick(this);" onmouseover="mouseOverTissue(this);" onmouseout="mouseOut();">
			<path id="leafs_144_" stroke="#000000" stroke-width="0.5" stroke-miterlimit="10" d="M571.317,328.737     c0,0,3.634-5.591,15.745-2.329c1.487,0.745,2.889,1.771,5.026,1.305c2.146-0.746,6.242-2.329,13.882-1.118     c1.396,0.839,5.497,2.796,4.012,6.709c-1.025,1.309-3.447,2.98-9.69-0.465c-2.701-1.677-5.03-3.448-8.478-2.979     c-2.521,0.185-2.521,0.185-2.521,0.185c-1.212-0.373-3.262-0.185-4.846,0.746c-2.236,1.119-7.733,4.008-11.185,2.702     C571.317,332.557,569.826,331.998,571.317,328.737z"/>
			<path id="root_144_" stroke="#000000" stroke-width="0.5" stroke-miterlimit="10" d="M589.299,330.041     c0,0,1.862-0.279,2.521-0.185c0.187,2.049,0.274,10.15,0,16.212c-0.188,2.516,0.274,3.633-2.98,7.267     c-2.237,2.328-5.772,5.591-6.429,6.429c-0.838,1.681-3.354,7.825-3.54,9.038c0.094-3.354,0.186-8.571,2.889-10.896     c2.236-2.055,4.938-4.193,7.92-9.974C589.578,343.83,589.766,331.066,589.299,330.041z"/>
		</g>
		<g id="2_4_6-T_Treated" fill="#FFFFFF" onclick="mouseClick(this);" onmouseover="mouseOverTissue(this);" onmouseout="mouseOut();">
			<path id="leafs_131_" stroke="#000000" stroke-width="0.5" stroke-miterlimit="10" d="M571.317,280.248     c0,0,3.634-5.591,15.745-2.328c1.487,0.745,2.889,1.77,5.026,1.303c2.146-0.745,6.242-2.328,13.882-1.117     c1.396,0.839,5.497,2.795,4.012,6.709c-1.025,1.303-3.447,2.98-9.69-0.466c-2.701-1.677-5.03-3.448-8.478-2.981     c-2.521,0.186-2.521,0.186-2.521,0.186c-1.212-0.374-3.262-0.186-4.846,0.746c-2.236,1.118-7.733,4.007-11.185,2.702     C571.317,284.067,569.826,283.509,571.317,280.248z"/>
			<path id="root_131_" stroke="#000000" stroke-width="0.5" stroke-miterlimit="10" d="M589.299,281.553     c0,0,1.862-0.279,2.521-0.185c0.187,2.049,0.274,10.155,0,16.211c-0.188,2.516,0.274,3.633-2.98,7.267     c-2.237,2.328-5.772,5.596-6.429,6.434c-0.838,1.677-3.354,7.82-3.54,9.036c0.094-3.354,0.186-8.57,2.889-10.898     c2.236-2.051,4.938-4.19,7.92-9.969C589.578,295.341,589.766,282.576,589.299,281.553z"/>
		</g>
		<g id="NPA_Treated" fill="#FFFFFF" onclick="mouseClick(this);" onmouseover="mouseOverTissue(this);" onmouseout="mouseOut();">
			<path id="leafs_141_" stroke="#000000" stroke-width="0.5" stroke-miterlimit="10" d="M763.334,326.798     c0,0,3.634-5.591,15.746-2.329c1.491,0.745,2.889,1.771,5.03,1.309c2.144-0.745,6.238-2.328,13.882-1.117     c1.396,0.839,5.498,2.796,4.008,6.709c-1.026,1.304-3.447,2.979-9.69-0.465c-2.696-1.683-5.026-3.448-8.479-2.981     c-2.516,0.188-2.516,0.188-2.516,0.188c-1.212-0.372-3.266-0.188-4.85,0.744c-2.232,1.117-7.729,4.01-11.181,2.7     C763.334,330.617,761.844,330.059,763.334,326.798z"/>
			<path id="root_141_" stroke="#000000" stroke-width="0.5" stroke-miterlimit="10" d="M781.315,328.102     c0,0,1.858-0.274,2.516-0.185c0.187,2.049,0.279,10.155,0,16.212c-0.188,2.516,0.279,3.633-2.98,7.271     c-2.231,2.323-5.771,5.591-6.429,6.429c-0.838,1.676-3.354,7.825-3.54,9.037c0.094-3.354,0.188-8.571,2.894-10.9     c2.232-2.05,4.938-4.19,7.92-9.969C781.596,341.891,781.783,329.126,781.315,328.102z"/>
		</g>
		<g id="TIBA_Treated" fill="#FFFFFF" onclick="mouseClick(this);" onmouseover="mouseOverTissue(this);" onmouseout="mouseOut();">
			<path id="leafs_126_" stroke="#000000" stroke-width="0.5" stroke-miterlimit="10" d="M763.334,280.248     c0,0,3.634-5.591,15.746-2.328c1.491,0.745,2.889,1.77,5.03,1.303c2.144-0.745,6.238-2.328,13.882-1.117     c1.396,0.839,5.498,2.795,4.008,6.709c-1.026,1.303-3.447,2.98-9.69-0.466c-2.696-1.677-5.026-3.448-8.479-2.981     c-2.516,0.186-2.516,0.186-2.516,0.186c-1.212-0.374-3.266-0.186-4.85,0.746c-2.232,1.118-7.729,4.007-11.181,2.702     C763.334,284.067,761.844,283.509,763.334,280.248z"/>
			<path id="root_126_" stroke="#000000" stroke-width="0.5" stroke-miterlimit="10" d="M781.315,281.553     c0,0,1.858-0.279,2.516-0.185c0.187,2.049,0.279,10.155,0,16.211c-0.188,2.516,0.279,3.633-2.98,7.267     c-2.231,2.328-5.771,5.596-6.429,6.434c-0.838,1.677-3.354,7.82-3.54,9.036c0.094-3.354,0.188-8.57,2.894-10.898     c2.232-2.051,4.938-4.19,7.92-9.969C781.596,295.341,781.783,282.576,781.315,281.553z"/>
		</g>
		<g id="Control_at_3_Hours_2_" fill="#FFFFFF" onclick="mouseClick(this);" onmouseover="mouseOverTissue(this);" onmouseout="mouseOut();">
			<path id="leafs_138_" stroke="#000000" stroke-width="0.5" stroke-miterlimit="10" d="M582.681,239.94     c0,0,1.989-3.061,8.621-1.275c0.816,0.408,1.581,0.97,2.755,0.714c1.178-0.407,3.416-1.275,7.604-0.612     c0.765,0.46,3.01,1.53,2.188,3.673c-0.561,0.713-1.887,1.632-5.304-0.255c-1.479-0.918-2.755-1.887-4.643-1.632     c-1.377,0.102-1.377,0.102-1.377,0.102c-0.664-0.204-1.786-0.102-2.652,0.409c-1.225,0.611-4.233,2.193-6.121,1.479     C582.681,242.032,581.864,241.725,582.681,239.94z"/>
			<path id="root_138_" stroke="#000000" stroke-width="0.5" stroke-miterlimit="10" d="M592.525,240.654     c0,0,1.019-0.153,1.377-0.102c0.102,1.122,0.148,5.56,0,8.876c-0.104,1.377,0.148,1.989-1.639,3.979     c-1.224,1.275-3.157,3.06-3.52,3.519c-0.458,0.918-1.836,4.285-1.938,4.948c0.057-1.836,0.104-4.693,1.58-5.968     c1.229-1.122,2.703-2.295,4.339-5.457C592.678,248.204,592.78,241.215,592.525,240.654z"/>
		</g>
		<g id="Control_at_3_Hours_3_" fill="#FFFFFF" onclick="mouseClick(this);" onmouseover="mouseOverTissue(this);" onmouseout="mouseOut();">
			<path id="leafs_121_" stroke="#000000" stroke-width="0.5" stroke-miterlimit="10" d="M773.729,239.94     c0,0,1.988-3.061,8.62-1.275c0.816,0.408,1.582,0.97,2.761,0.714c1.172-0.407,3.416-1.275,7.599-0.612     c0.766,0.46,3.01,1.53,2.192,3.673c-0.562,0.713-1.891,1.632-5.308-0.255c-1.479-0.918-2.755-1.887-4.643-1.632     c-1.377,0.102-1.377,0.102-1.377,0.102c-0.663-0.204-1.786-0.102-2.652,0.409c-1.225,0.611-4.23,2.193-6.121,1.479     C773.729,242.032,772.912,241.725,773.729,239.94z"/>
			<path id="root_121_" stroke="#000000" stroke-width="0.5" stroke-miterlimit="10" d="M783.572,240.654     c0,0,1.02-0.153,1.377-0.102c0.102,1.122,0.154,5.56,0,8.876c-0.104,1.377,0.154,1.989-1.633,3.979     c-1.229,1.275-3.162,3.06-3.521,3.519c-0.459,0.918-1.836,4.285-1.938,4.948c0.052-1.836,0.102-4.693,1.58-5.968     c1.226-1.122,2.699-2.295,4.338-5.457C783.726,248.204,783.827,241.215,783.572,240.654z"/>
		</g>
	</g>
	<g id="Brassinosteroid_Inhibitors_at_3_Hours">
		<g id="Control_at_3_Hours_4_" fill="#FFFFFF" onclick="mouseClick(this);" onmouseover="mouseOverTissue(this);" onmouseout="mouseOut();">
			<path id="leafs_135_" stroke="#000000" stroke-width="0.5" stroke-miterlimit="10" d="M147.248,239.94     c0,0,1.989-3.061,8.621-1.275c0.816,0.408,1.582,0.97,2.755,0.714c1.172-0.407,3.417-1.275,7.6-0.612     c0.765,0.46,3.01,1.53,2.193,3.673c-0.561,0.713-1.886,1.632-5.304-0.255c-1.479-0.918-2.755-1.887-4.642-1.632     c-1.377,0.102-1.377,0.102-1.377,0.102c-0.663-0.204-1.787-0.102-2.652,0.409c-1.225,0.611-4.233,2.193-6.122,1.479     C147.248,242.032,146.432,241.725,147.248,239.94z"/>
			<path id="root_135_" stroke="#000000" stroke-width="0.5" stroke-miterlimit="10" d="M157.092,240.654     c0,0,1.019-0.153,1.377-0.102c0.102,1.122,0.153,5.56,0,8.876c-0.102,1.377,0.153,1.989-1.633,3.979     c-1.224,1.275-3.163,3.06-3.52,3.519c-0.458,0.918-1.836,4.285-1.938,4.948c0.051-1.836,0.101-4.693,1.581-5.968     c1.225-1.122,2.704-2.295,4.337-5.457C157.245,248.204,157.347,241.215,157.092,240.654z"/>
		</g>
		<g id="10um_Brz220_Treated_at_3_Hours" fill="#FFFFFF" onclick="mouseClick(this);" onmouseover="mouseOverTissue(this);" onmouseout="mouseOut();">
			<path id="leafs_117_" stroke="#000000" stroke-width="0.5" stroke-miterlimit="10" d="M135.884,280.248     c0,0,3.634-5.591,15.745-2.328c1.492,0.745,2.889,1.77,5.031,1.303c2.143-0.745,6.243-2.328,13.881-1.117     c1.396,0.839,5.498,2.795,4.008,6.709c-1.025,1.303-3.448,2.98-9.69-0.466c-2.701-1.677-5.031-3.448-8.478-2.981     c-2.516,0.186-2.516,0.186-2.516,0.186c-1.212-0.374-3.261-0.186-4.845,0.746c-2.238,1.118-7.734,4.007-11.181,2.702     C135.884,284.067,134.394,283.509,135.884,280.248z"/>
			<path id="root_117_" stroke="#000000" stroke-width="0.5" stroke-miterlimit="10" d="M153.866,281.553     c0,0,1.863-0.279,2.516-0.185c0.187,2.049,0.279,10.155,0,16.211c-0.186,2.516,0.279,3.633-2.98,7.267     c-2.237,2.328-5.777,5.596-6.429,6.434c-0.839,1.677-3.354,7.82-3.541,9.036c0.094-3.354,0.186-8.57,2.889-10.898     c2.236-2.051,4.938-4.19,7.92-9.969C154.146,295.341,154.333,282.576,153.866,281.553z"/>
		</g>
		<g id="3_uM_Brz220_Treated_at_3_Hours" fill="#FFFFFF" onclick="mouseClick(this);" onmouseover="mouseOverTissue(this);" onmouseout="mouseOut();">
			<path id="leafs_132_" stroke="#000000" stroke-width="0.5" stroke-miterlimit="10" d="M135.884,328.737     c0,0,3.634-5.591,15.745-2.329c1.492,0.745,2.889,1.771,5.031,1.305c2.143-0.746,6.243-2.329,13.881-1.118     c1.396,0.839,5.498,2.796,4.008,6.709c-1.025,1.309-3.448,2.98-9.69-0.465c-2.701-1.677-5.031-3.448-8.478-2.979     c-2.516,0.185-2.516,0.185-2.516,0.185c-1.212-0.373-3.261-0.185-4.845,0.746c-2.238,1.119-7.734,4.008-11.181,2.702     C135.884,332.557,134.394,331.998,135.884,328.737z"/>
			<path id="root_132_" stroke="#000000" stroke-width="0.5" stroke-miterlimit="10" d="M153.866,330.041     c0,0,1.863-0.279,2.516-0.185c0.187,2.049,0.279,10.15,0,16.212c-0.186,2.516,0.279,3.633-2.98,7.267     c-2.237,2.328-5.777,5.591-6.429,6.429c-0.839,1.681-3.354,7.825-3.541,9.038c0.094-3.354,0.186-8.571,2.889-10.896     c2.236-2.055,4.938-4.193,7.92-9.974C154.146,343.83,154.333,331.066,153.866,330.041z"/>
		</g>
	</g>
	<g id="Brassinosteroid_Inhibitors_at_12_Hours">
		
		<g id="Control_at_12_Hours_6_" fill="#FFFFFF" onclick="mouseClick(this);" onmouseover="mouseOverTissue(this);" onmouseout="mouseOut();">
			<path id="leafs_112_" stroke="#000000" stroke-width="0.5" stroke-miterlimit="10" d="M196.707,239.94     c0,0,1.989-3.061,8.621-1.275c0.816,0.408,1.582,0.97,2.755,0.714c1.172-0.407,3.417-1.275,7.6-0.612     c0.765,0.46,3.01,1.53,2.193,3.673c-0.561,0.713-1.886,1.632-5.304-0.255c-1.479-0.918-2.755-1.887-4.643-1.632     c-1.377,0.102-1.377,0.102-1.377,0.102c-0.663-0.204-1.787-0.102-2.652,0.409c-1.225,0.611-4.233,2.193-6.122,1.479     C196.707,242.032,195.891,241.725,196.707,239.94z"/>
			<path id="root_112_" stroke="#000000" stroke-width="0.5" stroke-miterlimit="10" d="M206.551,240.654     c0,0,1.019-0.153,1.377-0.102c0.102,1.122,0.153,5.56,0,8.876c-0.102,1.377,0.153,1.989-1.633,3.979     c-1.224,1.275-3.163,3.06-3.52,3.519c-0.458,0.918-1.836,4.285-1.938,4.948c0.051-1.836,0.101-4.693,1.581-5.968     c1.225-1.122,2.704-2.295,4.337-5.457C206.704,248.204,206.806,241.215,206.551,240.654z"/>
		</g>
		
		<g id="10um_Brz91_Treated_at_12_Hours" fill="#FFFFFF" onclick="mouseClick(this);" onmouseover="mouseOverTissue(this);" onmouseout="mouseOut();">
			<path id="leafs_130_" stroke="#000000" stroke-width="0.5" stroke-miterlimit="10" d="M185.343,280.248     c0,0,3.634-5.591,15.745-2.328c1.492,0.745,2.889,1.77,5.031,1.303c2.143-0.745,6.243-2.328,13.881-1.117     c1.396,0.839,5.498,2.795,4.007,6.709c-1.025,1.303-3.448,2.98-9.69-0.466c-2.701-1.677-5.031-3.448-8.478-2.981     c-2.516,0.186-2.516,0.186-2.516,0.186c-1.212-0.374-3.262-0.186-4.845,0.746c-2.237,1.118-7.734,4.007-11.18,2.702     C185.343,284.067,183.853,283.509,185.343,280.248z"/>
			<path id="root_130_" stroke="#000000" stroke-width="0.5" stroke-miterlimit="10" d="M203.325,281.553     c0,0,1.863-0.279,2.516-0.185c0.187,2.049,0.279,10.155,0,16.211c-0.186,2.516,0.279,3.633-2.98,7.267     c-2.237,2.328-5.777,5.596-6.429,6.434c-0.839,1.677-3.354,7.82-3.541,9.036c0.094-3.354,0.186-8.57,2.889-10.898     c2.236-2.051,4.938-4.19,7.92-9.969C203.604,295.341,203.792,282.576,203.325,281.553z"/>
		</g>
	</g>
	<g id="Ethylene_Inhibitors">
		<g id="Control_5_" fill="#FFFFFF" onclick="mouseClick(this);" onmouseover="mouseOverTissue(this);" onmouseout="mouseOut();">
			<path id="leafs_108_" stroke="#000000" stroke-width="0.5" stroke-miterlimit="10" d="M340.235,239.94     c0,0,1.989-3.061,8.621-1.275c0.817,0.408,1.582,0.97,2.755,0.714c1.173-0.407,3.417-1.275,7.6-0.612     c0.765,0.46,3.01,1.53,2.193,3.673c-0.561,0.713-1.886,1.632-5.304-0.255c-1.479-0.918-2.755-1.887-4.642-1.632     c-1.377,0.102-1.377,0.102-1.377,0.102c-0.664-0.204-1.787-0.102-2.653,0.409c-1.225,0.611-4.233,2.193-6.121,1.479     C340.235,242.032,339.418,241.725,340.235,239.94z"/>
			<path id="root_108_" stroke="#000000" stroke-width="0.5" stroke-miterlimit="10" d="M350.08,240.654     c0,0,1.019-0.153,1.377-0.102c0.102,1.122,0.153,5.56,0,8.876c-0.102,1.377,0.153,1.989-1.633,3.979     c-1.224,1.275-3.163,3.06-3.519,3.519c-0.459,0.918-1.837,4.285-1.938,4.948c0.052-1.836,0.101-4.693,1.581-5.968     c1.225-1.122,2.704-2.295,4.337-5.457C350.231,248.204,350.334,241.215,350.08,240.654z"/>
		</g>
		
		<g id="10um_AgNO3_Treated" fill="#FFFFFF" onclick="mouseClick(this);" onmouseover="mouseOverTissue(this);" onmouseout="mouseOut();">
			<path id="leafs_128_" stroke="#000000" stroke-width="0.5" stroke-miterlimit="10" d="M328.871,280.248     c0,0,3.634-5.591,15.745-2.328c1.492,0.745,2.889,1.77,5.031,1.303c2.143-0.745,6.243-2.328,13.881-1.117     c1.396,0.839,5.498,2.795,4.008,6.709c-1.025,1.303-3.448,2.98-9.69-0.466c-2.701-1.677-5.031-3.448-8.478-2.981     c-2.515,0.186-2.515,0.186-2.515,0.186c-1.212-0.374-3.262-0.186-4.845,0.746c-2.237,1.118-7.734,4.007-11.181,2.702     C328.871,284.067,327.38,283.509,328.871,280.248z"/>
			<path id="root_128_" stroke="#000000" stroke-width="0.5" stroke-miterlimit="10" d="M346.853,281.553     c0,0,1.863-0.279,2.515-0.185c0.187,2.049,0.279,10.155,0,16.211c-0.186,2.516,0.279,3.633-2.98,7.267     c-2.237,2.328-5.777,5.596-6.429,6.434c-0.839,1.677-3.354,7.82-3.541,9.036c0.094-3.354,0.187-8.57,2.889-10.898     c2.236-2.051,4.938-4.19,7.92-9.969C347.132,295.341,347.319,282.576,346.853,281.553z"/>
		</g>
		
		<g id="10um_AVG_Treated" fill="#FFFFFF" onclick="mouseClick(this);" onmouseover="mouseOverTissue(this);" onmouseout="mouseOut();">
			<path id="leafs_103_" stroke="#000000" stroke-width="0.5" stroke-miterlimit="10" d="M328.871,328.737     c0,0,3.634-5.591,15.745-2.329c1.492,0.745,2.889,1.771,5.031,1.305c2.143-0.746,6.243-2.329,13.881-1.118     c1.396,0.839,5.498,2.796,4.008,6.709c-1.025,1.309-3.448,2.98-9.69-0.465c-2.701-1.677-5.031-3.448-8.478-2.979     c-2.515,0.185-2.515,0.185-2.515,0.185c-1.212-0.373-3.262-0.185-4.845,0.746c-2.237,1.119-7.734,4.008-11.181,2.702     C328.871,332.557,327.38,331.998,328.871,328.737z"/>
			<path id="root_103_" stroke="#000000" stroke-width="0.5" stroke-miterlimit="10" d="M346.853,330.041     c0,0,1.863-0.279,2.515-0.185c0.187,2.049,0.279,10.15,0,16.212c-0.186,2.516,0.279,3.633-2.98,7.267     c-2.237,2.328-5.777,5.591-6.429,6.429c-0.839,1.681-3.354,7.825-3.541,9.038c0.094-3.354,0.187-8.571,2.889-10.896     c2.236-2.055,4.938-4.193,7.92-9.974C347.132,343.83,347.319,331.066,346.853,330.041z"/>
		</g>
	</g>
	<g id="Cyclohexamide_1_">
		<g id="Control_6_" fill="#FFFFFF" onclick="mouseClick(this);" onmouseover="mouseOverTissue(this);" onmouseout="mouseOut();">
			<path id="leafs_125_" stroke="#000000" stroke-width="0.5" stroke-miterlimit="10" d="M582.681,445.534     c0,0,1.989-3.062,8.621-1.274c0.816,0.407,1.581,0.969,2.755,0.714c1.178-0.403,3.416-1.271,7.604-0.608     c0.765,0.46,3.01,1.525,2.188,3.673c-0.561,0.714-1.887,1.633-5.304-0.255c-1.479-0.919-2.755-1.893-4.643-1.633     c-1.377,0.102-1.377,0.102-1.377,0.102c-0.664-0.205-1.786-0.102-2.652,0.408c-1.225,0.606-4.233,2.189-6.121,1.478     C582.681,447.626,581.864,447.319,582.681,445.534z"/>
			<path id="root_125_" stroke="#000000" stroke-width="0.5" stroke-miterlimit="10" d="M592.525,446.249     c0,0,1.019-0.154,1.377-0.102c0.102,1.117,0.148,5.559,0,8.875c-0.104,1.377,0.148,1.984-1.639,3.979     c-1.224,1.274-3.157,3.06-3.52,3.521c-0.458,0.918-1.836,4.28-1.938,4.943c0.057-1.838,0.104-4.688,1.58-5.968     c1.229-1.122,2.703-2.296,4.339-5.457C592.678,453.799,592.78,446.81,592.525,446.249z"/>
		</g>
		
		<g id="10uM_CHX_Treated" fill="#FFFFFF" onclick="mouseClick(this);" onmouseover="mouseOverTissue(this);" onmouseout="mouseOut();">
			<path id="leafs_98_" stroke="#000000" stroke-width="0.5" stroke-miterlimit="10" d="M571.317,485.842     c0,0,3.634-5.59,15.745-2.328c1.487,0.745,2.889,1.771,5.026,1.309c2.146-0.745,6.242-2.329,13.882-1.117     c1.396,0.839,5.497,2.795,4.012,6.709c-1.025,1.303-3.447,2.979-9.69-0.466c-2.701-1.682-5.03-3.448-8.478-2.98     c-2.521,0.188-2.521,0.188-2.521,0.188c-1.212-0.373-3.262-0.188-4.846,0.745c-2.236,1.114-7.733,4.008-11.185,2.698     C571.317,489.661,569.826,489.103,571.317,485.842z"/>
			<path id="root_98_" stroke="#000000" stroke-width="0.5" stroke-miterlimit="10" d="M589.299,487.146     c0,0,1.862-0.279,2.521-0.188c0.187,2.048,0.274,10.155,0,16.211c-0.188,2.516,0.274,3.633-2.98,7.271     c-2.237,2.322-5.772,5.59-6.429,6.428c-0.838,1.677-3.354,7.826-3.54,9.038c0.094-3.354,0.186-8.571,2.889-10.9     c2.236-2.051,4.938-4.193,7.92-9.969C589.578,500.936,589.766,488.171,589.299,487.146z"/>
		</g>
	</g>
	<g id="Proteasome_Inhibitor_MG13">
		<g id="Control" fill="#FFFFFF" onclick="mouseClick(this);" onmouseover="mouseOverTissue(this);" onmouseout="mouseOut();">
			<path id="leafs_122_" stroke="#000000" stroke-width="0.5" stroke-miterlimit="10" d="M339.265,445.534     c0,0,1.989-3.062,8.621-1.274c0.816,0.407,1.582,0.969,2.755,0.714c1.173-0.403,3.417-1.271,7.6-0.608     c0.765,0.46,3.01,1.525,2.193,3.673c-0.561,0.714-1.886,1.633-5.304-0.255c-1.479-0.919-2.755-1.893-4.642-1.633     c-1.377,0.102-1.377,0.102-1.377,0.102c-0.663-0.205-1.786-0.102-2.652,0.408c-1.225,0.606-4.233,2.189-6.122,1.478     C339.265,447.626,338.449,447.319,339.265,445.534z"/>
			<path id="root_122_" stroke="#000000" stroke-width="0.5" stroke-miterlimit="10" d="M349.11,446.249     c0,0,1.019-0.154,1.377-0.102c0.102,1.117,0.153,5.559,0,8.875c-0.102,1.377,0.153,1.984-1.633,3.979     c-1.224,1.274-3.163,3.06-3.52,3.521c-0.458,0.918-1.836,4.28-1.938,4.943c0.052-1.838,0.101-4.688,1.581-5.968     c1.225-1.122,2.704-2.296,4.337-5.457C349.262,453.799,349.364,446.81,349.11,446.249z"/>
		</g>
		
		<g id="10uM_MG132_Treated" fill="#FFFFFF" onclick="mouseClick(this);" onmouseover="mouseOverTissue(this);" onmouseout="mouseOut();">
			<path id="leafs_93_" stroke="#000000" stroke-width="0.5" stroke-miterlimit="10" d="M327.901,485.842     c0,0,3.634-5.59,15.745-2.328c1.492,0.745,2.889,1.771,5.031,1.309c2.143-0.745,6.243-2.329,13.881-1.117     c1.396,0.839,5.498,2.795,4.008,6.709c-1.025,1.303-3.448,2.979-9.69-0.466c-2.701-1.682-5.031-3.448-8.478-2.98     c-2.516,0.188-2.516,0.188-2.516,0.188c-1.212-0.373-3.261-0.188-4.845,0.745c-2.238,1.114-7.734,4.008-11.181,2.698     C327.901,489.661,326.411,489.103,327.901,485.842z"/>
			<path id="root_93_" stroke="#000000" stroke-width="0.5" stroke-miterlimit="10" d="M345.883,487.146     c0,0,1.863-0.279,2.516-0.188c0.187,2.048,0.279,10.155,0,16.211c-0.186,2.516,0.279,3.633-2.98,7.271     c-2.237,2.322-5.777,5.59-6.429,6.428c-0.839,1.677-3.354,7.826-3.541,9.038c0.094-3.354,0.186-8.571,2.889-10.9     c2.236-2.051,4.938-4.193,7.92-9.969C346.163,500.936,346.35,488.171,345.883,487.146z"/>
		</g>
	</g>
	<g id="Photosynthesis_Inhibitor_PN08_at_3_Hours">
		
		<g id="1_uM_PNO8_Treated_at_3_Hours" fill="#FFFFFF" onclick="mouseClick(this);" onmouseover="mouseOverTissue(this);" onmouseout="mouseOut();">
			<path id="leafs_119_" stroke="#000000" stroke-width="0.5" stroke-miterlimit="10" d="M135.884,485.842     c0,0,3.634-5.59,15.745-2.328c1.492,0.745,2.889,1.771,5.031,1.309c2.143-0.745,6.243-2.329,13.881-1.117     c1.396,0.839,5.498,2.795,4.008,6.709c-1.025,1.303-3.448,2.979-9.69-0.466c-2.701-1.682-5.031-3.448-8.478-2.98     c-2.516,0.188-2.516,0.188-2.516,0.188c-1.212-0.373-3.261-0.188-4.845,0.745c-2.238,1.114-7.734,4.008-11.181,2.698     C135.884,489.661,134.394,489.103,135.884,485.842z"/>
			<path id="root_119_" stroke="#000000" stroke-width="0.5" stroke-miterlimit="10" d="M153.866,487.146     c0,0,1.863-0.279,2.516-0.188c0.187,2.048,0.279,10.155,0,16.211c-0.186,2.516,0.279,3.633-2.98,7.271     c-2.237,2.322-5.777,5.59-6.429,6.428c-0.839,1.677-3.354,7.826-3.541,9.038c0.094-3.354,0.186-8.571,2.889-10.9     c2.236-2.051,4.938-4.193,7.92-9.969C154.146,500.936,154.333,488.171,153.866,487.146z"/>
		</g>
		
		<g id="10um_PNO8_Treated_at_3_Hours" fill="#FFFFFF" onclick="mouseClick(this);" onmouseover="mouseOverTissue(this);" onmouseout="mouseOut();">
			<path id="leafs_88_" stroke="#000000" stroke-width="0.5" stroke-miterlimit="10" d="M135.884,534.331     c0,0,3.634-5.59,15.745-2.328c1.492,0.745,2.889,1.771,5.031,1.304c2.143-0.744,6.243-2.328,13.881-1.112     c1.396,0.839,5.498,2.795,4.008,6.709c-1.025,1.303-3.448,2.979-9.69-0.471c-2.701-1.677-5.031-3.443-8.478-2.979     c-2.516,0.186-2.516,0.186-2.516,0.186c-1.212-0.373-3.261-0.186-4.845,0.746c-2.238,1.118-7.734,4.007-11.181,2.702     C135.884,538.15,134.394,537.592,135.884,534.331z"/>
			<path id="root_88_" stroke="#000000" stroke-width="0.5" stroke-miterlimit="10" d="M153.866,535.636     c0,0,1.863-0.274,2.516-0.185c0.187,2.048,0.279,10.155,0,16.211c-0.186,2.516,0.279,3.633-2.98,7.267     c-2.237,2.328-5.777,5.591-6.429,6.434c-0.839,1.677-3.354,7.821-3.541,9.038c0.094-3.354,0.186-8.572,2.889-10.9     c2.236-2.051,4.938-4.193,7.92-9.969C154.146,549.425,154.333,536.66,153.866,535.636z"/>
		</g>
		<g id="Control_at_3_Hours_5_" fill="#FFFFFF" onclick="mouseClick(this);" onmouseover="mouseOverTissue(this);" onmouseout="mouseOut();">
			<path id="leafs_116_" stroke="#000000" stroke-width="0.5" stroke-miterlimit="10" d="M146.278,445.534     c0,0,1.989-3.062,8.62-1.274c0.817,0.407,1.582,0.969,2.755,0.714c1.172-0.403,3.417-1.271,7.6-0.608     c0.765,0.46,3.01,1.525,2.193,3.673c-0.561,0.714-1.886,1.633-5.304-0.255c-1.479-0.919-2.755-1.893-4.643-1.633     c-1.377,0.102-1.377,0.102-1.377,0.102c-0.663-0.205-1.787-0.102-2.652,0.408c-1.225,0.606-4.233,2.189-6.122,1.478     C146.278,447.626,145.462,447.319,146.278,445.534z"/>
			<path id="root_116_" stroke="#000000" stroke-width="0.5" stroke-miterlimit="10" d="M156.123,446.249     c0,0,1.019-0.154,1.377-0.102c0.102,1.117,0.153,5.559,0,8.875c-0.102,1.377,0.153,1.984-1.633,3.979     c-1.224,1.274-3.163,3.06-3.52,3.521c-0.458,0.918-1.837,4.28-1.938,4.943c0.051-1.838,0.101-4.688,1.581-5.968     c1.225-1.122,2.704-2.296,4.337-5.457C156.275,453.799,156.377,446.81,156.123,446.249z"/>
		</g>
	</g>
	<g id="Photosynthesis_Inhibitor_PN08_at_12_Hours_1_">
		
		<g id="1_uM_PNO8_Treated_at_12_Hours" fill="#FFFFFF" onclick="mouseClick(this);" onmouseover="mouseOverTissue(this);" onmouseout="mouseOut();">
			<path id="leafs_83_" stroke="#000000" stroke-width="0.5" stroke-miterlimit="10" d="M185.343,485.842     c0,0,3.634-5.59,15.745-2.328c1.492,0.745,2.889,1.771,5.031,1.309c2.143-0.745,6.243-2.329,13.881-1.117     c1.396,0.839,5.498,2.795,4.007,6.709c-1.025,1.303-3.448,2.979-9.69-0.466c-2.701-1.682-5.031-3.448-8.478-2.98     c-2.516,0.188-2.516,0.188-2.516,0.188c-1.212-0.373-3.262-0.188-4.845,0.745c-2.237,1.114-7.734,4.008-11.18,2.698     C185.343,489.661,183.853,489.103,185.343,485.842z"/>
			<path id="root_83_" stroke="#000000" stroke-width="0.5" stroke-miterlimit="10" d="M203.325,487.146     c0,0,1.863-0.279,2.516-0.188c0.187,2.048,0.279,10.155,0,16.211c-0.186,2.516,0.279,3.633-2.98,7.271     c-2.237,2.322-5.777,5.59-6.429,6.428c-0.839,1.677-3.354,7.826-3.541,9.038c0.094-3.354,0.186-8.571,2.889-10.9     c2.236-2.051,4.938-4.193,7.92-9.969C203.604,500.936,203.792,488.171,203.325,487.146z"/>
		</g>
		
		<g id="Control_at_12_Hours_2_" fill="#FFFFFF" onclick="mouseClick(this);" onmouseover="mouseOverTissue(this);" onmouseout="mouseOut();">
			<path id="leafs_113_" stroke="#000000" stroke-width="0.5" stroke-miterlimit="10" d="M195.737,445.534     c0,0,1.989-3.062,8.62-1.274c0.816,0.407,1.582,0.969,2.755,0.714c1.172-0.403,3.417-1.271,7.6-0.608     c0.765,0.46,3.01,1.525,2.193,3.673c-0.561,0.714-1.886,1.633-5.304-0.255c-1.479-0.919-2.755-1.893-4.643-1.633     c-1.377,0.102-1.377,0.102-1.377,0.102c-0.663-0.205-1.787-0.102-2.653,0.408c-1.224,0.606-4.232,2.189-6.121,1.478     C195.737,447.626,194.921,447.319,195.737,445.534z"/>
			<path id="root_113_" stroke="#000000" stroke-width="0.5" stroke-miterlimit="10" d="M205.582,446.249     c0,0,1.019-0.154,1.377-0.102c0.102,1.117,0.153,5.559,0,8.875c-0.102,1.377,0.153,1.984-1.633,3.979     c-1.224,1.274-3.163,3.06-3.52,3.521c-0.458,0.918-1.837,4.28-1.938,4.943c0.051-1.838,0.101-4.688,1.581-5.968     c1.225-1.122,2.704-2.296,4.337-5.457C205.734,453.799,205.836,446.81,205.582,446.249z"/>
		</g>
	</g>
	<g id="Ibuprofen_Salycylic_Acid_and_Daminozide">
		<g id="Control_1_" fill="#FFFFFF" onclick="mouseClick(this);" onmouseover="mouseOverTissue(this);" onmouseout="mouseOut();">
			<path id="leafs_80_" stroke="#000000" stroke-width="0.5" stroke-miterlimit="10" d="M582.681,36.345     c0,0,1.989-3.061,8.621-1.274c0.816,0.407,1.581,0.969,2.755,0.714c1.178-0.408,3.416-1.275,7.604-0.613     c0.765,0.459,3.01,1.53,2.188,3.672c-0.561,0.714-1.887,1.632-5.304-0.255c-1.479-0.918-2.755-1.887-4.643-1.633     c-1.377,0.102-1.377,0.102-1.377,0.102c-0.664-0.205-1.786-0.102-2.652,0.409c-1.225,0.612-4.233,2.193-6.121,1.478     C582.681,38.436,581.864,38.13,582.681,36.345z"/>
			<path id="root_80_" stroke="#000000" stroke-width="0.5" stroke-miterlimit="10" d="M592.525,37.058     c0,0,1.019-0.153,1.377-0.102c0.102,1.123,0.148,5.56,0,8.875c-0.104,1.377,0.148,1.989-1.639,3.979     c-1.224,1.276-3.157,3.06-3.52,3.521c-0.458,0.917-1.836,4.284-1.938,4.948c0.057-1.838,0.104-4.693,1.58-5.968     c1.229-1.122,2.703-2.295,4.339-5.457C592.678,44.608,592.78,37.619,592.525,37.058z"/>
		</g>
		<g id="Control_2_" fill="#FFFFFF" onclick="mouseClick(this);" onmouseover="mouseOverTissue(this);" onmouseout="mouseOut();">
			<path id="leafs_110_" stroke="#000000" stroke-width="0.5" stroke-miterlimit="10" d="M774.698,36.345     c0,0,1.983-3.061,8.62-1.274c0.812,0.407,1.582,0.969,2.756,0.714c1.172-0.408,3.416-1.275,7.599-0.613     c0.771,0.459,3.01,1.53,2.193,3.672c-0.562,0.714-1.892,1.632-5.309-0.255c-1.479-0.918-2.755-1.887-4.643-1.633     c-1.377,0.102-1.377,0.102-1.377,0.102c-0.663-0.205-1.786-0.102-2.652,0.409c-1.225,0.612-4.229,2.193-6.121,1.478     C774.698,38.436,773.882,38.13,774.698,36.345z"/>
			<path id="root_110_" stroke="#000000" stroke-width="0.5" stroke-miterlimit="10" d="M784.543,37.058     c0,0,1.021-0.153,1.377-0.102c0.104,1.123,0.153,5.56,0,8.875c-0.103,1.377,0.153,1.989-1.634,3.979     c-1.224,1.276-3.162,3.06-3.521,3.521c-0.458,0.917-1.836,4.284-1.938,4.948c0.052-1.838,0.102-4.693,1.58-5.968     c1.226-1.122,2.704-2.295,4.338-5.457C784.695,44.608,784.797,37.619,784.543,37.058z"/>
		</g>
		<g id="Ibuprofen_Treated" fill="#FFFFFF" onclick="mouseClick(this);" onmouseover="mouseOverTissue(this);" onmouseout="mouseOut();">
			<path id="leafs_76_" stroke="#000000" stroke-width="0.5" stroke-miterlimit="10" d="M571.317,76.652     c0,0,3.634-5.591,15.745-2.329c1.487,0.745,2.889,1.77,5.026,1.303c2.146-0.744,6.242-2.328,13.882-1.117     c1.396,0.839,5.497,2.796,4.012,6.709c-1.025,1.304-3.447,2.98-9.69-0.465c-2.701-1.677-5.03-3.448-8.478-2.981     c-2.521,0.186-2.521,0.186-2.521,0.186c-1.212-0.374-3.262-0.186-4.846,0.746c-2.236,1.119-7.733,4.007-11.185,2.702     C571.317,80.472,569.826,79.913,571.317,76.652z"/>
			<path id="root_76_" stroke="#000000" stroke-width="0.5" stroke-miterlimit="10" d="M589.299,77.956     c0,0,1.862-0.279,2.521-0.186c0.187,2.05,0.274,10.156,0,16.212c-0.188,2.515,0.274,3.633-2.98,7.266     c-2.237,2.329-5.772,5.591-6.429,6.429c-0.838,1.677-3.354,7.825-3.54,9.037c0.094-3.354,0.186-8.571,2.889-10.9     c2.236-2.05,4.938-4.193,7.92-9.968C589.578,91.746,589.766,78.981,589.299,77.956z"/>
		</g>
		
		<g id="Salicylic_Acid_Treated" fill="#FFFFFF" onclick="mouseClick(this);" onmouseover="mouseOverTissue(this);" onmouseout="mouseOut();">
			<path id="leafs_107_" stroke="#000000" stroke-width="0.5" stroke-miterlimit="10" d="M571.317,125.141     c0,0,3.634-5.591,15.745-2.329c1.487,0.745,2.889,1.77,5.026,1.303c2.146-0.745,6.242-2.328,13.882-1.117     c1.396,0.839,5.497,2.796,4.012,6.709c-1.025,1.304-3.447,2.98-9.69-0.465c-2.701-1.677-5.03-3.448-8.478-2.981     c-2.521,0.186-2.521,0.186-2.521,0.186c-1.212-0.374-3.262-0.186-4.846,0.746c-2.236,1.118-7.733,4.007-11.185,2.702     C571.317,128.961,569.826,128.402,571.317,125.141z"/>
			<path id="root_107_" stroke="#000000" stroke-width="0.5" stroke-miterlimit="10" d="M589.299,126.445     c0,0,1.862-0.279,2.521-0.186c0.187,2.049,0.274,10.156,0,16.212c-0.188,2.515,0.274,3.633-2.98,7.266     c-2.237,2.329-5.772,5.591-6.429,6.429c-0.838,1.677-3.354,7.825-3.54,9.037c0.094-3.354,0.186-8.571,2.889-10.9     c2.236-2.05,4.938-4.193,7.92-9.968C589.578,140.234,589.766,127.47,589.299,126.445z"/>
		</g>
		<g id="Daminozide_Treated" fill="#FFFFFF" onclick="mouseClick(this);" onmouseover="mouseOverTissue(this);" onmouseout="mouseOut();">
			<path id="leafs_71_" stroke="#000000" stroke-width="0.5" stroke-miterlimit="10" d="M762.364,76.652     c0,0,3.634-5.591,15.746-2.329c1.486,0.745,2.889,1.77,5.025,1.303c2.146-0.744,6.243-2.328,13.884-1.117     c1.396,0.839,5.496,2.796,4.01,6.709c-1.025,1.304-3.447,2.98-9.689-0.465c-2.701-1.677-5.031-3.448-8.479-2.981     c-2.521,0.186-2.521,0.186-2.521,0.186c-1.212-0.374-3.262-0.186-4.845,0.746c-2.237,1.119-7.732,4.007-11.182,2.702     C762.364,80.472,760.874,79.913,762.364,76.652z"/>
			<path id="root_71_" stroke="#000000" stroke-width="0.5" stroke-miterlimit="10" d="M780.346,77.956     c0,0,1.863-0.279,2.521-0.186c0.187,2.05,0.274,10.156,0,16.212c-0.188,2.515,0.274,3.633-2.98,7.266     c-2.231,2.329-5.771,5.591-6.429,6.429c-0.838,1.677-3.354,7.825-3.54,9.037c0.094-3.354,0.187-8.571,2.889-10.9     c2.237-2.05,4.938-4.193,7.92-9.968C780.625,91.746,780.812,78.981,780.346,77.956z"/>
		</g>
	</g>
</g>
<g id="Labels">
	<text transform="matrix(1 0 0 1 61.334 23.3047)" font-family="Helvetica" font-size="14.3428">Gibberellic Acid Inhibitors</text>
	<text transform="matrix(1 0 0 1 61.334 226.959)" font-family="Helvetica" font-size="14.3428">Brassinosteroid Inhibitors</text>
	<text transform="matrix(1 0 0 1 61.334 432.5527)" font-family="Helvetica" font-size="14.3428">Photosynthesis Inhibitor</text>
	<text transform="matrix(1 0 0 1 266.686 226.959)" font-family="Helvetica" font-size="14.3428">Ethylene Inhibitor</text>
	<text transform="matrix(1 0 0 1 494.7061 23.3633)" font-family="Helvetica" font-size="14.3428">Ibuprofen, Salycilic Acid, and Daminozide</text>
	<text transform="matrix(1 0 0 1 498.7061 226.959)" font-family="Helvetica" font-size="14.3428">Auxin Inhibitors</text>
	<text transform="matrix(1 0 0 1 498.7061 432.5527)" font-family="Helvetica" font-size="14.3428">Cycloheximide</text>
	<text id="Prot_1_" transform="matrix(1 0 0 1 263.686 432.5527)" font-family="Helvetica" font-size="14.3428">Proteasome Inhibitor</text>
	<text transform="matrix(1 0 0 1 61.3335 45.5977)" font-family="Helvetica" font-size="7.7583">Mock Treatment</text>
	<text transform="matrix(1 0 0 1 267.6553 45.5977)" font-family="Helvetica" font-size="7.7583">Mock Treatment</text>
	<text transform="matrix(1 0 0 1 494.7061 45.5977)" font-family="Helvetica" font-size="7.7583">Mock Treatment</text>
	<text transform="matrix(1 0 0 1 683.8135 45.5977)" font-family="Helvetica" font-size="7.7583">Mock Treatment</text>
	<text transform="matrix(1 0 0 1 61.3335 249.252)" font-family="Helvetica" font-size="7.7583">Mock Treatment</text>
	<text transform="matrix(1 0 0 1 266.6553 249.252)" font-family="Helvetica" font-size="7.7583">Mock Treatment</text>
	<text transform="matrix(1 0 0 1 497.7061 249.252)" font-family="Helvetica" font-size="7.7583">Mock Treatment</text>
	<text transform="matrix(1 0 0 1 685.8135 249.252)" font-family="Helvetica" font-size="7.7583">Mock Treatment</text>
	<text transform="matrix(1 0 0 1 61.3335 454.8467)" font-family="Helvetica" font-size="7.7583">Mock Treatment</text>
	<text transform="matrix(1 0 0 1 263.6553 454.8467)" font-family="Helvetica" font-size="7.7583">Mock Treatment</text>
	<text transform="matrix(1 0 0 1 498.7061 454.8467)" font-family="Helvetica" font-size="7.7583">Mock Treatment</text>
	<text transform="matrix(1 0 0 1 138.916 185.8125)" font-family="Helvetica" font-size="7.7583">3 hours</text>
	<text transform="matrix(1 0 0 1 138.916 394.3154)" font-family="Helvetica" font-size="7.7583">3 hours</text>
	<text transform="matrix(1 0 0 1 138.916 595.3154)" font-family="Helvetica" font-size="7.7583">3 hours</text>
	<text id="1_2_hours_8_" transform="matrix(1 0 0 1 182.5562 185.8125)" font-family="Helvetica" font-size="7.7583">12 hours</text>
	<text id="1_2_hours_5_" transform="matrix(1 0 0 1 182.5562 394.3154)" font-family="Helvetica" font-size="7.7583">12 hours</text>
	<text id="1_2_hours_2_" transform="matrix(1 0 0 1 182.5562 595.0605)" font-family="Helvetica" font-size="7.7583">12 hours</text>
	<text id="1_2_hours_1_" transform="matrix(1 0 0 1 376.5127 185.8125)" font-family="Helvetica" font-size="7.7583">12 hours</text>
	<text transform="matrix(1 0 0 1 331.9028 185.8125)" font-family="Helvetica" font-size="7.7583">3 hours</text>
	<text transform="matrix(1 0 0 1 331.9028 595.0605)" font-family="Helvetica" font-size="7.7583">3 hours</text>
	<text transform="matrix(1 0 0 1 331.9028 394.3154)" font-family="Helvetica" font-size="7.7583">3 hours</text>
	<text transform="matrix(1 0 0 1 574.3496 394.3154)" font-family="Helvetica" font-size="7.7583">3 hours</text>
	<text transform="matrix(1 0 0 1 574.3496 185.8125)" font-family="Helvetica" font-size="7.7583">3 hours</text>
	<text transform="matrix(1 0 0 1 768.3057 185.8125)" font-family="Helvetica" font-size="7.7583">3 hours</text>
	<text transform="matrix(1 0 0 1 574.3496 595.0605)" font-family="Helvetica" font-size="7.7583">3 hours</text>
	<text transform="matrix(1 0 0 1 767.3359 394.3154)" font-family="Helvetica" font-size="7.7583">3 hours</text>
	<text transform="matrix(1 0 0 1 61.3335 75.9854)" font-family="Helvetica" font-size="7.7583">10um propiconzazole</text>
	<text transform="matrix(1 0 0 1 61.3335 85.2949)" font-family="Helvetica" font-size="7.7583">(GA biosynthesis</text>
	<text transform="matrix(1 0 0 1 61.3335 94.6035)" font-family="Helvetica" font-size="7.7583">inhibitor)</text>
	<text transform="matrix(1 0 0 1 61.6567 125.1201)" font-family="Helvetica" font-size="7.7583">10uM uniconazole</text>
	<text transform="matrix(1 0 0 1 61.6567 134.4297)" font-family="Helvetica" font-size="7.7583">(GA biosynthesis</text>
	<text transform="matrix(1 0 0 1 61.6567 143.7402)" font-family="Helvetica" font-size="7.7583">inhibitor)</text>
	<text transform="matrix(1 0 0 1 168.1567 297.2402)" font-family="Helvetica" font-size="7.7583">(Brz91)</text>
	<text transform="matrix(1 0 0 1 61.6567 287.7402)" font-family="Helvetica" font-size="7.7583">10 uM brassinazole</text>
	<text transform="matrix(1 0 0 1 61.6567 297.0498)" font-family="Helvetica" font-size="7.7583">(Brz220)</text>
	<text transform="matrix(1 0 0 1 61.6567 306.3604)" font-family="Helvetica" font-size="7.7583">BS biosynthesis</text>
	<text transform="matrix(1 0 0 1 61.6567 315.6699)" font-family="Helvetica" font-size="7.7583">inhibitor</text>
	<text transform="matrix(1 0 0 1 61.6567 486.7402)" font-family="Helvetica" font-size="7.7583">1uM PN08</text>
	<text transform="matrix(1 0 0 1 61.6567 496.0498)" font-family="Helvetica" font-size="7.7583">(N-octyl-3-nitro- </text>
	<text transform="matrix(1 0 0 1 61.6567 505.3604)" font-family="Helvetica" font-size="7.7583">2,4,6-trihydroxy </text>
	<text transform="matrix(1 0 0 1 61.6567 514.6699)" font-family="Helvetica" font-size="7.7583">benzamide) </text>
	<text transform="matrix(1 0 0 1 61.6567 523.9805)" font-family="Helvetica" font-size="7.7583">PII inhibitor</text>
	<text transform="matrix(1 0 0 1 61.6567 543.2402)" font-family="Helvetica" font-size="7.7583">10uM PN08</text>
	<text transform="matrix(1 0 0 1 61.6567 552.5498)" font-family="Helvetica" font-size="7.7583">(N-octyl-3-nitro- </text>
	<text transform="matrix(1 0 0 1 61.6567 561.8604)" font-family="Helvetica" font-size="7.7583">2,4,6-trihydroxy </text>
	<text transform="matrix(1 0 0 1 61.6567 571.1699)" font-family="Helvetica" font-size="7.7583">benzamide) </text>
	<text transform="matrix(1 0 0 1 61.6567 580.4805)" font-family="Helvetica" font-size="7.7583">PII inhibitor</text>
	<text transform="matrix(1 0 0 1 262.1567 487.2402)" font-family="Helvetica" font-size="7.7583">10uM MG132</text>
	<text transform="matrix(1 0 0 1 262.1567 496.5498)" font-family="Helvetica" font-size="7.7583">(carbobenzoxyl-</text>
	<text transform="matrix(1 0 0 1 262.1567 505.8604)" font-family="Helvetica" font-size="7.7583">leucinyl-leucinyl-</text>
	<text transform="matrix(1 0 0 1 262.1567 515.1699)" font-family="Helvetica" font-size="7.7583">leucinal)</text>
	<text transform="matrix(1 0 0 1 265.1567 287.7402)" font-family="Helvetica" font-size="7.7583">10uM AgNO3</text>
	<text transform="matrix(1 0 0 1 265.1567 297.0498)" font-family="Helvetica" font-size="7.7583">(EI)</text>
	<text transform="matrix(1 0 0 1 498.1562 288.7402)" font-family="Helvetica" font-size="7.7583">10uM 2,4,6-T</text>
	<text transform="matrix(1 0 0 1 498.1562 298.0498)" font-family="Helvetica" font-size="7.7583">(2,4,6-trihydro-</text>
	<text transform="matrix(1 0 0 1 498.1562 307.3604)" font-family="Helvetica" font-size="7.7583">xybenzamide)</text>
	<text transform="matrix(1 0 0 1 685.6562 288.7402)" font-family="Helvetica" font-size="7.7583">10uM TIBA</text>
	<text transform="matrix(1 0 0 1 685.6562 298.0498)" font-family="Helvetica" font-size="7.7583">(2,3,5-triiodo</text>
	<text transform="matrix(1 0 0 1 685.6562 307.3604)" font-family="Helvetica" font-size="7.7583">benzoic acid)</text>
	<text transform="matrix(1 0 0 1 685.6562 316.6699)" font-family="Helvetica" font-size="7.7583">(A transport I)</text>
	<text transform="matrix(1 0 0 1 685.6562 339.2402)" font-family="Helvetica" font-size="7.7583">10uM NPA</text>
	<text transform="matrix(1 0 0 1 685.6562 348.5498)" font-family="Helvetica" font-size="7.7583">(naphthylphthalmic</text>
	<text transform="matrix(1 0 0 1 685.6562 357.8604)" font-family="Helvetica" font-size="7.7583">acid)</text>
	<text transform="matrix(1 0 0 1 498.1562 342.7402)" font-family="Helvetica" font-size="7.7583">10uM PCIB</text>
	<text transform="matrix(1 0 0 1 498.1562 352.0498)" font-family="Helvetica" font-size="7.7583">(p-chloropheno</text>
	<text transform="matrix(1 0 0 1 498.1562 361.3604)" font-family="Helvetica" font-size="7.7583">xyisobutric acid)</text>
	<text transform="matrix(1 0 0 1 500.1562 484.2402)" font-family="Helvetica" font-size="7.7583">10uM CHX</text>
	<text transform="matrix(1 0 0 1 500.1562 493.5498)" font-family="Helvetica" font-size="7.7583">(cycloheximide) </text>
	<text transform="matrix(1 0 0 1 264.1567 342.2402)" font-family="Helvetica" font-size="7.7583">10uM AVG</text>
	<text transform="matrix(1 0 0 1 264.1567 351.5498)" font-family="Helvetica" font-size="7.7583">(EI)</text>
	<text transform="matrix(1 0 0 1 61.6567 342.7402)" font-family="Helvetica" font-size="7.7583">3 uM brassinazole</text>
	<text transform="matrix(1 0 0 1 61.6567 352.0498)" font-family="Helvetica" font-size="7.7583">(Brz220)</text>
	<text transform="matrix(1 0 0 1 61.6567 361.3604)" font-family="Helvetica" font-size="7.7583">BS biosynthesis</text>
	<text transform="matrix(1 0 0 1 61.6567 370.6699)" font-family="Helvetica" font-size="7.7583">inhibitor</text>
	<text transform="matrix(1 0 0 1 268.3018 76.6309)" font-family="Helvetica" font-size="7.7583">10 uM pacio-</text>
	<text transform="matrix(1 0 0 1 493.3018 76.6309)" font-family="Helvetica" font-size="7.7583">10 uM ibuprofen</text>
	<text transform="matrix(1 0 0 1 683.3018 76.6309)" font-family="Helvetica" font-size="7.7583">10 uM daminozide</text>
	<text transform="matrix(1 0 0 1 493.3018 128.1309)" font-family="Helvetica" font-size="7.7583">10 uM salicylic acid</text>
	<text transform="matrix(1 0 0 1 268.3018 85.9404)" font-family="Helvetica" font-size="7.7583">butrazol</text>
	<text transform="matrix(1 0 0 1 268.3018 95.251)" font-family="Helvetica" font-size="7.7583">(GA biosynthesis</text>
	<text transform="matrix(1 0 0 1 268.3018 104.5605)" font-family="Helvetica" font-size="7.7583">inhibitor)</text>
	<text transform="matrix(1 0 0 1 267.6553 125.1201)" font-family="Helvetica" font-size="7.7583">10UM pro-</text>
	<text transform="matrix(1 0 0 1 267.6553 134.4297)" font-family="Helvetica" font-size="7.7583">hexadione</text>
	<text transform="matrix(1 0 0 1 267.6553 143.7402)" font-family="Helvetica" font-size="7.7583">(GA biosynthesis</text>
	<text transform="matrix(1 0 0 1 267.6553 153.0488)" font-family="Helvetica" font-size="7.7583">inhibitor)</text>
</g>
</svg>