<?xml version="1.0" encoding="utf-8"?>
<!-- Generator: Adobe Illustrator 16.0.0, SVG Export Plug-In . SVG Version: 6.00 Build 0)  -->
<!DOCTYPE svg PUBLIC "-//W3C//DTD SVG 1.1//EN" "http://www.w3.org/Graphics/SVG/1.1/DTD/svg11.dtd">
<svg version="1.1" id="Layer_1" xmlns="http://www.w3.org/2000/svg" xmlns:xlink="http://www.w3.org/1999/xlink" x="0px" y="0px"
	 width="100%" viewBox="0 0 900 600" enable-background="new 0 0 900 600" xml:space="preserve">
<g id="Samples">
	<g id="Torpedo_Basal" fill="#FFFFFF" onmouseover="mouseOverTissue(this);" onmouseout="mouseOut();" onclick="mouseClick(this);">
		<path d="M711,282.78l-0.725-15.775l1.396-55.085c1.079-0.12,2.121-0.249,3.129-0.386
			c20.146-2.742,26.18-8.736,26.18-8.736l0,0c-10.52,16.113-11.764,33.021-10.07,50.513c0.81,8.355-2.229,13.939-6.424,19.699
			C722.051,276.352,717.5,281.75,711,282.78"/>
	</g>
	<g id="Torpedo_Apical" fill="#FFFFFF" onmouseover="mouseOverTissue(this);" onmouseout="mouseOut();" onclick="mouseClick(this);">
		<path d="M710,210.526c4.604-0.986,21.815-1.567,26.417-2.553c20.583-24.64,17.869-51.804,12.251-77.037
			c-3.157-14.185-9.668-27.562-21.146-32.425c-0.511-0.275-1.298-0.036-2.756-0.036c-3.141-0.919-4.141-0.919-7.458,2.34
			c-9.14,9.131-6.062,19.994-3.74,31.235c2.683,13.004,4.816,26.215,5.852,39.44c0.773,9.92-0.924,11.02-10.911,14.893L710,210.526"
			/>
	</g>
	<g id="Torpedo_Cotyledons" fill="#FFFFFF" onmouseover="mouseOverTissue(this);" onmouseout="mouseOut();" onclick="mouseClick(this);">
		<path d="M710,211.811l-1.495-25.426c-6.671-2.093-8.781-6.935-9.81-13.889
			c-1.767-11.944-0.228-23.101,2.884-34.645c1.997-7.413-0.169-15.476-5.674-21.557c-4.992-5.515-15.291-6.097-20.584-0.982
			c-15.972,15.442-24.729,33.562-17.624,56.101c1.998,6.324,13.985,27.521,16.848,33.64l18.819,6.429l16.561-0.956"/>
		<path id="Torpedo_Root" d="M711.673,211.919C708.936,212.453,715.117,211.538,711.673,211.919
			c-35.702,3.96-42.423-18.487-42.423-18.487c9.248,19.783,21.521,49.633,15.75,71.566L710,261v-50.474"/>
		<path id="Torpedo_Meristem" d="M685,264.998c2,9.335,6.166,16.01,26,17.782L710,261L685,264.998"/>
	</g>
	<g id="Heart_Cotyledon" fill="#FFFFFF" onmouseover="mouseOverTissue(this);" onmouseout="mouseOut();" onclick="mouseClick(this);">
		<path d="M474.907,170.625c-19.369-5.697-37.53-5.272-55.851-2.007c-13.06,1.715-28.446,6.813-39.3,10.758
			c-4.354-7.425-3.211-19.951,3.712-25.648c9.506-7.824,17.614-9.014,26.716-2.873c5.604,3.78,11.241,7.5,17.033,11.361
			c7.488-9.217,13.503-17.637,20.587-25.031c6.137-6.402,14.868-5.762,20.506,0.912c7.801,9.242,10.852,19.702,5.987,31.506
			L474.907,170.625z"/>
	</g>
	<g id="Heart_Root" fill="#FFFFFF" onmouseover="mouseOverTissue(this);" onmouseout="mouseOut();" onclick="mouseClick(this);">
		<path d="M379.76,179.377c6.406,15.457,26.74,33.123,34.021,60.314c1.652,5.492,21.207-2.521,21.207-2.521
			s35.257-63.169,39.923-66.546s-32.896-4.366-50.74-2.836C417.245,168.382,379.76,179.377,379.76,179.377z"/>
	</g>
	<g id="Globular_Apical" fill="#FFFFFF" onmouseover="mouseOverTissue(this);" onmouseout="mouseOut();" onclick="mouseClick(this);">
		<path d="M137.209,165.149c0.521-1.967,1.27-14.498,11.758-17.928c4.438-1.451,9.113-0.188,13.446,2.145
			s4.2-1.824,8.2-3.37s8.634-0.41,11.634,3.875s8.005,12.725,2.823,14.002C174.458,166.489,175.893,166.246,137.209,165.149z"/>
	</g>
	<g id="Globular_Basal" fill="#FFFFFF" onmouseover="mouseOverTissue(this);" onmouseout="mouseOut();" onclick="mouseClick(this);">
		<path d="M138.5,165.398c-4.75,3.352-8.818,13.568-8.068,20.96s2.318,15.708,11.068,19.892
			s21.733,3.821,30.983,0.693s16.959-13.977,18.709-20.585s0.106-15.209-2.144-21.209s-10.564,1.335-13.564,1.085
			s-13.156,0.55-21.048-0.304C146.895,165.116,138.5,165.398,138.5,165.398z"/>
	</g>
</g>
<g id="Outlines">
	<g id="Torpedo_OL">
		<g>
			<path fill="none" stroke="#000000" stroke-miterlimit="10" d="M714.9,281.578c3.614-2.215,7.147-5.229,9.584-8.568
				c4.194-5.76,7.23-11.344,6.424-19.699c-1.69-17.492-0.446-34.396,10.07-50.513c14.361-22.016,13.308-46.628,7.688-71.861
				c-4.793-28.312-22.525-32.442-22.525-32.442s2.534,0.666,0,0c-2.353-1.052-5.358-2.15-8.835,2.322
				c-9.14,9.131-6.062,19.994-3.741,31.235c2.684,13.004,4.817,26.215,5.853,39.44c0.772,9.92-0.924,11.02-10.911,14.893
				c-6.671-2.093-8.781-6.935-9.81-13.889c-1.767-11.944-0.228-23.101,2.884-34.645c1.997-7.413-0.169-15.476-5.674-21.557
				c-4.992-5.515-15.291-6.097-20.584-0.982c-15.972,15.442-24.729,33.562-17.624,56.101c1.998,6.324,6.74,11.729,9.602,17.848
				c8.737,18.69,17.731,37.265,18.882,58.385c0.067,1.231,0.098,2.477,0.119,3.729c0.2,10.125-2.8,14.799,0.2,18.712
				s8.735,8.786,8.735,8.786l16.993,2.261"/>
			<path fill="none" stroke="#000000" stroke-miterlimit="10" d="M715.702,319.443c4.181,7.4,3.45,12.671-3.51,19.207
				c-4.993,4.687-5.947,13.675-8.687,20.686c2.841,3.553,4.896,6.119,6.75,8.443c9.028,0,12.745-18.587,6.434-29.597"/>
			<path fill="none" stroke="#000000" stroke-miterlimit="10" d="M705.838,300.699c10.323-4.105,8.91-7.966,5.162-17.919
				c-2.119-5.625,1.854-11.561-1-21.78c-5.132,1.113-19.041,3.06-24.834,4.312"/>
			<path fill="none" stroke="#000000" stroke-miterlimit="10" d="M674.545,205.053c5.464,6.414,16.455,4.399,25.382,5.977
				c3.241-0.259,6.569,0.56,9.856,0.89"/>
			<path fill="none" stroke="#000000" stroke-miterlimit="10" d="M713.729,299.714c1.01,5.786,2.016,11.577,2.923,16.803
				c-4.3,1.421-6.566,2.177-8.837,2.93"/>
			<path fill="none" stroke="#000000" stroke-miterlimit="10" d="M699.919,282.943c-0.341,3.287-0.683,6.572-1.12,10.814
				c1.66,2.319,3.729,5.214,5.876,8.214c-0.907,2.311-1.934,4.929-3.155,8.04c1.802,2.668,3.687,5.464,5.849,8.672
				c-1.242,2.861-2.48,5.715-4.126,9.5c1.701,3.064,3.632,6.532,5.558,9.999"/>
			<path fill="none" stroke="#000000" stroke-miterlimit="10" d="M736.417,207.973c-4.602,0.986-9.206,1.973-13.81,2.959"/>
			<path fill="none" stroke="#000000" stroke-miterlimit="10" d="M748.668,130.937"/>
		</g>
	</g>
	<g id="Heart_OL">
		<path fill="none" stroke="#000000" stroke-miterlimit="10" d="M474.301,169.605c4.861-11.804,1.812-22.265-5.99-31.506
			c-5.635-6.674-14.366-7.313-20.503-0.912c-7.084,7.394-13.099,15.814-20.587,25.031c-5.792-3.861-11.433-7.582-17.032-11.361
			c-9.103-6.141-17.21-4.952-26.717,2.873c-6.923,5.697-8.063,18.223-3.712,25.648c10.38,17.693,18.966,30.353,27.507,43.468
			c4.737,7.272,7.092,15.044,6.956,23.706c-0.021,1.308,1.223,2.629,1.878,3.943"/>
		<path fill="none" stroke="#000000" stroke-miterlimit="10" d="M416.101,240.63c10.208-0.602,4.523-0.267,19.838-1.167
			c-0.316-0.764-6.616,12.289-6.937,11.525c2.254-4.768,9.965-23.696,12.846-28.049c8.604-13.006,17.438-29.512,26.099-42.483
			c2.509-3.759,4.35-4.31,6.964-9.83c-19.369-5.697-41.479-5.272-59.793-2.007"/>
		<path fill="none" stroke="#000000" stroke-miterlimit="10" d="M422.02,318.561c-7.858,1.742-12.179,11.104-8.722,20.657
			c1.675,4.634,5.001,8.668,7.509,12.854c13.512,1.675,16.073-2.055,12.288-14.837c-1.976-6.669-4.022-12.83-9.103-17.689"/>
		<path fill="none" stroke="#000000" stroke-miterlimit="10" d="M415.114,168.619c-10.854,3.945-21.702,7.892-32.556,11.837"/>
		<path fill="none" stroke="#000000" stroke-miterlimit="10" d="M415.114,296.857c2.289,0.396,4.578,0.799,6.804,1.187
			c5.933-11.673,4.113-17.127-5.817-17.957c-5.896,9.991-5.896,9.991-1.973,16.771"/>
		<path fill="none" stroke="#000000" stroke-miterlimit="10" d="M423.388,281.953c0.974-4.471,2.547-11.793,3.547-16.397
			c-11.5-1.556-16.227,2.44-15.912,7.942c0.312,5.502,2.694,4.338,4.095,6.589"/>
		<path fill="none" stroke="#000000" stroke-miterlimit="10" d="M415.114,264.304c-0.422-4.196-0.846-8.396-1.337-13.312
			c5.938,0,9.558,0,15.225,0c-1.163,4.723-2.101,8.522-3.036,12.33"/>
		<path fill="none" stroke="#000000" stroke-miterlimit="10" d="M414.128,231.752c6.905,0,13.81,0,20.715,0"/>
		<path fill="none" stroke="#000000" stroke-miterlimit="10" d="M415.114,297.844c-5.324,6.666-4.895,13.609-0.986,20.717"/>
		<path fill="none" stroke="#000000" stroke-miterlimit="10" d="M423.992,298.831c-0.328,6.577-0.657,13.152-0.986,19.729"/>
	</g>
	<g id="Globular_OL">
		<path fill="none" stroke="#000000" stroke-miterlimit="10" d="M142.684,166.136c14.933,1.045,29.902,2.633,44.386-2.988
			c-2.76-16.759-13.447-22.648-22.173-13.102c-12.322-6.076-23.958-2.026-26.313,11.129c-0.621,3.471-2.92,6.733-4.817,9.868
			c-5.984,9.891-3.915,26.95,5.123,33.35c3.687,2.609,8.985,3.472,13.678,4.001c5.86,0.66,11.853,0.158,17.604,0.158
			c1.712,12.661,0.975,13.626-9.731,13.805c-2.301,0.039-4.604,0.006-6.905,0.006"/>
		<path fill="none" stroke="#000000" stroke-miterlimit="10" d="M169.319,298.32c0.306,11.946-1.588,23.965,3.636,35.647
			c1.675,3.746-0.287,9.117-0.613,14.166c-4.997,0-8.942,0-14.368,0c0-17.264,0-34.033,0-51.84
			c-0.827-1.261-2.279-3.475-3.539-5.396c1.841-10.094,9.912-2.023,14.883-6.616c0-8.303,0-17.852,0-27.396c0-4.603,0-9.205,0-13.81
			"/>
		<path fill="none" stroke="#000000" stroke-miterlimit="10" d="M189.048,165.149c7.674,17.427,1.212,32.866-17.756,42.417"/>
		<path fill="none" stroke="#000000" stroke-miterlimit="10" d="M168.332,286.483c0.588,3.18,1.178,6.357,2.008,10.851
			c-4.953,0-7.919,0-10.886,0"/>
		<path fill="none" stroke="#000000" stroke-miterlimit="10" d="M150.576,210.526c0.535,10.203,1.069,20.408,1.679,32.06
			c5.865,0,11.467,0,18.358,0c-0.492-3.562-0.894-6.469-1.294-9.372"/>
		<path fill="none" stroke="#000000" stroke-miterlimit="10" d="M169.319,221.377c1.823,8.52-1.514,13.443-8.872,12.756
			c-2.342-0.22-4.611-1.246-6.912-1.904"/>
		<path fill="none" stroke="#000000" stroke-miterlimit="10" d="M155.509,264.781c3.945,0.328,7.892,0.658,11.837,0.983"/>
		<path fill="none" stroke="#000000" stroke-miterlimit="10" d="M156.495,274.646c0,3.614,0,7.23,0,10.851"/>
		<path fill="none" stroke="#000000" stroke-miterlimit="10" d="M152.549,243.079c-0.577,10.571,1.006,11.838,14.797,11.838"/>
		<path fill="none" stroke="#000000" stroke-miterlimit="10" d="M154.522,254.917c-0.329,4.274-1.396,8.649-0.83,12.802
			c1.125,8.277,7.966,6.795,13.654,6.93"/>
		<path fill="none" stroke="#000000" stroke-miterlimit="10" d="M159.454,307.198c2.631,0,5.261,0,7.892,0"/>
	</g>
</g>
<g id="Labels">
	<text transform="matrix(1 0 0 1 144.5 394.5)" font-family="'Helvetica'" font-size="10">Globular</text>
	<text transform="matrix(1 0 0 1 403.5 394.5)" font-family="'Helvetica'" font-size="10">Heart</text>
	<text transform="matrix(1 0 0 1 693.5 394.5)" font-family="'Helvetica'" font-size="10">Torpedo</text>
	<text transform="matrix(1 0 0 1 199.5 145.5)" font-family="'Helvetica'" font-size="10">apical</text>
	<text transform="matrix(1 0 0 1 207.5 184.5)" font-family="'Helvetica'" font-size="10">basal</text>
	<text transform="matrix(1 0 0 1 494.5 147.5)" font-family="'Helvetica'" font-size="10">cotyledons</text>
	<text transform="matrix(1 0 0 1 484.5 204.5)" font-family="'Helvetica'" font-size="10">root</text>
	<text transform="matrix(1 0 0 1 768.5 147.5)" font-family="'Helvetica'" font-size="10">apical</text>
	<text transform="matrix(1 0 0 1 593.5 167.5)" font-family="'Helvetica'" font-size="10">cotyledons</text>
	<text transform="matrix(1 0 0 1 643.5 233.5)" font-family="'Helvetica'" font-size="10">root</text>
	<text transform="matrix(1 0 0 1 637.5 286.5)" font-family="'Helvetica'" font-size="10">meristem</text>
	<text transform="matrix(1 0 0 1 747.5 242.5)" font-family="'Helvetica'" font-size="10">basal</text>
</g>
</svg>
