<?xml version="1.0" encoding="utf-8"?>
<!-- Generator: Adobe Illustrator 16.0.0, SVG Export Plug-In . SVG Version: 6.00 Build 0)  -->
<!DOCTYPE svg PUBLIC "-//W3C//DTD SVG 1.1//EN" "http://www.w3.org/Graphics/SVG/1.1/DTD/svg11.dtd">
<svg version="1.1" id="Poplar" xmlns="http://www.w3.org/2000/svg" xmlns:xlink="http://www.w3.org/1999/xlink" x="0px" y="0px"
	 width="215px" height="560px" viewBox="0 0 215 560" enable-background="new 0 0 215 560" xml:space="preserve">
<g id="tracings">
	<path fill="none" stroke="#000000" stroke-linecap="round" stroke-linejoin="round" stroke-miterlimit="10" d="M158.77,411.79
		c0.14,0.647,0.278,1.294,0.502,2.337c-0.763,0-1.412,0-2.832,0c-0.451,0.878-1.222,2.378-2.226,4.33
		c0.427,0.447,0.933,0.98,1.677,1.764c-2.895,6.663-5.063,14.583-9.418,21.029c-7.402,10.961-9.981,23.428-13.91,35.565
		c-1.998,6.169-5.069,11.989-7.73,17.936c-0.184,0.41-0.995,0.54-1.514,0.799"/>
	<path fill="none" stroke="#000000" stroke-linecap="round" stroke-linejoin="round" stroke-miterlimit="10" d="M136.952,416.854
		c-0.13,3.507,0.118,7.076-0.462,10.507c-1.609,9.516-3.202,19.062-5.502,28.423c-1.707,6.957-2.789,14.274-7.282,20.288"/>
	<path fill="none" stroke="#000000" stroke-linecap="round" stroke-linejoin="round" stroke-miterlimit="10" d="M167.729,177.26
		c-2.297,3.886,0.446,6.512,1.932,8.981c0.062,5.732,0.884,10.911,2.729,15.958c1.072,2.938,1.014,5.66-0.674,8.617
		c-2.554,4.477-4.352,9.38-6.77,13.943c-1.561,2.946-3.656,5.607-5.526,8.417c-3.883-1.217-2.043-4.277-2.93-6.922
		c-3.23-1.135-6.919-2.432-10.556-3.711c-1.455-2.758-0.938-4.966,1.537-6.714"/>
	<path fill="none" stroke="#000000" stroke-linecap="round" stroke-linejoin="round" stroke-miterlimit="10" d="M139.68,405.946
		c-0.91,2.855-1.752,5.735-2.757,8.561c-0.483,1.357-1.353,2.573-1.905,3.912c-2.627,6.35-5.55,12.608-7.675,19.126
		c-1.235,3.791-0.88,8.074-1.78,12.013c-0.709,3.094-2.16,6.032-3.441,8.971c-1,2.29-2.348,4.299-5.426,3.129"/>
	<path fill="none" stroke="#000000" stroke-linecap="round" stroke-linejoin="round" stroke-miterlimit="10" d="M80.852,109.083
		c-1.042,1.877-2.084,3.754-3.208,5.78c1.583,2.278,2.984,4.293,4.436,6.383c-3.063,2.235-5.246-0.915-8.128-1.384
		c-1.101,3.777,2.679,5.46,3.554,8.424c-0.282,1.091-0.581,2.25-1.006,3.899c-1.67-0.184-3.351-0.369-4.871-0.536
		c-0.64-2.844-1.201-5.335-1.762-7.826c-0.375-0.113-0.75-0.227-1.125-0.34c-0.768,1.693-2.223,3.451-2.073,5.058
		c0.107,1.15,2.366,2.099,3.665,3.138"/>
	<path fill="none" stroke="#000000" stroke-linecap="round" stroke-linejoin="round" stroke-miterlimit="10" d="M145.133,367.377
		c-1.039,1.818-2.001,3.687-3.131,5.445c-3.285,5.116-3.475,10.533-2.482,16.397c0.434,2.566-0.51,5.566-1.475,8.125
		c-2.091,5.547-4.545,10.962-6.971,16.377c-0.686,1.528-1.784,2.872-2.693,4.301"/>
	<path fill="none" stroke="#000000" stroke-linecap="round" stroke-linejoin="round" stroke-miterlimit="10" d="M70.333,348.677
		c0.519-1.168,1.2-2.295,1.516-3.517c0.362-1.401,0.402-2.886,0.615-4.598c-0.934-1.39-2.078-3.093-3.222-4.796
		c-0.31,0.078-0.619,0.157-0.929,0.236c1.126,16.196,4.874,31.83,11.018,47.346c0.739,0,1.715-0.288,2.249,0.075
		c0.637,0.434,0.895,1.424,1.164,1.902c4.197-2.104,5.37-1.146,5.12,3.088"/>
	<path fill="none" stroke="#000000" stroke-linecap="round" stroke-linejoin="round" stroke-miterlimit="10" d="M122.927,476.46
		c-1.952,7.31-0.827,14.537,0.333,21.826c1.047,6.58,1.338,13.285,2.488,19.843c0.812,4.631,2.503,9.107,3.802,13.652"/>
	<path fill="none" stroke="#000000" stroke-linecap="round" stroke-linejoin="round" stroke-miterlimit="10" d="M180.585,315.952
		c-0.28,7.261-5.341,11.957-9.421,17.085c-2.036,2.56-4.814,4.527-7.109,6.628c-3.875,8.93-7.81,17.69-11.473,26.562
		c-1.83,4.434-3.167,9.068-4.712,13.619c-0.079,0.232,0.083,0.564-0.024,0.77c-1.984,3.793-0.246,6.382,2.741,8.577"/>
	<path fill="none" stroke="#000000" stroke-linecap="round" stroke-linejoin="round" stroke-miterlimit="10" d="M68.775,458.929
		c0.52,1.948,1.126,3.878,1.541,5.849c0.967,4.589,3.549,7.921,7.361,10.599c1.28,0.899,2.632,2.756,2.665,4.205
		c0.231,10.267,3.536,19.389,9.467,27.66c1.029,1.435,2.002,2.908,2.65,3.854c-0.405,9.151-0.483,18.099-6.542,25.362"/>
	<path fill="none" stroke="#000000" stroke-linecap="round" stroke-linejoin="round" stroke-miterlimit="10" d="M155.652,322.575
		c0.13,0.39,0.461,0.846,0.358,1.158c-1.251,3.781-2.032,7.86-4.032,11.208c-1.625,2.72-4.731,4.554-7.606,7.168
		c-1.224,5.1-2.644,10.687-3.892,16.312c-1.265,5.693-1.696,11.667-3.688,17.079c-2.771,7.528-1.44,15.097-1.752,22.655
		c-0.017,0.379,0.483,0.777,0.744,1.168"/>
	<path fill="none" stroke="#000000" stroke-linecap="round" stroke-linejoin="round" stroke-miterlimit="10" d="M145.913,387.636
		c-1.817,5.584-4.446,11.06-5.215,16.784c-0.697,5.198,0.629,10.668,1.771,15.977c1.928-3.519,3.854-7.036,5.781-10.555"/>
	<path fill="none" stroke="#000000" stroke-linecap="round" stroke-linejoin="round" stroke-miterlimit="10" d="M138.51,344.002
		c-1.863-1.526-3.729-3.052-6.111-5.001c-1.824,2.064-3.41,3.858-5.484,6.206c2.99,0.724,4.982,1.206,6.908,1.671
		c1.354,3.197-0.758,4.935-2.79,6.926c1.831,0.729,3.291,1.308,4.75,1.887"/>
	<path fill="none" stroke="#000000" stroke-linecap="round" stroke-linejoin="round" stroke-miterlimit="10" d="M180.975,171.027
		c-6.386,8.625-9.742,17.987-7.013,28.83"/>
	<path fill="none" stroke="#000000" stroke-linecap="round" stroke-linejoin="round" stroke-miterlimit="10" d="M180.975,359.585
		c-2.033-1.524-4.065-3.049-6.388-4.79c-1.864,3.92-4.966,6.27-4.922,10.892c4.662-0.99,8.344-2.58,11.31-5.712"/>
	<path fill="none" stroke="#000000" stroke-linecap="round" stroke-linejoin="round" stroke-miterlimit="10" d="M167.339,172.585
		c-0.649,0.519-1.487,0.916-1.916,1.579c-2.403,3.724-4.931,7.395-6.981,11.311c-2.1,4.008-3.724,8.268-5.478,12.451
		c-0.166,0.395,0.222,1.022,0.351,1.542"/>
	<path fill="none" stroke="#000000" stroke-linecap="round" stroke-linejoin="round" stroke-miterlimit="10" d="M161.105,74.021
		c3.386-0.18,6.771-0.36,11.228-0.596c-0.929-2.793-1.576-4.741-2.327-7c-4.624,1.836-7.902,2.641-9.752,7.82
		c-1.494,4.181-5.09,9.126-10.835,10.294"/>
	<path fill="none" stroke="#000000" stroke-linecap="round" stroke-linejoin="round" stroke-miterlimit="10" d="M171.234,279.721
		c0.697,0.872,1.395,1.742,1.988,2.485c-1.508,4.618-5.586,4.374-9.101,5.339c-1.175,1.447-2.401,2.958-3.911,4.814
		c1.355,0.877,2.443,1.584,3.428,2.221c0,1.505,0,3.062,0,4.896c-0.937,0.186-1.738,0.325-2.533,0.506
		c-5.821,1.312-8.037,5.781-9.326,10.91c-1.657,6.599-3.193,13.229-4.655,19.873c-0.3,1.361-0.043,2.848-0.043,4.275"/>
	<path fill="none" stroke="#000000" stroke-linecap="round" stroke-linejoin="round" stroke-miterlimit="10" d="M154.482,383.35
		c-0.52,0.91-1.098,1.79-1.547,2.732c-1.197,2.514-2.34,5.054-3.291,7.12c0.332,2.839,0.998,5.473,0.864,8.063
		c-0.241,4.689-0.581,9.441-1.634,13.993c-0.557,2.409-2.496,4.626-4.178,6.62c-2.82,3.344-2.719,7.447-3.443,11.34
		c-1.035,5.562-0.436,11.502-4.251,16.399c-1.112,1.429-1.61,3.336-2.389,5.023"/>
	<path fill="none" stroke="#000000" stroke-linecap="round" stroke-linejoin="round" stroke-miterlimit="10" d="M179.417,174.923
		c0.627,9.027,0.024,17.812-5.063,25.712"/>
	<path fill="none" stroke="#000000" stroke-linecap="round" stroke-linejoin="round" stroke-miterlimit="10" d="M148.641,417.244
		c0.596,4.248,1.077,8.453-1.15,12.477c-2.42,4.369-4.693,8.82-7.031,13.235"/>
	<path fill="none" stroke="#000000" stroke-linecap="round" stroke-linejoin="round" stroke-miterlimit="10" d="M143.964,282.059
		c1.039,0.909,2.078,1.817,3.252,2.846c-0.731,1.466-1.485,2.975-2.276,4.561c1.067,0.82,2.017,1.549,3.494,2.684
		c-1.293,2.086-2.584,4.17-3.988,6.438c1.589,1.192,3.748,2.812,6.031,4.524c-0.517,1.421-1.429,3.188-1.787,5.06
		c-0.856,4.479-2.883,7.742-6.978,10.258c-3.913,2.404-2.913,6.705,1.472,8.436c0.541,0.214,1.065,0.461,1.537,0.665
		c-0.537,1.268-1.037,2.448-1.533,3.617c-1.469,0.979-2.938,1.957-4.771,3.179c1.384,1.256,2.538,2.301,3.95,3.582
		c-3.833,6.855-6.225,14.118-6.268,21.726c-1.181,4.94-2.102,9.716-3.494,14.352c-1.272,4.24-2.92,8.387-4.649,12.47
		c-1.983,4.685-1.81,9.321-0.354,14.04"/>
	<path fill="none" stroke="#000000" stroke-linecap="round" stroke-linejoin="round" stroke-miterlimit="10" d="M76.177,187.779
		c0.913,0.071,1.827,0.142,3.184,0.247c-1.314,1.828-2.407,3.348-3.861,5.372c1.275,1.012,2.643,2.099,4.046,3.212
		c-0.746,1.373-1.633,3.006-2.863,5.271c3.159,0.98,5.861,1.819,9.037,2.804c-1.57,2.271-2.84,4.109-4.109,5.946
		c0.139,0.068,0.277,0.135,0.416,0.203c-1.972,3.369-3.944,6.738-6.149,10.506c1.519-0.372,2.652-0.648,4.02-0.983
		c0.333,1.004,0.645,1.939,0.956,2.875"/>
	<path fill="none" stroke="#000000" stroke-linecap="round" stroke-linejoin="round" stroke-miterlimit="10" d="M53.192,432.048
		c-1.429-0.13-2.857-0.363-4.286-0.363c-1.691,0-3.382,0.2-5.287,0.327c3.408,6.521,8.823,8.929,14.247,6.659"/>
	<path fill="none" stroke="#000000" stroke-linecap="round" stroke-linejoin="round" stroke-miterlimit="10" d="M153.314,514.64
		c-0.446,0.312-0.893,0.625-1.668,1.169c-5.347,0-11.189,0-17.672,0c-0.183-0.272-0.744-1.11-1.572-2.346
		c-0.867,0.964-1.666,1.85-2.463,2.735"/>
	<path fill="none" stroke="#000000" stroke-linecap="round" stroke-linejoin="round" stroke-miterlimit="10" d="M147.081,147.263
		c0.335-1.053,0.67-2.105,1.069-3.36c-0.605-1.225-1.326-2.681-2.416-4.884c2.113-0.523,4.271-1.058,6.801-1.685
		c0-1.107,0-2.411,0-3.356c1.999-0.907,3.928-1.248,4.957-2.395c1.096-1.223,1.342-3.208,1.928-4.778
		c-2.05-3.548-5.195-3.742-8.816-3.684c-0.727,1.807-1.51,3.753-2.653,6.599c-1.19,0.501-3.239,1.365-5.287,2.228
		c-0.335-0.418-0.67-0.837-1.005-1.255c1.561-1.854,3.121-3.709,5.178-6.152c-0.186-0.831-0.811-2.49-0.84-4.16
		c-0.023-1.291,0.697-2.596,1.086-3.895"/>
	<path fill="none" stroke="#000000" stroke-linecap="round" stroke-linejoin="round" stroke-miterlimit="10" d="M40.725,277.773
		c-0.547,0.897-1.095,1.794-1.597,2.618c1.769,5.02,5.771,1.6,9.092,2.783c-0.163,1.653-0.353,3.59-0.559,5.684
		c-1.619-0.404-2.903-0.727-4.497-1.125c-0.749,0.855-1.537,1.757-2.191,2.504c1.346,3.742,1.346,3.742,6.587,5.937
		c1.526-0.764,3.191-1.596,5.48-2.741c-0.242,2.662-0.452,4.976-0.751,8.264c2.141-0.244,3.678-0.422,5.213-0.598
		c0.671-1.343,1.212-2.425,1.868-3.734c1.302,0.435,2.47,0.824,4.539,1.516c-0.213-1.581,0.097-3.445-0.685-4.259
		c-2.056-2.14-1.376-4.386-1.072-6.716"/>
	<path fill="none" stroke="#000000" stroke-linecap="round" stroke-linejoin="round" stroke-miterlimit="10" d="M178.248,202.583
		c3.01-2.832,6.02-5.663,9.029-8.495c0.082,2.69-1.565,4.701-3.227,6.51c-3.799,4.139-6.506,8.771-8.688,13.996
		c-2.133,5.107-5.607,9.646-8.379,14.5c-0.743,1.301-1.073,2.838-1.592,4.266"/>
	<path fill="none" stroke="#000000" stroke-linecap="round" stroke-linejoin="round" stroke-miterlimit="10" d="M115.135,390.362
		c1.678-0.561,3.354-1.118,5.844-1.947c0,1.817-0.104,3.256,0.026,4.672c0.168,1.843-0.833,3.916,1.81,5.285
		c0.742,0.386-0.053,3.437,0.146,5.231c0.515,4.644-0.008,9.062-1.022,13.68c-1.476,6.707-2.494,13.639-1.349,20.607"/>
	<path fill="none" stroke="#000000" stroke-linecap="round" stroke-linejoin="round" stroke-miterlimit="10" d="M82.8,110.252
		c2.831-1.489,4.771-3.572,4.66-7.488c-1.226-0.736-2.677-1.607-4.248-2.55c-3.661,2.635-1.039,6.333-2.319,9.564
		c2.115,1.625,4.154,3.192,6.193,4.76"/>
	<path fill="none" stroke="#000000" stroke-linecap="round" stroke-linejoin="round" stroke-miterlimit="10" d="M43.452,393.479
		c-4.043,2.066-3.946,4.396-0.292,8.57c3.03,0,5.374-0.133,7.688,0.071c0.819,0.072,1.852,0.792,2.296,1.517
		c2.571,4.189,2.521,4.221,7.839,5.426c0.226-4.634-0.95-5.462-5.083-3.947c-1.675,0.613-3.561,0.647-5.745,0.233
		c-0.721,1.078-1.442,2.156-2.151,3.218c5.647,4.867,5.854,4.972,10.016,4.753c-0.685,1.433-1.265,2.646-1.635,3.42
		c0.616,2.475,1.118,4.491,1.621,6.51c-0.368,0.152-0.736,0.306-1.104,0.459c-5.531-2.703-12.713-3.355-14.036-12.573
		c1.526,0.431,2.965,0.402,3.639,1.106c2.116,2.216,4.841,4.364,3.182,8.119"/>
	<path fill="none" stroke="#000000" stroke-linecap="round" stroke-linejoin="round" stroke-miterlimit="10" d="M64.49,229.854
		c-4.503-1.693-5.014,2.269-6.977,4.737c0.812,1.352,1.558,2.594,2.394,3.985c-1.599,3.723,0.233,6.165,3.587,7.956
		c-0.358,1.011-0.672,1.9-1.005,2.841c1.293,1.07,2.576,2.129,4.02,3.324c-0.985,2.214-2.052,4.613-3.529,7.933
		c2.357-0.96,3.833-1.562,5.957-2.427c0.749,1.373,1.526,2.799,2.14,3.924c-5.43,2.267-6.025,8.515-7.973,13.762
		c-0.313,0.845,1.646,2.533,2.555,3.832"/>
	<path fill="none" stroke="#000000" stroke-linecap="round" stroke-linejoin="round" stroke-miterlimit="10" d="M160.717,389.973
		c1.34,8.354,1.559,16.524-3.896,23.766"/>
	<path fill="none" stroke="#000000" stroke-linecap="round" stroke-linejoin="round" stroke-miterlimit="10" d="M91.76,461.656
		c-1.761,4.308-3.521,8.615-5.426,13.272c2.16,2.012,4.852,3.262,8.153,3.089"/>
	<path fill="none" stroke="#000000" stroke-linecap="round" stroke-linejoin="round" stroke-miterlimit="10" d="M145.913,367.377
		c0.259,3.496,0.048,6.831-1.479,10.166c-1.649,3.604-2.677,7.495-3.975,11.261"/>
	<path fill="none" stroke="#000000" stroke-linecap="round" stroke-linejoin="round" stroke-miterlimit="10" d="M123.706,92.331
		c1.119,0.64,2.237,1.279,4.29,2.452c-2.785,1.814-4.805,3.13-7.028,4.578c0.308,0.798,0.751,1.946,1.365,3.539
		c-0.522,0.522-1.172,1.172-1.509,1.509c-3.471,0-4.292-4.105-2.127-7.887c-1.664-2.457-2.872-5.067-1.223-8.085"/>
	<path fill="none" stroke="#000000" stroke-linecap="round" stroke-linejoin="round" stroke-miterlimit="10" d="M151.367,224.4
		c1.818-1.039,4.176-1.687,5.294-3.232c1.015-1.401,0.649-3.785,0.971-5.723c0.046-0.279,0.526-0.486,1.035-0.924
		c0.771,0.167,1.785,0.387,2.925,0.635c0.793-1.338,1.565-2.641,2.016-3.399c2.16-0.982,3.9-1.773,5.793-2.634
		c-0.834-2.493-1.408-4.205-1.986-5.928c-2.262,0.764-3.432,3.547-6.122,1.556c1.526-3.328,3.082-6.719,4.627-10.088
		c-1.573-1.325-2.709-2.281-4.522-3.809c-0.782,3.153-1.406,5.666-1.888,7.6c-2.913,0.567-5.737,1.117-8.892,1.73
		c-2.264-1.65-3.174-3.7-1.245-6.591c0.56-0.839,0.565-2.047,0.825-3.086"/>
	<path fill="none" stroke="#000000" stroke-linecap="round" stroke-linejoin="round" stroke-miterlimit="10" d="M78.515,383.35
		c-0.519,0.392-1.038,0.781-1.827,1.374c-0.347-1.313-0.662-2.503-1.033-3.905c-1.302,0-2.734,0-4.421,0
		c-0.471-3.721,0.947-7.991-2.969-10.176c-1.43,0.092-2.603,0.166-3.775,0.241"/>
	<path fill="none" stroke="#000000" stroke-linecap="round" stroke-linejoin="round" stroke-miterlimit="10" d="M51.633,354.91
		c1.056-1.761,2.113-3.521,3.163-5.271c5.315,4.093-0.36,10.046,2.872,14.392c1.674-0.533,3.122-0.993,4.631-1.476
		c-1.369-2.28-2.597-4.327-4.296-7.16c1.539-1.537,3.097-3.097,4.76-4.759c3.653,3.005,3.295,5.898,2.125,9.333
		c0.654,0.438,1.492,1,2.854,1.913c-1.578,2.952-3.194,5.978-4.81,9.001"/>
	<path fill="none" stroke="#000000" stroke-linecap="round" stroke-linejoin="round" stroke-miterlimit="10" d="M144.744,236.477
		c-0.783,0.248-1.566,0.495-3.084,0.974c0.898,2.446,1.775,4.831,2.865,7.795c1.758-1.436,3.33-2.72,5.967-4.874
		c-1.592-0.909-2.602-1.308-3.393-1.969c-4.084-3.412-3.375-7.253-0.021-10.112c1.189-1.014,2.341-2.074,3.51-3.113"/>
	<path fill="none" stroke="#000000" stroke-linecap="round" stroke-linejoin="round" stroke-miterlimit="10" d="M150.198,82.202
		c-1.558,2.987-2.894,6.121-4.731,8.923c-2.298,3.502-4.048,7.078-4.277,11.333c-0.043,0.798-0.729,1.561-1.119,2.34"/>
	<path fill="none" stroke="#000000" stroke-linecap="round" stroke-linejoin="round" stroke-miterlimit="10" d="M27.869,242.321
		c-0.652,0.517-1.303,1.033-2.032,1.611c0.313,1.254,0.634,2.537,1.067,4.27c2.011,0.544,4.32,1.169,7.244,1.959
		c2.037,5.553-5.349,3.173-6.623,6.519c0.968,4.64,6.21,3.13,8.893,5.446c-1.176,1.469-2.33,2.909-3.484,4.35"/>
	<path fill="none" stroke="#000000" stroke-linecap="round" stroke-linejoin="round" stroke-miterlimit="10" d="M175.911,305.823
		c-2.078,4.154-3.978,8.414-6.3,12.429c-1.469,2.539-3.674,4.641-5.356,7.072c-1.415,2.045-2.55,4.282-3.835,6.478
		c-0.229-0.126-0.736-0.406-1.564-0.862c0.81-0.628,1.531-1.185,2.25-1.74"/>
	<path fill="none" stroke="#000000" stroke-linecap="round" stroke-linejoin="round" stroke-miterlimit="10" d="M162.275,256.346
		c-0.174-2.061-0.349-4.123-0.5-5.899c4.037-3.54,10.513,1.089,13.037-5.294c-0.316-1.056-0.707-2.355-1.142-3.799
		c-3.59-0.778-6.001,1.089-8.333,3.291c-0.863-0.215-1.779-0.444-3.438-0.857c2.953-2.93,5.567-5.522,8.947-8.874
		c-2.332-0.464-4.089-0.813-5.847-1.164"/>
	<path fill="none" stroke="#000000" stroke-linecap="round" stroke-linejoin="round" stroke-miterlimit="10" d="M170.456,354.131
		c-3.117,4.416-6.603,8.621-9.267,13.293c-4.5,7.889-6.895,16.396-5.992,25.672c0.287,2.946,0.031,5.999-0.374,8.947
		c-0.735,5.349-1.759,10.657-2.683,15.979c-0.361,2.081-0.773,4.154-1.164,6.232"/>
	<path fill="none" stroke="#000000" stroke-linecap="round" stroke-linejoin="round" stroke-miterlimit="10" d="M165.002,271.929
		c5.391-3.371,7.464-2.956,10.107,2.743c-1.408,1.411-2.844,4.095-4.695,4.421c-3.09,0.542-4.995,2.185-6.971,4.134"/>
	<path fill="none" stroke="#000000" stroke-linecap="round" stroke-linejoin="round" stroke-miterlimit="10" d="M145.133,247.775
		c-1.447,0.189-2.895,0.377-4.146,0.541c-1.973,3.533-3.813,6.828-5.741,10.279c3.095,0.515,6.491,1.082,9.888,1.647"/>
	<path fill="none" stroke="#000000" stroke-linecap="round" stroke-linejoin="round" stroke-miterlimit="10" d="M179.027,305.823
		c-1.299,6.232-2.618,12.462-3.871,18.704c-0.176,0.874-0.024,1.812-0.024,2.723"/>
	<path fill="none" stroke="#000000" stroke-linecap="round" stroke-linejoin="round" stroke-miterlimit="10" d="M102.669,194.792
		c-2.583,0.535-3.965,2.462-4.579,4.702c-0.388,1.417-0.242,3.319,0.458,4.556c0.37,0.654,2.436,0.329,3.73,0.49
		c1.124,0.14,2.98-1.633,3.118,1.162"/>
	<path fill="none" stroke="#000000" stroke-linecap="round" stroke-linejoin="round" stroke-miterlimit="10" d="M53.581,358.807
		c-1.417-2.037-2.835-4.073-4.34-6.235c-3.859,4.516-3.637,7.227-0.431,10.992c1.558,1.827,2.104,4.517,3.435,7.562
		c-2.242-0.824-3.741-1.375-6.392-2.35c0.614,2.693,1.056,4.633,1.64,7.193c-1.503,1.901-3.294-0.58-4.301-0.899
		c-1.561-2.204-2.69-3.797-4.272-6.031c-2.183,4.369-1.691,8.019-0.312,11.097c0.667,1.488,3.674,1.929,6.519,3.265
		c0.371,2.743-4.429,2.921-5.172,5.806c4.796,4.921,5.373,5.121,8.951,3.105"/>
	<path fill="none" stroke="#000000" stroke-linecap="round" stroke-linejoin="round" stroke-miterlimit="10" d="M106.175,220.894
		c2.404,5.919,4.808,11.838,7.304,17.986c-3.196,0.176-7.557-1.213-10.03,3.052"/>
	<path fill="none" stroke="#000000" stroke-linecap="round" stroke-linejoin="round" stroke-miterlimit="10" d="M85.917,480.356
		c1.429,1.037,2.887,2.038,4.28,3.124c4.267,3.323,3.74,8.271,4.29,12.849c0.141,1.168,0.262,2.338,0.391,3.506"/>
	<path fill="none" stroke="#000000" stroke-linecap="round" stroke-linejoin="round" stroke-miterlimit="10" d="M85.917,475.682
		c-2.227,7.312,1.836,18.688,7.792,21.816"/>
	<path fill="none" stroke="#000000" stroke-linecap="round" stroke-linejoin="round" stroke-miterlimit="10" d="M173.573,98.564
		c-1.179-1.159-2.359-2.317-3.539-3.476c0.141-0.14,0.282-0.281,0.422-0.421c-1.03-0.168-2.06-0.337-3.915-0.642
		c-0.906,3.083-1.807,6.149-2.708,9.215"/>
	<path fill="none" stroke="#000000" stroke-linecap="round" stroke-linejoin="round" stroke-miterlimit="10" d="M105.006,276.994
		c-0.909-0.259-1.814-0.718-2.728-0.739c-2.133-0.048-4.691-0.684-5.067,2.687c-0.299,2.685,1.158,4.301,4.29,4.666
		c0.642,0.074,1.299,0.01,2.649,0.01c-1.249,2.081-2.145,3.572-3.04,5.064"/>
	<path fill="none" stroke="#000000" stroke-linecap="round" stroke-linejoin="round" stroke-miterlimit="10" d="M101.5,451.527
		c1.889,0.889,3.779,1.776,6.398,3.009c0.318-2.56,0.562-4.524,0.77-6.188c1.857-1.463,3.66-2.883,5.957-4.692
		c-2.512-1.504-4.117-2.464-5.723-3.425"/>
	<path fill="none" stroke="#000000" stroke-linecap="round" stroke-linejoin="round" stroke-miterlimit="10" d="M123.706,197.519
		c0.95-1.266,1.899-2.533,3.178-4.236c-1.19-1.133-2.327-2.212-3.562-3.386c-0.223-4.181,0.805-8.168,4.459-11.857
		c-2.276,0-3.987,0-5.993,0c-0.228-2.973,2.313-6.242-1.22-8.144c-1.168-0.629-2.576-0.817-3.875-1.207"/>
	<path fill="none" stroke="#000000" stroke-linecap="round" stroke-linejoin="round" stroke-miterlimit="10" d="M76.956,402.439
		c3.179,1.359,4.111,3.515,2.062,6.794c1.051,0.896,2.027,1.726,2.945,2.508c-0.364,1.337-0.72,2.645-1.116,4.097
		c0.803,1.002,1.678,2.095,2.971,3.707c-1.524,2.002-2.988,3.926-4.855,6.378c0.322,0.248,1.106,0.85,1.889,1.45"/>
	<path fill="none" stroke="#000000" stroke-linecap="round" stroke-linejoin="round" stroke-miterlimit="10" d="M167.729,119.212
		c1.439-2.201,2.879-4.402,4.319-6.605c4.095,2.1,4.847,1.8,6.623-2.341c0.431-1.003,1.152-1.951,1.946-2.709
		c0.852-0.814,1.947-1.375,3.279-2.28c-0.959-1.324-1.674-2.312-2.303-3.179c-1.439,0.578-2.691,1.08-4.236,1.7
		c1.072-3.008,1.959-5.482,2.82-7.967c0.03-0.09-0.215-0.275-0.561-0.694c-0.774,0.252-1.635,0.533-2.764,0.901
		c-0.291-2.398-0.56-4.624-0.863-7.134c-3.983-0.531-3.338,3.556-5.145,4.985"/>
	<path fill="none" stroke="#000000" stroke-linecap="round" stroke-linejoin="round" stroke-miterlimit="10" d="M47.348,314.004
		c-1.299-1.299-2.598-2.597-4.681-4.68c-0.276,3.322-0.495,5.937-0.692,8.308c1.475,1.311,2.645,2.347,3.814,3.385"/>
	<path fill="none" stroke="#000000" stroke-linecap="round" stroke-linejoin="round" stroke-miterlimit="10" d="M166.561,308.939
		c-1.838,5.3-3.347,10.652-2.727,16.361"/>
	<path fill="none" stroke="#000000" stroke-linecap="round" stroke-linejoin="round" stroke-miterlimit="10" d="M107.344,251.281
		c0.894,6.831,0.57,13.896,3.896,20.258"/>
	<path fill="none" stroke="#000000" stroke-linecap="round" stroke-linejoin="round" stroke-miterlimit="10" d="M134.615,520.094
		c-0.26,4.155-0.508,8.312-0.787,12.466c-0.079,1.174-0.252,2.339-0.383,3.508"/>
	<path fill="none" stroke="#000000" stroke-linecap="round" stroke-linejoin="round" stroke-miterlimit="10" d="M131.498,33.115
		c0.419,0.63,0.839,1.261,1.385,2.081c1.129-0.849,2.335-1.755,3.583-2.694c2.7,6.272,2.12,7.84-3.8,10.742
		c-5.172,2.536-5.667,3.242-5.459,7.68c2.516-1.699,5.083-3.434,7.855-5.308c1.943,4.235,0.448,7.597-1.701,11.202
		c0.474,0.354,1.059,0.792,1.643,1.23"/>
	<path fill="none" stroke="#000000" stroke-linecap="round" stroke-linejoin="round" stroke-miterlimit="10" d="M45.01,418.022
		c-0.913-0.049-1.826-0.098-3.447-0.183c-0.309,3.097-0.644,6.464-0.944,9.487c2.896,0.704,4.856,1.18,7.19,1.747
		c0.803-0.464,2.058-1.189,3.42-1.978c-0.106-1.024-0.241-2.322-0.375-3.621"/>
	<path fill="none" stroke="#000000" stroke-linecap="round" stroke-linejoin="round" stroke-miterlimit="10" d="M33.712,217.777
		c-1.168,1.169-2.502,2.217-3.471,3.532c-1.874,2.544-3.291,5.225-1.648,8.572c0.487,0.993,0.315,2.311,0.445,3.479"/>
	<path fill="none" stroke="#000000" stroke-linecap="round" stroke-linejoin="round" stroke-miterlimit="10" d="M167.339,163.625
		c-1.729,5.718-4.12,11.088-8.179,15.585c-0.926,1.025-1.82,2.076-2.729,3.115"/>
	<path fill="none" stroke="#000000" stroke-linecap="round" stroke-linejoin="round" stroke-miterlimit="10" d="M127.992,366.987
		c-0.52,5.974-1.055,11.945-1.521,17.924c-0.029,0.367,0.482,0.776,0.742,1.166"/>
	<path fill="none" stroke="#000000" stroke-linecap="round" stroke-linejoin="round" stroke-miterlimit="10" d="M172.794,128.952
		c2.438,0.304,4.875,0.609,7.558,0.944c0.92,3.278,0.24,4.297-5.65,7.65c0.379,1.868,4.468,1.572,2.597,5.089
		c-1.163-0.138-2.442-0.29-3.724-0.442c-0.297-0.129-0.594-0.259-0.891-0.389c-1.392,3.248-2.783,6.496-4.175,9.743"/>
	<path fill="none" stroke="#000000" stroke-linecap="round" stroke-linejoin="round" stroke-miterlimit="10" d="M136.562,98.954
		c-1.824,0.206-3.648,0.413-6.021,0.68c1.192,3.041,2.272,5.799,3.472,8.855c2.059-1.444,3.443-2.415,4.764-3.34
		c6.244,1.949,6.334,3.032,0.912,9.376c-1.179-0.513-2.353-1.023-3.537-1.538c-0.504,0.507-1.094,0.977-1.514,1.568
		c-0.296,0.416-0.361,0.996-0.699,2.01c1.41,0.588,2.746,1.146,4.211,1.756c1.619-1.183,3.025-2.519,4.693-3.291
		c0.756-0.351,2.03,0.416,3.069,0.675"/>
	<path fill="none" stroke="#000000" stroke-linecap="round" stroke-linejoin="round" stroke-miterlimit="10" d="M196.948,174.144
		c-2.208,5.194-4.415,10.389-6.623,15.583"/>
	<path fill="none" stroke="#000000" stroke-linecap="round" stroke-linejoin="round" stroke-miterlimit="10" d="M160.327,343.223
		c-2.468,5.195-4.886,10.413-7.447,15.562c-0.465,0.936-1.513,1.58-2.292,2.358"/>
	<path fill="none" stroke="#000000" stroke-linecap="round" stroke-linejoin="round" stroke-miterlimit="10" d="M170.456,298.811
		c-3.767,5.194-7.532,10.39-11.298,15.583"/>
	<path fill="none" stroke="#000000" stroke-linecap="round" stroke-linejoin="round" stroke-miterlimit="10" d="M141.627,75.969
		c2.189,4.805-0.307,9.61,0.398,14.739c4.98-8.803,10.408-17.243,19.389-23.088c-1.314-1.18-2.133-1.916-2.881-2.588
		c-6.627,1.25-8.854,4.178-7.555,9.768"/>
	<path fill="none" stroke="#000000" stroke-linecap="round" stroke-linejoin="round" stroke-miterlimit="10" d="M168.119,176.481
		c0.27-4.415,0.54-8.829,0.811-13.246c-2.123,0-3.814,0-6.166,0c-1.363,5.452-2.68,10.712-3.994,15.973"/>
	<path fill="none" stroke="#000000" stroke-linecap="round" stroke-linejoin="round" stroke-miterlimit="10" d="M67.996,132.069
		c-1.673,0.161-3.346,0.321-5.728,0.549c-0.343,0.982-0.388,2.396,1.045,3.744c1.895,1.782,3.895,1.999,8.45,0.696
		c0.845,0.469,1.86,1.032,2.922,1.621c-1.246,3.063-2.292,6.088,1.464,8.189c-0.818,1.659-1.64,3.324-2.463,4.991
		c-1.677-0.419-3.507-0.876-5.502-1.375c-0.507,0.765-1.123,1.696-1.738,2.626c0.738,4.381,4.107,5.68,7.732,6.605
		c-0.966,2.502-1.94,5.026-2.907,7.53c1.858,1.396,3.187,2.394,4.517,3.392"/>
	<path fill="none" stroke="#000000" stroke-linecap="round" stroke-linejoin="round" stroke-miterlimit="10" d="M165.002,354.91
		c0.312-1.454,0.625-2.908,1.016-4.719c1.211,0.06,2.248,0.11,3.107,0.154c-2.466,5.138-4.854,10.109-7.24,15.082"/>
	<path fill="none" stroke="#000000" stroke-linecap="round" stroke-linejoin="round" stroke-miterlimit="10" d="M168.119,259.462
		c2.352-1.073,4.244,0.021,4.949,1.99c0.791,2.211-1.086,3.323-2.969,4.305c-1.781,0.927-5.08,1.023-3.539,4.614"/>
	<path fill="none" stroke="#000000" stroke-linecap="round" stroke-linejoin="round" stroke-miterlimit="10" d="M134.225,386.077
		c-1.559,4.155-3.029,8.347-4.709,12.453c-0.94,2.298-2.979,4.097-2.354,7.036c0.736,3.461,1.09,7.002,1.609,10.509"/>
	<path fill="none" stroke="#000000" stroke-linecap="round" stroke-linejoin="round" stroke-miterlimit="10" d="M160.717,332.314
		c-2.857,4.806-5.714,9.608-8.57,14.414"/>
	<path fill="none" stroke="#000000" stroke-linecap="round" stroke-linejoin="round" stroke-miterlimit="10" d="M151.367,338.158
		c-0.779,2.468-1.734,4.895-2.299,7.41c-1.043,4.646-1.856,9.342-2.766,14.017"/>
	<path fill="none" stroke="#000000" stroke-linecap="round" stroke-linejoin="round" stroke-miterlimit="10" d="M141.236,69.346
		c1.861-2.36,4.322-1.307,6.568-1.617c0.627,5.052,0.627,5.052-8.078,8.532c-0.25,2.519-0.521,5.401-0.834,8.278
		c-0.227,2.081-0.513,4.156-0.772,6.234"/>
	<path fill="none" stroke="#000000" stroke-linecap="round" stroke-linejoin="round" stroke-miterlimit="10" d="M52.023,246.996
		c1.597,0.331,3.193,0.662,5.707,1.181c-1.403,2.562-2.409,4.4-3.38,6.175c-2.563-1.425-4.393-2.442-6.222-3.46"/>
	<path fill="none" stroke="#000000" stroke-linecap="round" stroke-linejoin="round" stroke-miterlimit="10" d="M54.75,194.013
		c-5.882,4.632,0.589,6.889,2.221,9.904c-0.431,1.587-0.787,2.895-1.334,4.91c-2.309-2.053-4.171-3.709-5.937-5.28
		c-3.199,1.035-1.836,3.417-1.109,5.24c1.024,2.567,4.68,4.107,7.329,3.536"/>
	<path fill="none" stroke="#000000" stroke-linecap="round" stroke-linejoin="round" stroke-miterlimit="10" d="M81.242,224.01
		c0.514,0.782,1.028,1.565,1.73,2.634c1.908-0.936,3.837-1.883,5.95-2.92c0.772,0.951,1.708,2.102,2.949,3.63
		c-4.536,1.409-5.856,5.052-7.124,8.733"/>
	<path fill="none" stroke="#000000" stroke-linecap="round" stroke-linejoin="round" stroke-miterlimit="10" d="M152.536,341.665
		c-0.779,6.232-1.521,12.472-2.362,18.696c-0.23,1.71-0.755,3.379-1.145,5.066"/>
	<path fill="none" stroke="#000000" stroke-linecap="round" stroke-linejoin="round" stroke-miterlimit="10" d="M141.627,172.585
		c-0.219,1.567-0.438,3.134-0.661,4.738c-2.411,1.405-4.516,0.61-6.308-0.894c-0.973-0.816-0.719-1.904,0.734-2.286"/>
	<path fill="none" stroke="#000000" stroke-linecap="round" stroke-linejoin="round" stroke-miterlimit="10" d="M145.913,360.364
		c-2.599,4.416-5.194,8.831-7.792,13.246"/>
	<path fill="none" stroke="#000000" stroke-linecap="round" stroke-linejoin="round" stroke-miterlimit="10" d="M143.575,67.398
		c0.786-2.824,1.573-5.648,2.358-8.472c-0.229-0.212-0.459-0.423-0.688-0.635c-1.597,0.958-3.192,1.916-4.787,2.874"/>
	<path fill="none" stroke="#000000" stroke-linecap="round" stroke-linejoin="round" stroke-miterlimit="10" d="M167.339,107.525
		c-1.687-1.3-3.374-2.6-5.296-4.082c-2.637,2.185-3.766,5.168-3.17,8.347c0.648,3.459,3.857,3.058,6.12,2.75
		c2.21,2.144,1.196,5.667,4.294,6.62"/>
	<path fill="none" stroke="#000000" stroke-linecap="round" stroke-linejoin="round" stroke-miterlimit="10" d="M103.448,206.869
		c0.827,4.562,1.654,9.123,2.535,13.982c0.651-0.518,1.017-0.808,1.421-1.128c2.467,4.583,4.948,9.192,7.683,14.275
		c-0.208,0.46-0.664,1.47-1.12,2.48"/>
	<path fill="none" stroke="#000000" stroke-linecap="round" stroke-linejoin="round" stroke-miterlimit="10" d="M32.544,234.919
		c-2.256-1.041-4.512-2.083-6.957-3.211c-0.556,0.938-1.328,2.24-2.553,4.308c1.536,1.756,3.186,3.641,4.834,5.526"/>
	<path fill="none" stroke="#000000" stroke-linecap="round" stroke-linejoin="round" stroke-miterlimit="10" d="M158.77,315.173
		c-1.072,3.005-2.262,5.866-4.605,8.251c-1.419,1.443-2.137,3.573-3.189,5.383c-1.287,2.216-2.774,4.335-3.826,6.655
		c-0.629,1.392-0.586,3.086-0.847,4.646"/>
	<path fill="none" stroke="#000000" stroke-linecap="round" stroke-linejoin="round" stroke-miterlimit="10" d="M108.123,59.996
		c-0.865-2.61-1.729-5.22-2.765-8.35c-1.968,1.477-3.692,2.771-5.417,4.065"/>
	<path fill="none" stroke="#000000" stroke-linecap="round" stroke-linejoin="round" stroke-miterlimit="10" d="M60.983,520.873
		c3.188-0.448,4.661-2.623,5.413-5.465c0.042-0.156-0.517-0.472-1.425-1.253c-1.785,2.938-3.543,5.833-5.327,8.769
		c1.04,1.327,1.728,2.206,2.729,3.483c1.784-1.146,3.509-2.253,5.765-3.7c-4.021-1.204-5.132,0.162-5.985,5.957"/>
	<path fill="none" stroke="#000000" stroke-linecap="round" stroke-linejoin="round" stroke-miterlimit="10" d="M80.073,298.031
		c-0.312-0.446-0.625-0.893-1.116-1.592c0.824-1.414,1.846-3.168,2.823-4.844c-2.243-2.849-5.009-2.824-7.94-2.137"/>
	<path fill="none" stroke="#000000" stroke-linecap="round" stroke-linejoin="round" stroke-miterlimit="10" d="M59.425,169.858
		c2.01-1.159,4.02-2.317,6.082-3.507c1.691,4.347,1.254,5.463-3.756,9.689c0.09,0.876,0.21,2.046,0.379,3.689
		c2.199-0.731,3.874-1.287,5.842-1.941c2.125,1.252,4.581,2.699,7.037,4.146"/>
	<path fill="none" stroke="#000000" stroke-linecap="round" stroke-linejoin="round" stroke-miterlimit="10" d="M187.208,156.612
		c-2.004,4.322-4.009,8.644-5.86,12.636c0.02,7.623,1.596,14.992-0.31,22.443c-0.772,3.02-0.843,6.217-1.231,9.334"/>
	<path fill="none" stroke="#000000" stroke-linecap="round" stroke-linejoin="round" stroke-miterlimit="10" d="M122.538,12.467
		c6.36,0.994,6.239,6.386,7.733,11.401c-1.104,0.964-2.275,1.989-3.448,3.014"/>
	<path fill="none" stroke="#000000" stroke-linecap="round" stroke-linejoin="round" stroke-miterlimit="10" d="M90.202,74.411
		c-1.14-0.95-2.28-1.9-3.445-2.871c-1.655,3.898-0.876,5.865,2.661,7.169c0.812,0.3,1.563,0.766,2.342,1.156"/>
	<path fill="none" stroke="#000000" stroke-linecap="round" stroke-linejoin="round" stroke-miterlimit="10" d="M176.689,161.288
		c2.871,6.32-1.08,11.185-3.521,16.355c-0.818,1.731-1.805,3.383-2.713,5.071"/>
	<path fill="none" stroke="#000000" stroke-linecap="round" stroke-linejoin="round" stroke-miterlimit="10" d="M112.798,49.477
		c-4.284,3.307-4.167,6.019,0.466,9.01c0.604-0.393,1.237-0.805,1.871-1.218"/>
	<path fill="none" stroke="#000000" stroke-linecap="round" stroke-linejoin="round" stroke-miterlimit="10" d="M94.098,290.239
		c-0.175-2.095-0.35-4.191-0.58-6.953c-2.776,0.487-4.858,0.854-7.397,1.3c1.54,2.196,2.615,3.73,3.691,5.264"/>
	<path fill="none" stroke="#000000" stroke-linecap="round" stroke-linejoin="round" stroke-miterlimit="10" d="M125.266,20.648
		c-4.013-4.427-5.871-5.097-10.168-3.33c1.045,2.912,1.957,5.911,3.209,8.76c0.742,1.689,2.023,3.141,3.062,4.699"/>
	<path fill="none" stroke="#000000" stroke-linecap="round" stroke-linejoin="round" stroke-miterlimit="10" d="M162.665,300.369
		c-1.558,4.154-3.117,8.311-4.675,12.466"/>
	<path fill="none" stroke="#000000" stroke-linecap="round" stroke-linejoin="round" stroke-miterlimit="10" d="M114.746,526.717
		c-0.909,4.675-1.818,9.351-2.727,14.024"/>
	<path fill="none" stroke="#000000" stroke-linecap="round" stroke-linejoin="round" stroke-miterlimit="10" d="M56.698,523.6
		c2.43,3.738,4.643,7.677,8.58,10.115c1.897,1.176,3.887,1.992,5.835,0.016"/>
	<path fill="none" stroke="#000000" stroke-linecap="round" stroke-linejoin="round" stroke-miterlimit="10" d="M170.066,97.006
		c-0.172,1.554-0.346,3.108-0.543,4.894c1.312,0.24,2.511,0.459,4.539,0.831c-4.498,3.334-7.109,7.22-8.67,11.807"/>
	<path fill="none" stroke="#000000" stroke-linecap="round" stroke-linejoin="round" stroke-miterlimit="10" d="M66.438,189.337
		c1.506-0.644,3.012-1.288,4.614-1.973c2.187,3.73-0.982,6.604-0.718,9.765"/>
	<path fill="none" stroke="#000000" stroke-linecap="round" stroke-linejoin="round" stroke-miterlimit="10" d="M94.877,462.825
		c0,6.103,0,12.207,0,18.311"/>
	<path fill="none" stroke="#000000" stroke-linecap="round" stroke-linejoin="round" stroke-miterlimit="10" d="M76.956,360.754
		c0.7-0.59,1.4-1.179,2.426-2.044c-1.821-1.048-3.349-1.927-5.65-3.252c1.986-2.347,3.716-4.391,5.903-6.975
		c-0.221-0.668-0.736-2.229-1.362-4.123c0.856-1.164,1.964-2.669,3.284-4.464c-1.356-0.688-2.545-1.295-4.137-2.104
		c-2.759,4.282-1.245,8.896-1.633,13.221"/>
	<path fill="none" stroke="#000000" stroke-linecap="round" stroke-linejoin="round" stroke-miterlimit="10" d="M182.145,141.419
		c-0.691,3.107-0.609,6.338-3,9.063c-1.191,1.358-1.156,3.793-1.676,5.741"/>
	<path fill="none" stroke="#000000" stroke-linecap="round" stroke-linejoin="round" stroke-miterlimit="10" d="M58.256,300.759
		c1.397,0.831,2.795,1.663,4.388,2.611c-0.97,2.266-2.022,4.726-3.134,7.325c2.025,4.688,2.823,5.393,6.597,5.649
		c0.234,0.633,0.478,1.289,0.72,1.944"/>
	<path fill="none" stroke="#000000" stroke-linecap="round" stroke-linejoin="round" stroke-miterlimit="10" d="M163.055,115.317
		c0.752,2.383,1.504,4.767,2.301,7.291c-1.073,1.222-2.998,2.605-3.709,4.455c-0.694,1.806-0.15,4.088-0.15,6.934
		c-3.071,2.989-3.182,3.675-0.781,8.979c-2.714,0.513-5.609,0.814-5.175,4.484c0.752,2.004,1.474,3.922,2.101,5.593
		c-2.543,0.318-4.604,0.576-6.664,0.834"/>
	<path fill="none" stroke="#000000" stroke-linecap="round" stroke-linejoin="round" stroke-miterlimit="10" d="M144.744,527.106
		c-1.688,1.428-3.592,2.671-5.016,4.327c-2.289,2.66-4.459,5.316-8.23,5.802"/>
	<path fill="none" stroke="#000000" stroke-linecap="round" stroke-linejoin="round" stroke-miterlimit="10" d="M121.758,460.487
		c0.131,1.039,0.334,2.075,0.376,3.116c0.162,4.024,0.273,8.052,0.403,12.077"/>
	<path fill="none" stroke="#000000" stroke-linecap="round" stroke-linejoin="round" stroke-miterlimit="10" d="M36.439,231.023
		c3.786-2.98,4.393-3.041,8.068-0.595c-1.421,2.498-2.855,5.019-4.346,7.638c0.998,1.086,1.932,2.102,2.452,2.666
		c0.172,2.384,0.313,4.324,0.467,6.453c1.23,0.682,2.554,1.415,4.67,2.588c0.401,2.573,0.888,5.696,1.46,9.363
		c0.966,0.274,2.701,0.769,4.709,1.339c-0.726,2.947-1.396,5.669-2.074,8.423c1.611,0.812,3.426,1.727,5.241,2.641"/>
	<path fill="none" stroke="#000000" stroke-linecap="round" stroke-linejoin="round" stroke-miterlimit="10" d="M71.892,276.214
		c0.779,0.91,2.127,1.759,2.229,2.739c0.285,2.746,0.612,5.626-0.645,8.229c-0.343,0.012-0.686,0.023-1.03,0.034
		c-0.726-5.229-1.451-10.462-2.201-15.864c-1.346-0.898-2.577-1.72-3.808-2.541"/>
	<path fill="none" stroke="#000000" stroke-linecap="round" stroke-linejoin="round" stroke-miterlimit="10" d="M112.02,414.127
		c7.125-1.121,8.902,1.321,6.197,8.667c-1.633-0.207-3.322-0.421-4.957-0.629c-1.007,1.292-1.917,2.46-2.697,3.459
		c1.738,2.006,3.426,3.954,5.189,5.988c-0.664,0.886-1.253,2.3-1.781,2.276c-3.732-0.162-3.949,3.426-5.863,5.154
		c-0.416,0.375-1.023,0.536-1.542,0.796"/>
	<path fill="none" stroke="#000000" stroke-linecap="round" stroke-linejoin="round" stroke-miterlimit="10" d="M66.048,202.973
		c-1.063-2.131-2.127-4.261-3.327-6.665c-2.257,0.054-3.062,2.207-3.216,4.333c-0.214,2.967,1.54,5,4.206,6.228"/>
	<path fill="none" stroke="#000000" stroke-linecap="round" stroke-linejoin="round" stroke-miterlimit="10" d="M59.036,441.009
		c-1.323,0.597-2.646,1.191-3.868,1.743c-0.774,5.724,1.833,9.292,7.584,10.373c-0.333,1.173-0.661,2.324-1.075,3.78
		c1.765,1.611,3.889,2.9,6.268,1.545c1.862-1.062,5.196-0.999,4.726-4.586"/>
	<path fill="none" stroke="#000000" stroke-linecap="round" stroke-linejoin="round" stroke-miterlimit="10" d="M93.708,105.967
		c-0.551,1.285-1.102,2.57-1.671,3.897c2.541,4.123,6.575,7.964,2.102,13.296c2.752,1.298,4.842,0.973,7.132-1.386
		c-1.866-0.838-3.351-1.505-4.836-2.171"/>
	<path fill="none" stroke="#000000" stroke-linecap="round" stroke-linejoin="round" stroke-miterlimit="10" d="M111.629,97.006
		c-0.562-1.27-1.125-2.54-1.812-4.093c-2.963,2.105-3.182,4.268-2.5,6.827c0.562,2.114,1.849,2.918,3.923,2.72"/>
	<path fill="none" stroke="#000000" stroke-linecap="round" stroke-linejoin="round" stroke-miterlimit="10" d="M69.165,538.015
		c-2.208-0.52-4.396-1.349-6.627-1.489c-3.88-0.246-7.788-0.068-11.684-0.068"/>
	<path fill="none" stroke="#000000" stroke-linecap="round" stroke-linejoin="round" stroke-miterlimit="10" d="M74.619,213.881
		c1.302-2.668,2.604-5.336,3.958-8.11c-2.897-1.639-4.862-0.651-6.686,1.097"/>
	<path fill="none" stroke="#000000" stroke-linecap="round" stroke-linejoin="round" stroke-miterlimit="10" d="M123.316,416.465
		c1.613,9.341,1.759,18.358-5.008,26.149c-1.172,1.349-1.615,3.328-2.394,5.017"/>
	<path fill="none" stroke="#000000" stroke-linecap="round" stroke-linejoin="round" stroke-miterlimit="10" d="M54.36,246.606
		c0.993-1.642,1.986-3.283,3.328-5.501c-1.838-1.121-3.438-2.096-5.025-3.063c-3.912,2.786-4.763,6.917-6.484,10.513"/>
	<path fill="none" stroke="#000000" stroke-linecap="round" stroke-linejoin="round" stroke-miterlimit="10" d="M100.331,468.669
		c0.603,2.22,1.205,4.438,1.897,6.99c-1.133,0.811-2.489,1.778-3.845,2.749"/>
	<path fill="none" stroke="#000000" stroke-linecap="round" stroke-linejoin="round" stroke-miterlimit="10" d="M61.373,167.911
		c0.133-1.948,0.266-3.896,0.401-5.879c-1.686-1.152-3.381-2.312-5.077-3.471"/>
	<path fill="none" stroke="#000000" stroke-linecap="round" stroke-linejoin="round" stroke-miterlimit="10" d="M112.798,390.752
		c1.981,1.313,3.962,2.626,6.39,4.234c-3.619,3.331-6.514,5.994-9.9,9.11c2.29,1.255,4.029,2.208,6.438,3.527
		c-0.65,1.734-1.398,3.729-2.146,5.723"/>
	<path fill="none" stroke="#000000" stroke-linecap="round" stroke-linejoin="round" stroke-miterlimit="10" d="M48.517,327.25
		c-0.608,1.189-1.217,2.379-1.93,3.774c1.982,1.279,4.1,2.646,6.021,3.889c2.104-0.481,3.994-0.915,5.884-1.348
		c0.147,0.295,0.293,0.589,0.44,0.884c-0.728,1.118-1.455,2.235-2.184,3.356c3.303,2.515,6.116,6.377,11.247,4.638"/>
	<path fill="none" stroke="#000000" stroke-linecap="round" stroke-linejoin="round" stroke-miterlimit="10" d="M87.865,460.487
		c0.445,4.27-1.972,7.373-4.286,10.519"/>
	<path fill="none" stroke="#000000" stroke-linecap="round" stroke-linejoin="round" stroke-miterlimit="10" d="M138.121,66.229
		c1.691-3.739,3.068-7.521,1.814-12.037c-2.688,1.94-5.308,3.399-4.931,6.972"/>
	<path fill="none" stroke="#000000" stroke-linecap="round" stroke-linejoin="round" stroke-miterlimit="10" d="M76.567,171.417
		c-1.027,2.205-1.03,2.34-2.727,2.305c-2.257-0.048-3.302,0.646-3.596,3.139c-0.434,3.677-1.469,7.283-2.249,10.919"/>
	<path fill="none" stroke="#000000" stroke-linecap="round" stroke-linejoin="round" stroke-miterlimit="10" d="M146.691,252.45
		c1.363-1.507,2.727-3.013,4.688-5.181c-2.269-0.328-3.832-0.554-5.093-0.737c-0.424,3.611-1.027,6.71-1.057,9.814
		c-0.018,1.683,1.106,3.346,1.424,5.071c0.494,2.682,1.886,5.057-0.922,7.983c-2.203,2.294-3.024,6.319-1.377,9.93"/>
	<path fill="none" stroke="#000000" stroke-linecap="round" stroke-linejoin="round" stroke-miterlimit="10" d="M101.5,453.085
		c-0.26,0.91-0.69,1.809-0.745,2.729c-0.136,2.25,0.299,4.327-2.704,5.589c-2.976,1.248-4.977,0.57-7.075-1.301
		c-0.211-0.188-0.502-0.285-0.699-0.396c-1.503,0-3.464,0.601-4.263-0.108c-2.721-2.419-5.032-1.406-7.499,0.108"/>
	<path fill="none" stroke="#000000" stroke-linecap="round" stroke-linejoin="round" stroke-miterlimit="10" d="M185.65,188.948
		c1.871-2.026,3.74-4.052,5.631-6.1c-0.575-1.357-1.075-2.535-1.598-3.771c-2.484,1.806-4.817,3.501-7.149,5.196"/>
	<path fill="none" stroke="#000000" stroke-linecap="round" stroke-linejoin="round" stroke-miterlimit="10" d="M127.992,73.242
		c4.378-3.964,4.525-6.722,0.779-8.571c-1.17,0.649-2.338,1.298-3.506,1.948"/>
	<path fill="none" stroke="#000000" stroke-linecap="round" stroke-linejoin="round" stroke-miterlimit="10" d="M118.252,37.79
		c-0.262-2.675-1.322-4.674-4.675-5.193c0,2.2,0,4.282,0,6.362c-5.488,6.738-6.639,7.509-3.507,11.297"/>
	<path fill="none" stroke="#000000" stroke-linecap="round" stroke-linejoin="round" stroke-miterlimit="10" d="M170.456,148.042
		c1.88-0.472,3.761-0.943,5.742-1.44c0.993,6.422-4.162,7.188-7.263,9.644c1.305,0.815,2.646,1.654,4.947,3.092
		c-2.188,1.428-3.781,2.468-5.374,3.508"/>
	<path fill="none" stroke="#000000" stroke-linecap="round" stroke-linejoin="round" stroke-miterlimit="10" d="M100.331,430.879
		c-1.32,1.562-2.641,3.12-4.248,5.02c-0.846-0.241-2.39-0.683-3.934-1.122"/>
	<path fill="none" stroke="#000000" stroke-linecap="round" stroke-linejoin="round" stroke-miterlimit="10" d="M105.786,143.756
		c0.156-2.18,0.312-4.36,0.469-6.54c-0.388-0.172-0.777-0.343-1.166-0.515c-0.936,0.664-1.873,1.327-2.809,1.99"/>
	<path fill="none" stroke="#000000" stroke-linecap="round" stroke-linejoin="round" stroke-miterlimit="10" d="M71.892,410.621
		c-3.479,2.604-3.531,2.765-1.153,6.223c0.675,0.98,1.542,1.828,2.322,2.737"/>
	<path fill="none" stroke="#000000" stroke-linecap="round" stroke-linejoin="round" stroke-miterlimit="10" d="M187.208,144.146
		c-2.709,4.038-6.959,7.032-8.183,12.077"/>
	<path fill="none" stroke="#000000" stroke-linecap="round" stroke-linejoin="round" stroke-miterlimit="10" d="M130.329,22.985
		c0.758-0.186,1.517-0.371,2.248-0.55c2.479,4.428,1.651,7.398-2.623,10.311c-1.132,0.771-2.093,1.797-3.131,2.706"/>
	<path fill="none" stroke="#000000" stroke-linecap="round" stroke-linejoin="round" stroke-miterlimit="10" d="M117.861,143.756
		c0.701,2.102,1.402,4.203,2.296,6.884c-0.776,0.842-1.902,2.063-3.226,3.5c0.758,0.189,1.428,0.357,2.1,0.524"/>
	<path fill="none" stroke="#000000" stroke-linecap="round" stroke-linejoin="round" stroke-miterlimit="10" d="M63.321,271.54
		c-1.026-1.438-2.053-2.875-3.086-4.32c-4.016,4.612-4.071,5.782-0.833,10.57c0.807,1.192,1.322,2.581,1.972,3.88"/>
	<path fill="none" stroke="#000000" stroke-linecap="round" stroke-linejoin="round" stroke-miterlimit="10" d="M145.133,533.34
		c-0.176-0.544-0.354-1.088-0.699-2.155c-2.715,2.479-5.099,4.653-7.481,6.83"/>
	<path fill="none" stroke="#000000" stroke-linecap="round" stroke-linejoin="round" stroke-miterlimit="10" d="M142.796,248.554
		c-0.39,3.247-0.778,6.493-1.169,9.74"/>
	<path fill="none" stroke="#000000" stroke-linecap="round" stroke-linejoin="round" stroke-miterlimit="10" d="M32.154,267.254
		c2.365,1.241,4.73,2.482,7.354,3.859c-1.279,0.445-2.83,0.985-4.38,1.525c-1.792,1.893-0.938,3.638,1.932,4.841
		c1.339-0.264,2.893-0.569,4.445-0.875"/>
	<path fill="none" stroke="#000000" stroke-linecap="round" stroke-linejoin="round" stroke-miterlimit="10" d="M88.644,175.702
		c-0.797,4.447,0.354,5.454,6.233,5.454"/>
	<path fill="none" stroke="#000000" stroke-linecap="round" stroke-linejoin="round" stroke-miterlimit="10" d="M137.342,96.617
		c0.333-1.659,0.665-3.317,0.998-4.977c-0.273-0.235-0.548-0.47-0.822-0.706c-1.486,0.595-2.974,1.191-4.461,1.786"/>
	<path fill="none" stroke="#000000" stroke-linecap="round" stroke-linejoin="round" stroke-miterlimit="10" d="M89.033,52.204
		c-0.779,0.39-2.269,1.01-2.229,1.133c0.482,1.483,0.873,3.221,1.923,4.234c1.196,1.154,3.033,1.645,4.591,2.424"/>
	<path fill="none" stroke="#000000" stroke-linecap="round" stroke-linejoin="round" stroke-miterlimit="10" d="M158.77,331.535
		c-1.818,3.247-3.637,6.493-5.455,9.74"/>
	<path fill="none" stroke="#000000" stroke-linecap="round" stroke-linejoin="round" stroke-miterlimit="10" d="M99.552,329.198
		c-0.649,2.337-1.352,4.662-1.916,7.02c-0.172,0.723,0.037,1.534,0.092,2.766c-0.478,0.388-1.329,1.079-2.755,2.24
		c1.432,2.148,2.811,4.218,4.19,6.285"/>
	<path fill="none" stroke="#000000" stroke-linecap="round" stroke-linejoin="round" stroke-miterlimit="10" d="M69.554,335.821
		c-0.32-5.439-0.641-10.878-0.961-16.316c0.337-0.163,0.673-0.326,1.01-0.49c-1.169-0.128-2.338-0.255-3.861-0.422
		c-0.316,3.431-0.59,6.415-0.825,8.968c-0.741,1.482-1.363,2.729-1.985,3.976"/>
	<path fill="none" stroke="#000000" stroke-linecap="round" stroke-linejoin="round" stroke-miterlimit="10" d="M83.579,386.077
		c-1.477,2.458-4.641,4.157-3.435,8.908c3.04-2.282,5.623-4.223,8.112-6.092c2.884,3.156,0.807,6.402-0.001,9.649"/>
	<path fill="none" stroke="#000000" stroke-linecap="round" stroke-linejoin="round" stroke-miterlimit="10" d="M55.529,185.052
		c-1.561-0.513-3.121-1.025-5.012-1.646c-0.621,0.869-1.313,1.839-1.831,2.563c0.649,4.367,3.858,6.093,7.232,7.654"/>
	<path fill="none" stroke="#000000" stroke-linecap="round" stroke-linejoin="round" stroke-miterlimit="10" d="M98.773,95.448
		c-3.211-0.404-6.422-0.809-9.771-1.231c0.182,4.844,1.228,5.89,5.875,6.685"/>
	<path fill="none" stroke="#000000" stroke-linecap="round" stroke-linejoin="round" stroke-miterlimit="10" d="M158.379,164.404
		c-1.73,1.489-3.46,2.978-5.234,4.505c1.364,1.931,2.279,3.226,3.334,4.717c-1.133,3.143-2.344,6.505-3.555,9.867"/>
	<path fill="none" stroke="#000000" stroke-linecap="round" stroke-linejoin="round" stroke-miterlimit="10" d="M181.365,294.136
		c-1.48,3.025-2.961,6.052-4.441,9.077c-0.302,0.025-0.604,0.051-0.906,0.076c-0.295-1.362-0.591-2.727-0.886-4.089"/>
	<path fill="none" stroke="#000000" stroke-linecap="round" stroke-linejoin="round" stroke-miterlimit="10" d="M136.562,79.865
		c-0.504,2.986,1.611,6.805-2.728,8.571"/>
	<path fill="none" stroke="#000000" stroke-linecap="round" stroke-linejoin="round" stroke-miterlimit="10" d="M82.021,458.929
		c0.129,4.807,0.26,9.61,0.39,14.415"/>
	<path fill="none" stroke="#000000" stroke-linecap="round" stroke-linejoin="round" stroke-miterlimit="10" d="M116.693,307.381
		c0.199-1.688,0.398-3.374,0.687-5.808c-0.604-0.724-1.618-1.938-2.634-3.152"/>
	<path fill="none" stroke="#000000" stroke-linecap="round" stroke-linejoin="round" stroke-miterlimit="10" d="M76.177,329.588
		c-0.779,0.909-1.954,1.703-2.256,2.75c-0.654,2.261-0.86,4.651-1.25,6.989"/>
	<path fill="none" stroke="#000000" stroke-linecap="round" stroke-linejoin="round" stroke-miterlimit="10" d="M57.477,215.05
		c0.13,0.52,0.26,1.039,0.417,1.669c-1.185,0.338-2.367,0.675-4.364,1.245c1.938,4.606,6.267,7.178,8.622,11.111"/>
	<path fill="none" stroke="#000000" stroke-linecap="round" stroke-linejoin="round" stroke-miterlimit="10" d="M76.177,229.464
		c0.996-0.83,1.993-1.66,2.958-2.464c2.539,2.042,2.679,2.881,1.055,7.995c1.463,0.696,3.037,1.443,4.61,2.19
		c0.189-0.312,0.378-0.625,0.566-0.938c0.962,0.856,1.924,1.712,2.886,2.568c-0.26,0.131-0.52,0.261-0.779,0.391
		c0,1.947,0,3.895,0,5.842"/>
	<path fill="none" stroke="#000000" stroke-linecap="round" stroke-linejoin="round" stroke-miterlimit="10" d="M56.308,329.978
		c-0.317-3.148-2.41-3.891-5.06-3.476c-3.608,0.566-6.653-0.17-9.455-3.909c2.003-0.567,3.779-1.071,5.554-1.576"/>
	<path fill="none" stroke="#000000" stroke-linecap="round" stroke-linejoin="round" stroke-miterlimit="10" d="M122.927,62.723
		c0.919-2.388,1.837-4.776,3.022-7.86c1.445,1.597,2.431,2.686,3.186,3.52c-0.433,2.381-0.787,4.335-1.143,6.289"/>
	<path fill="none" stroke="#000000" stroke-linecap="round" stroke-linejoin="round" stroke-miterlimit="10" d="M120.979,375.169
		c-1.041,1.879-2.084,3.757-3.268,5.892c2.208,0.441,3.907,0.78,5.605,1.121"/>
	<path fill="none" stroke="#000000" stroke-linecap="round" stroke-linejoin="round" stroke-miterlimit="10" d="M159.938,392.7
		c-1.558,2.856-3.117,5.714-4.674,8.569"/>
	<path fill="none" stroke="#000000" stroke-linecap="round" stroke-linejoin="round" stroke-miterlimit="10" d="M83.969,372.052
		c-2.278-0.053-2.278-0.053-3.661,3.077c1.054,1.194,2.219,2.516,3.385,3.837c-0.285,0.167-0.57,0.335-0.855,0.503
		c0.637,1.424,1.273,2.849,1.91,4.271"/>
	<path fill="none" stroke="#000000" stroke-linecap="round" stroke-linejoin="round" stroke-miterlimit="10" d="M93.319,112.589
		c-0.779,1.169-1.645,2.291-2.315,3.519c-0.749,1.374-1.321,2.844-1.971,4.273"/>
	<path fill="none" stroke="#000000" stroke-linecap="round" stroke-linejoin="round" stroke-miterlimit="10" d="M106.564,322.186
		c-4.312,0.046-5.146,0.775-6.233,5.454"/>
	<path fill="none" stroke="#000000" stroke-linecap="round" stroke-linejoin="round" stroke-miterlimit="10" d="M96.825,147.652
		c-1.025-0.792-2.051-1.585-3.203-2.476c-0.418,1.222-0.965,2.815-1.583,4.621c1.378,0.586,0.525,4.094,3.617,2.531"/>
	<path fill="none" stroke="#000000" stroke-linecap="round" stroke-linejoin="round" stroke-miterlimit="10" d="M147.471,115.706
		c1.856-1.778,3.713-3.556,6.146-5.885c1.383,2.333,2.483,4.192,3.672,6.197c-3.326,1.812-6.238,2.934-9.429,0.857"/>
	<path fill="none" stroke="#000000" stroke-linecap="round" stroke-linejoin="round" stroke-miterlimit="10" d="M38.777,228.686
		c0.092-1.432,0.184-2.863,0.3-4.675c-1.462,0-3.023,0-4.581,0c-0.259-1.559-0.521-3.116-0.784-4.674"/>
	<path fill="none" stroke="#000000" stroke-linecap="round" stroke-linejoin="round" stroke-miterlimit="10" d="M165.002,512.302
		c-2.855,0.521-5.714,1.039-8.57,1.56"/>
	<path fill="none" stroke="#000000" stroke-linecap="round" stroke-linejoin="round" stroke-miterlimit="10" d="M115.135,312.057
		c-1.035,0.651-2.072,1.305-2.828,1.779c1.536,2.893,2.879,4.758,3.448,6.835c0.21,0.77-1.397,2.034-2.178,3.073"/>
	<path fill="none" stroke="#000000" stroke-linecap="round" stroke-linejoin="round" stroke-miterlimit="10" d="M52.802,522.432
		c1.064,0.403,2.129,0.809,3.194,1.212c0.104-0.273,0.208-0.549,0.312-0.822c-2.208-1.712-2.208-1.712-3.896-0.778"/>
	<path fill="none" stroke="#000000" stroke-linecap="round" stroke-linejoin="round" stroke-miterlimit="10" d="M136.562,270.371
		c1.049,0.497,2.099,0.994,3.912,1.852c-0.25,2.478-0.522,5.183-0.795,7.888"/>
	<path fill="none" stroke="#000000" stroke-linecap="round" stroke-linejoin="round" stroke-miterlimit="10" d="M56.308,159.339
		c-0.519,1.299-0.873,2.702-1.603,3.868c-0.808,1.292-1.961,2.368-3.622,3.115c-0.207,1.177-0.413,2.354-0.709,4.041
		c0.871,2.968,2.552,5.765,5.934,7.287"/>
	<path fill="none" stroke="#000000" stroke-linecap="round" stroke-linejoin="round" stroke-miterlimit="10" d="M167.729,374
		c1.186,1.152,2.369,2.306,3.793,3.691c-1.375,0.638-2.547,1.303-3.799,1.741c-2.966,1.042-5.514,2.88-6.107,5.889
		c-0.773,3.914-3.594,6.305-5.573,9.326"/>
	<path fill="none" stroke="#000000" stroke-linecap="round" stroke-linejoin="round" stroke-miterlimit="10" d="M56.308,450.358
		c-1.543-0.562-3.087-1.12-4.63-1.682c-0.255-0.199-0.51-0.397-0.764-0.598c-0.747,0.812-1.493,1.624-2.597,2.824
		c1.977,2.41,3.445,4.2,4.914,5.988c0.499,0.277,0.997,0.555,1.495,0.831c1.047-1.676,2.094-3.353,3.141-5.027"/>
	<path fill="none" stroke="#000000" stroke-linecap="round" stroke-linejoin="round" stroke-miterlimit="10" d="M99.163,47.919
		c-0.13,3.896-0.26,7.792-0.39,11.688"/>
	<path fill="none" stroke="#000000" stroke-linecap="round" stroke-linejoin="round" stroke-miterlimit="10" d="M187.598,190.506
		c2.918-0.754,6.348,0.553,8.176,3.109c-2.506,4.671-5.426,0.739-8.252,0.769c-0.217-3.485-0.703-6.419-4.988-5.826"/>
	<path fill="none" stroke="#000000" stroke-linecap="round" stroke-linejoin="round" stroke-miterlimit="10" d="M47.737,315.173
		c0.751-1.03,1.503-2.06,2.47-3.385c3.055,2.993-1.093,8.348,4.569,9.206c0.285-0.212,1.034-0.771,1.712-1.278
		c1.471,1.419,2.792,2.692,4.666,4.501c-0.017,0.188-0.11,1.218-0.197,2.174c0.954,0.702,1.853,1.365,2.752,2.028"/>
	<path fill="none" stroke="#000000" stroke-linecap="round" stroke-linejoin="round" stroke-miterlimit="10" d="M120.589,282.448
		c-2.448-3.316-2.987-3.316-6.233,0"/>
	<path fill="none" stroke="#000000" stroke-linecap="round" stroke-linejoin="round" stroke-miterlimit="10" d="M98.773,47.14
		c-0.422,0.749-0.844,1.498-1.24,2.201c-2.551-2.3-4.405-3.972-6.221-5.61c-3.284,2.904-3.349,4.412-0.72,9.253"/>
	<path fill="none" stroke="#000000" stroke-linecap="round" stroke-linejoin="round" stroke-miterlimit="10" d="M131.889,105.577
		c-3.16,0.888-3.007,4.053-4.287,6.233"/>
	<path fill="none" stroke="#000000" stroke-linecap="round" stroke-linejoin="round" stroke-miterlimit="10" d="M77.735,329.198
		c-1.866,0.449-0.632,1.818-0.738,2.73c-0.256,2.192-0.301,4.411-0.43,6.618"/>
	<path fill="none" stroke="#000000" stroke-linecap="round" stroke-linejoin="round" stroke-miterlimit="10" d="M59.814,518.535
		c-0.708-1.422-1.417-2.845-2.431-4.878c-1.06,1.454-1.549,2.125-2.712,3.722c2.662,0.614,4.682,1.08,6.702,1.546"/>
	<path fill="none" stroke="#000000" stroke-linecap="round" stroke-linejoin="round" stroke-miterlimit="10" d="M162.665,531.002
		c-0.519,0.649-0.925,1.463-1.58,1.917c-1.864,1.295-3.83,2.444-6.211,3.938c0-2.724,0-5.067,0-7.412"/>
	<path fill="none" stroke="#000000" stroke-linecap="round" stroke-linejoin="round" stroke-miterlimit="10" d="M131.498,509.186
		c-1.169,2.469-2.337,4.936-3.506,7.402"/>
	<path fill="none" stroke="#000000" stroke-linecap="round" stroke-linejoin="round" stroke-miterlimit="10" d="M140.848,284.006
		c-0.459-1.24-0.918-2.48-1.154-3.115c-2.352,0-3.91,0-5.469,0"/>
	<path fill="none" stroke="#000000" stroke-linecap="round" stroke-linejoin="round" stroke-miterlimit="10" d="M145.913,271.54
		c0.81,2.709,2.34,4.794,5.063,5.844"/>
	<path fill="none" stroke="#000000" stroke-linecap="round" stroke-linejoin="round" stroke-miterlimit="10" d="M141.627,537.625
		c3.062,1.421,6.211,0.786,9.35,0.39"/>
	<path fill="none" stroke="#000000" stroke-linecap="round" stroke-linejoin="round" stroke-miterlimit="10" d="M61.373,217.777
		c2.109,1.545,4.105,3.601,7.012,1.559"/>
	<path fill="none" stroke="#000000" stroke-linecap="round" stroke-linejoin="round" stroke-miterlimit="10" d="M161.496,234.529
		c-2.038,1.748-4.756,3.135-3.506,6.623"/>
	<path fill="none" stroke="#000000" stroke-linecap="round" stroke-linejoin="round" stroke-miterlimit="10" d="M108.902,539.963
		c-2.196,2.666-4.67,0.352-7.012,0.389"/>
	<path fill="none" stroke="#000000" stroke-linecap="round" stroke-linejoin="round" stroke-miterlimit="10" d="M163.055,163.625
		c-2.445-1.521-3.072-1.142-3.949,1.541c-0.791,2.419-2.024,4.692-3.063,7.03"/>
	<path fill="none" stroke="#000000" stroke-linecap="round" stroke-linejoin="round" stroke-miterlimit="10" d="M88.644,114.538
		c-1.903,2.208-1.807,4.415,0,6.623"/>
	<path fill="none" stroke="#000000" stroke-linecap="round" stroke-linejoin="round" stroke-miterlimit="10" d="M82.021,532.561
		c0.209,2.817,0.613,5.537,3.506,7.014"/>
	<path fill="none" stroke="#000000" stroke-linecap="round" stroke-linejoin="round" stroke-miterlimit="10" d="M174.352,286.344
		c0.779,2.338,1.56,4.676,2.338,7.014"/>
	<path fill="none" stroke="#000000" stroke-linecap="round" stroke-linejoin="round" stroke-miterlimit="10" d="M85.527,529.443
		c-0.129,3.116-0.26,6.232-0.389,9.351"/>
	<path fill="none" stroke="#000000" stroke-linecap="round" stroke-linejoin="round" stroke-miterlimit="10" d="M121.758,368.936
		c0.664,1.853,1.328,3.705,2.248,6.272c-0.297,2.821-1.014,6.512,1.698,9.885c-3.69,3.521-1.56,8.452-2.777,12.672"/>
	<path fill="none" stroke="#000000" stroke-linecap="round" stroke-linejoin="round" stroke-miterlimit="10" d="M131.498,92.721
		c2.156,1.581,4.312,3.162,5.523,4.049c0.955,3.919-3.181,6.423-0.069,9.587"/>
	<path fill="none" stroke="#000000" stroke-linecap="round" stroke-linejoin="round" stroke-miterlimit="10" d="M117.473,293.355
		c0.52,0.521,1.039,1.039,1.5,1.5c-1.656,0.92-3.33,1.854-5.006,2.785"/>
	<path fill="none" stroke="#000000" stroke-linecap="round" stroke-linejoin="round" stroke-miterlimit="10" d="M118.643,238.814
		c0.844-2.362,1.69-4.725,2.647-7.402c-2.126,0-4.335,0-6.544,0"/>
	<path fill="none" stroke="#000000" stroke-linecap="round" stroke-linejoin="round" stroke-miterlimit="10" d="M133.835,216.998
		c-0.011,3.238-2.687,4.479-4.675,6.233"/>
	<path fill="none" stroke="#000000" stroke-linecap="round" stroke-linejoin="round" stroke-miterlimit="10" d="M173.962,114.538
		c-2.05,2.193-4.094,4.388-3.01,7.882c-0.972,1.103-1.94,2.206-2.896,3.29c-0.692-0.554-1.484-1.188-2.275-1.822"/>
	<path fill="none" stroke="#000000" stroke-linecap="round" stroke-linejoin="round" stroke-miterlimit="10" d="M91.76,64.671
		c-0.651,0.517-1.303,1.033-2.614,2.072c1.692,1.689,3.322,3.314,4.952,4.94"/>
	<path fill="none" stroke="#000000" stroke-linecap="round" stroke-linejoin="round" stroke-miterlimit="10" d="M144.744,149.21
		c0.285,1.556,0.568,3.112,0.924,5.054c-2.325,0.159-4.531,0.308-7.062,0.48c3.683-5.854,6.441-7.477,13.748-8.284
		c-0.201,2.243-0.398,4.444-0.597,6.646"/>
	<path fill="none" stroke="#000000" stroke-linecap="round" stroke-linejoin="round" stroke-miterlimit="10" d="M180.975,215.05
		c-1.904,1.682-3.738,3.516-6.623,3.117"/>
	<path fill="none" stroke="#000000" stroke-linecap="round" stroke-linejoin="round" stroke-miterlimit="10" d="M103.058,199.467
		c2.043,1.226,4.087,2.452,6.506,3.902c-0.864,1.25-1.827,2.641-2.539,3.671c-1.201-0.241-2-0.401-2.799-0.562"/>
	<path fill="none" stroke="#000000" stroke-linecap="round" stroke-linejoin="round" stroke-miterlimit="10" d="M67.606,200.635
		c0.639-1.118,1.279-2.237,1.874-3.278c1.934,0.412,3.386,0.721,5.232,1.114c-0.742,2.627-1.392,4.928-2.042,7.229"/>
	<path fill="none" stroke="#000000" stroke-linecap="round" stroke-linejoin="round" stroke-miterlimit="10" d="M57.477,176.481
		c-2.066,2.192-2.879,4.823-2.727,7.792"/>
	<path fill="none" stroke="#000000" stroke-linecap="round" stroke-linejoin="round" stroke-miterlimit="10" d="M146.691,360.364
		c-0.39,2.078-0.778,4.154-1.168,6.232"/>
	<path fill="none" stroke="#000000" stroke-linecap="round" stroke-linejoin="round" stroke-miterlimit="10" d="M182.533,163.625
		c-1.78,1.235-0.807,4.996-4.285,4.675"/>
	<path fill="none" stroke="#000000" stroke-linecap="round" stroke-linejoin="round" stroke-miterlimit="10" d="M105.786,243.49
		c1.337,2.204,3.039,3.13,5.454,1.558"/>
	<path fill="none" stroke="#000000" stroke-linecap="round" stroke-linejoin="round" stroke-miterlimit="10" d="M139.68,276.994
		c-1.949,1.299-3.869,2.644-5.859,3.871c-0.682,0.42-1.543,0.545-2.322,0.805"/>
	<path fill="none" stroke="#000000" stroke-linecap="round" stroke-linejoin="round" stroke-miterlimit="10" d="M78.904,359.975
		c0.731,1.251,1.463,2.502,2.096,3.585c-1.195,1.904-2.213,3.528-3.374,5.378c1.542,1.198,2.773,2.156,4.005,3.114"/>
	<path fill="none" stroke="#000000" stroke-linecap="round" stroke-linejoin="round" stroke-miterlimit="10" d="M70.333,535.287
		c1.521,3.166,4.133,3.882,7.407,3.559c1.659-0.165,3.372,0.207,5.06,0.338"/>
	<path fill="none" stroke="#000000" stroke-linecap="round" stroke-linejoin="round" stroke-miterlimit="10" d="M40.725,535.287
		c1.948,0.779,3.896,1.559,5.844,2.338"/>
	<path fill="none" stroke="#000000" stroke-linecap="round" stroke-linejoin="round" stroke-miterlimit="10" d="M171.234,290.239
		c-1.428,1.688-2.856,3.376-4.284,5.063"/>
	<path fill="none" stroke="#000000" stroke-linecap="round" stroke-linejoin="round" stroke-miterlimit="10" d="M169.288,539.184
		c-1.948-0.778-3.896-1.559-5.845-2.338"/>
	<path fill="none" stroke="#000000" stroke-linecap="round" stroke-linejoin="round" stroke-miterlimit="10" d="M122.538,373.221
		c-2.708,2.396-0.118,5.549-1.169,8.183"/>
	<path fill="none" stroke="#000000" stroke-linecap="round" stroke-linejoin="round" stroke-miterlimit="10" d="M117.861,27.661
		c-0.389,1.948-0.778,3.896-1.168,5.844"/>
	<path fill="none" stroke="#000000" stroke-linecap="round" stroke-linejoin="round" stroke-miterlimit="10" d="M87.475,86.098
		c1.905,1.112,3.81,2.224,5.779,3.375c-0.325,1.3-0.715,2.858-1.104,4.417"/>
	<path fill="none" stroke="#000000" stroke-linecap="round" stroke-linejoin="round" stroke-miterlimit="10" d="M108.123,156.223
		c0,1.818,0,3.636,0,5.454"/>
	<path fill="none" stroke="#000000" stroke-linecap="round" stroke-linejoin="round" stroke-miterlimit="10" d="M93.319,79.475
		c-3.151,0.803-5.142,2.844-6.233,5.844"/>
	<path fill="none" stroke="#000000" stroke-linecap="round" stroke-linejoin="round" stroke-miterlimit="10" d="M146.302,315.952
		c-0.778,3.637-1.559,7.271-2.338,10.908"/>
	<path fill="none" stroke="#000000" stroke-linecap="round" stroke-linejoin="round" stroke-miterlimit="10" d="M153.704,179.987
		c-1.079,0.72-2.158,1.439-3.521,2.348c1.106,0.986,1.992,1.775,3.043,2.711c-0.783,1.765-1.517,3.417-2.25,5.071"/>
	<path fill="none" stroke="#000000" stroke-linecap="round" stroke-linejoin="round" stroke-miterlimit="10" d="M76.567,357.638
		c-0.432,3.223-0.312,6.323,1.948,8.96"/>
	<path fill="none" stroke="#000000" stroke-linecap="round" stroke-linejoin="round" stroke-miterlimit="10" d="M106.564,397.375
		c1.818,0.779,3.636,1.559,5.454,2.338"/>
	<path fill="none" stroke="#000000" stroke-linecap="round" stroke-linejoin="round" stroke-miterlimit="10" d="M98.773,104.798
		c-2.989,1.908-4.377,1.616-7.17-1.315c0.212-0.85,0.379-1.521,0.547-2.191"/>
	<path fill="none" stroke="#000000" stroke-linecap="round" stroke-linejoin="round" stroke-miterlimit="10" d="M98.773,511.522
		c-0.081,1.704,0.521,3.638-1.559,4.676"/>
	<path fill="none" stroke="#000000" stroke-linecap="round" stroke-linejoin="round" stroke-miterlimit="10" d="M189.156,142.198
		c-1.17,1.429-2.338,2.857-3.506,4.286"/>
	<path fill="none" stroke="#000000" stroke-linecap="round" stroke-linejoin="round" stroke-miterlimit="10" d="M90.981,59.996
		c-1.072,2.484,0.731,3.53,2.337,4.675"/>
	<path fill="none" stroke="#000000" stroke-linecap="round" stroke-linejoin="round" stroke-miterlimit="10" d="M70.333,399.323
		c1.688,0.778,3.376,1.558,5.064,2.337"/>
	<path fill="none" stroke="#000000" stroke-linecap="round" stroke-linejoin="round" stroke-miterlimit="10" d="M71.502,408.673
		c0.555,1.767,3.271,2.271,2.727,4.675"/>
	<path fill="none" stroke="#000000" stroke-linecap="round" stroke-linejoin="round" stroke-miterlimit="10" d="M121.369,398.154
		c-1.299,1.299-2.598,2.597-3.896,3.896"/>
	<path fill="none" stroke="#000000" stroke-linecap="round" stroke-linejoin="round" stroke-miterlimit="10" d="M170.066,107.915
		c0.91,1.559,1.818,3.117,2.728,4.675"/>
	<path fill="none" stroke="#000000" stroke-linecap="round" stroke-linejoin="round" stroke-miterlimit="10" d="M171.234,122.329
		c1.769,0.881,3.537,1.762,5.305,2.643c-0.758,1.514-1.277,2.552-1.798,3.591"/>
	<path fill="none" stroke="#000000" stroke-linecap="round" stroke-linejoin="round" stroke-miterlimit="10" d="M97.214,499.835
		c2.876,1.123,1.129,3.015,0.779,4.676"/>
	<path fill="none" stroke="#000000" stroke-linecap="round" stroke-linejoin="round" stroke-miterlimit="10" d="M168.119,534.896
		c-1.559,0.391-3.117,0.779-4.676,1.17"/>
	<path fill="none" stroke="#000000" stroke-linecap="round" stroke-linejoin="round" stroke-miterlimit="10" d="M144.744,270.371
		c-3.487-2.755-6.821-1.523-10.129,0.39"/>
	<path fill="none" stroke="#000000" stroke-linecap="round" stroke-linejoin="round" stroke-miterlimit="10" d="M181.365,309.719
		c0,1.56,0,3.116,0,4.675"/>
	<path fill="none" stroke="#000000" stroke-linecap="round" stroke-linejoin="round" stroke-miterlimit="10" d="M143.575,297.643
		c-1.181,1.024-2.359,2.049-3.539,3.074c0.133,0.403,0.267,0.807,0.399,1.21c1.176,0,2.354,0,3.528,0"/>
	<path fill="none" stroke="#000000" stroke-linecap="round" stroke-linejoin="round" stroke-miterlimit="10" d="M116.693,476.46
		c0.05-1.795-0.146-3.444-2.336-3.896"/>
	<path fill="none" stroke="#000000" stroke-linecap="round" stroke-linejoin="round" stroke-miterlimit="10" d="M144.744,299.59
		c0.066,1.18,0.131,2.357,0.197,3.535c0.063-0.006,0.127-0.012,0.191-0.018c0,2.203,0,4.407,0,6.61"/>
	<path fill="none" stroke="#000000" stroke-linecap="round" stroke-linejoin="round" stroke-miterlimit="10" d="M124.484,368.156
		c-0.129,1.559-0.26,3.116-0.389,4.675"/>
	<path fill="none" stroke="#000000" stroke-linecap="round" stroke-linejoin="round" stroke-miterlimit="10" d="M84.748,216.219
		c-1.429,1.298-2.857,2.597-4.286,3.896"/>
	<path fill="none" stroke="#000000" stroke-linecap="round" stroke-linejoin="round" stroke-miterlimit="10" d="M55.919,531.781
		c0.649,1.559,1.298,3.116,1.948,4.675"/>
	<path fill="none" stroke="#000000" stroke-linecap="round" stroke-linejoin="round" stroke-miterlimit="10" d="M98.773,410.231
		c1.169-0.779,2.337-1.56,3.506-2.339c-0.324-0.556-0.648-1.11-0.972-1.668c-1.364,0.296-2.728,0.594-4.093,0.89"/>
	<path fill="none" stroke="#000000" stroke-linecap="round" stroke-linejoin="round" stroke-miterlimit="10" d="M123.706,363.481
		c1.739-0.835,3.479-1.671,5.217-2.505c0.242,0.226,0.484,0.45,0.726,0.676c-0.553,1.519-1.099,3.039-1.666,4.552
		c-0.06,0.157-0.25,0.264-0.381,0.394c-0.129-0.13-0.26-0.259-0.39-0.39"/>
	<path fill="none" stroke="#000000" stroke-linecap="round" stroke-linejoin="round" stroke-miterlimit="10" d="M144.354,533.729
		c-1.428,1.429-2.855,2.856-4.285,4.285"/>
	<path fill="none" stroke="#000000" stroke-linecap="round" stroke-linejoin="round" stroke-miterlimit="10" d="M169.677,258.683
		c0.841-1.26,1.681-2.519,2.513-3.77c-4.605-3.317-10.617,0.088-11.862,6.497"/>
	<path fill="none" stroke="#000000" stroke-linecap="round" stroke-linejoin="round" stroke-miterlimit="10" d="M160.327,232.581
		c1.558,0.39,3.116,0.779,4.675,1.169"/>
	<path fill="none" stroke="#000000" stroke-linecap="round" stroke-linejoin="round" stroke-miterlimit="10" d="M131.498,529.443
		c-0.682,1.021-1.364,2.043-2.105,3.153c0.578,1.298,1.146,2.578,1.715,3.858"/>
	<path fill="none" stroke="#000000" stroke-linecap="round" stroke-linejoin="round" stroke-miterlimit="10" d="M104.617,73.242
		c-0.389,0.909-0.778,1.818-1.187,2.773c1.513,1.181,2.867,3.019,5.123,1.194c-0.689-1.24-1.338-2.409-1.988-3.578"/>
	<path fill="none" stroke="#000000" stroke-linecap="round" stroke-linejoin="round" stroke-miterlimit="10" d="M76.956,251.281
		c1.392-1.214,2.784-2.427,4.206-3.667c0.916,0.426,1.704,0.792,3.094,1.44c-1.257,1.686-2.331,3.125-3.403,4.564"/>
	<path fill="none" stroke="#000000" stroke-linecap="round" stroke-linejoin="round" stroke-miterlimit="10" d="M99.163,141.808
		c-0.779,1.429-1.559,2.857-2.337,4.286"/>
	<path fill="none" stroke="#000000" stroke-linecap="round" stroke-linejoin="round" stroke-miterlimit="10" d="M178.639,160.898
		c0.156-1.559,0.313-3.117,0.496-4.923c-3.529,0.969-2.058,3.191-2.511,4.767c1.12,0.206,1.771,0.326,2.454,0.451
		c-0.153,1.526-0.296,2.954-0.439,4.38"/>
	<path fill="none" stroke="#000000" stroke-linecap="round" stroke-linejoin="round" stroke-miterlimit="10" d="M158.379,414.906
		c-0.779,1.428-1.559,2.856-2.338,4.285"/>
	<path fill="none" stroke="#000000" stroke-linecap="round" stroke-linejoin="round" stroke-miterlimit="10" d="M76.567,211.544
		c2.727,1.039,5.454,2.078,8.181,3.117"/>
	<path fill="none" stroke="#000000" stroke-linecap="round" stroke-linejoin="round" stroke-miterlimit="10" d="M79.294,180.767
		c-4.625,0.749-5.348,1.669-4.286,5.454"/>
	<path fill="none" stroke="#000000" stroke-linecap="round" stroke-linejoin="round" stroke-miterlimit="10" d="M161.885,536.846
		c-1.298,0.391-2.597,0.779-3.896,1.169"/>
	<path fill="none" stroke="#000000" stroke-linecap="round" stroke-linejoin="round" stroke-miterlimit="10" d="M113.967,39.348
		c1.52,1.678,3.04,3.356,4.521,4.992c-1.838,1.075-1.838,1.075-2.184-1.097"/>
	<path fill="none" stroke="#000000" stroke-linecap="round" stroke-linejoin="round" stroke-miterlimit="10" d="M164.223,381.013
		c-0.332-2.328-0.664-4.656-1.029-7.229c1.293-0.435,2.423-0.812,3.552-1.188c0.194,0.308,0.387,0.613,0.581,0.92
		c-1.164,1.33-2.328,2.66-3.492,3.99"/>
	<path fill="none" stroke="#000000" stroke-linecap="round" stroke-linejoin="round" stroke-miterlimit="10" d="M105.006,481.915
		c-1.039,1.038-2.078,2.077-3.117,3.116"/>
	<path fill="none" stroke="#000000" stroke-linecap="round" stroke-linejoin="round" stroke-miterlimit="10" d="M117.473,481.136
		c0.26,1.299,0.52,2.598,0.779,3.896"/>
	<path fill="none" stroke="#000000" stroke-linecap="round" stroke-linejoin="round" stroke-miterlimit="10" d="M96.436,408.673
		c0.26,1.299,0.519,2.597,0.779,3.896"/>
	<path fill="none" stroke="#000000" stroke-linecap="round" stroke-linejoin="round" stroke-miterlimit="10" d="M111.24,58.438
		c-1.283,0.804-2.565,1.608-3.689,2.313c-0.623,1.245-1.194,2.388-1.765,3.531"/>
	<path fill="none" stroke="#000000" stroke-linecap="round" stroke-linejoin="round" stroke-miterlimit="10" d="M121.369,11.298
		c0.13,1.948,0.26,3.896,0.39,5.844"/>
	<path fill="none" stroke="#000000" stroke-linecap="round" stroke-linejoin="round" stroke-miterlimit="10" d="M117.083,539.963
		c-2.192,0.557-4.386,1.111-6.722,1.703c-0.901-1.654-1.766-3.237-2.628-4.82"/>
	<path fill="none" stroke="#000000" stroke-linecap="round" stroke-linejoin="round" stroke-miterlimit="10" d="M149.419,277.383
		c-1.299,0.779-2.599,1.558-3.896,2.337"/>
	<path fill="none" stroke="#000000" stroke-linecap="round" stroke-linejoin="round" stroke-miterlimit="10" d="M100.721,349.066
		c-2.166-1.146-2.86,0.357-3.506,1.947"/>
	<path fill="none" stroke="#000000" stroke-linecap="round" stroke-linejoin="round" stroke-miterlimit="10" d="M168.508,177.26
		c0.52,1.169,1.039,2.338,1.559,3.506"/>
	<path fill="none" stroke="#000000" stroke-linecap="round" stroke-linejoin="round" stroke-miterlimit="10" d="M83.969,297.252
		c-0.909,1.169-1.818,2.338-2.727,3.507"/>
	<path fill="none" stroke="#000000" stroke-linecap="round" stroke-linejoin="round" stroke-miterlimit="10" d="M65.269,328.809
		c0.158,1.411,0.315,2.822,0.525,4.704c0.484,0.68,1.343,1.884,2.202,3.087"/>
	<path fill="none" stroke="#000000" stroke-linecap="round" stroke-linejoin="round" stroke-miterlimit="10" d="M51.633,428.152
		c1.298,1.946,2.597,3.896,3.896,5.844"/>
	<path fill="none" stroke="#000000" stroke-linecap="round" stroke-linejoin="round" stroke-miterlimit="10" d="M91.76,357.248
		c0.13,1.169,0.26,2.337,0.39,3.506"/>
	<path fill="none" stroke="#000000" stroke-linecap="round" stroke-linejoin="round" stroke-miterlimit="10" d="M106.175,216.219
		c0.52,1.169,1.039,2.337,1.559,3.506"/>
	<path fill="none" stroke="#000000" stroke-linecap="round" stroke-linejoin="round" stroke-miterlimit="10" d="M144.354,306.603
		c-0.6,0.712-1.199,1.424-1.959,2.324c1.771,0.89,3.229,1.62,4.687,2.352"/>
	<path fill="none" stroke="#000000" stroke-linecap="round" stroke-linejoin="round" stroke-miterlimit="10" d="M90.981,351.794
		c0,1.038,0,2.078,0,3.116"/>
	<path fill="none" stroke="#000000" stroke-linecap="round" stroke-linejoin="round" stroke-miterlimit="10" d="M86.306,326.081
		c0,1.039,0,2.078,0,3.117"/>
	<path fill="none" stroke="#000000" stroke-linecap="round" stroke-linejoin="round" stroke-miterlimit="10" d="M70.723,407.114
		c-1.039-0.259-2.078-0.521-3.117-0.779"/>
	<path fill="none" stroke="#000000" stroke-linecap="round" stroke-linejoin="round" stroke-miterlimit="10" d="M162.665,153.885
		c-0.261,1.039-0.519,2.078-0.779,3.117"/>
	<path fill="none" stroke="#000000" stroke-linecap="round" stroke-linejoin="round" stroke-miterlimit="10" d="M121.369,157.781
		c0.13,1.039,0.26,2.078,0.39,3.117"/>
	<path fill="none" stroke="#000000" stroke-linecap="round" stroke-linejoin="round" stroke-miterlimit="10" d="M185.26,210.765
		c-0.785,1.164-1.57,2.326-2.686,3.98c-0.792-1.585-1.002-2.004-1.211-2.422"/>
	<path fill="none" stroke="#000000" stroke-linecap="round" stroke-linejoin="round" stroke-miterlimit="10" d="M58.256,526.717
		c-1.039-0.26-2.073-0.543-3.118-0.771c-0.874-0.191-1.761-0.319-2.643-0.478c-0.035,0.416-0.07,0.833-0.105,1.249
		c1.046,0,2.093,0,3.139,0"/>
	<path fill="none" stroke="#000000" stroke-linecap="round" stroke-linejoin="round" stroke-miterlimit="10" d="M150.587,78.306
		c0.699,2.051,0.699,2.051-0.778,1.948"/>
	<path fill="none" stroke="#000000" stroke-linecap="round" stroke-linejoin="round" stroke-miterlimit="10" d="M80.462,224.01
		c-0.519,1.039-1.039,2.078-1.558,3.117"/>
	<path fill="none" stroke="#000000" stroke-linecap="round" stroke-linejoin="round" stroke-miterlimit="10" d="M129.939,361.923
		c1.429,0.13,2.856,0.26,4.285,0.391"/>
	<path fill="none" stroke="#000000" stroke-linecap="round" stroke-linejoin="round" stroke-miterlimit="10" d="M118.252,489.706
		c0.26,0.779,0.52,1.559,0.779,2.338"/>
	<path fill="none" stroke="#000000" stroke-linecap="round" stroke-linejoin="round" stroke-miterlimit="10" d="M57.477,289.46
		c-0.779-0.259-1.558-0.521-2.337-0.778"/>
	<path fill="none" stroke="#000000" stroke-linecap="round" stroke-linejoin="round" stroke-miterlimit="10" d="M154.482,418.802
		c-0.778,0.779-1.559,1.56-2.336,2.338"/>
	<path fill="none" stroke="#000000" stroke-linecap="round" stroke-linejoin="round" stroke-miterlimit="10" d="M108.902,520.873
		c-0.52,0.52-1.04,1.038-1.558,1.559"/>
	<path fill="none" stroke="#000000" stroke-linecap="round" stroke-linejoin="round" stroke-miterlimit="10" d="M151.367,336.6
		c0.26,1.43,0.52,2.857,0.779,4.286"/>
	<path fill="none" stroke="#000000" stroke-linecap="round" stroke-linejoin="round" stroke-miterlimit="10" d="M126.823,275.436
		c-0.519,0.52-1.039,1.039-1.558,1.558"/>
	<path fill="none" stroke="#000000" stroke-linecap="round" stroke-linejoin="round" stroke-miterlimit="10" d="M126.434,366.208
		c-2.468,1.039-4.936,2.078-7.402,3.117"/>
	<path fill="none" stroke="#000000" stroke-linecap="round" stroke-linejoin="round" stroke-miterlimit="10" d="M178.248,287.902
		c-0.26,0.779-0.52,1.558-0.779,2.337"/>
	<path fill="none" stroke="#000000" stroke-linecap="round" stroke-linejoin="round" stroke-miterlimit="10" d="M182.923,290.239
		c-0.26,0.778-0.519,1.559-0.778,2.338"/>
	<path fill="none" stroke="#000000" stroke-linecap="round" stroke-linejoin="round" stroke-miterlimit="10" d="M57.087,436.333
		c0.779,1.688,1.616,3.354,2.295,5.082c0.159,0.406-0.217,1.021-0.347,1.541"/>
	<path fill="none" stroke="#000000" stroke-linecap="round" stroke-linejoin="round" stroke-miterlimit="10" d="M147.081,187.39
		c0.909,0.779,1.817,1.558,2.728,2.337"/>
	<path fill="none" stroke="#000000" stroke-linecap="round" stroke-linejoin="round" stroke-miterlimit="10" d="M95.656,513.081
		c-0.117,1.703-0.922,2.604-2.727,2.338"/>
	<path fill="none" stroke="#000000" stroke-linecap="round" stroke-linejoin="round" stroke-miterlimit="10" d="M103.448,396.206
		c0.52,0.52,1.039,1.039,1.559,1.559"/>
	<path fill="none" stroke="#000000" stroke-linecap="round" stroke-linejoin="round" stroke-miterlimit="10" d="M116.693,308.939
		c-0.26,0.52-0.52,1.038-0.778,1.559"/>
	<path fill="none" stroke="#000000" stroke-linecap="round" stroke-linejoin="round" stroke-miterlimit="10" d="M133.057,209.985
		c0.52,0.52,1.039,1.039,1.559,1.559"/>
	<path fill="none" stroke="#000000" stroke-linecap="round" stroke-linejoin="round" stroke-miterlimit="10" d="M178.639,169.079
		c0.26,0.52,0.519,1.039,0.778,1.559"/>
	<path fill="none" stroke="#000000" stroke-linecap="round" stroke-linejoin="round" stroke-miterlimit="10" d="M138.51,79.475
		c-1.039-0.13-2.078-0.26-3.117-0.39"/>
	<path fill="none" stroke="#000000" stroke-linecap="round" stroke-linejoin="round" stroke-miterlimit="10" d="M145.133,280.891
		c0.131,0.26,0.305,0.51,0.366,0.783c0.021,0.096-0.235,0.254-0.366,0.385"/>
	<path fill="none" stroke="#000000" stroke-linecap="round" stroke-linejoin="round" stroke-miterlimit="10" d="M97.994,494.381
		c-0.26,0.26-0.519,0.521-0.779,0.779"/>
	<path fill="none" stroke="#000000" stroke-linecap="round" stroke-linejoin="round" stroke-miterlimit="10" d="M126.823,263.748
		c-0.261,0.259-0.519,0.52-0.779,0.779"/>
	<path fill="none" stroke="#000000" stroke-linecap="round" stroke-linejoin="round" stroke-miterlimit="10" d="M121.369,164.015
		c0.26,0.26,0.52,0.519,0.779,0.779"/>
	<path fill="none" stroke="#000000" stroke-linecap="round" stroke-linejoin="round" stroke-miterlimit="10" d="M105.396,183.883
		c-4.452,3.758-4.834,6.436-1.559,10.908c3.091-0.746,6.106-1.583,6.688-5.802c-1.068-0.243-2.149-0.488-2.833-0.644
		c-0.714-1.671-1.311-3.066-1.907-4.462"/>
</g>
<g>
	<path d="M32.917,25.424c-1.061,0.557-3.182,1.113-5.899,1.113c-6.297,0-11.036-4.176-11.036-11.868
		c0-7.344,4.739-12.321,11.666-12.321c2.784,0,4.54,0.626,5.303,1.044l-0.696,2.471c-1.094-0.557-2.651-0.975-4.507-0.975
		c-5.236,0-8.716,3.515-8.716,9.676c0,5.743,3.148,9.433,8.584,9.433c1.756,0,3.546-0.383,4.706-0.975L32.917,25.424z"/>
	<path d="M50.583,17.627c0,6.23-4.109,8.945-7.987,8.945c-4.341,0-7.689-3.341-7.689-8.667c0-5.638,3.513-8.945,7.954-8.945
		C47.467,8.961,50.583,12.476,50.583,17.627z M37.856,17.801c0,3.689,2.022,6.474,4.872,6.474c2.784,0,4.872-2.75,4.872-6.543
		c0-2.854-1.358-6.474-4.806-6.474C39.348,11.258,37.856,14.599,37.856,17.801z"/>
	<path d="M54.263,13.903c0-1.74-0.033-3.167-0.133-4.56h2.552l0.132,2.715h0.1c0.895-1.601,2.386-3.098,5.038-3.098
		c2.188,0,3.844,1.392,4.541,3.376h0.066c0.497-0.94,1.126-1.67,1.79-2.193c0.961-0.766,2.021-1.183,3.546-1.183
		c2.121,0,5.27,1.462,5.27,7.309v9.919h-2.851v-9.537c0-3.237-1.127-5.186-3.48-5.186c-1.657,0-2.95,1.288-3.447,2.785
		c-0.132,0.417-0.232,0.974-0.232,1.531v10.407h-2.85V16.096c0-2.68-1.127-4.629-3.347-4.629c-1.823,0-3.149,1.531-3.613,3.063
		c-0.166,0.452-0.232,0.975-0.232,1.497v10.163h-2.85V13.903z"/>
	<path d="M85.153,4.61c0.033,1.044-0.696,1.879-1.856,1.879c-1.027,0-1.757-0.835-1.757-1.879c0-1.079,0.762-1.915,1.823-1.915
		C84.457,2.696,85.153,3.531,85.153,4.61z M81.905,26.189V9.344h2.917v16.846H81.905z"/>
	<path d="M89.66,13.903c0-1.74-0.033-3.167-0.133-4.56h2.585l0.166,2.784h0.066c0.795-1.601,2.651-3.167,5.303-3.167
		c2.221,0,5.667,1.392,5.667,7.17v10.059h-2.916v-9.71c0-2.715-0.961-4.978-3.712-4.978c-1.922,0-3.414,1.427-3.911,3.133
		c-0.132,0.383-0.199,0.905-0.199,1.427v10.128H89.66V13.903z"/>
	<path d="M121.875,9.344c-0.066,1.218-0.132,2.576-0.132,4.629v9.78c0,3.863-0.729,6.23-2.287,7.692
		c-1.558,1.531-3.812,2.019-5.833,2.019c-1.922,0-4.043-0.487-5.336-1.393l0.729-2.332c1.061,0.696,2.718,1.323,4.706,1.323
		c2.982,0,5.17-1.636,5.17-5.883v-1.879h-0.066c-0.895,1.566-2.618,2.819-5.104,2.819c-3.978,0-6.827-3.55-6.827-8.214
		c0-5.708,3.546-8.945,7.225-8.945c2.784,0,4.309,1.531,5.005,2.923h0.065l0.133-2.541H121.875z M118.859,15.992
		c0-0.522-0.033-0.975-0.166-1.393c-0.53-1.775-1.955-3.237-4.076-3.237c-2.784,0-4.772,2.471-4.772,6.37
		c0,3.306,1.591,6.056,4.739,6.056c1.79,0,3.414-1.184,4.043-3.133c0.166-0.522,0.232-1.114,0.232-1.636V15.992z"/>
	<path d="M133.311,22.5c1.293,0.835,3.182,1.531,5.17,1.531c2.95,0,4.673-1.636,4.673-4.002c0-2.193-1.192-3.446-4.209-4.664
		c-3.646-1.357-5.899-3.341-5.899-6.648c0-3.655,2.884-6.37,7.226-6.37c2.287,0,3.943,0.557,4.938,1.149l-0.796,2.471
		c-0.729-0.418-2.221-1.114-4.242-1.114c-3.049,0-4.209,1.914-4.209,3.515c0,2.193,1.358,3.271,4.441,4.525
		c3.778,1.531,5.7,3.445,5.7,6.891c0,3.62-2.552,6.752-7.821,6.752c-2.154,0-4.508-0.661-5.701-1.496L133.311,22.5z"/>
	<path d="M164.663,17.627c0,6.23-4.109,8.945-7.987,8.945c-4.342,0-7.688-3.341-7.688-8.667c0-5.638,3.513-8.945,7.954-8.945
		C161.548,8.961,164.663,12.476,164.663,17.627z M151.937,17.801c0,3.689,2.021,6.474,4.872,6.474c2.784,0,4.872-2.75,4.872-6.543
		c0-2.854-1.359-6.474-4.806-6.474C153.428,11.258,151.937,14.599,151.937,17.801z"/>
	<path d="M182.859,17.627c0,6.23-4.109,8.945-7.987,8.945c-4.342,0-7.688-3.341-7.688-8.667c0-5.638,3.513-8.945,7.954-8.945
		C179.744,8.961,182.859,12.476,182.859,17.627z M170.133,17.801c0,3.689,2.021,6.474,4.872,6.474c2.784,0,4.872-2.75,4.872-6.543
		c0-2.854-1.359-6.474-4.806-6.474C171.624,11.258,170.133,14.599,170.133,17.801z"/>
	<path d="M186.539,13.903c0-1.74-0.033-3.167-0.132-4.56h2.585l0.166,2.784h0.065c0.796-1.601,2.651-3.167,5.303-3.167
		c2.221,0,5.668,1.392,5.668,7.17v10.059h-2.917v-9.71c0-2.715-0.961-4.978-3.712-4.978c-1.922,0-3.413,1.427-3.91,3.133
		c-0.133,0.383-0.199,0.905-0.199,1.427v10.128h-2.917V13.903z"/>
</g>
</svg>
