<?xml version="1.0" encoding="utf-8"?>
<!-- Generator: Adobe Illustrator 16.0.0, SVG Export Plug-In . SVG Version: 6.00 Build 0)  -->
<!DOCTYPE svg PUBLIC "-//W3C//DTD SVG 1.1//EN" "http://www.w3.org/Graphics/SVG/1.1/DTD/svg11.dtd">
<svg version="1.1" id="Layer_1" xmlns="http://www.w3.org/2000/svg" xmlns:xlink="http://www.w3.org/1999/xlink" x="0px" y="0px"
	 width="900px" height="600px" viewBox="0 0 900 600" enable-background="new 0 0 900 600" xml:space="preserve">
<g id="Labels">
	<text transform="matrix(1 0 0 1 137.5 157.5)" font-family="'Helvetica'" font-size="10">Col-0</text>
	<text transform="matrix(1 0 0 1 137.5 305.5)"><tspan x="0" y="0" font-family="'Helvetica'" font-size="10">MYB61</tspan><tspan x="0" y="12" font-family="'Helvetica'" font-size="10">knockout</tspan></text>
	<text transform="matrix(1 0 0 1 137.5 449.5)"><tspan x="0" y="0" font-family="'Helvetica'" font-size="10">MYB50</tspan><tspan x="0" y="12" font-family="'Helvetica'" font-size="10">knockout</tspan></text>
	<text transform="matrix(1 0 0 1 213.4902 529.5)"><tspan x="0" y="0" font-family="'Helvetica'" font-size="10">Xylem within Cork</tspan><tspan x="17.222" y="12" font-family="'Helvetica'" font-size="10">(separate)</tspan></text>
	<text transform="matrix(1 0 0 1 527.5469 529.5)"><tspan x="0" y="0" font-family="'Helvetica'" font-size="10">Hypocotyl</tspan><tspan x="-36.682" y="12" font-family="'Helvetica'" font-size="10">(Xylem and Cork together)</tspan></text>
	<text transform="matrix(1 0 0 1 380.5518 189.5)" font-family="'Helvetica'" font-size="10">Col-0</text>
	<text transform="matrix(1 0 0 1 380.2734 305.5)" font-family="'Helvetica'" font-size="10">max4</text>
	<text transform="matrix(1 0 0 1 385.2734 426.5)" font-family="'Helvetica'" font-size="10">Ler</text>
	<text transform="matrix(1 0 0 1 574.0469 426.5)" font-family="'Helvetica'" font-size="10">abi1</text>
	<text transform="matrix(1 0 0 1 578.377 188.5)" font-family="'Helvetica'" font-size="10">aba1</text>
	<text transform="matrix(1 0 0 1 579.7734 304.5)" font-family="'Helvetica'" font-size="10">axr1</text>
</g>
<g id="Samples">
	<g id="Xylem_MYB61_knockout" >
		<path fill="none" d="M285.667,455.001c-0.681-5.3-0.344-10.558-1.07-15.901
			c-1.287-9.481-9.995-15.362-18.081-18.512c-19.753-7.693-42.093,7.182-41.516,28.413c0.144,5.307,2.483,10.128,6.175,13.446
			c0.416,1.016,0.941,2.012,1.616,2.973c10.035,14.274,32.292,19.525,43.834,5.182c0.042-0.02,0.084-0.037,0.126-0.059
			C281.807,468.111,286.399,460.701,285.667,455.001z"/>
	</g>
	<g id="Cork_MYB61_knockout">
		<path fill="none" d="M300.273,446.495c-0.126-5.491,0.984-15.103-0.771-20.311
			c-3.39-10.055-10.495-14.267-19.997-18.989c-20.192-10.04-46.808-5.032-59.54,12.39c-0.935,0.077-1.871,0.339-2.745,0.802
			c-5.079,2.695-8.072,7.929-8.219,13.613c-0.056,2.174,1.099,4.125,2.8,5.309c-1.01,5.526-1.183,11.345-0.377,17.066
			c-0.501,0.934-0.816,2-0.923,3.125c-0.501,5.304,2.127,9.65,6.031,12.598c0.771,1.413,1.624,2.792,2.567,4.127
			c14.78,20.923,28.603,22.132,50.487,16.445c9.093-2.362,17.28-5.992,23.425-12.992c1.13-1.287,1.787-3.67,2.064-5.055
			c4.131-1.102,5.563-5.885,4.122-11.215c-0.677-2.505,2.583-6.138,2.887-8.66C302.409,452.046,300.335,449.212,300.273,446.495z
			 M284.18,463.357c-1.111,0.429-2.195,1.167-3.189,2.3c-10.306,11.739-25.19,14.77-38.283,8.171
			c-13.273-6.689-20.676-21.904-15.89-36.793c0.661-2.055,4.04-5.217,6.344-7.16c3.336-2.815,7.664-5.109,11.673-6.793
			c8.532-3.584,15.836-4.807,24.617-1.807c7.276,2.484,12.169,8.42,14.353,15.597c1.213,3.988,1.491,8.04,1.503,12.186
			C285.32,453.844,284.065,458.619,284.18,463.357z"/>
	</g>
	<g id="Xylem_MYB50_knockout">
		<path fill="none" d="M286.667,308.001c-0.681-5.3-0.344-10.557-1.07-15.901
			c-1.287-9.483-9.995-15.363-18.081-18.513c-19.753-7.693-42.093,7.183-41.516,28.414c0.144,5.307,2.483,10.128,6.175,13.446
			c0.416,1.016,0.941,2.012,1.616,2.973c10.035,14.274,32.292,19.525,43.834,5.182c0.042-0.02,0.084-0.037,0.126-0.059
			C282.807,321.111,287.399,313.701,286.667,308.001z"/>
	</g>
	<g id="Cork_MYB50_knockout">
		<path fill="none" d="M302.273,299.495c-0.126-5.492,0.984-15.102-0.771-20.309
			c-3.39-10.055-10.495-14.267-19.997-18.991c-20.192-10.04-46.808-5.032-59.54,12.39c-0.935,0.077-1.871,0.338-2.745,0.802
			c-5.079,2.695-8.072,7.927-8.219,13.613c-0.056,2.174,1.099,4.125,2.8,5.309c-1.01,5.526-1.183,11.343-0.377,17.066
			c-0.501,0.934-0.816,2-0.923,3.125c-0.501,5.304,2.127,9.65,6.031,12.598c0.771,1.413,1.624,2.792,2.567,4.127
			c14.78,20.923,28.603,22.132,50.487,16.445c9.093-2.362,17.28-5.992,23.425-12.992c1.13-1.287,1.787-3.67,2.064-5.055
			c4.131-1.102,5.563-5.885,4.122-11.215c-0.677-2.505,2.583-6.138,2.887-8.66C304.409,305.046,302.335,302.212,302.273,299.495z
			 M286.18,316.357c-1.111,0.429-2.195,1.167-3.189,2.3c-10.306,11.739-25.19,14.77-38.283,8.171
			c-13.273-6.689-20.676-21.904-15.89-36.792c0.661-2.055,4.04-5.217,6.344-7.161c3.336-2.815,7.664-5.109,11.673-6.793
			c8.532-3.583,15.836-4.806,24.617-1.806c7.276,2.485,12.169,8.42,14.353,15.597c1.213,3.988,1.491,8.04,1.503,12.186
			C287.32,306.844,286.065,311.619,286.18,316.357z"/>
	</g>
	<g id="Xylem_Col-0">
		<path fill="none" d="M281.667,161.001c-0.681-5.3-0.344-10.557-1.07-15.901
			c-1.287-9.483-9.995-15.363-18.081-18.513c-19.753-7.693-42.093,7.183-41.516,28.414c0.144,5.307,2.483,10.128,6.175,13.446
			c0.416,1.016,0.941,2.012,1.616,2.973c10.035,14.274,32.292,19.525,43.834,5.182c0.042-0.02,0.084-0.038,0.126-0.059
			C277.807,174.111,282.399,166.701,281.667,161.001z"/>
	</g>
	<g  id="Cork_Col-0">
		<path fill="none" d="M296.273,152.495c-0.126-5.492,0.984-15.102-0.771-20.309
			c-3.39-10.055-10.495-14.267-19.997-18.991c-20.192-10.04-46.808-5.032-59.54,12.39c-0.935,0.077-1.871,0.338-2.745,0.802
			c-5.079,2.695-8.072,7.927-8.219,13.613c-0.056,2.174,1.099,4.125,2.8,5.309c-1.01,5.526-1.183,11.343-0.377,17.066
			c-0.501,0.934-0.816,2-0.923,3.125c-0.501,5.304,2.127,9.65,6.031,12.598c0.771,1.413,1.624,2.792,2.567,4.127
			c14.78,20.922,28.603,22.131,50.487,16.445c9.093-2.362,17.28-5.992,23.425-12.992c1.13-1.287,1.787-3.67,2.064-5.055
			c4.131-1.102,5.563-5.885,4.122-11.215c-0.677-2.505,2.583-6.138,2.887-8.66C298.409,158.046,296.335,155.212,296.273,152.495z
			 M280.18,169.357c-1.111,0.429-2.195,1.167-3.189,2.3c-10.306,11.74-25.19,14.77-38.283,8.171
			c-13.273-6.689-20.676-21.904-15.89-36.792c0.661-2.055,4.04-5.217,6.344-7.161c3.336-2.815,7.664-5.109,11.673-6.793
			c8.532-3.583,15.836-4.806,24.617-1.806c7.276,2.485,12.169,8.42,14.353,15.597c1.213,3.988,1.491,8.04,1.503,12.186
			C281.32,159.844,280.065,164.619,280.18,169.357z"/>
	</g>
	<g id="Hypocotyl_axr1">
		<path fill="none" d="M658.869,311.461c0.003-12.584,2.764-25.043,2.862-37.562
			c0.072-9.256-5.212-17.859-13.449-22.105c-9.828-5.066-20.759,0.057-22.442,11.182c-0.029,0.188-0.046,0.375-0.065,0.562
			c-0.154,0.307-0.301,0.618-0.435,0.938c-2.332,5.547-0.334,11.314,1.547,16.652c2.088,5.928,0.857,12.781,0.642,18.923
			c-0.522,14.752,3.047,30.182,6.312,44.477c1.123,4.918,6.906,8.135,11.687,6.635c2.112-0.663,4.145-1.459,6.058-2.448
			c0.406-0.144,0.812-0.307,1.212-0.509c-2.519,1.27,2.812-1.244,2.479-0.953c2.083-1.293,3.439-3.259,4.429-5.455
			c1.438-3.202,1.709-6.632,0.028-9.552C660.138,325.419,658.867,318.357,658.869,311.461z"/>
	</g>
	<g id="Hypocotyl_Ler">
		<path fill="none" d="M471.869,428.461c0.003-12.584,2.764-25.043,2.861-37.562
			c0.073-9.257-5.212-17.859-13.448-22.105c-9.828-5.066-20.759,0.057-22.443,11.182c-0.028,0.188-0.045,0.375-0.065,0.562
			c-0.153,0.307-0.3,0.618-0.435,0.938c-2.332,5.548-0.333,11.314,1.547,16.652c2.088,5.928,0.858,12.781,0.642,18.923
			c-0.522,14.752,3.047,30.182,6.312,44.477c1.124,4.918,6.907,8.135,11.687,6.635c2.112-0.663,4.145-1.459,6.058-2.448
			c0.406-0.144,0.812-0.307,1.212-0.509c-2.519,1.27,2.812-1.244,2.479-0.953c2.083-1.293,3.439-3.259,4.429-5.455
			c1.438-3.202,1.709-6.632,0.028-9.552C473.138,442.419,471.867,435.357,471.869,428.461z"/>
	</g>
	<g id="Hypocotyl_abi1">
		<path fill="none" d="M659.869,428.461c0.003-12.584,2.764-25.043,2.862-37.562
			c0.072-9.257-5.212-17.859-13.449-22.105c-9.828-5.066-20.759,0.057-22.442,11.182c-0.029,0.188-0.046,0.375-0.065,0.562
			c-0.154,0.307-0.301,0.618-0.435,0.938c-2.332,5.548-0.334,11.314,1.547,16.652c2.088,5.928,0.857,12.781,0.642,18.923
			c-0.522,14.752,3.047,30.182,6.312,44.477c1.123,4.918,6.906,8.135,11.687,6.635c2.112-0.663,4.145-1.459,6.058-2.448
			c0.406-0.144,0.812-0.307,1.212-0.509c-2.519,1.27,2.812-1.244,2.479-0.953c2.083-1.293,3.439-3.259,4.429-5.455
			c1.438-3.202,1.709-6.632,0.028-9.552C661.138,442.419,659.867,435.357,659.869,428.461z"/>
	</g>
	<g id="Hypocotyl_aba1">
		<path fill="none" d="M659.869,196.461c0.003-12.584,2.764-25.043,2.862-37.562
			c0.072-9.256-5.212-17.859-13.449-22.105c-9.828-5.066-20.759,0.057-22.442,11.182c-0.029,0.188-0.046,0.375-0.065,0.562
			c-0.154,0.307-0.301,0.618-0.435,0.938c-2.332,5.547-0.334,11.314,1.547,16.652c2.088,5.928,0.857,12.781,0.642,18.923
			c-0.522,14.752,3.047,30.181,6.312,44.476c1.123,4.918,6.906,8.135,11.687,6.635c2.112-0.663,4.145-1.459,6.058-2.448
			c0.406-0.144,0.812-0.307,1.212-0.509c-2.519,1.27,2.812-1.244,2.479-0.953c2.083-1.293,3.439-3.259,4.429-5.455
			c1.438-3.202,1.709-6.632,0.028-9.552C661.138,210.419,659.867,203.357,659.869,196.461z"/>
	</g>
	<g id="Hypocotyl_max4">
		<path fill="none" d="M468.869,310.461c0.003-12.584,2.764-25.043,2.861-37.563
			c0.073-9.255-5.212-17.858-13.448-22.104c-9.828-5.066-20.759,0.057-22.443,11.181c-0.028,0.188-0.045,0.375-0.065,0.563
			c-0.153,0.306-0.3,0.618-0.435,0.937c-2.332,5.547-0.333,11.315,1.547,16.652c2.088,5.928,0.858,12.781,0.642,18.923
			c-0.522,14.752,3.047,30.182,6.312,44.477c1.124,4.918,6.907,8.135,11.687,6.635c2.112-0.663,4.145-1.459,6.058-2.448
			c0.406-0.144,0.812-0.307,1.212-0.509c-2.519,1.27,2.812-1.244,2.479-0.953c2.083-1.293,3.439-3.259,4.429-5.455
			c1.438-3.202,1.709-6.632,0.028-9.552C470.138,324.419,468.867,317.357,468.869,310.461z"/>
	</g>
	<g id="Hypocotyl_Col-0">
		<path fill="none" d="M468.869,194.461c0.003-12.585,2.764-25.043,2.861-37.563
			c0.073-9.255-5.212-17.858-13.448-22.104c-9.828-5.066-20.759,0.057-22.443,11.181c-0.028,0.188-0.045,0.375-0.065,0.563
			c-0.153,0.306-0.3,0.618-0.435,0.937c-2.332,5.547-0.333,11.315,1.547,16.652c2.088,5.928,0.858,12.781,0.642,18.923
			c-0.522,14.752,3.047,30.18,6.312,44.476c1.124,4.918,6.907,8.135,11.687,6.635c2.112-0.664,4.145-1.459,6.058-2.449
			c0.406-0.144,0.812-0.307,1.212-0.509c-2.519,1.27,2.812-1.245,2.479-0.954c2.083-1.293,3.439-3.258,4.429-5.455
			c1.438-3.202,1.709-6.632,0.028-9.552C470.138,208.419,468.867,201.358,468.869,194.461z"/>
	</g>
</g>
<g id="Outlines">
	<g>
		
			<path fill="none" stroke="#000000" stroke-width="0.75" stroke-linecap="round" stroke-linejoin="round" stroke-miterlimit="10" d="
			M282.793,149.187c-1.469-3.012-3.293-5.899-2.669-9.529c0.334-1.94-1.678-2.158-2.608-3.184
			c-4.993-5.502-11.198-8.422-18.523-9.585c-7.2-1.143-14.19,0.014-21.155,1.261c-2.265,0.406-4.37,2.182-6.346,3.611
			c-2.938,2.125-4.77,5.349-7.786,7.61c-2.196,1.646-1.047,5.826-1.493,8.798c-0.853,5.696-0.898,11.656,0.687,17.448
			c0.323,1.183,1.119,1.52,1.729,2.039c2.716,2.31,4.834,5.016,6.997,7.866c3.198,4.214,9.368,4.618,13.136,8.524
			c0.604,0.626,1.743-0.279,2.62-0.938c2.167-1.631,4.436-0.565,6.863-0.245c3.798,0.501,7.884,1.045,11.615-0.871
			c10.554-5.419,14.45-14.856,15.241-25.935c0.167-2.338,1.104-4.241,1.694-6.342"/>
		
			<path fill="none" stroke="#000000" stroke-width="0.75" stroke-linecap="round" stroke-linejoin="round" stroke-miterlimit="10" d="
			M288.085,296.296c-1.469-3.012-3.293-5.899-2.669-9.529c0.333-1.94-1.679-2.158-2.609-3.184
			c-4.992-5.502-11.198-8.422-18.523-9.585c-7.2-1.143-14.19,0.014-21.155,1.261c-2.265,0.406-4.371,2.182-6.347,3.611
			c-2.938,2.124-4.769,5.349-7.786,7.61c-2.196,1.646-1.047,5.826-1.492,8.798c-0.853,5.695-0.899,11.656,0.686,17.448
			c0.324,1.184,1.119,1.521,1.729,2.039c2.716,2.311,4.834,5.017,6.997,7.866c3.198,4.214,9.368,4.618,13.136,8.523
			c0.605,0.627,1.743-0.278,2.62-0.938c2.167-1.631,4.436-0.563,6.863-0.244c3.798,0.5,7.884,1.045,11.615-0.871
			c10.554-5.419,14.451-14.855,15.241-25.935c0.167-2.338,1.103-4.241,1.694-6.342"/>
		
			<path fill="none" stroke="#000000" stroke-width="0.75" stroke-linecap="round" stroke-linejoin="round" stroke-miterlimit="10" d="
			M287.027,443.406c-1.469-3.013-3.293-5.899-2.669-9.529c0.334-1.939-1.678-2.158-2.608-3.184
			c-4.993-5.503-11.198-8.422-18.523-9.585c-7.2-1.145-14.19,0.014-21.155,1.261c-2.265,0.406-4.37,2.182-6.346,3.611
			c-2.938,2.123-4.77,5.35-7.786,7.609c-2.196,1.646-1.047,5.825-1.493,8.798c-0.854,5.696-0.898,11.656,0.687,17.448
			c0.323,1.183,1.119,1.521,1.729,2.039c2.717,2.311,4.834,5.016,6.997,7.865c3.198,4.215,9.368,4.619,13.136,8.523
			c0.604,0.627,1.743-0.277,2.62-0.938c2.167-1.632,4.436-0.565,6.863-0.244c3.798,0.501,7.884,1.045,11.615-0.872
			c10.554-5.418,14.45-14.854,15.241-25.933c0.167-2.34,1.104-4.242,1.694-6.344"/>
		
			<path fill="none" stroke="#000000" stroke-width="0.75" stroke-linecap="round" stroke-linejoin="round" stroke-miterlimit="10" d="
			M417.203,270.367c7.166,3.291,13.523,7.512,18.081,14.227c1.411,2.08,1.671,4.273,1.944,6.421
			c1.038,8.149,0.895,16.356,3.519,24.417c1.373,4.219-1.773,8.912-3.576,13.082c-1.205,2.787-3.74,4.999-5.681,7.47"/>
		
			<path fill="none" stroke="#000000" stroke-width="0.75" stroke-linecap="round" stroke-linejoin="round" stroke-miterlimit="10" d="
			M435.194,154.479c5.518,3.423,10.946,6.186,17.996,6.063c7.438-0.129,11.918-4.968,17.398-8.277
			c1.633-0.985,0.411-9.349-1.563-11.512c-2.736-2.995-5.532-5.828-10.009-6.457c-6.172-0.866-11.982-0.771-17.495,2.684
			c-6.209,3.891-8.422,9.516-7.298,16.426c0.541,3.327,0.685,6.427-0.617,9.54"/>
		
			<path fill="none" stroke="#000000" stroke-width="0.75" stroke-linecap="round" stroke-linejoin="round" stroke-miterlimit="10" d="
			M470.119,269.309c3.675-9.551-1.226-14.716-8.045-17.749c-7.759-3.45-18.781-1.779-24.777,5.566
			c-5.1,6.249-4.016,12.087,3.189,16.416c8.345,5.014,18.011,4.4,25.407-1.578c1.18-0.952,2.462-1.773,3.697-2.655"/>
		
			<path fill="none" stroke="#000000" stroke-width="0.75" stroke-linecap="round" stroke-linejoin="round" stroke-miterlimit="10" d="
			M663.267,167.179c-3.429-4.167-2.279-9.131-2.029-13.754c0.627-11.529-5.276-17.98-17.021-17.997
			c-10.293-0.014-16.359,4.064-19.655,12.671c-1.149,3.003,0.062,5.746,0.285,8.479c0.322,3.915,0.116,7.523-1.357,11.117
			c3.014,2.531,3.765,5.641,3.972,9.528c0.312,5.822,0.238,11.761,1.921,17.478c1.463,4.968,2.938,9.944-0.42,14.873
			c-0.404,0.593-0.666,2.209,0.438,3.113"/>
		
			<path fill="none" stroke="#000000" stroke-width="0.75" stroke-linecap="round" stroke-linejoin="round" stroke-miterlimit="10" d="
			M632.575,149.716c0.566,4.006,2.767,5.805,6.885,5.347c1.003-0.112,2.048-0.125,3.212,0.376c3.143,1.353,6.023,1.04,8.486-1.968
			c2.206-2.695,2.671-5.557,1.448-8.486c-1.378-3.301-4.432-4.224-7.86-4.288c-6.793-0.126-9.615,1.875-11.643,8.489"/>
		
			<path fill="none" stroke="#000000" stroke-width="0.75" stroke-linecap="round" stroke-linejoin="round" stroke-miterlimit="10" d="
			M662.208,281.48c-2.808-3.57-1.716-7.755-1.508-11.638c0.701-13.032-7.544-20.075-20.735-18.123
			c-6.219,0.92-11.216,3.028-14.215,8.623c-1.373,2.562-1.988,5.195-1.322,8.48c0.799,3.935,1.194,8.338-1.378,12.128"/>
		
			<path fill="none" stroke="#000000" stroke-width="0.75" stroke-linecap="round" stroke-linejoin="round" stroke-miterlimit="10" d="
			M662.208,397.897c-2.808-3.57-1.771-7.767-1.495-11.637c0.802-11.275-2.799-14.953-12.829-18.419
			c-7.751-2.677-19.508,2.81-22.665,9.969c-1.008,2.287-1.354,4.605-0.8,7.43c0.776,3.943,1.203,8.338-1.369,12.128"/>
		
			<path fill="none" stroke="#000000" stroke-width="0.75" stroke-linecap="round" stroke-linejoin="round" stroke-miterlimit="10" d="
			M638.925,373.026c-1.059,0.882-2.215,1.671-3.156,2.664c-2.386,2.519-4.671,5.345-2.604,8.941
			c2.765,4.812,8.092,2.405,12.156,3.579c3.155,0.911,5.081-1.717,6.328-4.592c2.456-5.658-1.389-10.968-7.954-10.482
			c-1.467,0.108-2.83,0.757-4.241-0.11"/>
		
			<path fill="none" stroke="#000000" stroke-width="0.75" stroke-linecap="round" stroke-linejoin="round" stroke-miterlimit="10" d="
			M482.819,273.542c-7.289,4.285-12.237,10.048-12.181,19.05c0.045,6.879,0.094,13.76-0.035,20.636
			c-0.046,2.378,0.768,3.772,2.608,5.388c5.284,4.632,7.683,11.186,10.825,17.287c1.45,2.815,1.03,6.542,4.073,8.549"/>
		
			<path fill="none" stroke="#000000" stroke-width="0.75" stroke-linecap="round" stroke-linejoin="round" stroke-miterlimit="10" d="
			M480.703,157.654c-1.234,1.412-2.253,3.13-3.743,4.178c-5.449,3.835-6.334,9.397-6.313,15.401
			c0.016,4.586-0.031,9.172,0.013,13.758c0.046,4.95-0.362,9.255,4.469,13.549c5.668,5.038,8.438,12.867,10.918,20.3
			c0.385,1.152,0.101,2.975,2.066,3.192"/>
		
			<path fill="none" stroke="#000000" stroke-width="0.75" stroke-linecap="round" stroke-linejoin="round" stroke-miterlimit="10" d="
			M661.15,446.052c-0.354,2.822-1.242,5.701-0.955,8.456c0.768,7.345,0.315,8.911-6.479,11.586
			c-6.386,2.516-15.541,1.469-19.021-2.582c-1.698-1.977-2.761-3.772-2.376-6.906c0.392-3.198-0.063-6.902-1.861-10.023"/>
		
			<path fill="none" stroke="#000000" stroke-width="0.75" stroke-linecap="round" stroke-linejoin="round" stroke-miterlimit="10" d="
			M661.15,329.635c-0.354,2.821-1.242,5.7-0.955,8.455c0.768,7.345,0.358,9.051-6.493,11.547
			c-6.378,2.323-12.801,2.402-18.532-2.479c-2.326-1.982-2.827-3.807-2.893-6.935c-0.075-3.605,0.254-7.675-1.819-11.117"/>
		
			<path fill="none" stroke="#000000" stroke-width="0.75" stroke-linecap="round" stroke-linejoin="round" stroke-miterlimit="10" d="
			M471.707,328.576c-0.662,3.326-1.247,6.649-0.534,10.055c0.961,4.586-1.915,7.131-5.319,8.934
			c-5.443,2.88-11.135,3.191-16.91,0.614c-4.43-1.976-6.931-4.885-6.415-10.085c0.257-2.603-0.179-5.296-0.489-7.926
			c-0.202-1.705-1.112-2.932-3.14-2.65"/>
		
			<path fill="none" stroke="#000000" stroke-width="0.75" stroke-linecap="round" stroke-linejoin="round" stroke-miterlimit="10" d="
			M661.68,214.275c-0.378,2.999-1.336,5.815-0.151,9.051c1.011,2.763-0.145,5.71-2.49,7.887c-5.321,4.937-15.771,5.583-21.728,1.623
			c-5.369-3.57-4.192-9.324-5.218-14.338c-0.376-1.837,0.511-4.003-1.635-5.282"/>
		
			<path fill="none" stroke="#000000" stroke-width="0.75" stroke-linecap="round" stroke-linejoin="round" stroke-miterlimit="10" d="
			M471.707,212.159c-0.734,3.528-1.521,6.737-0.328,10.683c0.977,3.231-2.225,6.427-5.484,8.379
			c-5.772,3.456-17.277,3.14-21.732-2.636c-2.733-3.544-1.565-7.818-2.553-11.681c-0.46-1.801,0.493-3.996-1.651-5.275"/>
		
			<path fill="none" stroke="#000000" stroke-width="0.75" stroke-linecap="round" stroke-linejoin="round" stroke-miterlimit="10" d="
			M660.621,154.479c-2.295-0.001-3.127,2.192-4.709,3.254c-9.048,6.076-19.669,5.777-28.072-1.172
			c-0.743-0.614-1.421-0.389-2.145-0.495"/>
		
			<path fill="none" stroke="#000000" stroke-width="0.75" stroke-linecap="round" stroke-linejoin="round" stroke-miterlimit="10" d="
			M659.562,270.896c-1.007-0.249-1.513,0.465-2.123,1.052c-7.548,7.246-20.347,8.153-29.113,2.146
			c-0.766-0.524-1.748-0.728-2.631-1.081"/>
		
			<path fill="none" stroke="#000000" stroke-width="0.75" stroke-linecap="round" stroke-linejoin="round" stroke-miterlimit="10" d="
			M659.562,387.312c-1.007-0.247-1.531,0.443-2.12,1.057c-6.938,7.226-20.192,7.89-28.548,2.611
			c-1.033-0.652-1.85-1.604-3.199-1.551"/>
		
			<path fill="none" stroke="#000000" stroke-width="0.75" stroke-linecap="round" stroke-linejoin="round" stroke-miterlimit="10" d="
			M417.203,153.95c7.399,3.406,13.886,7.965,18.51,14.824c1.503,2.229,1.263,4.918,1.544,7.407
			c0.694,6.155,0.878,12.374,1.735,18.502c0.47,3.357,1.729,6.373,1.161,10.097c-0.963,6.299-5.265,10.177-8.662,14.787"/>
		
			<path fill="none" stroke="#000000" stroke-width="0.75" stroke-linecap="round" stroke-linejoin="round" stroke-miterlimit="10" d="
			M672.263,391.018c-13.054,6.9-12.366,19.154-12.176,31.223c0.036,2.292,0.058,4.588-0.008,6.879
			c-0.094,3.29,0.202,5.709,3.547,8.168c5.021,3.688,7.29,9.956,9.559,15.698c1.103,2.791,3.49,5.127,3.312,8.413"/>
		
			<path fill="none" stroke="#000000" stroke-width="0.75" stroke-linecap="round" stroke-linejoin="round" stroke-miterlimit="10" d="
			M608.762,388.372c3.383,2.841,7.285,4.927,10.668,7.841c4.697,4.045,6.705,8.737,7.544,14.884
			c1.024,7.505,1.772,15.085,3.105,22.587c1.121,6.312-1.609,12.966-7.004,17.689c-0.926,0.812-0.703,2.821-2.671,2.616"/>
		
			<path fill="none" stroke="#000000" stroke-width="0.75" stroke-linecap="round" stroke-linejoin="round" stroke-miterlimit="10" d="
			M672.263,274.601c-12.695,6.805-12.664,18.729-12.015,30.684c0.109,2-0.192,3.89-0.149,5.829c0.084,3.754-0.138,6.688,3.904,9.928
			c4.541,3.641,7.575,9.83,9.344,15.994c0.786,2.737,3.083,4.902,3.149,7.945"/>
		
			<path fill="none" stroke="#000000" stroke-width="0.75" stroke-linecap="round" stroke-linejoin="round" stroke-miterlimit="10" d="
			M608.762,271.955c5.582,4.252,12.086,7.378,15.955,13.71c0.971,1.587,1.354,3.052,1.545,4.807
			c0.794,7.242,1.197,14.586,2.786,21.66c1.155,5.144,0.655,9.918-0.177,14.856"/>
		
			<path fill="none" stroke="#000000" stroke-width="0.75" stroke-linecap="round" stroke-linejoin="round" stroke-miterlimit="10" d="
			M671.204,160.829c-3.97,5.089-10.238,8.688-10.089,16.405c0.156,8.111-0.07,16.23,0.146,24.338
			c0.033,1.248,0.554,2.046-0.566,3.247c-1.731,1.856-1.83,4.484-0.014,6.217c4.246,4.046,5.147,11.578,12.641,12.235"/>
		
			<path fill="none" stroke="#000000" stroke-width="0.75" stroke-linecap="round" stroke-linejoin="round" stroke-miterlimit="10" d="
			M662.208,204.75c2.789,1.575,4.354,3.938,6.021,6.762c3.646,6.172,6.808,12.49,9.326,19.167"/>
		
			<path fill="none" stroke="#000000" stroke-width="0.75" stroke-linecap="round" stroke-linejoin="round" stroke-miterlimit="10" d="
			M607.704,157.125c5.094,2.441,9.864,5.394,13.684,9.593c0.697,0.767,1.194,0.101,1.662,0.461"/>
		
			<path fill="none" stroke="#000000" stroke-width="0.75" stroke-linecap="round" stroke-linejoin="round" stroke-miterlimit="10" d="
			M639.454,193.638c1.465,8.892-3.402,14.442-10.055,19.05"/>
		
			<path fill="none" stroke="#000000" stroke-width="0.75" stroke-linecap="round" stroke-linejoin="round" stroke-miterlimit="10" d="
			M442.074,197.342c2.315-1.693,5.521-2.539,6.335-1.576c2.239,2.65,1.188,4.751-1.009,6.903c-2.34,2.292-3.35,6.094-7.443,6.314"/>
		
			<path fill="none" stroke="#000000" stroke-width="0.75" stroke-linecap="round" stroke-linejoin="round" stroke-miterlimit="10" d="
			M640.513,312.438c-3.988,0.886,0.075,4.146-1.914,6.273c-2.012,2.151-3.802,4.735-6.085,6.615
			c-3.704,3.048-7.271,6.188-9.906,10.186c-0.651,0.988-1.403,1.127-2.202,1.531"/>
		
			<path fill="none" stroke="#000000" stroke-width="0.75" stroke-linecap="round" stroke-linejoin="round" stroke-miterlimit="10" d="
			M638.66,427.531c1.782,4.424,0.449,8.012-2.899,11.123c-1.826,1.697-3.539,3.517-5.303,5.28"/>
		
			<path fill="none" stroke="#000000" stroke-width="0.75" stroke-linecap="round" stroke-linejoin="round" stroke-miterlimit="10" d="
			M442.074,313.759c1.454-2.693,4.035-2.005,6.438-2.12c1.55,2.759,1.281,4.915-1.02,7.525c-2.145,2.432-4.198,4.965-6.479,7.295"/>
		
			<path fill="none" stroke="#000000" stroke-width="0.75" stroke-linecap="round" stroke-linejoin="round" stroke-miterlimit="10" d="
			M483.349,220.096c-4.034-0.5-7.39-2.008-8.419-6.362c-0.384-1.627-1.454-1.614-2.62-2.24c-3.261-1.751-3.688-5.575-1.66-9.919"/>
		
			<path fill="none" stroke="#000000" stroke-width="0.75" stroke-linecap="round" stroke-linejoin="round" stroke-miterlimit="10" d="
			M672.792,337.572c-3.69-0.198-6.406-2.075-7.851-5.33c-0.736-1.656-1.312-2.49-3.18-3.325c-3.477-1.555-3.638-5.353-1.142-9.337"
			/>
		
			<path fill="none" stroke="#000000" stroke-width="0.75" stroke-linecap="round" stroke-linejoin="round" stroke-miterlimit="10" d="
			M672.792,453.989c-3.69-0.198-6.406-2.075-7.851-5.33c-0.736-1.656-1.312-2.489-3.18-3.325c-3.477-1.554-3.638-5.353-1.142-9.337"
			/>
		
			<path fill="none" stroke="#000000" stroke-width="0.75" stroke-linecap="round" stroke-linejoin="round" stroke-miterlimit="10" d="
			M483.349,336.514c-3.118-0.576-5.775-1.838-7.422-4.756c-0.962-1.705-2.331-2.829-3.948-4.064c-2.472-1.888-5.024-5.922-1.329-9.7
			"/>
		
			<path fill="none" stroke="#000000" stroke-width="0.75" stroke-linecap="round" stroke-linejoin="round" stroke-miterlimit="10" d="
			M628.342,212.688c-2.695,3.181-4.411,6.949-6.351,10.583"/>
		
			<path fill="none" stroke="#000000" stroke-width="0.75" stroke-linecap="round" stroke-linejoin="round" stroke-miterlimit="10" d="
			M465.357,293.122c-1.009-5.578-2.162-5.99-7.409-2.646"/>
		
			<path fill="none" stroke="#000000" stroke-width="0.75" stroke-linecap="round" stroke-linejoin="round" stroke-miterlimit="10" d="
			M470.648,269.838c1.685,3.332-1.141,7.566,2.116,10.583"/>
		
			<path fill="none" stroke="#000000" stroke-width="0.75" stroke-linecap="round" stroke-linejoin="round" stroke-miterlimit="10" d="
			M465.357,176.704c-0.967-5.349-2.379-5.853-7.409-2.646"/>
		
			<path fill="none" stroke="#000000" stroke-width="0.75" stroke-linecap="round" stroke-linejoin="round" stroke-miterlimit="10" d="
			M470.648,153.42c1.857,3.008-1.723,6.62,1.059,9.525"/>
		
			<path fill="none" stroke="#000000" stroke-width="0.75" stroke-linecap="round" stroke-linejoin="round" stroke-miterlimit="10" d="
			M258.98,153.42c-0.207-1.903-1.338-2.743-3.174-2.636c-2.794,0.164-5.359-0.732-7.938-1.598"/>
		
			<path fill="none" stroke="#000000" stroke-width="0.75" stroke-linecap="round" stroke-linejoin="round" stroke-miterlimit="10" d="
			M264.272,300.529c-0.208-1.902-1.338-2.743-3.175-2.635c-2.794,0.164-5.359-0.732-7.938-1.598"/>
		
			<path fill="none" stroke="#000000" stroke-width="0.75" stroke-linecap="round" stroke-linejoin="round" stroke-miterlimit="10" d="
			M263.214,447.64c-0.207-1.903-1.338-2.742-3.174-2.636c-2.794,0.163-5.359-0.732-7.938-1.598"/>
		
			<path fill="none" stroke="#000000" stroke-width="0.75" stroke-linecap="round" stroke-linejoin="round" stroke-miterlimit="10" d="
			M638.396,196.812c-2.032,0.189-4.375-0.753-5.82,1.587"/>
		
			<path fill="none" stroke="#000000" stroke-width="0.75" stroke-linecap="round" stroke-linejoin="round" stroke-miterlimit="10" d="
			M435.194,270.896c-1.389,2.661,0.592,5.954-1.587,8.467"/>
		
			<path fill="none" stroke="#000000" stroke-width="0.75" stroke-linecap="round" stroke-linejoin="round" stroke-miterlimit="10" d="
			M258.452,402.131c-1.059,0.354-2.134,1.057-3.173,1.006c-16.345-0.793-27.922,9.021-39.595,18.165
			c-5.35,4.19-7.429,10.561-5.254,17.298c1.048,3.248,0.881,5.927-0.067,9.061c-4.28,14.146,3.654,30.48,17.387,36.515
			c7.166,3.149,12.979,8.767,20.616,11.188c3.28,1.042,6.391,1.429,9.543,0.394c8.109-2.663,16.387-5.119,24.203-8.272
			c7.781-3.143,14.23-9.241,16.104-18.661c1.79-8.997,3.014-17.854,1.101-27.027c-0.74-3.551-0.144-7.384-0.115-11.088
			c0.036-4.569-1.048-8.942-4.297-12.112c-9.968-9.728-21.062-17.288-35.926-16.463"/>
		
			<path fill="none" stroke="#000000" stroke-width="0.75" stroke-linecap="round" stroke-linejoin="round" stroke-miterlimit="10" d="
			M638.925,256.609c-1.059,0.882-2.215,1.67-3.156,2.664c-2.385,2.519-4.671,5.346-2.604,8.943
			c2.765,4.812,8.092,2.405,12.156,3.579c3.155,0.912,5.094-1.71,6.327-4.591c1.958-4.568,0.347-8.843-4.276-9.984
			c-2.535-0.625-5.272-0.433-7.918-0.609"/>
		
			<path fill="none" stroke="#000000" stroke-width="0.75" stroke-linecap="round" stroke-linejoin="round" stroke-miterlimit="10" d="
			M448.953,255.55c-2.611,0.917-3.489,3.572-5.23,5.352c-2.334,2.387-1.144,5.127,0.521,7.308
			c2.074,2.716,13.095,2.856,15.843,0.596c2.806-2.309,4.036-5.062,2.581-8.474c-1.333-3.126-3.778-4.904-7.365-4.792
			c-1.938,0.061-3.88,0.011-5.82,0.011"/>
		
			<path fill="none" stroke="#000000" stroke-width="0.75" stroke-linecap="round" stroke-linejoin="round" stroke-miterlimit="10" d="
			M259.51,255.021c-1.058,0.353-2.134,1.056-3.172,1.005c-16.345-0.792-27.922,9.022-39.595,18.166
			c-5.35,4.19-7.429,10.559-5.254,17.298c1.048,3.247,0.881,5.924-0.067,9.059c-4.279,14.147,3.654,30.481,17.387,36.516
			c7.166,3.147,12.979,8.765,20.617,11.188c3.28,1.041,6.39,1.428,9.543,0.394c8.108-2.662,16.387-5.119,24.203-8.274
			c7.782-3.141,14.231-9.239,16.104-18.66c1.79-8.997,3.015-17.854,1.102-27.028c-0.741-3.55-0.145-7.383-0.115-11.087
			c0.036-4.569-1.049-8.942-4.297-12.112c-9.969-9.728-21.062-17.289-35.926-16.463"/>
		
			<path fill="none" stroke="#000000" stroke-width="0.75" stroke-linecap="round" stroke-linejoin="round" stroke-miterlimit="10" d="
			M448.953,139.133c-3.009,2.58-6.687,4.702-6.362,9.526c0.079,1.172,0.045,2.273,1.056,3.191
			c3.344,3.039,14.578,2.743,17.472-0.552c1.893-2.155,2.211-5.025,1.436-7.35c-0.935-2.807-3.514-4.607-6.723-4.792
			c-2.109-0.122-4.231-0.023-6.348-0.023"/>
		
			<path fill="none" stroke="#000000" stroke-width="0.75" stroke-linecap="round" stroke-linejoin="round" stroke-miterlimit="10" d="
			M254.218,107.912c-1.059,0.353-2.134,1.056-3.172,1.005c-16.345-0.792-27.922,9.022-39.596,18.166
			c-5.35,4.19-7.429,10.559-5.254,17.298c1.048,3.247,0.881,5.924-0.067,9.059c-4.279,14.147,3.654,30.481,17.387,36.515
			c7.166,3.148,12.979,8.764,20.616,11.188c3.28,1.042,6.391,1.428,9.544,0.393c8.108-2.662,16.387-5.119,24.203-8.274
			c7.781-3.141,14.231-9.24,16.104-18.66c1.79-8.998,3.014-17.854,1.101-27.029c-0.74-3.549-0.144-7.383-0.115-11.087
			c0.037-4.569-1.048-8.942-4.297-12.112c-9.968-9.728-21.062-17.289-35.926-16.463"/>
	</g>
	
		<path fill="none" stroke="#000000" stroke-width="0.75" stroke-linecap="round" stroke-linejoin="round" stroke-miterlimit="10" d="
		M419.203,388.367c7.166,3.291,13.523,7.512,18.081,14.227c1.411,2.08,1.671,4.273,1.944,6.422
		c1.038,8.148,0.895,16.355,3.519,24.418c1.373,4.219-1.773,8.912-3.576,13.082c-1.205,2.787-3.74,4.999-5.681,7.47"/>
	
		<path fill="none" stroke="#000000" stroke-width="0.75" stroke-linecap="round" stroke-linejoin="round" stroke-miterlimit="10" d="
		M472.119,387.309c3.675-9.551-1.226-14.715-8.045-17.748c-7.759-3.45-18.781-1.778-24.777,5.566
		c-5.1,6.248-4.016,12.087,3.189,16.415c8.345,5.014,18.011,4.399,25.407-1.577c1.18-0.952,2.462-1.772,3.697-2.656"/>
	
		<path fill="none" stroke="#000000" stroke-width="0.75" stroke-linecap="round" stroke-linejoin="round" stroke-miterlimit="10" d="
		M484.819,391.542c-7.289,4.285-12.237,10.048-12.181,19.05c0.045,6.88,0.094,13.761-0.035,20.637
		c-0.046,2.378,0.768,3.772,2.608,5.388c5.284,4.632,7.683,11.186,10.825,17.287c1.45,2.815,1.03,6.542,4.073,8.549"/>
	
		<path fill="none" stroke="#000000" stroke-width="0.75" stroke-linecap="round" stroke-linejoin="round" stroke-miterlimit="10" d="
		M473.707,446.576c-0.662,3.326-1.247,6.649-0.534,10.055c0.961,4.586-1.915,7.131-5.319,8.934
		c-5.443,2.88-11.135,3.191-16.91,0.614c-4.43-1.976-6.931-4.885-6.415-10.085c0.257-2.603-0.179-5.296-0.489-7.926
		c-0.202-1.705-1.112-2.932-3.14-2.65"/>
	
		<path fill="none" stroke="#000000" stroke-width="0.75" stroke-linecap="round" stroke-linejoin="round" stroke-miterlimit="10" d="
		M444.074,431.759c1.454-2.693,4.035-2.005,6.439-2.12c1.55,2.759,1.28,4.915-1.021,7.525c-2.145,2.432-4.198,4.965-6.479,7.295"/>
	
		<path fill="none" stroke="#000000" stroke-width="0.75" stroke-linecap="round" stroke-linejoin="round" stroke-miterlimit="10" d="
		M485.349,454.514c-3.118-0.576-5.775-1.838-7.422-4.756c-0.962-1.705-2.331-2.829-3.948-4.064c-2.472-1.888-5.024-5.922-1.329-9.7"
		/>
	
		<path fill="none" stroke="#000000" stroke-width="0.75" stroke-linecap="round" stroke-linejoin="round" stroke-miterlimit="10" d="
		M467.357,411.121c-1.009-5.578-2.162-5.989-7.409-2.646"/>
	
		<path fill="none" stroke="#000000" stroke-width="0.75" stroke-linecap="round" stroke-linejoin="round" stroke-miterlimit="10" d="
		M472.648,387.838c1.685,3.332-1.141,7.566,2.116,10.584"/>
	
		<path fill="none" stroke="#000000" stroke-width="0.75" stroke-linecap="round" stroke-linejoin="round" stroke-miterlimit="10" d="
		M437.194,388.896c-1.389,2.66,0.592,5.952-1.587,8.467"/>
	
		<path fill="none" stroke="#000000" stroke-width="0.75" stroke-linecap="round" stroke-linejoin="round" stroke-miterlimit="10" d="
		M450.953,373.551c-2.611,0.916-3.49,3.571-5.23,5.353c-2.334,2.387-1.144,5.127,0.521,7.308c2.074,2.716,13.095,2.856,15.843,0.596
		c2.806-2.309,4.036-5.062,2.581-8.474c-1.333-3.127-3.778-4.904-7.365-4.793c-1.938,0.061-3.88,0.012-5.819,0.012"/>
</g>
</svg>
