<svg width="250" height="450" xmlns="http://www.w3.org/2000/svg">
 <g>
  <title>Layer 1</title>
  <g id="svg_3">
   <path stroke="#000000" id="svg_1" d="m161.052002,34.185799c0,0 -1.279007,-2.084 2.55899,-5.209999c3.412003,-2.747 7.463013,-6.2519 11.195007,-7.7675c3.625,-1.610399 4.050995,-1.894499 4.050995,-1.894499c-1.598999,1.989199 -4.584991,5.967699 -6.929993,7.578098c-2.772003,1.4209 -6.397003,3.410101 -6.824005,3.789001c-0.959,0.9473 -2.877991,3.789101 -4.050995,3.504898z" stroke-miterlimit="10" stroke-width="0.5" fill="none"/>
   <path stroke="#000000" id="svg_2" d="m137.276993,41.290298c0,0 -5.117996,-9.662098 -7.25,-15.819298c-1.279999,-4.4522 -1.812988,-8.714901 0.639008,-8.809601c1.173004,0.4736 3.199005,2.4629 3.304993,5.9678c0.533005,3.883801 1.813004,8.241199 2.879013,10.798801c0.212997,3.0312 2.026001,7.1992 0.426987,7.862297z" stroke-miterlimit="10" stroke-width="0.5" fill="none"/>
   <path stroke="#000000" id="svg_4" d="m129.173996,142.742004c0,0 7.25,-4.167999 16.419006,-2.368011c6.397003,1.705002 12.580002,5.968002 14.819,18.56601c0.319992,2.557999 0.319992,4.737 0.639999,5.209991c0.533005,0.853012 2.132004,4.074005 -2.026001,2.463013c-4.158005,-2.463013 -14.285995,-7.009003 -17.057999,-11.746002c-2.453003,-4.262009 -6.397003,-10.514008 -9.701996,-10.893005c-1.493011,0.473007 -2.346008,1.610001 -3.519012,1.326004c0.10701,-1.988998 0.427002,-2.557999 0.427002,-2.557999z" stroke-miterlimit="10" stroke-width="0.5" fill="none"/>
   <path stroke="#000000" id="svg_5" d="m122.137001,222.123001c0,0 -4.158005,-3.221008 -5.543999,-3.126007c-3.625,-0.378998 -13.647003,-0.189987 -22.176399,6.631012c-3.305099,2.935989 -4.904404,5.209991 -7.249901,10.513992c-1.8125,3.789001 -4.904404,11.367996 -5.4375,12.220001c1.385994,0.283997 13.433701,1.326004 21.536797,-6.440994c4.051003,-3.505005 9.382004,-9.378006 10.235001,-11.083008c2.026001,-2.084 4.798004,-4.451996 9.488998,-4.167999c-1.172997,-0.757996 -1.386002,-1.770004 -0.852997,-4.546997z" stroke-miterlimit="10" stroke-width="0.5" fill="none"/>
   <path stroke="#000000" id="svg_6" d="m53.155899,288.242004c0,0 -2.0257,-1.041992 5.117599,-9.28299c5.863998,-6.442017 13.113899,-13.641022 18.124901,-15.914001c5.117599,-2.747009 10.128601,-6.063019 21.003502,-2.368011c3.518097,1.799011 5.680099,3.118011 9.062096,6.062012c1.849007,2.367981 6.681,4.306 7.108002,4.968994c2.345001,1.041992 13.575996,8.197998 16.560997,9.144989c-2.877991,-2.368011 -12.499992,-9.790985 -15.778999,-11.083008c-3.340996,-1.42099 -6.289993,-3.789001 -5.437996,-12.97699c1.067001,-5.210007 2.133003,-8.240997 2.133003,-8.240997c2.344994,1.798996 12.260994,9.756012 14.072998,12.787994c1.581993,2.084015 0.532997,3.694 1.385994,6.157013c0.639999,2.178986 2.238998,4.546997 3.199005,5.11499c0.212997,-1.609985 0.746002,-3.884003 0.746002,-3.884003c0.852997,1.136993 3.944992,3.221008 3.944992,3.221008c0.533005,1.041992 2.452011,5.68399 2.238998,6.820007c-0.319992,1.799988 -0.639999,4.451996 -0.639999,4.451996c1.598999,-1.705017 4.904007,-4.451996 6.397003,-10.230011c0.533005,-3.221008 0.320007,-9.756989 2.666,-12.692993c2.132004,-2.747009 3.944,-5.589005 9.061996,-6.820999c2.772003,-0.568008 7.143005,-1.705002 8.636002,4.07399c0.284012,1.972992 -0.319992,4.640991 -5.330994,9.851013c-3.518005,2.746979 -10.981003,8.714996 -11.087997,9.093994c-1.706009,1.799988 -2.452011,2.557007 -2.452011,2.557007c3.518005,-2.178009 14.073013,-7.199005 15.56601,-7.671997c1.598999,-1.800018 11.078003,-10.887024 23.339005,-12.308014c5.410995,-0.449005 18.240997,2.550995 21.972992,4.256012c-2.026001,0.946991 -5.330994,2.557983 -5.863998,4.072998c-0.639999,1.704987 -2.346008,5.11499 -4.585007,5.020996c2.133011,1.230988 9.809006,5.587982 12.901001,9.377991c2.346008,2.368011 10.235001,7.483002 15.033005,8.524994c-0.852997,1.137024 -15.992996,6.252014 -23.669006,4.072998s-11.834,-6.440979 -19.084,-11.461975c-4.264999,-2.557007 -10.875,-6.631012 -20.791,-5.115021c-5.543991,1.137024 -15.245987,3.884003 -19.616989,6.915009c-0.853012,0.946991 -0.853012,0.946991 -0.853012,0.946991c2.346008,-0.093994 20.470001,-1.514984 23.989014,2.463013c2.985001,3.505005 6.18399,7.389008 6.18399,7.389008c-1.813004,1.325989 -10.768997,7.957001 -20.151001,-0.095001c-3.625,-3.694 -6.610001,-7.294006 -9.80899,-7.01001c1.492996,1.704987 8.848999,10.515015 13.753998,12.882996c5.543991,1.326019 20.043991,3.126007 23.455994,13.261993c2.025009,5.778015 2.345001,12.408997 2.345001,12.408997c-3.304993,1.231018 -13.647003,7.673004 -27.932999,-8.335999c-3.306,-5.682983 -3.839005,-6.156982 -6.610992,-18.186981c-1.919006,-3.31601 -3.731003,-6.631012 -6.823013,-8.809998c-3.304993,-0.188995 -4.584991,-0.283997 -5.010986,-0.095001c-2.559006,0.285004 -9.382004,0.757996 -12.154007,4.546997c-3.198997,3.695007 -8.209999,9.093994 -18.872002,13.924988c-5.543701,2.084015 -10.767899,4.546997 -19.084,-4.072998c-2.025696,-2.746979 -2.985298,-8.619995 0.319801,-11.841003c3.518402,-3.410004 9.702103,-10.319 15.885902,-10.135986c4.158295,0.190002 20.790298,2.747009 32.7313,4.830994c-1.598999,-1.799988 -10.555,-12.503998 -29.533005,-12.787994c-3.624695,0.283997 -8.315895,0.852997 -13.966599,4.167999c-6.503601,3.600006 -14.606499,9.756989 -24.628403,7.01001c-2.771996,0 -6.396996,-0.284027 -9.169098,1.041992l0,0z" stroke-miterlimit="10" stroke-width="0.5" fill="none"/>
   <path stroke="#000000" id="svg_7" d="m124.695999,145.395004c0,2.46199 -0.427002,13.166992 -0.32,13.735001c0,3.315002 -1.386002,18.093002 -1.172997,20.177002c-0.213005,3.598999 -0.639999,19.796997 -0.639999,22.543991c0,2.369003 0.213997,12.503998 0.213997,12.503998" stroke-miterlimit="10" stroke-width="0.5" fill="none"/>
   <path stroke="#000000" id="svg_8" d="m126.934998,214.354996c0,-5.019989 0,-22.828995 0,-24.912994c-0.106995,-5.020004 0.639008,-23.964996 0.959,-27.565002c0.639999,-6.819992 0.852997,-16.576996 0.852997,-16.576996" stroke-miterlimit="10" stroke-width="0.5" fill="none"/>
   <path stroke="#000000" id="svg_9" d="m126.934998,214.354996c0,0 0.212997,5.400009 0,5.873001c-0.319992,1.516006 -0.214005,6.630997 -0.214005,6.630997" stroke-miterlimit="10" stroke-width="0.5" fill="none"/>
   <path stroke="#000000" id="svg_10" d="m123.096001,219.376007c0,0 -0.532997,-3.694 -0.319,-5.021011" stroke-miterlimit="10" stroke-width="0.5" fill="none"/>
   <path stroke="#000000" id="svg_11" d="m121.603996,222.597" stroke-miterlimit="10" stroke-width="0.5" fill="none"/>
   <path stroke="#000000" id="svg_12" d="m121.709999,226.479996" stroke-miterlimit="10" stroke-width="0.5" fill="none"/>
   <path stroke="#000000" id="svg_13" d="m126.268997,345.019989c1.945999,-4.667999 -0.093994,-9.229004 -1.732994,-12.892975c-0.213005,-0.476013 -0.420006,-0.94101 -0.609001,-1.381012c-2.446999,-6.339996 3.987,-12.442017 4.039001,-12.494995" stroke-miterlimit="10" stroke-width="0.5" fill="none"/>
   <path stroke="#000000" id="svg_14" d="m145.645996,272.510986c0.055008,-0.087982 5.569,-8.905975 10.164001,-12.987976" stroke-miterlimit="10" stroke-width="0.5" fill="none"/>
   <path stroke="#000000" id="svg_15" d="m157.399994,293.223999c-1.780991,-4.154999 -9.625992,-4.765991 -9.959991,-4.790009" stroke-miterlimit="10" stroke-width="0.5" fill="none"/>
   <path stroke="#000000" id="svg_16" d="m109.537003,290.532013c-5.535004,1.510986 -16.894501,7.914978 -17.375603,8.188995" stroke-miterlimit="10" stroke-width="0.5" fill="none"/>
   <path stroke="#000000" id="svg_17" d="m119.745003,290.709015c-7.605003,-0.963013 -20.306,11.15799 -20.844002,11.673981" stroke-miterlimit="10" stroke-width="0.5" fill="none"/>
   <path stroke="#000000" id="svg_18" d="m102.676003,270.623993c-20.203003,-2.074982 -33.876404,7.753021 -34.012001,7.852997" stroke-miterlimit="10" stroke-width="0.5" fill="none"/>
   <path stroke="#000000" id="svg_19" d="m122.960999,270.346985c-2.883995,-2.379974 -6.471001,-10.02298 -6.506996,-10.098999" stroke-miterlimit="10" stroke-width="0.5" fill="none"/>
   <path stroke="#000000" id="svg_20" d="m132.723007,275.121002c0.007996,0.018005 0.835999,1.869995 1.038986,3.134003" stroke-miterlimit="10" stroke-width="0.5" fill="none"/>
   <path stroke="#000000" id="svg_21" d="m162.294998,319.347992c-3.404999,-6.804993 -11.944,-14.436981 -12.029999,-14.510986" stroke-miterlimit="10" stroke-width="0.5" fill="none"/>
   <path stroke="#000000" id="svg_22" d="m128.354004,279.803986m1.195999,-7.71698l-0.05101,-0.007996c-0.001999,0.014984 -0.002991,0.024994 -0.005997,0.039001m-3.126999,-26.940018c0.505997,1.309006 3.306,9.748001 5.291,13.274002c2.244995,4.988007 2.291,6.791016 2.372009,10.063995c0.019989,0.830017 0.042999,1.748016 0.103989,2.82901m2.372009,10.928009c0.084991,-0.481018 0.166992,-1.065002 0.231995,-1.749023l0.001999,0c0.007004,-0.04599 0.009003,-0.087982 0.014999,-0.132996c0.041,-0.22998 0.199997,-0.783997 0.356003,-1.324982c0.470001,-1.628021 1.257996,-4.356995 1.550995,-7.08902c0.210007,-2.608002 0.009003,-7.832977 -1.099991,-10.783997c-1.167007,-2.419006 -7.093002,-15.362 -7.761002,-16.884995m39.041,51.573013m-25.283005,28.513c-0.791,-0.549011 -4.738998,-3.459015 -4.740005,-7.10202c-0.125992,-3.363007 -1.220993,-7.34198 -3.253998,-11.826996c-0.347,-0.769989 -1.255997,-1.360992 -1.011002,-0.792999c0.906006,-2.027008 1.395004,-5.674988 1.376999,-7.057007c-0.034988,-0.463989 -0.069992,-0.92099 -0.097992,-1.306c0.104004,-1.015991 0.307999,-1.783997 0.522995,-2.599976c0.167999,-0.63501 0.341003,-1.286011 0.460007,-2.058014m-11.368004,116.167999c-0.225998,-2.001007 0.461998,-3.598999 1.728996,-5.667999c0.605011,-2.255005 -0.26799,-6.929016 -1.291992,-10.569c-1.533005,-5.641998 5.367004,-11.666992 5.660995,-11.920013l0.229996,0.210999c0.182999,-2.062988 0.630005,-4.154999 1.368011,-6.120972c0.322998,-1.452026 0.283997,-3.667999 0.241989,-6.016022c-0.062988,-3.537994 -0.126999,-7.196991 1.065002,-9.199982c0.21701,-0.546997 0.470001,-1.136017 0.723999,-1.727997c1.751007,-4.088013 3.563004,-8.313019 2.639999,-17.004028c-3.645996,-7.79599 -2.776001,-5.398987 -4.052002,-7.233978s-3.130997,-0.942993 -5.014999,-9.154022s0.036011,-11.366974 0,-15.40799s2.167999,-13.640991 2.879013,-16.450989m17.056992,129.440979c-2.065002,-1.070984 -2.235992,-3.652985 -2.360001,-5.539978c-0.039001,-0.57901 -0.071991,-1.087006 -0.155991,-1.414001c-2.650009,-2.417999 -2.154007,-5.063019 -1.528,-8.402008c-0.005005,-3.049988 -2.667007,-4.937988 -3.776001,-5.59201c0.207001,1.335022 0.357986,2.576019 0.357986,3.381012c-0.720993,3.243988 -2.36499,10.605011 1.084,20.940002c0.609009,1.063995 1.239014,2.162994 1.862015,3.338013l0.034988,0.107971c1.477997,9.188019 2.133011,16.803009 2.137009,16.850006l-0.354004,-3.542999c-0.003998,-0.046997 -1.152008,-4.020996 -2.619003,-13.143982c-0.531998,-1.003021 -1.069,-1.947998 -1.595001,-2.869019l-0.103989,0.029022c-0.058014,-0.16803 -0.104004,-0.326019 -0.158005,-0.490021c-2.749008,-4.800995 -5.117996,-8.958008 -4.766006,-16.311981l0.02301,-0.425018c0.414993,-9.022003 0.541,-11.743988 -4.241013,-20.427002c-0.692001,-2.039001 -0.845993,-5.589996 -0.705994,-8.050995m19.214005,-0.860992c0.789001,-7.015015 -1.215012,-9.209991 -2.825012,-10.972992l-0.28299,-0.308014c-2.024002,-2.197998 -2.013,-4.744995 -1.798004,-10.290985c-0.000992,-5.60202 -3.533005,-7.934021 -4.699997,-8.550018c-0.108002,2.511993 -0.350998,4.804993 -0.862,6.394989l-0.167999,0.354004c-2.001999,4.085999 -3.210999,6.552002 -2.802002,11.640015c0.156006,3.730011 -0.796005,8.013 -1.425995,10.846008c-0.244003,1.096985 -0.436005,1.963989 -0.494003,2.478973c-0.410995,2.373016 0.82399,6.252014 1.856003,7.720001c0.890991,1.580017 1.462997,3.690002 1.87999,5.229004c0.197998,0.727997 0.368011,1.356995 0.5,1.652008l0.025009,0.078003l0.106995,0.572998c0.199005,1.057007 0.458008,2.432007 0.684006,3.789001l0.136002,0.843994m-6.310013,-95.378998c-0.871994,4.442017 -0.643997,4.476013 -0.791,8.769012s-0.707001,6.817993 0,9.09198s1.988007,3.860016 3.01001,5.132996c2.264999,2.779022 4.403992,5.405029 4.662994,9.434021c0.001007,0.932007 0.016006,1.975006 0.031998,3.092987c0.031998,2.345001 0.036011,5.804016 -0.039993,8.257996m-81.640301,-71.765991m130.527294,-10.985992c-7.298996,-0.764008 -14.769989,2.630005 -15.043991,2.755981l1.931,-0.017975c-4.88501,-0.049011 -11.059006,0.647003 -16.966003,2.509003m33.720001,1.167999c-4.475998,-1.934021 -10.104004,-3.505005 -16.753998,-3.678009m-49.09201,-19.758011m2.522003,40.031021c0.522003,-0.174011 2.556,-0.130005 3.070007,-0.788025c0.766998,-0.97998 0.914001,-2.338989 0.435989,-4.036987l-0.043991,-0.096008c-0.326004,-0.507996 -0.695999,-0.983002 -1.087997,-1.487c-1.513,-1.941986 -3.662003,-4.97998 -3.12001,-9.790009m0.746002,16.198029m5.259003,-4.951019l0.082001,0.037994c-0.462006,2.209015 -0.322006,3.822998 -0.313995,3.902008" stroke-miterlimit="10" stroke-width="0.5" fill="none"/>
   <path stroke="#000000" id="svg_23" d="m165.796005,273.682007l36.264999,11.243988c-21.065002,-16.446991 -36.115005,-11.298004 -36.264999,-11.243988z" stroke-miterlimit="10" stroke-width="0.5" fill="none"/>
   <path stroke="#000000" id="svg_24" d="m120.150002,223.072998c-11.888,-0.955994 -20.318001,12.869003 -20.672005,13.460007" stroke-miterlimit="10" stroke-width="0.5" fill="none"/>
   <path stroke="#000000" id="svg_25" d="m149.919998,152.992996c-5.587006,-9.927994 -13.244003,-10.603989 -13.567001,-10.626999" stroke-miterlimit="10" stroke-width="0.5" fill="none"/>
   <path stroke="#000000" id="svg_26" d="m136.542999,87.328003m1.240005,-15.503304m-6.598007,26.352203m-2.341003,11.100098m-37.805893,120.448006m-7.620102,15.952988m-1.080597,2.447006m31.036598,-17.701996m16.426003,13.884003c-0.744003,-1.720001 -3.641006,-9.447006 -3.07901,-17.448013m-4.148994,20.070007m0.077003,-19.951004c-0.452003,7.953003 2.909996,16.318008 3.716995,18.199997m-13.853996,-12.389999m-30.821999,16.048004m-0.357399,-0.518997m1.292198,-2.919006m7.723297,-16.118988m32.228905,-10.583008c1.685997,1.453995 -10.935005,-8.766006 -18.300003,-29.625992c-0.278,-0.785004 -0.549004,-1.553009 -0.814003,-2.289001c-5.064995,-16.098007 -4.218994,-33.363998 -4.057999,-35.923004c9.603004,-0.667999 12.57,5.050003 15.186005,10.095001c0.292,0.563004 0.579994,1.119003 0.870995,1.654999l0.689003,1.268005l0.120003,-1.404007c0.456993,-5.324005 -0.928001,-9.319 -4.114006,-11.875c-4.620995,-3.707001 -11.5,-3.209 -13.389,-2.990005l-0.18,-3.987991c0.126999,0.014999 0.257004,0.024002 0.389,0.024002c0.475006,0 0.982002,-0.098999 1.500999,-0.299011c1.524002,-0.58699 2.778,-1.888 2.983002,-3.090988c0.122002,-0.719009 -0.144997,-1.493011 -0.68,-1.972c-0.420998,-0.376999 -0.976997,-0.546005 -1.567001,-0.46701c-0.350998,0.046005 -0.655998,0.203003 -0.931,0.41301c0.147003,-0.271011 0.259003,-0.544998 0.294006,-0.807999c0.107994,-0.782013 -0.343002,-1.383011 -1.239006,-1.649002c-0.239998,-0.070999 -0.464996,-0.113998 -0.681,-0.141998c0.042999,-0.285004 0.098,-0.584 0.153,-0.879013c0.122002,-0.653992 0.235001,-1.274994 0.222,-1.753998c0.473,-0.190002 0.825005,-0.438995 1.037003,-0.750992c0.348999,-0.513 0.322998,-1.147003 -0.077003,-1.884003c-0.609993,-1.125 -1.725998,-1.270996 -2.559395,-0.917007c-0.028198,0.013 -0.053802,0.030014 -0.0811,0.042999c-0.261002,-0.502991 -0.707001,-0.843994 -1.281898,-0.942993c-1.373199,-0.237 -1.750206,0.460999 -1.848305,0.772995c-0.309601,0.988007 0.654205,2.677002 1.745102,3.125c-0.001701,0.358002 -0.110001,0.800003 -0.233704,1.268005c-0.196198,0.740997 -0.411095,1.563995 -0.243095,2.320999c-0.216698,-0.072998 -0.490402,-0.117996 -0.863998,-0.123001c-1.009903,-0.015991 -1.720406,0.376007 -2.082901,1.096008c-0.280602,0.556992 -0.291702,1.244995 -0.078499,1.873993c-0.097206,0.044006 -0.193604,0.080994 -0.293404,0.138c-1.271698,0.723007 -1.604301,1.733994 -0.913498,2.772995c0.326698,0.491013 0.682396,0.736008 1.0662,0.859009c-0.077599,0.125992 -0.133102,0.257996 -0.137299,0.403c-0.008507,0.298004 0.102295,0.557999 0.320694,0.751999c0.514305,0.457001 1.484901,0.438995 2.261101,0.421997c0.053703,0 0.111702,-0.000992 0.169701,-0.003006l-0.1492,2.254013c-2.777199,-2.144012 -5.480995,-2.998001 -8.050896,-2.539001c-4.478699,0.800995 -7.206406,5.419998 -8.171906,7.367996l0.691704,0.421005c7.663597,-6.807999 11.643402,-4.687012 14.276398,-3.283005c0.151001,0.080994 0.296799,0.158997 0.4384,0.231995c-1.101997,0.814011 -3.785301,2.932007 -5.968796,5.768997c-2.382301,2.695007 -3.087601,5.849014 -2.436005,10.844009c0,4.608002 2.552002,6.500992 4.471901,7.524002l0.645699,0.343994l0,-0.669006c0,-0.031998 0.007706,-3.194992 0.594505,-5.134995c0.878494,-1.561005 1.318596,-2.343994 1.537796,-6.041992c0,-3.137009 1.243599,-6.243011 2.409599,-8.472c0.092102,2.031998 0.284904,6.427994 0.576599,13.802994c1.001305,12.634995 4.850502,22.533997 7.397499,29.085007l0.505005,1.297989c3.305,11.06601 9.313995,18.029999 13.639999,21.859009m19.965996,-177.591705c-0.007004,1.221603 -0.052994,2.8577 -0.098999,4.151302c-0.022995,0.622101 -0.046997,1.253399 -0.065002,1.895199c-0.108994,3.692101 0.451004,7.425102 0.994003,11.036102c0.363998,2.416599 0.738998,4.915897 0.906006,7.3666c-0.994003,2.497795 -1.727997,4.400597 -2.112,5.405495c-1.278,3.786804 -4.001007,14.827301 -6.235001,24.710701c-0.981003,-2.430298 -2.326004,-4.686295 -3.740005,-7.0438c-0.442001,-0.736595 -0.886002,-1.477798 -1.32,-2.227997c-0.762001,-1.315598 -1.641998,-2.780403 -2.651001,-4.138397c-0.025002,-0.047005 -0.049995,-0.094704 -0.074997,-0.141701c-1.089005,-2.027901 -2.117004,-3.944405 -2.633003,-6.194405c-0.993996,-4.3339 -3.954994,-8.078995 -6.819,-11.699799c-0.935997,-1.184498 -1.903999,-2.4091 -2.764999,-3.611801c-0.075996,-0.106796 -7.814995,-10.678997 -11.784996,-10.758598c-0.351006,-0.002998 -0.673004,0.076599 -0.959305,0.222801l0,0c-0.1996,0.1614 -0.468201,0.2243 -0.555199,0.438c-0.0205,0.023499 -0.045296,0.040199 -0.064896,0.065201l0.033295,0.020397c-0.040901,0.125801 -0.070801,0.256203 -0.075096,0.3979c-0.052002,1.686901 2.729202,4.193703 4.760201,6.024601c0.629997,0.5676 1.172997,1.057899 1.459,1.373901c2.889,3.1889 5.334999,6.471001 7.346001,9.260498c2.421997,3.362404 4.567001,6.670204 6.525002,9.744698c0.621994,0.979004 1.517998,1.786102 2.382996,2.567406c0.604004,0.545601 1.229004,1.109497 1.740997,1.717201c0.256004,0.304695 0.499001,0.628197 0.741005,0.951797c0.355995,0.663902 0.977997,1.233002 1.322998,1.930199l0,0c0.468002,0.741104 0.908997,1.480698 1.312004,2.176399c0.435997,0.753998 0.881996,1.498199 1.325989,2.237801c1.639008,2.7342 3.185013,5.328903 4.153,8.195702c-0.966995,4.327301 -1.818985,8.3423 -2.385986,11.305298c-0.473999,1.609001 -0.82901,3.378998 -1.237,6.362c-0.649002,-1.606995 -2.51001,-2.544998 -4.005005,-3.876999c-0.709,-0.630997 -1.379005,-1.226997 -1.822998,-1.729996c-3.591003,-4.077003 -6.549004,-6.144005 -8.820007,-6.165001c-0.073997,-2.126999 -8.946999,-5.509506 -9.036995,-5.543602c-2.477005,-0.927597 -4.997002,-1.358803 -7.930199,-1.358803c-2.301201,0 -4.6007,0.261398 -7.035004,0.5373l-1.444,0.162201c-0.429001,0.047005 -1.218002,0.052299 -2.1315,0.059097c-3.117401,0.022003 -7.829895,0.056107 -9.520401,1.622505c-0.452896,0.4198 -0.672096,0.922997 -0.649895,1.4953c0.053696,1.471001 2.238899,2.155998 6.872894,2.155998c3.468002,0 7.514305,-0.381996 10.468002,-0.662003c1.451698,-0.137001 2.598099,-0.244995 3.138802,-0.253998c0.305397,-0.003998 0.6082,-0.006996 0.909302,-0.006996c2.830994,0 4.879997,0.258995 6.852997,0.866997c0.557999,0.171997 1.229004,0.445 1.941002,0.734001c1.673996,0.681 3.571999,1.452995 5.223999,1.452995c0.354996,0 0.689003,-0.036995 0.993996,-0.108994c0.480003,-0.113007 0.819,-0.281006 1.045006,-0.491005l0.014,0.106003c1.365997,-0.136002 3.947998,0.771996 8.435997,5.863998c0.474998,0.540001 1.163002,1.151001 1.889999,1.799004c1.822998,1.622993 4.508995,3.675995 4.332008,5.409996l0,0c-2.628006,20.891998 -1.700005,22.507004 -1.764008,28.296005m12.522995,-104.051704l0.093002,-0.053001c0,0.072701 0,0.146202 0,0.219002m23.632004,-7.5849c-0.248993,0.776001 -2.701996,3.410099 -3.768997,4.471798c-0.762009,0.7593 -1.421005,1.4156 -1.751007,1.8339c-0.453995,0.575901 -0.960999,1.134399 -1.450989,1.674c-0.517014,0.569901 -1.05101,1.158703 -1.535004,1.777802c-0.10701,0.138 -0.210999,0.3009 -0.313004,0.4729c2.294006,-5.2304 5.044006,-11.286102 6.561005,-14.2097c0.024002,-0.071201 0.060989,-0.161402 0.095993,-0.247801l0.022003,0.017401c0.483002,-0.463001 0.942993,-0.939701 1.403992,-1.417101c0.94101,-0.973801 1.914001,-1.981699 3.091003,-2.856899c0.608002,-0.4524 1.281006,-0.9056 1.932007,-1.3444c0.923004,-0.621401 1.867996,-1.264 2.69899,-1.9415c1.963013,-0.960201 6.355011,-3.285101 6.48201,-4.9174c0.022003,-0.286501 -0.065002,-0.693399 -0.604004,-1.008699c-0.350006,-0.2038 -0.944,-0.3759 -1.781998,-0.040201c-2.046005,0.819201 -4.335999,4.2703 -4.498001,5.267601l0,0c-0.039001,0.0333 -0.082993,0.065899 -0.123001,0.0993c-0.304993,0.146999 -0.375992,0.1887 -0.578995,0.2743l-0.10701,0.262999c-0.639999,0.478102 -1.326996,0.944901 -2.002991,1.399601c-0.658005,0.444099 -1.341003,0.902599 -1.964005,1.3671c-1.095001,0.8139 -2.001999,1.7195 -2.865997,2.611401c1.403992,-2.5879 3.569,-6.1299 4.363998,-7.2696c1.766006,0.0613 3.682999,-2.081001 5.104996,-3.679201c0.285004,-0.320599 0.542999,-0.6101 0.763,-0.837399l0.081009,-0.0834l0.01799,-0.1091c0.184006,-1.1496 -1.253998,-2.0877 -2.149994,-2.5538l0.044998,-0.0265c0.014008,-0.0084 0.020996,-0.0212 0.035004,-0.0303l0.123993,0.0439c0.039001,-0.0871 0.089005,-0.1766 0.132004,-0.2645c0.298996,-0.3091 0.434998,-0.6873 0.490005,-0.9813c0.049988,-0.097799 0.099991,-0.194799 0.146988,-0.2925l2.507004,-1.73316l-0.522995,-0.59791l-0.794998,0.54941l-0.570999,0.169c-0.28801,0.08563 -0.49501,0.17126 -0.652008,0.24856l-0.063995,-0.08715l-0.097,-0.11973c0.007004,-0.015921 0.009003,-0.02729 0.024994,-0.04926l0.236008,-0.31525l-1.757996,-1.041989c-0.093002,-0.32283 -0.214005,-0.63959 -0.371002,-0.91695l-0.630005,-1.11929l-0.753006,5.35542c-0.464996,-0.072 -0.871994,0 -1.212997,0.2099c-0.641998,0.3956 -1.002991,1.2345 -1.136993,2.7138c-0.057007,-0.033401 -0.117996,-0.062901 -0.182007,-0.0879c-0.57399,-0.2228 -1.313995,-0.0425 -2.246994,0.5501c-0.757004,0.4479 -1.085007,1.0511 -1.253998,1.653599l0.005997,-0.035599l-0.022995,-0.0758c-0.006012,-0.019701 -0.583008,-1.939301 -0.029999,-3.6883c1.401993,-1.3716 1.276993,-2.4257 1.072998,-2.936501c-0.271011,-0.682039 -0.979004,-1.18977 -1.805008,-1.29283c-0.669998,-0.0864 -1.287994,0.12049 -1.662994,0.55017c-1.658005,1.152659 -2.596008,2.590159 -2.791,4.27406c-0.257996,2.242399 0.925003,4.4302 1.834,5.430499c0.084991,0.7752 0.537994,5.478901 -0.216003,10.908701c-1.056,1.764099 -2.134995,3.711 -3.212997,5.7661c0.018005,-0.574402 0.016998,-1.1632 0.007996,-1.739899l-0.005005,-0.5214c-0.002991,-1.123802 0.020004,-2.256701 0.049011,-3.391201c0.225998,-1.356501 0.445999,-2.7486 0.541,-4.1353c0.26799,-3.9149 0.265991,-7.6448 0.263992,-11.594601l0,-1.286l0.001007,-0.2084c0.011002,-2.0453 -0.109009,-4.50212 -1.137009,-5.35011c-0.283997,-0.2334 -0.627991,-0.34328 -0.998993,-0.31676l-0.369003,0.02652l-0.024002,0.32738c-0.242996,3.36467 0.10701,6.78167 0.447006,10.08647c0.141998,1.389799 0.289993,2.8274 0.388,4.226299c0.175995,2.494001 0.112,5.076601 0.050995,7.574301c-0.005005,0.195499 -0.009995,0.3911 -0.014999,0.5858c-0.022995,0.138699 -0.046997,0.277399 -0.069992,0.4153c-0.41301,2.461401 -0.84201,5.006098 -0.618011,7.637197l0.299011,-0.019699c-4.524002,8.947502 -8.927002,19.421902 -11.754013,26.444599c-0.194992,-1.917297 -0.481995,-3.838299 -0.763,-5.711597c-0.537994,-3.581501 -1.094986,-7.2841 -0.987,-10.915501c0.019012,-0.6404 0.042007,-1.2701 0.065002,-1.8908c0.17601,-4.853001 -0.274002,-3.952702 -0.274002,-5.2789m25.715012,-12.026499m5.854996,-4.643101m6.082993,-3.407801m3.643005,-1.808899m-0.858994,22.509201c-0.005005,-0.003803 -0.008011,-0.008301 -0.012009,-0.0121c-1.570999,-1.289803 -5.287003,0.231098 -8.716003,1.887699l-0.513992,0.2463c-6.557007,3.061501 -11.968002,7.459099 -17.028,13.839901c-4.091003,5.160698 -7.414001,10.720802 -10.393005,15.989799c2.251007,-7.770599 4.92601,-16.5839 7.052002,-20.888302c0.399002,-1.0117 1.117996,-2.5909 1.953995,-4.539299l0,0c0.786011,-0.4319 1.302002,-1.435299 1.800003,-2.4053c0.251999,-0.491001 0.490997,-0.955601 0.728012,-1.258701c0.464996,-0.596397 0.98999,-1.174599 1.496994,-1.733898c0.498993,-0.550098 1.014999,-1.1185 1.485992,-1.714901c0.302002,-0.381901 0.945007,-1.022999 1.690002,-1.7649c1.921997,-1.915001 3.632004,-3.919399 3.945007,-4.843201m-32.583008,108.683506c0.098999,-2.378006 0.775009,-10.428009 1.327011,-17.143005c1.021988,-2.317001 2.681,-4.491997 4.723999,-6.158997c0.503998,-0.411003 1.245987,-0.843002 2.03299,-1.300003c1.477005,-0.859001 3.125,-1.826996 3.783005,-3.020996c0.720993,0.094994 1.384995,0.149994 1.992996,0.149994c2.550003,0 4.503006,-0.833 6.333008,-2.700996c0.442001,-0.452003 0.862991,-0.901001 1.278,-1.342003c1.649994,-1.761002 3.207993,-3.422997 5.572998,-4.632996c3.388,-1.733002 6.972992,-3.216003 10.440994,-4.650002c1.884003,-0.778999 3.833008,-1.584999 5.734009,-2.424004c4.615997,-2.036995 6.807999,-3.837601 6.705002,-5.504799c-0.056,-0.900299 -0.69101,-1.416298 -1.742004,-1.416298c-1.313004,0 -3.084,0.757797 -4.143005,1.210999c-0.158997,0.068199 -0.298004,0.127304 -0.410995,0.1735l-0.369995,0.150803c-11.641006,4.7416 -24.834,10.115799 -31.764008,20.149796l-0.763992,0.679001l0,0c-0.639008,0.920006 -1.821014,1.795006 -3.110001,2.543999c-0.817001,0.475006 -1.588013,0.923004 -2.144012,1.377007c-1.595993,1.300995 -2.931,2.848999 -3.957993,4.548996c0.210999,-2.297997 0.449997,-4.455002 0.716003,-6.233002c0.192001,-2.295998 0.425995,-4.242996 0.813995,-6.732994l0.160004,-0.447006c0.645996,-0.716995 1.317993,-1.646996 2.029999,-2.630997c1.028,-1.420998 2.089996,-2.889 3.276001,-4.035004c0.729004,-0.703995 1.479004,-1.402 2.229996,-2.101997c1.184998,-1.104996 2.397995,-2.240501 3.537994,-3.403c3.074005,-0.710098 5.529999,-2.620499 7.723999,-4.623398c4.114014,-3.754204 8.569,-6.815804 14.021011,-9.635605c1.145996,-0.5933 2.296997,-1.207199 3.447998,-1.821693c1.440994,-0.769203 2.931,-1.564201 4.391998,-2.305305l0.554001,-0.275902c2.095001,-1.032898 5.994003,-2.956894 5.970993,-4.994698l-0.003998,-0.3433l-0.384995,-0.030296c-0.132004,-0.010605 -0.259995,-0.003799 -0.391006,-0.009102l0.001999,-0.018898c-0.14299,-0.012901 -0.292999,0.001495 -0.440994,0.009094c-2.822998,0.000702 -5.524002,1.081406 -8.061005,2.218102c-4.544998,2.036201 -8.765991,4.595299 -12.847,7.071098c-0.716995,0.435005 -1.434998,0.870003 -2.153992,1.303505c-2.837997,1.706497 -5.126999,3.641998 -7.20401,6.091202c-0.311996,0.368294 -0.653992,0.748695 -1.00499,1.140495c-1.300003,1.447403 -2.751007,3.076004 -3.368011,4.806801c-0.015991,0.014404 -0.031998,0.028099 -0.046997,0.041702l-0.000992,-0.000801c-0.003998,0.003799 -0.008011,0.007599 -0.011002,0.012199c-0.272003,0.240196 -0.533005,0.478104 -0.809998,0.725197l0,0c0.26799,-0.248596 -0.199997,0.443306 -0.340012,0.4645l0,0c-1.035995,1.039803 -2.12999,2.061302 -3.197998,3.057106c-0.75499,0.703995 -1.508987,1.405998 -2.23999,2.112999c-1.237,1.194 -2.368011,2.757996 -3.365997,4.138c-0.403,0.557999 -0.792007,1.090996 -1.168015,1.578995c1.366013,-8.212997 3.479004,-16.602501 4.832001,-21.013695c0.642014,-1.774002 1.701004,-5.471405 2.927002,-9.752304c0.106003,-0.373596 0.21701,-0.760002 0.328003,-1.144997l0,0c3.186996,-5.341805 7.563004,-9.875099 12.912994,-14.437801c0.029007,-0.0159 0.058014,-0.027302 0.086014,-0.044003l-0.013,-0.016598c0.750992,-0.639599 1.528,-1.277 2.332993,-1.9128c2.792999,-2.2075 5.895004,-4.168701 8.895004,-6.0662c3.255997,-2.059799 6.625,-4.189201 9.625992,-6.649101l0.275009,-0.221298c1.213989,-0.973 4.05899,-3.250999 4.070999,-4.932602c0.000992,-0.1432 -0.024002,-0.2766 -0.061996,-0.405399c0.205994,-0.235699 -0.470001,-0.707798 -0.470001,-0.707798m-23.278,103.915604m6.552002,22.016998m-28.844009,-23.472m8.957001,9.688995m1.210007,1.843002m12.340988,8.697998m5.45401,0.175003m-17.781006,-23.951996m-14.23999,2.565994m0.993988,-16.940002m0.928009,-8.673996m-34.369408,24.707993c-0.138199,-0.274002 -0.081894,-0.560989 0.167107,-0.852997c0.301994,-0.354996 0.820595,-0.615997 1.334,-0.727997c0.070793,-0.009995 0.140694,-0.022995 0.212395,-0.042007c0.165901,-0.020996 0.329903,-0.030991 0.479904,-0.011993c0.134995,0.016998 0.143997,0.227997 0.245995,0.276993c-0.032997,0.056 0.032005,-0.047989 0,0l0.504005,0.256012c0.141998,0.35199 -0.141998,0.862991 -0.764,1.369995m0.757996,-2.462997c-0.018997,-0.009003 -0.034996,-0.018997 -0.054001,-0.028c0.051003,-0.03801 0.098,-0.081009 0.148003,-0.122009c-0.031998,0.050003 -0.062996,0.100006 -0.094002,0.150009zm-2.716499,-3.473007c-0.284096,-0.638 -0.063202,-1.472 0.150101,-2.278c0.041801,-0.156998 0.081902,-0.311996 0.1185,-0.463989c0.561302,-0.026001 1.059402,-0.083008 1.492905,-0.171005c-0.024002,0.384995 -0.113007,0.882996 -0.204903,1.380005c-0.064003,0.340988 -0.127098,0.686996 -0.174904,1.018997c-0.195297,0.037003 -0.381294,0.091003 -0.544998,0.179001c-0.499802,0.269989 -0.774498,0.731995 -0.948502,1.235992m0.621002,-6.681c-0.344597,0.421005 -0.730103,0.608002 -0.439301,1.154999l0.1194,0.360001c-0.016197,0.035004 -0.077599,-0.321991 -0.095497,-0.289993m-0.942505,8.541992c-0.004295,0.013 -0.012794,0.029999 -0.018799,0.044006c-0.102295,-0.313995 -0.2593,-0.606003 -0.469894,-0.847c-0.388107,-0.443008 -1.017601,-0.770996 -1.7938,-0.694m64.785698,-120.973301c0.108002,-0.364599 0.235992,-0.7313 0.362991,-1.079901c0.050003,-0.134899 0.093002,-0.2607 0.139008,-0.3895m-0.007004,5.7593c0.095001,-0.231899 0.192001,-0.462999 0.290009,-0.6919c0.220993,-0.515299 0.440002,-1.0404 0.616989,-1.571699c0.078003,-0.063601 0.150009,-0.1311 0.210999,-0.2038c-0.190994,0.7745 -0.656998,1.6308 -1.117996,2.4674zm2.270004,-1.389799m2.753998,-0.8988c0.005997,0.003799 0.013,0.004599 0.018005,0.0084c-0.714005,0.9972 -3.042007,4.772699 -4.522003,7.511398c0.082001,-0.254599 0.160995,-0.512999 0.248001,-0.758598c0.179001,-0.508501 0.408005,-1.0238 0.649994,-1.567902c0.403,-0.907099 0.805008,-1.842199 0.994003,-2.781898c0.225998,-0.496401 0.511002,-0.979101 0.828003,-1.4482c0.015991,-0.0242 0.033005,-0.047701 0.048004,-0.071201c0.264999,-0.387999 0.54599,-0.766899 0.832993,-1.135199l-0.311005,-0.190201l0.084,-0.293301l-0.008987,0.001501c0.348999,-0.3251 0.485001,-0.934401 0.472,-1.5497c0.01799,1.079899 0.166,1.9513 0.666992,2.2749zm3.472,-6.367901m1.628998,2.7335c-0.649002,0.7297 -1.53299,1.721701 -2.417999,2.446201l-0.112991,-0.159901c-0.20401,0.1159 -0.279999,0.074301 -0.306,0.0599c-0.292007,-0.1607 -0.527008,-1.0049 -0.400009,-2.0893c0.117996,-1.013201 0.585007,-2.3023 1.505005,-2.5986m-2.863007,1.0822m1.027008,-0.3281m1.272003,-1.745999l0.401993,0.0629m-5.492996,2.9645c0.877991,-0.5562 1.268997,-0.538 1.42099,-0.478901c0.093002,0.036401 0.173004,0.1265 0.244003,0.247001c-0.002991,0.0925 -0.007996,0.194799 -0.013,0.3077c-0.024994,0.5358 -0.041,1.0526 -0.034988,1.533799c-0.022003,-0.627499 -0.195007,-1.250399 -0.451004,-1.5694l-0.694,0.4395c0.328995,0.4107 0.42099,1.893 0.057999,2.2159c-0.061996,0.053801 -0.225006,-0.034201 -0.317001,-0.092501l-0.039001,0.0485l-0.774994,-0.2584c-0.182999,0.2682 -0.235001,0.494801 -0.251999,0.7078l-0.410004,0c0.102997,-0.317499 0.151001,-0.6593 0.194992,-0.997299c0.104004,-0.817699 0.20401,-1.592199 1.068008,-2.1037zm-3.42601,-3.809501c0.05101,-0.1069 0.101013,-0.2183 0.154007,-0.3168l-0.673004,-0.279599c-0.016998,-0.062901 -0.028,-0.1281 -0.034988,-0.1948c0.005997,-0.0045 0.007996,-0.0113 0.012985,-0.0159l-0.015991,-0.0121c-0.033005,-0.465301 0.199997,-0.9783 0.729004,-1.21401l-0.132004,-0.2334m1.216003,2.539411m-2.585999,3.4056c0.252991,-0.8487 0.606995,-1.9741 1.013992,-2.9706c0.014008,0.005301 0.026001,0.0129 0.040009,0.017401m-0.741013,-0.5115m0.144012,5.543401m1.440994,-4.931101" stroke-miterlimit="10" stroke-width="0.5" fill="none"/>
   <path stroke="#000000" id="svg_27" d="m89.270897,159.574005" stroke-miterlimit="10" stroke-width="0.5" fill="none"/>
   <path stroke="#000000" id="svg_28" d="m92.191299,153.070999c-0.112602,0.395996 -0.542496,0.841003 -0.957001,1.272995" stroke-miterlimit="10" stroke-width="0.5" fill="none"/>
   <path stroke="#000000" id="svg_29" d="m91.234299,154.343994c-2.7174,3.365005 -2.7882,8.414001 -2.714897,10.047012c0.017899,0.397995 0.034996,0.766998 0.033295,1.084" stroke-miterlimit="10" stroke-width="0.5" fill="none"/>
  </g>
 </g>
</svg>