<?xml version="1.0" encoding="utf-8"?>
<!-- Generator: Adobe Illustrator 16.0.0, SVG Export Plug-In . SVG Version: 6.00 Build 0)  -->
<!DOCTYPE svg PUBLIC "-//W3C//DTD SVG 1.1//EN" "http://www.w3.org/Graphics/SVG/1.1/DTD/svg11.dtd">
<svg version="1.1" id="Layer_1" xmlns="http://www.w3.org/2000/svg" xmlns:xlink="http://www.w3.org/1999/xlink" x="0px" y="0px"
	 width="250px" height="450px" viewBox="0 0 250 450" enable-background="new 0 0 250 450" xml:space="preserve">
<g>
	<title>Solanum tuberosum</title>
	<g id="outlines">
		<g id="svg_1">
			<g id="svg_2">
				<g id="svg_3">
					<g id="svg_4">
						<path id="svg_5" fill="none" stroke="#000000" stroke-miterlimit="10" d="M63.652,250.809c0,0-1.626-6.084-9.211,0.528
							c-2.98,2.379-4.743,14.15,0.271,21.29c3.793,5.025,15.442,18.381,16.798,21.688c1.083-1.058,2.574-7.008,5.824-11.902
							c2.438-4.76,5.824-15.734-0.812-26.05C72.32,250.676,68.528,245.916,63.652,250.809z"/>
						<path id="svg_6" fill="none" stroke="#000000" stroke-miterlimit="10" d="M51.594,261.389c0,0-9.888-2.645-11.241,16.398
							c-0.137,3.04-0.001,9.256,7.585,19.175c2.032,2.646,4.742,8.199,4.876,11.77c0.271,0.397,1.084,1.323,2.575-1.586
							c1.355-2.646,4.064-4.233,7.723-7.274c3.114-2.513,6.365-6.348,6.232-9.125"/>
						<path id="svg_7" fill="none" stroke="#000000" stroke-miterlimit="10" d="M40.352,277.785c0,0-4.742-9.917-1.627-22.48
							c1.49-5.555,11.922-14.415,17.746-5.555"/>
						<path id="svg_8" fill="none" stroke="#000000" stroke-miterlimit="10" d="M78.146,238.907c0,0-6.638,0.132-3.251,10.446
							c0.542,2.25,3.386,7.803,9.482,11.771c3.252,2.513,8.263,6.214,11.65,8.462c0.269-0.661,0.134-8.597-1.084-19.705
							C93.318,244.195,92.1,236.262,78.146,238.907z"/>
						<path id="svg_9" fill="none" stroke="#000000" stroke-miterlimit="10" d="M95.081,251.337c0,0,7.178,6.084,8.262,7.405
							c0.948-2.777,4.88-11.77-2.167-22.613c-2.031-3.174-8.127-7.934-9.617-1.586c-0.947-0.529-14.36-0.266-14.495,2.246
							c0.406,0.928,1.083,2.117,1.083,2.117"/>
						<path id="svg_10" fill="none" stroke="#000000" stroke-miterlimit="10" d="M40.622,251.602
							c-2.032,1.719-5.553,5.819-6.91,7.671c-0.406-12.432,5.013-18.513,10.837-23.936c8.535-7.804,13.413-3.308,13.413-3.308
							s5.555-2.379,9.619,3.703c0.135,2.646-7.586,7.008-8.129,12.562"/>
						<path id="svg_11" fill="none" stroke="#000000" stroke-miterlimit="10" d="M60.535,248.297c0,0-0.675-1.852,0.544-4.232"/>
						<path id="svg_12" fill="none" stroke="#000000" stroke-miterlimit="10" d="M63.652,250.809c0,0-1.355-6.084-0.407-8.861
							c1.76-1.587,6.502-4.363,14.089-4.762"/>
						<path id="svg_13" fill="none" stroke="#000000" stroke-miterlimit="10" d="M67.581,235.732c0,0,18.151-6.348,24.383-2.379"/>
						<path id="svg_14" fill="none" stroke="#000000" stroke-miterlimit="10" d="M83.565,232.162c0,0,0.27-4.893-0.677-7.407
							c0.813,0.133,5.419,1.722,5.013,7.407"/>
						<path id="svg_15" fill="none" stroke="#000000" stroke-miterlimit="10" d="M74.217,233.75l-1.084-1.852
							c0,0,4.066-6.61-8.398-6.213c-1.083,0.131-3.386,1.983-5.419,3.041c1.219,0.661,5.147,5.29,13.952,3.174"/>
						<path id="svg_16" fill="none" stroke="#000000" stroke-miterlimit="10" d="M65.819,225.418c0,0,6.638-5.555,13.547-2.645
							c0.813,0.927,1.489,2.646,0.135,4.496c0,0,2.438,2.91,3.115,4.762"/>
						<path id="svg_17" fill="none" stroke="#000000" stroke-miterlimit="10" d="M73.947,229.782c0,0,4.606-0.528,5.554-2.513"/>
						<path id="svg_18" fill="none" stroke="#000000" stroke-miterlimit="10" d="M102.53,237.981c0,0,5.42-0.265,6.097,4.232
							c-0.135,0.397-1.898,1.188-4.199,0.527"/>
						<path id="svg_19" fill="none" stroke="#000000" stroke-miterlimit="10" d="M104.955,250.014c0,0,12.842,11.25,13.369,24.851
							c0.791,8.472,1.054,31.062,1.054,31.062s-1.578,10.139-2.369,13.221"/>
						<path id="svg_20" fill="none" stroke="#000000" stroke-miterlimit="10" d="M114.844,262.801c0,0-10.193,0.258-10.193,7.703
							c3.417,0,8.676,0.512,9.729,2.565c1.578,3.079,2.893,3.595,3.945,3.852"/>
						<path id="svg_21" fill="none" stroke="#000000" stroke-miterlimit="10" d="M123.056,268.961c0,0,1.84,12.577,8.679,10.525
							C134.1,277.945,138.307,268.961,123.056,268.961z"/>
						<path id="svg_22" fill="none" stroke="#000000" stroke-miterlimit="10" d="M109.119,180.144c0,0-13.411,15.657,1.578,17.712"
							/>
						<path id="svg_23" fill="none" stroke="#000000" stroke-miterlimit="10" d="M113.325,177.318c0,0,9.73-7.701,21.036-11.807
							c-0.525,5.646-2.891,23.616-19.194,31.829"/>
						<path id="svg_24" fill="none" stroke="#000000" stroke-miterlimit="10" d="M117.27,196.571c0,0,2.367,3.851,3.682,4.878"/>
						<path id="svg_25" fill="none" stroke="#000000" stroke-miterlimit="10" d="M123.581,191.181c0,0,0.79,2.569,1.839,2.569"/>
						<path id="svg_26" fill="none" stroke="#000000" stroke-miterlimit="10" d="M160.395,107.241c0,0-16.301,17.971-17.617,26.441
							c-0.79,7.187-0.525,16.428-6.312,37.476c-0.263,4.621-1.839,10.782-1.577,14.89c2.631-2.055,31.289-30.547,31.289-30.547"/>
						<path id="svg_27" fill="none" stroke="#000000" stroke-miterlimit="10" d="M162.762,165.257
							c-3.153,3.08-24.19,23.614-24.19,23.614s-0.79,2.567,2.366,0c4.733-2.566,17.354-10.011,33.134-7.956
							c13.677,1.541,19.724,3.851,27.613,1.028c2.632,0.512,2.104,4.106,0.523,4.364c-2.893-0.256-16.829,0-21.562-1.283"/>
						<path id="svg_28" fill="none" stroke="#000000" stroke-miterlimit="10" d="M176.436,182.969c0,0-3.945-2.567-6.836,1.54
							c-1.055,2.823-0.527,6.417,0.789,8.984c2.892-0.258,14.988-2.567,9.467-10.269
							C178.54,182.711,178.014,182.198,176.436,182.969z"/>
						<path id="svg_29" fill="none" stroke="#000000" stroke-miterlimit="10" d="M189.848,182.454c0,0-14.2-1.796-9.203-8.984
							c3.943-6.418,5.783-9.243,6.045-11.039c2.893,0.514,16.039,6.931,11.568,14.632c-2.629,3.595-4.206,4.365-7.361,3.595
							C190.9,181.684,189.848,182.454,189.848,182.454z"/>
						<path id="svg_30" fill="none" stroke="#000000" stroke-miterlimit="10" d="M197.998,186.049c3.418,0,3.156,3.08,3.156,7.444
							c-1.316,15.144-13.148,15.914-14.988,15.401c0.523-1.283-1.316-2.568-3.686-9.754c0,0-3.417-9.755,2.104-13.606"/>
						<path id="svg_31" fill="none" stroke="#000000" stroke-miterlimit="10" d="M166.968,180.913c0,0-1.051-4.876,0.792-8.983
							c3.682,0.77,9.992,2.31,9.204,9.241"/>
						<path id="svg_32" fill="none" stroke="#000000" stroke-miterlimit="10" d="M163.024,162.946c0,0-2.104,7.444,4.733,8.984
							c2.893-1.027,4.47-4.878-0.792-10.269C164.602,161.406,163.024,162.946,163.024,162.946z"/>
						<path id="svg_33" fill="none" stroke="#000000" stroke-miterlimit="10" d="M166.968,161.661c0,0-0.521-6.161,8.942-6.931
							c8.412,0.77,11.045,3.85,11.833,4.621c-3.421,2.31-9.993,6.931-18.144,5.648"/>
						<path id="svg_34" fill="none" stroke="#000000" stroke-miterlimit="10" d="M165.129,155.757c0,0-6.049-2.823-8.416-10.781
							c5.521,0,16.04-1.285,17.882,9.754C170.912,155.757,167.495,156.785,165.129,155.757z"/>
						<path id="svg_35" fill="none" stroke="#000000" stroke-miterlimit="10" d="M169.6,184.509c0,0-31.029,4.106-40.234,19.508
							c-1.316,3.595-2.104,52.369-1.316,65.204"/>
						<path id="svg_36" fill="none" stroke="#000000" stroke-miterlimit="10" d="M128.314,279.486l0.525,25.412
							c0,0,0.789,13.862-1.182,19.64"/>
						<path id="svg_37" fill="none" stroke="#000000" stroke-miterlimit="10" d="M66.126,166.282
							c-7.565,2.347-11.461-4.208-15.73-8.703c1.886,1.165,4.482,0.438,5.868,2.157"/>
						<path id="svg_38" fill="none" stroke="#000000" stroke-miterlimit="10" d="M66.913,166.282
							c-8.433-2.203-17.102-12.744-19.178-20.734c7.238-0.367,15.217,3.836,18.391,10.338"/>
						<path id="svg_39" fill="none" stroke="#000000" stroke-miterlimit="10" d="M57.842,147.8
							c-4.659-3.805-6.511-8.976-7.082-14.631c-0.625-6.204,2.042-9.325,4.31-14.873c1.602,2.864,5.885,2.861,8.598,4.177
							c2.882,1.399,5.316,3.536,7.087,6.18c2.91,4.343,6.074,13.671,2.465,18.377"/>
						<path id="svg_40" fill="none" stroke="#000000" stroke-miterlimit="10" d="M73.226,146.645
							c2.271-0.957,4.187-3.387,5.936-5.256c-0.329,3.598,0.786,5.6-1.104,8.805c-1.554,2.632-3.927,4.44-6.012,6.461"/>
						<path id="svg_41" fill="none" stroke="#000000" stroke-miterlimit="10" d="M72.042,156.271
							c0.148,1.41,0.701,1.907,2.312,1.597c-0.451,2.813-3.429,6.258-6.259,6.875"/>
						<path id="svg_42" fill="none" stroke="#000000" stroke-miterlimit="10" d="M73.226,189c-4.629-0.176-9.632-2.479-14.187-1.143
							c-4.421,1.293-8.513,5.472-9.033,9.942c5.672,0.28,10.793-0.113,14.149-4.949"/>
						<path id="svg_43" fill="none" stroke="#000000" stroke-miterlimit="10" d="M64.941,188.23
							c-4.144,5.772,3.553,9.378,6.212,13.439c1.482-3.343,2.75-9.327,1.282-12.668"/>
						<path id="svg_44" fill="none" stroke="#000000" stroke-miterlimit="10" d="M176.565,154.73
							c-1.384-8.294,13.958-11.354,19.722-10.78c8.838,0.88,15.039,3.788,22.059,9.163c-4.672-0.103-9.711,3.4-14.148,4.709
							c-4.198,1.236-13.021,2.416-16.98,0.758"/>
						<path id="svg_45" fill="none" stroke="#000000" stroke-miterlimit="10" d="M180.513,147.8
							c-3.523-2.62-9.313-6.701-11.353-10.876c-2.371-4.856-1.348-11.736-0.401-16.808c4.988,2.487,9.727,5.598,12.245,10.646
							c2.283,4.572,3.141,10.276,5.029,14.728"/>
						<path id="svg_46" fill="none" stroke="#000000" stroke-miterlimit="10" d="M187.217,144.72
							c-4.006-18.32,13.004-23.897,26.346-31.15c-0.912,6.146-0.073,13.299-1.91,19.192c-1.857,5.948-6.129,8.303-10.629,11.958"/>
						<path id="svg_47" fill="none" stroke="#000000" stroke-miterlimit="10" d="M173.412,150.881
							c2.113-0.654,4.543-2.476,5.918-4.235"/>
						<path id="svg_48" fill="none" stroke="#000000" stroke-miterlimit="10" d="M158.817,108.911
							c2.439-1.579,4.729-4.421,6.675-6.468c-1.295-0.185-2.709-0.09-3.787,0.25c2.957-3.033,9.021-3.502,12.871-5.43
							c3.826-1.917,7.875-4.227,10.927-7.229c-2.422-0.38-4.777-0.926-7.315-0.837c4.927-6.427,16.985-7.783,23.98-9.605
							c-1.042-3.186-4.668-3.49-7.424-4.265c2.896-1.643,6.142-5.194,8.104-8.031c-5.084-1.22-8.77,1.062-12.791,3.842
							c-0.115-1.715-0.094-3.48-0.051-5.217c-5.617,4.017-10.881,8.951-13.457,15.131c0.04-2.369,0.092-4.789-0.049-7.13
							c-4.402,1.558-10.131,12.935-12.062,16.853c-0.586-1.306-1.051-2.684-1.588-3.785c-0.378,2.521-2.721,4.219-3.55,6.604
							c-0.826,2.373-0.139,5.188-0.954,7.576c-0.783-0.925-2.04-1.548-3-2.232c-1.145,3.694-0.602,7.92-2.346,11.222
							c-1.593,3.01-4.316,6.991-6.407,9.531c0,0,0.79-28.878,1.181-31.959"/>
						<path id="svg_49" fill="none" stroke="#000000" stroke-miterlimit="10" d="M144.224,86.193c0,0-0.79,29.648-0.79,34.269
							c-1.182,5.006-7.1,22.718-7.1,28.879c-0.79,0.77-7.099-9.626-9.466-18.482"/>
						<path id="svg_50" fill="none" stroke="#000000" stroke-miterlimit="10" d="M125.686,140.099c0,0,2.76,8.086,6.705,11.936
							c0.789,5.776-0.396,14.247-0.396,14.247"/>
						<path id="svg_51" fill="none" stroke="#000000" stroke-miterlimit="10" d="M108.33,165.126
							c-0.456-0.294-2.26-1.807-2.722-3.022c0.824-0.066,1.891-0.213,2.722-0.057"/>
						<path id="svg_52" fill="none" stroke="#000000" stroke-miterlimit="10" d="M112.274,165.126
							c1.68-0.03,2.991-1.028,3.489-2.617c-1.011-0.46-2.324-0.867-3.489-0.849"/>
						<path id="svg_53" fill="none" stroke="#000000" stroke-miterlimit="10" d="M108.33,147.03l0.527,11.295
							c-0.79,45.692,6.573,56.217,9.992,63.148c0,0-17.62-11.809-25.508-17.969c-23.404-16.685-24.98-34.397-25.243-38.247
							c0,0-1.314,0-2.103,1.025c-0.525,19.765,18.144,34.654,28.135,42.613c14.989,13.861,25.245,19.511,26.56,18.482
							c0,0,0,30.545,0,38.25c-5.262-10.271-16.565-21.818-16.565-21.818"/>
						<path id="svg_54" fill="none" stroke="#000000" stroke-miterlimit="10" d="M111.882,148.186l0.395,10.653
							c0,0-0.524,44.921,9.206,59.81c0.261-9.241-2.368-16.687,1.314-22.333c4.469-4.877,8.415-8.727,8.415-8.727
							c1.053-6.931,0.789-9.755,0.789-9.755"/>
						<path id="svg_55" fill="none" stroke="#000000" stroke-miterlimit="10" d="M99.653,89.658c0,0-7.495,12.321-3.156,25.028
							c-3.945-3.851-9.073-3.465-9.073-3.465c0.792,6.931,1.973,15.787,9.073,24.643c-3.156-1.926-3.156-1.926-3.156-1.926
							c0.791,5.391-1.577,14.632,14.991,13.092c3.549,1.156,15.775,3.08,18.933-12.32c-2.367-1.54-5.129-0.77-5.129-0.77
							c4.735-3.08,16.963-5.775,18.146-17.712c-5.522-0.77-9.468-1.925-11.439,0.384c0-3.85,0-3.85,0-3.85
							c-3.155,0-5.521-1.54-8.678,1.154C119.769,107.755,115.036,93.124,99.653,89.658z"/>
						<path id="svg_56" fill="none" stroke="#000000" stroke-miterlimit="10" d="M109.119,158.197
							c-3.348-0.017-6.467-3.306-7.927-5.987c2.189-0.324,4.504-0.173,6.741-0.173"/>
						<path id="svg_57" fill="none" stroke="#000000" stroke-miterlimit="10" d="M112.274,158.197
							c2.644-0.26,4.368-3.038,5.523-5.006"/>
						<path id="svg_58" fill="none" stroke="#000000" stroke-miterlimit="10" d="M111.882,151.265
							c1.938,0.476,4.014,0.922,5.521,2.311"/>
						<path id="svg_59" fill="none" stroke="#000000" stroke-miterlimit="10" d="M103.991,60.01
							c6.627,3.465,7.668,25.713,7.668,36.175"/>
						<path id="svg_60" fill="none" stroke="#000000" stroke-miterlimit="10" d="M113.458,58.47
							c-4.339,4.621,0.439,33.989,1.184,41.029"/>
						<path id="svg_61" fill="none" stroke="#000000" stroke-miterlimit="10" d="M110.697,77.023
							c1.419-12.398,22.917,2.94,27.215,4.549"/>
						<path id="svg_62" fill="none" stroke="#000000" stroke-miterlimit="10" d="M109.906,76.25
							c-6.119-9.455-15.345,4.847-15.382,9.942"/>
						<path id="svg_63" fill="none" stroke="#000000" stroke-miterlimit="10" d="M94.524,86.193
							c-2.329,1.546-3.291,3.787-3.494,6.419c1.218-1.708,2.973-4.423,3.493-5.707c-0.26,2.452,0.325,4.637,1.206,6.871
							c-0.039-2.225-0.004-4.452-0.039-6.678c0.646,1.17,1.606,2.238,2.708,2.905c-0.27-2.037-2.605-2.882-3.479-4.582"/>
						<path id="svg_64" fill="none" stroke="#000000" stroke-miterlimit="10" d="M109.906,75.681
							c-2.453-3.67-18.012-7.288-22.087-5.66"/>
						<path id="svg_65" fill="none" stroke="#000000" stroke-miterlimit="10" d="M80.275,72.418
							c-4.381-0.592-2.878-4.172,0.444-4.708c3.749-0.603,9.139,1.341,5.846,5.477C85.024,75.117,78.726,76.618,80.275,72.418z"/>
						<path id="svg_66" fill="none" stroke="#000000" stroke-miterlimit="10" d="M93.737,51.153
							c1.988,3.93,3.648,8.032,5.829,12.032c6.004,9.037,7.583,8.85,10.343,13.712"/>
						<path id="svg_67" fill="none" stroke="#000000" stroke-miterlimit="10" d="M86.635,51.153
							c-1.294,1.442-3.433,2.314-5.059,3.033c-0.633-3.006-2.67-6.226-4.369-8.729c2.291-0.15,5.968-0.657,7.465,0.704
							c1.518,1.381,1.414,4.796,1.963,6.533"/>
						<path id="svg_68" fill="none" stroke="#000000" stroke-miterlimit="10" d="M82.298,44.993
							c-0.284-2.632,0.483-5.205,1.16-7.565c1.277,2.543,4.208,4.711,6.688,6.131c-1.141,1.811-3.378,3.104-4.299,4.9"/>
						<path id="svg_69" fill="none" stroke="#000000" stroke-miterlimit="10" d="M89.792,44.223
							c2.197-0.024,4.127,1.117,5.857,2.409c-0.74,1.521-1.037,3.243-1.587,4.859c-2.836-0.976-5.522-2.647-7.821-4.573"/>
						<path id="svg_70" fill="none" stroke="#000000" stroke-miterlimit="10" d="M90.976,51.153
							c-4.043,2.757-1.829,4.474-3.116,8.008c3.001,0.52,6.289,1.482,7.465-1.838c1.03-2.918-1.184-5.659-3.561-6.939"/>
						<path id="svg_71" fill="none" stroke="#000000" stroke-miterlimit="10" d="M82.692,54.233
							c-1.599,2.455-0.906,7.078-0.711,9.972c1.472-1.303,4.412-3.02,5.354-4.583c1.434-2.373,0.21-4.721,0.817-7.257
							c-0.755,0.095-2.002-0.435-2.304-0.442"/>
						<path id="svg_72" fill="none" stroke="#000000" stroke-miterlimit="10" d="M93.737,44.993
							c-0.279-1.553-0.66-3.288-0.334-4.948c4.764,0.221,8.569-1.746,11.694-5.033c0.007,2.051,0.668,3.875,1.62,5.649
							c-2.84,1.633-9.228,5.48-7.909,8.508c-0.869,0.049-2.52-0.115-3.433-0.384c0.213-1.416-0.058-2.72-0.848-3.793"/>
						<path id="svg_73" fill="none" stroke="#000000" stroke-miterlimit="10" d="M98.47,48.458c0,2.113-0.829,6.167-0.01,8.086
							c1.094,2.563,4.07,2.653,6.647,3.03c-0.207-2.606,0.859-4.841,1.192-7.21c-3.243-0.266-3.334-3.892-7.829-3.521"/>
						<path id="svg_74" fill="none" stroke="#000000" stroke-miterlimit="10" d="M104.778,50.384
							c-0.786-2.817,1.354-3.785,3.881-3.523c-0.217-1.76-1.385-3.696-2.304-5.333"/>
						<path id="svg_75" fill="none" stroke="#000000" stroke-miterlimit="10" d="M107.936,46.918
							c1.929-0.407,3.587,0.718,4.24,2.281c0.987-3.302,2.398-2.817,1.283-6.133c-0.72-2.147-2.204-4.621-3.057-6.513
							c-0.387,2.126-1.636,3.72-3.649,4.59"/>
						<path id="svg_76" fill="none" stroke="#000000" stroke-miterlimit="10" d="M114.246,44.223
							c1.97,2.159,4.632,3.683,6.644,5.871c-1.728,1.876-4.542,3.262-6.172,5.264c-0.498-2.168-2.146-3.623-3.231-5.36"/>
						<path id="svg_77" fill="none" stroke="#000000" stroke-miterlimit="10" d="M115.036,54.619
							c-0.787,3.547-2.913,5.149-5.917,7.548c-0.931-1.176-2.954-2.421-3.55-2.542"/>
						<path id="svg_78" fill="none" stroke="#000000" stroke-miterlimit="10" d="M105.569,51.923
							c1.892,1.197,4.616-0.607,6.312-1.54"/>
						<path id="svg_79" fill="none" stroke="#000000" stroke-miterlimit="10" d="M123.712,39.217
							c-1.497-1.851-3.363-3.347-5.857-3.408c-0.265,5.104-1.044,8.468,4.181,10.281C123.17,43.894,123.097,41.689,123.712,39.217"
							/>
						<path id="svg_80" fill="none" stroke="#000000" stroke-miterlimit="10" d="M122.134,45.763
							c0.011,3.314,0.236,9.354,5.464,8.029c0.081-1.569,0.773-5.421-0.02-6.795c-1.102-1.904-3.611-0.998-3.866-3.929"/>
						<path id="svg_81" fill="none" stroke="#000000" stroke-miterlimit="10" d="M119.769,36.521c0-3.221,0.075-7.468,1.992-11.032
							c0.978,4.364,1.1,6.469,3.921,9.492c1.955,2.089,2.199,1.254,2.367,4.621c0.109,2.169,0,4.373,0,6.546"/>
						<path id="svg_82" fill="none" stroke="#000000" stroke-miterlimit="10" d="M124.107,44.223
							c0.01-2.809-0.423-5.678,2.367-7.316"/>
						<path id="svg_83" fill="none" stroke="#000000" stroke-miterlimit="10" d="M136.73,81.958
							c-1.531,0.719-5.424-1.255-5.453,1.473c1.957,0.77,4.336,0.518,6.3,0.069c-1.626,0.725-0.636,6.952,1.636,5.499
							c1.408-0.903-0.719-6.383-1.298-7.427"/>
						<path id="svg_84" fill="none" stroke="#000000" stroke-miterlimit="10" d="M143.434,87.348
							c-0.34-3.05-5.629-2.726-5.549-5.379c0.061-2.081,4.839-3.104,6.339-3.477"/>
						<path id="svg_85" fill="none" stroke="#000000" stroke-miterlimit="10" d="M143.829,88.889
							c0.583-3.89,1.489-7.936,1.183-11.937c-0.287-3.72-2.906-6.422-2.369-10.396"/>
						<path id="svg_86" fill="none" stroke="#000000" stroke-miterlimit="10" d="M147.379,90.043c0-4.108,0.547-8.664-0.088-12.706
							c-0.6-3.818-3.518-7.066-3.857-10.781"/>
						<path id="svg_87" fill="none" stroke="#000000" stroke-miterlimit="10" d="M142.252,67.326
							c-1.178-4.212-8.081-7.695-6.252-12.264c5.861,0.329,6.727-5.666,12.102-6.938c0.386,3.435-3.539,6.303-4.279,9.567
							c-0.783,3.458,0.01,8.003,0.01,11.561"/>
						<path id="svg_88" fill="none" stroke="#000000" stroke-miterlimit="10" d="M143.829,57.314c-1.356,1.689-5.056,2.595-5.917,0"
							/>
						<path id="svg_89" fill="none" stroke="#000000" stroke-miterlimit="10" d="M138.701,54.233
							c2.435-7.122,1.639-14.402,2.03-21.889c0.516-0.044,0.943-0.052,1.46,0c0.318,6.153,0.892,13.171,0.451,19.194"/>
						<path id="svg_90" fill="none" stroke="#000000" stroke-miterlimit="10" d="M147.379,84.268
							c4.9-4.792,6.689-14.271,9.575-20.409c3.14-6.681,6.224-13.59,8.175-20.405"/>
						<path id="svg_91" fill="none" stroke="#000000" stroke-miterlimit="10" d="M151.717,75.796c-1.365-0.033-2.85-0.74-3.891-1.51
							c0.631,2.408,1.081,4.875,2.316,6.901"/>
						<path id="svg_92" fill="none" stroke="#000000" stroke-miterlimit="10" d="M150.141,80.032c2.229,0,6.015,0.71,7.54-0.771
							c-1.4-1.369-3.13-2.634-4.779-3.849"/>
						<path id="svg_93" fill="none" stroke="#000000" stroke-miterlimit="10" d="M152.901,73.486
							c-2.207-1.192-5.661-4.211-5.462-6.873c2.875-0.142,5.473,0.247,8.225,0.328"/>
						<path id="svg_94" fill="none" stroke="#000000" stroke-miterlimit="10" d="M152.901,73.871c4.633,0,8.68,0.473,12.582-2.021
							c-2.519-2.616-6.32-4.333-9.427-5.294"/>
						<path id="svg_95" fill="none" stroke="#000000" stroke-miterlimit="10" d="M156.451,65.015
							c-1.943-2.199-3.857-5.425-5.621-7.981c-2.252-3.27-1.835-6.017-2.592-9.597c4.412,2.758,9.294,4.461,13.734,6.027"/>
						<path id="svg_96" fill="none" stroke="#000000" stroke-miterlimit="10" d="M156.845,64.246
							c5.082,3.127,17.198,0.758,22.05-2.407c-2.66-2.794-6.755-4.423-9.389-7.527c9.391-0.598,19.547-5.958,22.689-15.421
							c-7.043-0.347-15.078-0.21-20.496,3.743c6.773-8.107,11.279-18.471,7.562-28.779c-9.673,4.593-22.804,13.444-19.259,26.134"/>
						<path id="svg_97" fill="none" stroke="#000000" stroke-miterlimit="10" d="M161.577,53.463
							c-7.589-8.665-11.669-20.294-4.623-30.689c0.819,2.491,3.123,3.783,4.229,6.047"/>
						<path id="svg_98" fill="none" stroke="#000000" stroke-miterlimit="10" d="M98.864,367.661c0,0-6.312-13.09-16.566,0.387
							c-1.972,3.081-4.731,11.552,6.312,11.552C94.919,379.597,101.229,377.287,98.864,367.661z"/>
						<path id="svg_99" fill="none" stroke="#000000" stroke-miterlimit="10" d="M97.286,376.901c0,0,8.677,6.161,22.485-5.39
							c7.495-6.931,23.272-29.649,6.706-48.517c0,0-14.2-10.78-27.217-0.385c-8.281,8.471-12.622,19.638-11.044,40.043"/>
						<path id="svg_100" fill="none" stroke="#000000" stroke-miterlimit="10" d="M55.87,348.409c0,0-0.791-7.313,9.072-13.478
							c4.339-1.155,13.803-0.384,14.594,12.707c0,6.16-1.973,12.32-13.017,16.942C62.969,364.967,55.87,366.121,55.87,348.409z"/>
						<path id="svg_101" fill="none" stroke="#000000" stroke-miterlimit="10" d="M119.769,304.514c0,0-5.522,9.243-15.384,9.625
							c-7.495,1.924-25.639,16.558-26.82,26.182"/>
						<path id="svg_102" fill="none" stroke="#000000" stroke-miterlimit="10" d="M118.98,311.06c0,0-5.917,5.39-13.411,6.16
							c-5.523,1.923-20.512,10.396-21.3,18.095c-0.395,5.39-1.181,8.086-4.339,8.858"/>
						<path id="svg_103" fill="none" stroke="#000000" stroke-miterlimit="10" d="M129.235,309.52
							c-0.956,3.771,6.481,5.829,8.983,7.786c3.236,2.526,4.872,6.348,8.479,8.279c7.472,3.997,18.009,5.285,24.739,11.272"/>
						<path id="svg_104" fill="none" stroke="#000000" stroke-miterlimit="10" d="M129.235,307.594
							c8.242-1.024,17.368,5.753,21.802,12.216c4.651,6.784,4.098,14.609,10.54,20.897"/>
						<path id="svg_105" fill="none" stroke="#000000" stroke-miterlimit="10" d="M155.949,328.77
							c13.897-3.949,16.892-14.085,19.731-17.026c5.413-5.604,10.104-4.022,15.875,0.085"/>
						<path id="svg_106" fill="none" stroke="#000000" stroke-miterlimit="10" d="M174.2,313.754
							c4.884-0.019,9.046-1.468,12.228,3.081"/>
						<path id="svg_107" fill="none" stroke="#000000" stroke-miterlimit="10" d="M171.835,317.99
							c4.378-0.374,9.594,3.532,12.225,6.548"/>
						<path id="svg_108" fill="none" stroke="#000000" stroke-miterlimit="10" d="M168.678,321.84
							c0.646,2.425,6.357,2.741,8.766,3.776c2.826,1.215,5.875,3.726,2.903,7.102c-3.492,3.968-5.048-0.194-6.234-2.406
							c-1.546-2.883-4.756-5.524-5.829-8.472"/>
						<path id="svg_109" fill="none" stroke="#000000" stroke-miterlimit="10" d="M128.84,319.145
							c5.977,2.611,11.793,6.76,15.384,12.322c1.837,2.851,2.505,6.199,4.034,9.239c1.783,3.551,4.82,6.087,7.01,9.244"/>
						<path id="svg_110" fill="none" stroke="#000000" stroke-miterlimit="10" d="M128.84,326.076
							c1.461,1.805,1.822,4.646,3.629,6.065c2.123,1.668,5.499,1.331,7.811,2.406c2.495,1.16,4.477,3.244,7.1,4.253
							c2.805,1.083,5.639,0.589,7.495,3.833"/>
						<path id="svg_111" fill="none" stroke="#000000" stroke-miterlimit="10" d="M132.391,331.466
							c1.539,3.518,5.937,4.032,8.578,6.256c2.972,2.503,4.35,6.091,5.608,9.531c2.912,7.947-1.302,16.365,1.987,23.873"/>
						<path id="svg_112" fill="none" stroke="#000000" stroke-miterlimit="10" d="M102.809,378.442
							c-0.7,4.401-6.737,10.423-8.281,15.017"/>
						<path id="svg_113" fill="none" stroke="#000000" stroke-miterlimit="10" d="M101.229,382.292
							c2.771,0.479,8.021,5.55,9.862,7.701"/>
						<path id="svg_114" fill="none" stroke="#000000" stroke-miterlimit="10" d="M94.524,393.459
							c-3.316,1.785-7.729,3.08-9.467,6.546"/>
						<path id="svg_115" fill="none" stroke="#000000" stroke-miterlimit="10" d="M94.919,397.695"/>
						<path id="svg_116" fill="none" stroke="#000000" stroke-miterlimit="10" d="M85.848,398.463c0,0-5.128-12.32-13.412-0.384
							c-2.368,3.851,0.79,8.472,7.1,8.856C83.085,406.551,85.848,403.854,85.848,398.463z"/>
						<path id="svg_117" fill="none" stroke="#000000" stroke-miterlimit="10" d="M95.314,407.32"/>
						<path id="svg_118" fill="none" stroke="#000000" stroke-miterlimit="10" d="M106.751,393.459c0,0,2.76-4.621,9.862-6.548
							c4.338,0,13.016,4.62,18.935,21.562c1.183,3.853,1.576,14.25-11.833,9.243C116.613,415.021,98.075,407.706,106.751,393.459z"
							/>
						<path id="svg_119" fill="none" stroke="#000000" stroke-miterlimit="10" d="M141.856,373.437c0,0,9.072-5.005,20.511-1.157
							c5.919,3.081,23.271,23.104,11.833,41.972c-4.733,8.856-9.466,25.029-21.694,18.096c-5.521-5.005-18.145-20.79-21.694-38.504
							C131.208,388.838,128.84,384.603,141.856,373.437z"/>
						<path id="svg_120" fill="none" stroke="#000000" stroke-miterlimit="10" d="M159.211,345.328c0,0,0-6.546,9.467-6.546
							c5.129,0.771,17.354,5.391,18.539,23.486c0,4.619-5.918,17.712-21.694,8.857C161.973,367.276,154.874,361.114,159.211,345.328
							z"/>
						<path id="svg_121" fill="none" stroke="#000000" stroke-width="0.5" stroke-miterlimit="10" d="M63.245,252.197
							c-1.74,6.056,2.282,12.896,4.02,18.293c1.944,6.034,2.733,12.53,3.692,18.811c0.183,1.201,0.482,2.496,0.62,3.76"/>
						<path id="svg_122" fill="none" stroke="#000000" stroke-width="0.5" stroke-miterlimit="10" d="M62.838,253.387
							c-1.993-0.415-3.686-0.09-5.44,0.842c-1.604,0.853-3.134,2.248-5.125,1.936"/>
						<path id="svg_123" fill="none" stroke="#000000" stroke-width="0.5" stroke-miterlimit="10" d="M62.637,256.76
							c-4.879-2.584-9.219,4.299-11.381,7.34"/>
						<path id="svg_124" fill="none" stroke="#000000" stroke-width="0.5" stroke-miterlimit="10" d="M63.042,257.553
							c-2.674-0.369-3.547,1.936-5.284,3.373"/>
						<path id="svg_125" fill="none" stroke="#000000" stroke-width="0.5" stroke-miterlimit="10" d="M63.652,259.934
							c-6.124-0.018-7.185,10.041-8.739,13.885"/>
						<path id="svg_126" fill="none" stroke="#000000" stroke-width="0.5" stroke-miterlimit="10" d="M65.074,264.496
							c-0.184,2.773-2.868,4.818-3.815,7.385c-0.851,2.306-1.091,6.468-0.249,8.883"/>
						<path id="svg_127" fill="none" stroke="#000000" stroke-width="0.5" stroke-miterlimit="10" d="M57.353,274.415
							c1.153-0.044,2.899-0.944,3.455-1.39"/>
						<path id="svg_128" fill="none" stroke="#000000" stroke-width="0.5" stroke-miterlimit="10" d="M60.807,273.024
							c0.827,1.265,1.978,2.376,2.844,3.571"/>
						<path id="svg_129" fill="none" stroke="#000000" stroke-width="0.5" stroke-miterlimit="10" d="M67.309,270.844
							c1.604,1.721-1.95,9.281-4.266,10.117"/>
						<path id="svg_130" fill="none" stroke="#000000" stroke-width="0.5" stroke-miterlimit="10" d="M65.888,277.785
							c-0.254,2.662,0.202,5.744,0.202,8.529"/>
						<path id="svg_131" fill="none" stroke="#000000" stroke-width="0.5" stroke-miterlimit="10" d="M68.528,275.406
							c3.693,0.869,4.863,6.005,8.535,6.744"/>
						<path id="svg_132" fill="none" stroke="#000000" stroke-width="0.5" stroke-miterlimit="10" d="M66.7,268.859
							c3.271,1.12,8.747,3.209,10.363,6.744"/>
						<path id="svg_133" fill="none" stroke="#000000" stroke-width="0.5" stroke-miterlimit="10" d="M73.811,272.431
							c0.986,0.495,2.43-0.433,3.252-0.993"/>
						<path id="svg_134" fill="none" stroke="#000000" stroke-width="0.5" stroke-miterlimit="10" d="M68.935,269.653
							c-0.134-0.003-0.5-0.015-0.374-0.059c2.388,0.93,4.483,0.657,5.25-2.122"/>
						<path id="svg_135" fill="none" stroke="#000000" stroke-width="0.5" stroke-miterlimit="10" d="M63.448,260.132
							c3.124-0.328,5.542,1.382,7.767,3.329c2.14,1.872,5.642,4.754,6.661,7.384"/>
						<path id="svg_136" fill="none" stroke="#000000" stroke-width="0.5" stroke-miterlimit="10" d="M63.042,256.363
							c3.014-1.103,5.612-0.427,8.133,1.393c1.851,1.336,6.24,3.489,7.106,5.55"/>
						<path id="svg_137" fill="none" stroke="#000000" stroke-width="0.5" stroke-miterlimit="10" d="M70.154,257.355
							c-0.082,1.746-3.165,0.438-3.657,2.578"/>
						<path id="svg_138" fill="none" stroke="#000000" stroke-width="0.5" stroke-miterlimit="10" d="M70.154,257.355
							c0.149-1.021-1.022-2.404,0.198-2.938c0.741-0.322,2.362,1.215,3.053,1.548"/>
						<path id="svg_139" fill="none" stroke="#000000" stroke-width="0.5" stroke-miterlimit="10" d="M55.321,272.629
							c-0.581,2.01,0.173,6.111,0.204,8.528c0.035,2.953,0.203,5.924,0.203,8.929c0,2.992-0.306,5.797-0.609,8.728
							c-0.278,2.679-1.789,6.295-0.812,8.927"/>
						<path id="svg_140" fill="none" stroke="#000000" stroke-width="0.5" stroke-miterlimit="10" d="M54.711,272.629
							c-0.799-0.214-2.298,1.31-3.246,1.834c-1.254,0.697-2.743,1.025-4.069,1.589c-2.208,0.936-3.576,3.453-5.69,4.116"/>
						<path id="svg_141" fill="none" stroke="#000000" stroke-width="0.5" stroke-miterlimit="10" d="M45.161,273.818
							c2.1-0.189,3.807,1.912,5.893,0.596"/>
						<path id="svg_142" fill="none" stroke="#000000" stroke-width="0.5" stroke-miterlimit="10" d="M49.834,270.051
							c1.19,0.62,2.875,1.414,4.064,0.793"/>
						<path id="svg_143" fill="none" stroke="#000000" stroke-width="0.5" stroke-miterlimit="10" d="M52.272,267.471
							c-3.289-0.131-6.026,1.733-7.721,4.365"/>
						<path id="svg_144" fill="none" stroke="#000000" stroke-width="0.5" stroke-miterlimit="10" d="M48.209,265.885
							c1.271,0.516,2.416,1.322,3.657,1.785"/>
						<path id="svg_145" fill="none" stroke="#000000" stroke-width="0.5" stroke-miterlimit="10" d="M55.118,280.166
							c-2.606-1.147-9.688,4.896-10.972,7.537"/>
						<path id="svg_146" fill="none" stroke="#000000" stroke-width="0.5" stroke-miterlimit="10" d="M42.926,282.943
							c1.226-0.716,3.009,0.854,3.86,1.785"/>
						<path id="svg_147" fill="none" stroke="#000000" stroke-width="0.5" stroke-miterlimit="10" d="M46.989,279.174
							c0.485,1.197,1.739,2.318,2.844,2.977"/>
						<path id="svg_148" fill="none" stroke="#000000" stroke-width="0.5" stroke-miterlimit="10" d="M50.849,277.985
							c0.827,0.422,1.659,1.063,1.829,1.983"/>
						<path id="svg_149" fill="none" stroke="#000000" stroke-width="0.5" stroke-miterlimit="10" d="M55.321,285.522
							c-1.598-0.306-5.117,1.108-6.503,2.578"/>
						<path id="svg_150" fill="none" stroke="#000000" stroke-width="0.5" stroke-miterlimit="10" d="M52.069,284.729
							c-0.009,0.652,0.052,1.196,0.203,1.785"/>
						<path id="svg_151" fill="none" stroke="#000000" stroke-width="0.5" stroke-miterlimit="10" d="M49.021,296.234
							c-0.36-3.986,4.723-8.426,8.388-6.205c3.616,2.192,3.05,6.189,4.415,9.575"/>
						<path id="svg_152" fill="none" stroke="#000000" stroke-width="0.5" stroke-miterlimit="10" d="M46.583,291.473
							c1.564,0.208,3.246-0.199,4.878-0.199"/>
						<path id="svg_153" fill="none" stroke="#000000" stroke-width="0.5" stroke-miterlimit="10" d="M51.46,291.076
							c0.378,1.643,1.243,3.17,1.828,4.762"/>
						<path id="svg_154" fill="none" stroke="#000000" stroke-width="0.5" stroke-miterlimit="10" d="M56.133,281.555
							c-0.288-0.117-0.522-0.158-0.729-0.416c3.457,1.887,5.62,2.854,7.44,6.564c1.275,2.601,1.104,6.586,2.839,8.729"/>
						<path id="svg_155" fill="none" stroke="#000000" stroke-width="0.5" stroke-miterlimit="10" d="M59.183,283.538
							c0.006,1.957,0.377,3.666,0.607,5.555"/>
						<path id="svg_156" fill="none" stroke="#000000" stroke-width="0.5" stroke-miterlimit="10" d="M51.663,257.156
							c-2.256,0-4.6-0.469-6.705,0c-2.807,0.627-4.196,2.745-6.299,4.562"/>
						<path id="svg_157" fill="none" stroke="#000000" stroke-width="0.5" stroke-miterlimit="10" d="M53.897,251.801
							c-0.857-4.806-9.597,0.163-11.176,2.38"/>
						<path id="svg_158" fill="none" stroke="#000000" stroke-width="0.5" stroke-miterlimit="10" d="M47.396,251.205
							c-0.138,0.755-0.751,2.467-0.609,3.77"/>
						<path id="svg_159" fill="none" stroke="#000000" stroke-width="0.5" stroke-miterlimit="10" d="M50.647,250.014
							c0.602-0.654,0.853-2.011,0.406-2.775"/>
						<path id="svg_160" fill="none" stroke="#000000" stroke-width="0.5" stroke-miterlimit="10" d="M78.282,240.098
							c4.101,3.678,7.552,7.443,10.11,12.344c2.826,5.41,4.604,10.77,6.959,16.221"/>
						<path id="svg_161" fill="none" stroke="#000000" stroke-width="0.5" stroke-miterlimit="10" d="M79.501,241.486
							c-0.361-0.174-3.555,0.98-4.226,2.374c-0.946,1.966,0.027,5.39,0.365,7.345"/>
						<path id="svg_162" fill="none" stroke="#000000" stroke-width="0.5" stroke-miterlimit="10" d="M81.534,243.271
							c-4.966-0.113-3.657,8.243-3.657,11.306"/>
						<path id="svg_163" fill="none" stroke="#000000" stroke-width="0.5" stroke-miterlimit="10" d="M83.159,244.858
							c-0.262,1.476-2.305,2.57-3.454,1.388"/>
						<path id="svg_164" fill="none" stroke="#000000" stroke-width="0.5" stroke-miterlimit="10" d="M84.784,247.238
							c-4.207-0.068-3.843,8.611-3.251,11.305"/>
						<path id="svg_165" fill="none" stroke="#000000" stroke-width="0.5" stroke-miterlimit="10" d="M79.501,248.826
							c0.722,0.181,1.842,0.278,2.642,0.596"/>
						<path id="svg_166" fill="none" stroke="#000000" stroke-width="0.5" stroke-miterlimit="10" d="M85.8,254.775
							c-0.081,2.789,0.188,6.259,1.422,8.73"/>
						<path id="svg_167" fill="none" stroke="#000000" stroke-width="0.5" stroke-miterlimit="10" d="M89.051,265.289
							c0-2.191-0.729-6.072,0.452-7.889c1.392-2.143,4.81,0.428,5.644,2.137"/>
						<path id="svg_168" fill="none" stroke="#000000" stroke-width="0.5" stroke-miterlimit="10" d="M88.238,252.992
							c2.258-0.062,5.077,0.454,6.097,2.577"/>
						<path id="svg_169" fill="none" stroke="#000000" stroke-width="0.5" stroke-miterlimit="10" d="M85.191,247.238
							c2.942-0.023,7.151,0,8.939,2.578"/>
						<path id="svg_170" fill="none" stroke="#000000" stroke-width="0.5" stroke-miterlimit="10" d="M82.549,244.064
							c1.52-2.424,8.144-1.291,9.55,0.793"/>
						<path id="svg_171" fill="none" stroke="#000000" stroke-width="0.5" stroke-miterlimit="10" d="M79.908,241.486
							c0.09-0.744,0.498-1.373,1.219-1.588"/>
						<path id="svg_172" fill="none" stroke="#000000" stroke-width="0.5" stroke-miterlimit="10" d="M91.896,234.742
							c7.01,1.803,7.687,13.734,9.144,19.042"/>
						<path id="svg_173" fill="none" stroke="#000000" stroke-width="0.5" stroke-miterlimit="10" d="M100.226,249.618
							c-0.474,0.986-1.088,1.905-1.829,2.777"/>
						<path id="svg_174" fill="none" stroke="#000000" stroke-width="0.5" stroke-miterlimit="10" d="M100.431,249.42
							c1.164,0.095,1.969,1.135,3.046,1.587"/>
						<path id="svg_175" fill="none" stroke="#000000" stroke-width="0.5" stroke-miterlimit="10" d="M99.008,244.461
							c1.303,0.5,2.645,1.461,3.658,2.58"/>
						<path id="svg_176" fill="none" stroke="#000000" stroke-width="0.5" stroke-miterlimit="10" d="M97.586,239.898
							c1.219,0.787,3.092,1.682,4.063,2.778"/>
						<path id="svg_177" fill="none" stroke="#000000" stroke-width="0.5" stroke-miterlimit="10" d="M97.383,240.098
							c-1.964-0.166-2.801,1.902-3.862,3.174"/>
						<path id="svg_178" fill="none" stroke="#000000" stroke-width="0.5" stroke-miterlimit="10" d="M99.211,244.858
							c-2.548,1.579-4.354,3.09-3.656,6.347"/>
						<path id="svg_179" fill="none" stroke="#000000" stroke-width="0.5" stroke-miterlimit="10" d="M94.335,235.932
							c-1.76-0.422-4.68,2.246-4.879,4.164"/>
						<path id="svg_180" fill="none" stroke="#000000" stroke-width="0.5" stroke-miterlimit="10" d="M93.523,236.13
							c1.458-0.535,4.566-0.88,6.095-0.397"/>
						<path id="svg_181" fill="none" stroke="#000000" stroke-width="0.5" stroke-miterlimit="10" d="M88.442,234.345
							c-0.729,0.812-0.729,1.93-1.017,2.976"/>
						<path id="svg_182" fill="none" stroke="#000000" stroke-width="0.5" stroke-miterlimit="10" d="M84.582,234.939
							c-1.371,0.637-2.896,2.039-3.048,3.57"/>
						<path id="svg_183" fill="none" stroke="#000000" stroke-width="0.5" stroke-miterlimit="10" d="M58.166,232.162
							c0.13,0.343-0.039,0.629,0.182,0.953c-6.354-0.248-9.425,8.013-10.546,12.932"/>
						<path id="svg_184" fill="none" stroke="#000000" stroke-width="0.5" stroke-miterlimit="10" d="M37.236,248.031
							c3.233-1.439,6.657-1.784,10.363-1.784"/>
						<path id="svg_185" fill="none" stroke="#000000" stroke-width="0.5" stroke-miterlimit="10" d="M38.455,244.064
							c1.501-0.588,3.267-0.861,4.877-1.334c1.971-0.576,3.196-0.121,5.08-0.055"/>
						<path id="svg_186" fill="none" stroke="#000000" stroke-width="0.5" stroke-miterlimit="10" d="M42.926,238.907
							c3.286,0,6.022-0.737,8.94-1.983"/>
						<path id="svg_187" fill="none" stroke="#000000" stroke-width="0.5" stroke-miterlimit="10" d="M62.432,234.742
							c-4.003,1.698-8.299,1.609-10.768,5.752"/>
						<path id="svg_188" fill="none" stroke="#000000" stroke-width="0.5" stroke-miterlimit="10" d="M58.978,236.329
							c1.06,1.298,2.819,1.946,3.454,3.569"/>
						<path id="svg_189" fill="none" stroke="#000000" stroke-width="0.5" stroke-miterlimit="10" d="M61.417,240.891
							c-2.273-0.846-7.863-0.031-9.753,1.586"/>
						<path id="svg_190" fill="none" stroke="#000000" stroke-width="0.5" stroke-miterlimit="10" d="M63.448,235.732
							c0.185,5.187-5.489,7.067-6.502,11.902"/>
						<path id="svg_191" fill="none" stroke="#000000" stroke-width="0.5" stroke-miterlimit="10" d="M51.053,244.658
							c2.57,0.019,5.459-0.66,7.925-1.387"/>
						<path id="svg_192" fill="none" stroke="#000000" stroke-width="0.5" stroke-miterlimit="10" d="M72.389,231.171
							c-1.28-2.576-8.866-4.408-10.973-2.183"/>
						<path id="svg_193" fill="none" stroke="#000000" stroke-width="0.5" stroke-miterlimit="10" d="M70.967,229.386
							c-1.298-0.085-2.813,0.173-3.658,1.19"/>
						<path id="svg_194" fill="none" stroke="#000000" stroke-width="0.5" stroke-miterlimit="10" d="M67.309,228.394
							c-1.309,0.228-2.609,0.251-3.861,0.794"/>
						<path id="svg_195" fill="none" stroke="#000000" stroke-width="0.5" stroke-miterlimit="10" d="M66.903,228.195
							c-0.381-0.726-1.152-1.201-1.626-1.785"/>
						<path id="svg_196" fill="none" stroke="#000000" stroke-width="0.5" stroke-miterlimit="10" d="M70.357,228.79
							c-0.105-0.625-0.306-1.203-0.609-1.785"/>
						<path id="svg_197" fill="none" stroke="#000000" stroke-width="0.5" stroke-miterlimit="10" d="M78.688,226.41
							c-2.792-2.372-7.883-0.976-11.176-0.793"/>
						<path id="svg_198" fill="none" stroke="#000000" stroke-width="0.5" stroke-miterlimit="10" d="M77.062,225.418
							c-0.743-0.797-1.104-1.803-2.032-2.38"/>
						<path id="svg_199" fill="none" stroke="#000000" stroke-width="0.5" stroke-miterlimit="10" d="M73.202,225.22
							c-0.935-0.608-2.125-1.045-3.252-0.992"/>
						<path id="svg_200" fill="none" stroke="#000000" stroke-width="0.5" stroke-miterlimit="10" d="M76.86,225.617
							c-0.599,0.551-0.893,1.331-1.423,1.983"/>
						<path id="svg_201" fill="none" stroke="#000000" stroke-width="0.5" stroke-miterlimit="10" d="M74.217,225.22
							c-0.697,0.543-1.442,1.13-2.235,1.585"/>
						<path id="svg_202" fill="none" stroke="#000000" stroke-width="0.5" stroke-miterlimit="10" d="M192.344,140.099
							c3.625-5.589,8.229-15.841,14.99-18.096"/>
						<path id="svg_203" fill="none" stroke="#000000" stroke-width="0.5" stroke-miterlimit="10" d="M180.907,144.334
							c-3.992-4.213-7.456-8.387-7.495-14.247"/>
						<path id="svg_204" fill="none" stroke="#000000" stroke-width="0.5" stroke-miterlimit="10" d="M170.255,153.96
							c-2.459-0.306-6.288-1.903-7.495-4.235"/>
						<path id="svg_205" fill="none" stroke="#000000" stroke-width="0.5" stroke-miterlimit="10" d="M178.54,153.19
							c7.188-5.47,24.571-8.302,31.948-1.925"/>
						<path id="svg_206" fill="none" stroke="#000000" stroke-width="0.5" stroke-miterlimit="10" d="M168.283,160.507
							c3.146-3.21,9.477-2.027,13.412-0.77"/>
						<path id="svg_207" fill="none" stroke="#000000" stroke-width="0.5" stroke-miterlimit="10" d="M194.711,136.249
							c-0.347-3.202,0.855-5.926,1.973-8.856"/>
						<path id="svg_208" fill="none" stroke="#000000" stroke-width="0.5" stroke-miterlimit="10" d="M199.444,129.318
							c0.39-1.478,1.476-2.825,2.76-3.851"/>
						<path id="svg_209" fill="none" stroke="#000000" stroke-width="0.5" stroke-miterlimit="10" d="M193.922,137.404
							c3.764,0,7.576,0.417,11.043-1.156"/>
						<path id="svg_210" fill="none" stroke="#000000" stroke-width="0.5" stroke-miterlimit="10" d="M197.078,133.168
							c3.393-0.615,6.934-0.954,9.862-3.081"/>
						<path id="svg_211" fill="none" stroke="#000000" stroke-width="0.5" stroke-miterlimit="10" d="M178.54,141.254
							c-0.196-1.701,0.046-3.468,0.79-5.006"/>
						<path id="svg_212" fill="none" stroke="#000000" stroke-width="0.5" stroke-miterlimit="10" d="M175.778,136.634
							c0.755-2.311,1.474-4.708,2.366-6.931"/>
						<path id="svg_213" fill="none" stroke="#000000" stroke-width="0.5" stroke-miterlimit="10" d="M174.99,136.634
							c-1.964-0.255-3.263-1.994-4.34-3.465"/>
						<path id="svg_214" fill="none" stroke="#000000" stroke-width="0.5" stroke-miterlimit="10" d="M188.398,148.955
							c0.406,2.054,1.609,4.094,2.367,6.161"/>
						<path id="svg_215" fill="none" stroke="#000000" stroke-width="0.5" stroke-miterlimit="10" d="M189.584,148.57
							c0.844-1.359,2.011-2.529,3.55-3.081"/>
						<path id="svg_216" fill="none" stroke="#000000" stroke-width="0.5" stroke-miterlimit="10" d="M199.838,147.8
							c0.922,2.204,2.638,3.977,3.551,6.161"/>
						<path id="svg_217" fill="none" stroke="#000000" stroke-width="0.5" stroke-miterlimit="10" d="M200.629,148.186
							c0.531-0.545,1.404-1.22,1.971-1.54"/>
						<path id="svg_218" fill="none" stroke="#000000" stroke-width="0.5" stroke-miterlimit="10" d="M173.018,159.737
							c0.83,0.732,1.678,1.561,2.365,2.311"/>
						<path id="svg_219" fill="none" stroke="#000000" stroke-width="0.5" stroke-miterlimit="10" d="M175.778,158.582
							c1.062,0.644,2.179,1.462,3.153,2.311"/>
						<path id="svg_220" fill="none" stroke="#000000" stroke-width="0.5" stroke-miterlimit="10" d="M176.565,157.426
							c0.862-0.115,1.694-0.532,2.368-1.155"/>
						<path id="svg_221" fill="none" stroke="#000000" stroke-width="0.5" stroke-miterlimit="10" d="M168.678,153.19
							c-0.992-1.12-1.443-2.689-1.183-4.235"/>
						<path id="svg_222" fill="none" stroke="#000000" stroke-width="0.5" stroke-miterlimit="10" d="M165.129,152.806
							c-0.835,0.09-1.617-0.038-2.367-0.385"/>
						<path id="svg_223" fill="none" stroke="#000000" stroke-width="0.5" stroke-miterlimit="10" d="M109.908,147.03
							c0-17.363-3.55-34.437-3.55-51.596"/>
						<path id="svg_224" fill="none" stroke="#000000" stroke-width="0.5" stroke-miterlimit="10" d="M102.019,92.738
							c0.908,2.641,3.834,5.107,5.818,6.892c0.586-1.209,1.272-2.347,2.068-3.426"/>
						<path id="svg_225" fill="none" stroke="#000000" stroke-width="0.5" stroke-miterlimit="10" d="M100.441,100.054
							c1.988,2.897,4.194,6.379,6.618,8.826c0.954-3.394,3.401-6.022,6.004-8.441"/>
						<path id="svg_226" fill="none" stroke="#000000" stroke-width="0.5" stroke-miterlimit="10" d="M98.864,106.215
							c2.06,1.712,4.575,7.987,7.908,7.737c2.543-0.189,6.851-7.362,8.264-9.277"/>
						<path id="svg_227" fill="none" stroke="#000000" stroke-width="0.5" stroke-miterlimit="10" d="M99.257,110.836
							c1.923,2.262,4.765,9.018,8.284,8.861c2.708-0.12,8.309-6.816,9.071-9.247"/>
						<path id="svg_228" fill="none" stroke="#000000" stroke-width="0.5" stroke-miterlimit="10" d="M98.47,115.071
							c3.648,4.159,5.898,10.707,9.869,14.208c1.372-4.716,6.791-11.647,10.638-14.978"/>
						<path id="svg_229" fill="none" stroke="#000000" stroke-width="0.5" stroke-miterlimit="10" d="M89.792,113.531
							c0.74,4.471,6.557,10.068,9.445,13.562c2.705,3.271,6.138,6.171,9.487,8.771"/>
						<path id="svg_230" fill="none" stroke="#000000" stroke-width="0.5" stroke-miterlimit="10" d="M96.497,124.697
							c-0.01-2.226-0.061-4.371-0.395-6.546"/>
						<path id="svg_231" fill="none" stroke="#000000" stroke-width="0.5" stroke-miterlimit="10" d="M100.837,130.088
							c0.081-2.851-0.649-5.643-0.396-8.471"/>
						<path id="svg_232" fill="none" stroke="#000000" stroke-width="0.5" stroke-miterlimit="10" d="M105.569,133.553
							c-0.16-1.829-0.599-3.625-1.183-5.391"/>
						<path id="svg_233" fill="none" stroke="#000000" stroke-width="0.5" stroke-miterlimit="10" d="M91.764,123.542
							c1.69,0.358,3.509,0.391,5.127,0.77"/>
						<path id="svg_234" fill="none" stroke="#000000" stroke-width="0.5" stroke-miterlimit="10" d="M96.102,128.933
							c2.144,0.529,4.192,1.017,6.312,1.54"/>
						<path id="svg_235" fill="none" stroke="#000000" stroke-width="0.5" stroke-miterlimit="10" d="M101.229,133.938
							c1.961,0.251,4.085,0.673,5.919,1.156"/>
						<path id="svg_236" fill="none" stroke="#000000" stroke-width="0.5" stroke-miterlimit="10" d="M101.625,140.484
							c2.752,1.205,5.585,2.794,8.676,2.695"/>
						<path id="svg_237" fill="none" stroke="#000000" stroke-width="0.5" stroke-miterlimit="10" d="M109.908,143.179
							c4.994-0.016,9.827-1.042,12.226-5.775"/>
						<path id="svg_238" fill="none" stroke="#000000" stroke-width="0.5" stroke-miterlimit="10" d="M113.852,142.409
							c1.486-0.587,2.685-2.993,3.549-4.621"/>
						<path id="svg_239" fill="none" stroke="#000000" stroke-width="0.5" stroke-miterlimit="10" d="M116.218,142.794
							c1.697-0.626,3.261,0.018,5.129,0"/>
						<path id="svg_240" fill="none" stroke="#000000" stroke-width="0.5" stroke-miterlimit="10" d="M106.358,143.179
							c-0.444-1.435-0.91-3.072-1.972-4.235"/>
						<path id="svg_241" fill="none" stroke="#000000" stroke-width="0.5" stroke-miterlimit="10" d="M105.569,142.025
							c-2.509-0.038-5,0.788-7.495,1.155"/>
						<path id="svg_242" fill="none" stroke="#000000" stroke-width="0.5" stroke-miterlimit="10" d="M111.486,134.323
							c1.293-5.571,7.363-15.35,13.412-16.941"/>
						<path id="svg_243" fill="none" stroke="#000000" stroke-width="0.5" stroke-miterlimit="10" d="M119.769,131.628
							c2.76-4.777,5.501-9.515,8.28-14.246"/>
						<path id="svg_244" fill="none" stroke="#000000" stroke-width="0.5" stroke-miterlimit="10" d="M121.741,130.858
							c4.255-4.133,8.22-9.08,13.803-11.551"/>
						<path id="svg_245" fill="none" stroke="#000000" stroke-width="0.5" stroke-miterlimit="10" d="M55.87,121.232
							c2.261,7.036,7.152,13.241,8.59,20.493c1.2,6.054,3.736,16.835,1.27,23.017"/>
						<path id="svg_246" fill="none" stroke="#000000" stroke-width="0.5" stroke-miterlimit="10" d="M52.715,148.186
							c2.371,2.587,5.836,4.052,8.291,6.567c2.242,2.292,3.687,5.146,5.512,7.68"/>
						<path id="svg_247" fill="none" stroke="#000000" stroke-width="0.5" stroke-miterlimit="10" d="M66.913,158.582
							c0.778-5.165,5.083-7.46,8.281-10.782"/>
						<path id="svg_248" fill="none" stroke="#000000" stroke-width="0.5" stroke-miterlimit="10" d="M58.236,145.104
							c3.146,0.948,5.381,3.763,8.292,5.225c0.984-2.777,3.496-5.22,5.115-7.92"/>
						<path id="svg_249" fill="none" stroke="#000000" stroke-width="0.5" stroke-miterlimit="10" d="M55.476,139.714
							c3.686,1.29,6.912,3.875,10.254,5.814c2.245-1.974,3.384-4.949,5.128-7.355"/>
						<path id="svg_250" fill="none" stroke="#000000" stroke-width="0.5" stroke-miterlimit="10" d="M53.897,135.479
							c3.891,0.217,7.41,4.311,10.984,4.178c0.252-3.267,3.063-4.885,4.397-7.644"/>
						<path id="svg_251" fill="none" stroke="#000000" stroke-width="0.5" stroke-miterlimit="10" d="M52.715,130.858
							c3.069,0.532,7.507,2.723,9.89,4.87c0.439-2.857,2.279-5.658,3.126-8.335"/>
						<path id="svg_252" fill="none" stroke="#000000" stroke-width="0.5" stroke-miterlimit="10" d="M53.109,127.008
							c2.568,1.556,6.09,2.04,8.222,4.121c-0.813-2.422,0.383-4.277,1.641-6.431"/>
						<path id="svg_253" fill="none" stroke="#000000" stroke-width="0.5" stroke-miterlimit="10" d="M54.687,124.312
							c1.405,0.423,2.917,1.498,4.271,1.876c-0.069-1.387,0.358-2.685,1.251-3.801"/>
						<path id="svg_254" fill="none" stroke="#000000" stroke-width="0.5" stroke-miterlimit="10" d="M191.949,187.075
							c0.229,3.312,1.052,6.192,0.371,9.625c-0.676,3.42-3.326,6.192-3.922,9.627"/>
						<path id="svg_255" fill="none" stroke="#000000" stroke-width="0.5" stroke-miterlimit="10" d="M191.16,200.936
							c0.814,1.269,1.559,2.688,1.578,4.235"/>
						<path id="svg_256" fill="none" stroke="#000000" stroke-width="0.5" stroke-miterlimit="10" d="M191.949,197.856
							c1.023,0.615,2.266,2.826,2.367,4.621"/>
						<path id="svg_257" fill="none" stroke="#000000" stroke-width="0.5" stroke-miterlimit="10" d="M189.979,201.706
							c-1.047-0.673-2.42-0.535-3.549,0.386"/>
						<path id="svg_258" fill="none" stroke="#000000" stroke-width="0.5" stroke-miterlimit="10" d="M191.949,197.856
							c-2.967-0.068-5.052-0.074-7.1,2.311"/>
						<path id="svg_259" fill="none" stroke="#000000" stroke-width="0.5" stroke-miterlimit="10" d="M191.949,194.005
							c-3.836,0.102-7.37,2.638-9.863,5.391"/>
						<path id="svg_260" fill="none" stroke="#000000" stroke-width="0.5" stroke-miterlimit="10" d="M191.16,193.621
							c1.718-0.506,5.236,4.009,5.523,6.161"/>
						<path id="svg_261" fill="none" stroke="#000000" stroke-width="0.5" stroke-miterlimit="10" d="M184.456,193.621
							c1.351-1.35,4.844-4.001,6.704-4.255c3.623-0.498,4.737,2.697,6.706,5.411"/>
						<path id="svg_262" fill="none" stroke="#000000" stroke-width="0.5" stroke-miterlimit="10" d="M184.061,189
							c2.491-1.166,5.851-1.932,8.678-1.541c3.643,0.503,3.588,2.169,6.311,4.236"/>
						<path id="svg_263" fill="none" stroke="#000000" stroke-width="0.5" stroke-miterlimit="10" d="M189.188,181.684
							c0.523-6.035,1.292-11.181-0.79-16.942"/>
						<path id="svg_264" fill="none" stroke="#000000" stroke-width="0.5" stroke-miterlimit="10" d="M189.584,178.604
							c1.519-1.982,4.128-3.605,4.732-6.161"/>
						<path id="svg_265" fill="none" stroke="#000000" stroke-width="0.5" stroke-miterlimit="10" d="M189.584,173.982
							c1.12-2.416,2.855-5.044,3.154-7.701"/>
						<path id="svg_266" fill="none" stroke="#000000" stroke-width="0.5" stroke-miterlimit="10" d="M189.584,178.219
							c-1.74-1.612-3.818-3.243-5.523-5.005"/>
						<path id="svg_267" fill="none" stroke="#000000" stroke-width="0.5" stroke-miterlimit="10" d="M189.188,172.058
							c-1.754-0.521-2.419-2.49-2.761-4.235"/>
						<path id="svg_268" fill="none" stroke="#000000" stroke-width="0.5" stroke-miterlimit="10" d="M177.355,183.609
							c-1.527,3.369-4.391,6.131-7.89,7.701"/>
						<path id="svg_269" fill="none" stroke="#000000" stroke-width="0.5" stroke-miterlimit="10" d="M171.045,180.913
							c1.193-1.795-0.559-4.617-2.367-5.775"/>
						<path id="svg_270" fill="none" stroke="#000000" stroke-width="0.5" stroke-miterlimit="10" d="M107.147,194.005
							c0.553-1.636,2.474-3.84,3.943-5.391"/>
						<path id="svg_271" fill="none" stroke="#000000" stroke-width="0.5" stroke-miterlimit="10" d="M113.063,187.459
							c4.425-5.195,9.1-11.324,14.99-15.401"/>
						<path id="svg_272" fill="none" stroke="#000000" stroke-width="0.5" stroke-miterlimit="10" d="M115.825,183.609
							c1.013,1.856,2.518,3.613,2.76,5.775"/>
						<path id="svg_273" fill="none" stroke="#000000" stroke-width="0.5" stroke-miterlimit="10" d="M119.769,179.759
							c1.538-0.162,3.7,2.668,4.73,4.235"/>
						<path id="svg_274" fill="none" stroke="#000000" stroke-width="0.5" stroke-miterlimit="10" d="M124.502,175.138
							c0.849-0.017,2.918,0.722,4.341,1.154"/>
						<path id="svg_275" fill="none" stroke="#000000" stroke-width="0.5" stroke-miterlimit="10" d="M120.559,179.373
							c-1.421-0.228-2.49-1.334-3.55-2.31"/>
						<path id="svg_276" fill="none" stroke="#000000" stroke-width="0.5" stroke-miterlimit="10" d="M126.08,174.368
							c-1.101-0.312-2.006-0.822-2.76-1.539"/>
						<path id="svg_277" fill="none" stroke="#000000" stroke-width="0.5" stroke-miterlimit="10" d="M115.43,184.379
							c-0.462-0.641-1.059-1.369-1.576-1.925"/>
						<path id="svg_278" fill="none" stroke="#000000" stroke-width="0.5" stroke-miterlimit="10" d="M109.119,189.385
							c-0.946-0.118-1.819-0.238-2.761-0.385"/>
						<path id="svg_279" fill="none" stroke="#000000" stroke-width="0.5" stroke-miterlimit="10" d="M159.605,103.52
							c4.746-6.762,11.467-12.377,17.344-18.181c5.444-5.375,11.998-12.905,20.129-14.933"/>
						<path id="svg_280" fill="none" stroke="#000000" stroke-width="0.5" stroke-miterlimit="10" d="M179.723,82.342
							c1.46-1.815,2.066-4.628,3.945-6.546"/>
						<path id="svg_281" fill="none" stroke="#000000" stroke-width="0.5" stroke-miterlimit="10" d="M183.668,78.492
							c0.76-2.051,2.145-4.103,3.549-5.775"/>
						<path id="svg_282" fill="none" stroke="#000000" stroke-width="0.5" stroke-miterlimit="10" d="M186.033,76.566
							c1.98-0.692,4.264-0.045,6.312-0.77"/>
						<path id="svg_283" fill="none" stroke="#000000" stroke-width="0.5" stroke-miterlimit="10" d="M182.877,80.417
							c2.133-0.016,4.148-0.578,6.312-0.385"/>
						<path id="svg_284" fill="none" stroke="#000000" stroke-width="0.5" stroke-miterlimit="10" d="M178.54,83.882
							c1.266-0.346,2.579-0.476,3.943-0.385"/>
						<path id="svg_285" fill="none" stroke="#000000" stroke-width="0.5" stroke-miterlimit="10" d="M171.045,91.198
							c2.303,0.117,4.465-0.512,6.705-0.77"/>
						<path id="svg_286" fill="none" stroke="#000000" stroke-width="0.5" stroke-miterlimit="10" d="M165.917,95.819
							c2.253-0.163,4.423-0.662,6.706-0.77"/>
						<path id="svg_287" fill="none" stroke="#000000" stroke-width="0.5" stroke-miterlimit="10" d="M170.65,91.583
							c0.006-1.935-0.252-3.962,0.395-5.775"/>
						<path id="svg_288" fill="none" stroke="#000000" stroke-width="0.5" stroke-miterlimit="10" d="M167.495,94.278
							c0-0.899,0-1.795,0-2.695"/>
						<path id="svg_289" fill="none" stroke="#000000" stroke-width="0.5" stroke-miterlimit="10" d="M162.762,99.67
							c-0.414-1.449-0.508-3.059-0.789-4.621"/>
						<path id="svg_290" fill="none" stroke="#000000" stroke-width="0.5" stroke-miterlimit="10" d="M178.54,18.425
							c-2.376,4.221-6.26,7.691-8.778,11.947c-2.722,4.605-2.818,9.937-4.239,15.006"/>
						<path id="svg_291" fill="none" stroke="#000000" stroke-width="0.5" stroke-miterlimit="10" d="M162.367,49.998
							c-1.738-6.386-11.605-15.082-5.127-22.333"/>
						<path id="svg_292" fill="none" stroke="#000000" stroke-width="0.5" stroke-miterlimit="10" d="M164.34,50.384
							c7.107-4.113,16.082-6.117,23.271-11.166"/>
						<path id="svg_293" fill="none" stroke="#000000" stroke-width="0.5" stroke-miterlimit="10" d="M160.002,59.24
							c3.226,1.842,8.78,0.564,13.016,0.385"/>
						<path id="svg_294" fill="none" stroke="#000000" stroke-width="0.5" stroke-miterlimit="10" d="M160.395,60.01
							c-4.077-0.789-7.801-4.18-9.466-7.702"/>
						<path id="svg_295" fill="none" stroke="#000000" stroke-width="0.5" stroke-miterlimit="10" d="M158.422,59.24
							c-1.273-1.848-1.012-4.461-1.577-6.546"/>
						<path id="svg_296" fill="none" stroke="#000000" stroke-width="0.5" stroke-miterlimit="10" d="M156.057,58.084
							c-0.576-1.602-0.962-3.408-1.973-4.621"/>
						<path id="svg_297" fill="none" stroke="#000000" stroke-width="0.5" stroke-miterlimit="10" d="M164.34,60.395
							c-0.535-1.105,0.092-2.778,0.396-4.235"/>
						<path id="svg_298" fill="none" stroke="#000000" stroke-width="0.5" stroke-miterlimit="10" d="M166.312,59.625
							c1.709-0.802,3.621-1.792,4.732-3.081"/>
						<path id="svg_299" fill="none" stroke="#000000" stroke-width="0.5" stroke-miterlimit="10" d="M164.34,60.395
							c0.135,1.148,0.709,2.262,1.577,3.08"/>
						<path id="svg_300" fill="none" stroke="#000000" stroke-width="0.5" stroke-miterlimit="10" d="M168.678,59.625
							c0.527,1.083,1.535,1.928,2.76,2.31"/>
						<path id="svg_301" fill="none" stroke="#000000" stroke-width="0.5" stroke-miterlimit="10" d="M166.312,39.602
							c-0.441-1.807-1.229-3.526-1.576-5.391"/>
						<path id="svg_302" fill="none" stroke="#000000" stroke-width="0.5" stroke-miterlimit="10" d="M168.283,33.057
							c0.133-1.561,0.41-3.042,0.395-4.621"/>
						<path id="svg_303" fill="none" stroke="#000000" stroke-width="0.5" stroke-miterlimit="10" d="M172.228,27.666
							c0.173-2.11,0.869-4.139,1.579-6.161"/>
						<path id="svg_304" fill="none" stroke="#000000" stroke-width="0.5" stroke-miterlimit="10" d="M168.678,36.521
							c1.205-2.017,3.23-3.556,5.522-4.235"/>
						<path id="svg_305" fill="none" stroke="#000000" stroke-width="0.5" stroke-miterlimit="10" d="M168.283,33.057
							c1.225-2.44,5.404-4.697,7.89-5.776"/>
						<path id="svg_306" fill="none" stroke="#000000" stroke-width="0.5" stroke-miterlimit="10" d="M160.79,44.993
							c0-1.54,0-3.08,0-4.621"/>
						<path id="svg_307" fill="none" stroke="#000000" stroke-width="0.5" stroke-miterlimit="10" d="M67.309,189.385
							c2.639,1.495,4.049,4.369,3.945,7.315"/>
						<path id="svg_308" fill="none" stroke="#000000" stroke-width="0.5" stroke-miterlimit="10" d="M63.365,190.155
							c-2.44,1.161-4.891,2.157-6.706,4.235"/>
						<path id="svg_309" fill="none" stroke="#000000" stroke-width="0.5" stroke-miterlimit="10" d="M121.347,320.301
							c1.146,7.377-14.76,8.605-14.992,17.712"/>
						<path id="svg_310" fill="none" stroke="#000000" stroke-width="0.5" stroke-miterlimit="10" d="M110.301,324.92
							c-0.438,4.833,5.501,11.562,9.445,13.803c2.135,1.213,3.872,0.414,5.443,3.13c1.458,2.521,1.72,8.728,0.099,10.792"/>
						<path id="svg_311" fill="none" stroke="#000000" stroke-width="0.5" stroke-miterlimit="10" d="M124.107,323.766
							c0,5.681-0.94,8.026-3.462,13.005c-2.582,5.104-4.489,12.087-4.032,17.798"/>
						<path id="svg_312" fill="none" stroke="#000000" stroke-width="0.5" stroke-miterlimit="10" d="M122.134,321.456
							c0.784,3.868-3.687,8.542-5.827,12.32c-2.472,4.366-4.408,9.032-5.205,13.948c-1.698,10.48,0.247,19.307-9.477,26.1"/>
						<path id="svg_313" fill="none" stroke="#000000" stroke-width="0.5" stroke-miterlimit="10" d="M107.541,368.045
							c2.065,1.117,4.145,4.537,3.945,6.931"/>
						<path id="svg_314" fill="none" stroke="#000000" stroke-width="0.5" stroke-miterlimit="10" d="M110.697,357.649
							c1.303,0.072,2.992,1.137,4.731,1.538"/>
						<path id="svg_315" fill="none" stroke="#000000" stroke-width="0.5" stroke-miterlimit="10" d="M120.559,342.634
							c-0.369,3.914,0.839,7.49,2.871,10.789c1.564,2.544,5.254,7.405,1.864,10.005"/>
						<path id="svg_316" fill="none" stroke="#000000" stroke-width="0.5" stroke-miterlimit="10" d="M93.341,337.627
							c5.658,0.034,8.542,1.896,12.228,5.776"/>
						<path id="svg_317" fill="none" stroke="#000000" stroke-width="0.5" stroke-miterlimit="10" d="M123.712,326.847
							c0.22,3.808,3.958,4.28,6.225,6.549c3.596,3.6,3.892,9.567,0.482,13.476"/>
						<path id="svg_318" fill="none" stroke="#000000" stroke-width="0.5" stroke-miterlimit="10" d="M106.358,406.165
							c-1.583-1.757-0.572-4.805,1.578-6.161"/>
						<path id="svg_319" fill="none" stroke="#000000" stroke-width="0.5" stroke-miterlimit="10" d="M109.514,408.86
							c-0.636-1.536-0.077-3.035,1.183-4.235"/>
						<path id="svg_320" fill="none" stroke="#000000" stroke-width="0.5" stroke-miterlimit="10" d="M115.036,413.866
							c-0.41-1.168-0.396-2.283,0-3.465"/>
						<path id="svg_321" fill="none" stroke="#000000" stroke-width="0.5" stroke-miterlimit="10" d="M122.53,416.562
							c-0.679-1.199-0.279-3.05,0-4.618"/>
						<path id="svg_322" fill="none" stroke="#000000" stroke-width="0.5" stroke-miterlimit="10" d="M128.445,419.257
							c-0.018-1.445,0.269-2.894,0.79-4.233"/>
						<path id="svg_323" fill="none" stroke="#000000" stroke-width="0.5" stroke-miterlimit="10" d="M133.969,406.936
							c-0.49-0.549-1.828-0.347-3.157,0.385"/>
						<path id="svg_324" fill="none" stroke="#000000" stroke-width="0.5" stroke-miterlimit="10" d="M132.391,402.7
							c-0.875-0.54-2.106-0.346-3.155,0.385"/>
						<path id="svg_325" fill="none" stroke="#000000" stroke-width="0.5" stroke-miterlimit="10" d="M131.208,398.463
							c-1.544-0.142-2.972,0.176-3.945,1.157"/>
						<path id="svg_326" fill="none" stroke="#000000" stroke-width="0.5" stroke-miterlimit="10" d="M129.235,395
							c-1.511-0.274-2.876,0.107-3.944,1.157"/>
						<path id="svg_327" fill="none" stroke="#000000" stroke-width="0.5" stroke-miterlimit="10" d="M126.475,391.533
							c-1.902-0.41-3.454,0.862-4.731,1.926"/>
						<path id="svg_328" fill="none" stroke="#000000" stroke-width="0.5" stroke-miterlimit="10" d="M122.53,389.224
							c-2.133-0.229-3.723,1.236-5.126,2.694"/>
						<path id="svg_329" fill="none" stroke="#000000" stroke-width="0.5" stroke-miterlimit="10" d="M118.19,388.068
							c-2.324-0.375-3.644,1.309-5.127,2.695"/>
						<path id="svg_330" fill="none" stroke="#000000" stroke-width="0.5" stroke-miterlimit="10" d="M76.775,403.854
							c0.831,0.994,1.784,1.925,2.761,2.696"/>
						<path id="svg_331" fill="none" stroke="#000000" stroke-width="0.5" stroke-miterlimit="10" d="M79.931,403.854
							c0.328-0.013,1.597,0.369,2.367,0.771"/>
						<path id="svg_332" fill="none" stroke="#000000" stroke-width="0.5" stroke-miterlimit="10" d="M81.903,401.159
							c0.921,0.146,1.873,0.412,2.76,0.771"/>
						<path id="svg_333" fill="none" stroke="#000000" stroke-width="0.5" stroke-miterlimit="10" d="M82.692,397.695
							c1.099,0.17,2.228,0.039,3.156-0.386"/>
						<path id="svg_334" fill="none" stroke="#000000" stroke-width="0.5" stroke-miterlimit="10" d="M72.831,397.31
							c0.308,0.918,1.005,1.502,1.973,1.54"/>
						<path id="svg_335" fill="none" stroke="#000000" stroke-width="0.5" stroke-miterlimit="10" d="M75.987,393.845
							c0.002,0.823,0.461,1.556,1.18,1.924"/>
						<path id="svg_336" fill="none" stroke="#000000" stroke-width="0.5" stroke-miterlimit="10" d="M79.143,393.073
							c0.088,0.698,0.367,1.352,0.791,1.924"/>
						<path id="svg_337" fill="none" stroke="#000000" stroke-width="0.25" stroke-miterlimit="10" d="M115.43,369.972
							c0.853,1.195,1.512,2.468,1.974,3.853"/>
						<path id="svg_338" fill="none" stroke="#000000" stroke-width="0.25" stroke-miterlimit="10" d="M117.797,367.276
							c0.542,1.194,1.213,2.372,1.972,3.467"/>
						<path id="svg_339" fill="none" stroke="#000000" stroke-width="0.25" stroke-miterlimit="10" d="M120.559,364.195
							c0.096,1.312,0.727,2.663,1.575,3.466"/>
						<path id="svg_340" fill="none" stroke="#000000" stroke-width="0.25" stroke-miterlimit="10" d="M122.53,363.04
							c-0.029-0.088,0.851,1.992,1.182,2.695"/>
						<path id="svg_341" fill="none" stroke="#000000" stroke-width="0.25" stroke-miterlimit="10" d="M124.107,361.114
							c0.263,0.738,0.834,1.311,1.578,1.538"/>
						<path id="svg_342" fill="none" stroke="#000000" stroke-width="0.25" stroke-miterlimit="10" d="M126.868,355.34
							c0.545,0.75,1.093,1.552,1.577,2.31"/>
						<path id="svg_343" fill="none" stroke="#000000" stroke-width="0.25" stroke-miterlimit="10" d="M128.053,353.029
							c0.484,0.83,1.17,1.511,1.971,1.925"/>
						<path id="svg_344" fill="none" stroke="#000000" stroke-width="0.25" stroke-miterlimit="10" d="M130.023,350.334
							c0.186,0.783,0.775,1.357,1.578,1.539"/>
						<path id="svg_345" fill="none" stroke="#000000" stroke-width="0.25" stroke-miterlimit="10" d="M88.608,358.035
							c1.009-0.489,2.126-0.516,3.154,0"/>
						<path id="svg_346" fill="none" stroke="#000000" stroke-width="0.25" stroke-miterlimit="10" d="M89.003,354.568
							c0.752-0.661,1.961-0.946,3.155-0.772"/>
						<path id="svg_347" fill="none" stroke="#000000" stroke-width="0.25" stroke-miterlimit="10" d="M89.003,351.104
							c1.133-0.91,2.714-0.915,4.338-0.771"/>
						<path id="svg_348" fill="none" stroke="#000000" stroke-width="0.25" stroke-miterlimit="10" d="M89.792,347.253
							c0.987-0.914,2.396-1.023,3.945-0.77"/>
						<path id="svg_349" fill="none" stroke="#000000" stroke-width="0.25" stroke-miterlimit="10" d="M90.186,343.019
							c1.458-0.687,3.174-0.392,4.731,0"/>
						<path id="svg_350" fill="none" stroke="#000000" stroke-width="0.25" stroke-miterlimit="10" d="M91.369,339.938
							c0.816-0.401,2.318-0.566,3.55-0.386"/>
						<path id="svg_351" fill="none" stroke="#000000" stroke-width="0.25" stroke-miterlimit="10" d="M92.552,336.857
							c0.016-1.358,2.135-0.754,3.945-0.771"/>
						<path id="svg_352" fill="none" stroke="#000000" stroke-width="0.25" stroke-miterlimit="10" d="M94.13,333.007
							c1.181,0,2.367,0,3.55,0"/>
						<path id="svg_353" fill="none" stroke="#000000" stroke-width="0.25" stroke-miterlimit="10" d="M96.102,330.312
							c0.792-0.222,2.502-0.595,3.551-0.772"/>
						<path id="svg_354" fill="none" stroke="#000000" stroke-width="0.25" stroke-miterlimit="10" d="M97.68,326.847
							c1.02,0.301,2.052,0.43,3.154,0.385"/>
						<path id="svg_355" fill="none" stroke="#000000" stroke-width="0.25" stroke-miterlimit="10" d="M99.653,324.535
							c1.05,0,2.104,0,3.155,0"/>
						<path id="svg_356" fill="none" stroke="#000000" stroke-width="0.25" stroke-miterlimit="10" d="M101.229,321.84
							c1.273,0.025,2.695,0.492,3.55,1.155"/>
						<path id="svg_357" fill="none" stroke="#000000" stroke-width="0.25" stroke-miterlimit="10" d="M104.778,320.686
							c0.581-0.147,1.817,0.197,2.76,0.771"/>
						<path id="svg_358" fill="none" stroke="#000000" stroke-width="0.25" stroke-miterlimit="10" d="M108.724,319.145
							c0.29-0.009,1.545,0.562,2.367,1.158"/>
						<path id="svg_359" fill="none" stroke="#000000" stroke-width="0.25" stroke-miterlimit="10" d="M112.274,318.374
							c0.622,0.361,1.065,0.822,1.578,1.541"/>
						<path id="svg_360" fill="none" stroke="#000000" stroke-width="0.25" stroke-miterlimit="10" d="M115.43,317.99
							c0.319,0.402,0.773,0.997,1.183,1.54"/>
						<path id="svg_361" fill="none" stroke="#000000" stroke-width="0.25" stroke-miterlimit="10" d="M87.031,376.901
							c0.253,0.12,1.002,1.326,1.181,2.311"/>
						<path id="svg_362" fill="none" stroke="#000000" stroke-width="0.25" stroke-miterlimit="10" d="M90.976,375.747
							c0.482,1.208,1.307,2.502,1.576,3.853"/>
						<path id="svg_363" fill="none" stroke="#000000" stroke-width="0.25" stroke-miterlimit="10" d="M93.737,374.592
							c0.961,0.794,2.002,1.812,2.76,2.695"/>
						<path id="svg_364" fill="none" stroke="#000000" stroke-width="0.25" stroke-miterlimit="10" d="M97.286,373.052
							c-0.261-0.636,1.143,1.703,1.579,2.311"/>
						<path id="svg_365" fill="none" stroke="#000000" stroke-width="0.25" stroke-miterlimit="10" d="M96.102,369.586
							c0.873,0.297,1.825,1.085,2.368,1.926"/>
						<path id="svg_366" fill="none" stroke="#000000" stroke-width="0.25" stroke-miterlimit="10" d="M96.102,366.121
							c0.842,0.612,1.638,1.26,2.368,1.923"/>
						<path id="svg_367" fill="none" stroke="#000000" stroke-width="0.25" stroke-miterlimit="10" d="M88.608,363.04
							c0.758,0.364,1.507,0.947,1.971,1.538"/>
						<path id="svg_368" fill="none" stroke="#000000" stroke-width="0.25" stroke-miterlimit="10" d="M86.241,364.581
							c0.792,0.073,1.56,0.527,1.974,1.157"/>
						<path id="svg_369" fill="none" stroke="#000000" stroke-width="0.25" stroke-miterlimit="10" d="M85.453,365.735
							c0.703,0.497,1.273,1.184,1.578,1.923"/>
						<path id="svg_370" fill="none" stroke="#000000" stroke-width="0.25" stroke-miterlimit="10" d="M83.875,367.661
							c0.185,0.784,0.776,1.357,1.578,1.54"/>
						<path id="svg_371" fill="none" stroke="#000000" stroke-width="0.25" stroke-miterlimit="10" d="M82.298,369.201
							c0.741,0.702,1.41,1.48,1.972,2.311"/>
						<path id="svg_372" fill="none" stroke="#000000" stroke-width="0.25" stroke-miterlimit="10" d="M81.903,371.512
							c0.118,0.567,0.395,1.104,0.789,1.538"/>
						<path id="svg_373" fill="none" stroke="#000000" stroke-width="0.25" stroke-miterlimit="10" d="M81.508,373.052
							c-0.083,0.648,0.204,1.188,0.79,1.54"/>
						<path id="svg_374" fill="none" stroke="#000000" stroke-width="0.25" stroke-miterlimit="10" d="M54.169,234.809
							c-1.024-1.613-3.703-1.061-5.42-1.061"/>
					</g>
					<path id="svg_375" fill="none" stroke="#000000" stroke-width="0.5" stroke-miterlimit="10" d="M84.297,336.666
						c0,4.209,0.011,7.866,1.236,11.846"/>
					<path id="svg_376" fill="none" stroke="#000000" stroke-width="0.5" stroke-miterlimit="10" d="M131.55,354.283
						c0.796,3.348,5.179,7.016,7.412,9.719"/>
					<path id="svg_377" fill="none" stroke="#000000" stroke-width="0.5" stroke-miterlimit="10" d="M135.874,359.751
						c-0.656,1.295,0.328,3.004,0.618,4.556"/>
					<path id="svg_378" fill="none" stroke="#000000" stroke-width="0.5" stroke-miterlimit="10" d="M135.874,360.054
						c0.706,0.73,1.974,0.681,3.088,0.911"/>
					<path id="svg_379" fill="none" stroke="#000000" stroke-width="0.5" stroke-miterlimit="10" d="M132.168,356.713
						c2.395-0.651,5.971-0.412,8.338,0.304"/>
					<path id="svg_380" fill="none" stroke="#000000" stroke-width="0.5" stroke-miterlimit="10" d="M138.035,356.713
						c0.763,0.771,1.312,1.724,1.545,2.733"/>
					<path id="svg_381" fill="none" stroke="#000000" stroke-width="0.5" stroke-miterlimit="10" d="M113.02,376.456
						c0.312,1.788-0.299,5.315,0.31,7.897"/>
					<path id="svg_382" fill="none" stroke="#000000" stroke-width="0.5" stroke-miterlimit="10" d="M113.02,377.671
						c2.033,1.321,3.494,2.97,5.25,4.556"/>
					<path id="svg_383" fill="none" stroke="#000000" stroke-width="0.5" stroke-miterlimit="10" d="M116.108,379.493
						c-0.009,1.058,0.091,2.032,0.309,3.038"/>
					<path id="svg_384" fill="none" stroke="#000000" stroke-width="0.5" stroke-miterlimit="10" d="M116.108,380.101
						c1.132,0,2.265,0,3.397,0"/>
					<path id="svg_385" fill="none" stroke="#000000" stroke-width="0.5" stroke-miterlimit="10" d="M97.887,387.694
						c1.616,2.138,2.764,5.564,3.706,8.201"/>
					<path id="svg_386" fill="none" stroke="#000000" stroke-width="0.5" stroke-miterlimit="10" d="M100.667,392.857
						c-0.825,1.044-0.863,2.505-0.927,3.949"/>
				</g>
				<g id="svg_387">
					<path id="svg_388" fill="none" stroke="#000000" stroke-miterlimit="10" d="M114.487,44.699
						c0.706-0.736,2.465-1.779,3.938-1.594"/>
					<path id="svg_389" fill="none" stroke="#000000" stroke-miterlimit="10" d="M128.153,42.649
						c1.183,0.004,2.36-0.081,3.475,0.228"/>
				</g>
			</g>
		</g>
	</g>
</g>
<g>
	<path d="M53.917,24.076c-1.061,0.557-3.182,1.113-5.899,1.113c-6.297,0-11.036-4.176-11.036-11.868C36.981,5.978,41.721,1,48.647,1
		c2.784,0,4.54,0.626,5.303,1.044l-0.696,2.471c-1.094-0.557-2.651-0.975-4.507-0.975c-5.236,0-8.716,3.515-8.716,9.676
		c0,5.743,3.148,9.433,8.584,9.433c1.756,0,3.546-0.383,4.706-0.975L53.917,24.076z"/>
	<path d="M71.583,16.28c0,6.23-4.109,8.945-7.987,8.945c-4.341,0-7.689-3.341-7.689-8.667c0-5.638,3.513-8.945,7.954-8.945
		C68.467,7.613,71.583,11.128,71.583,16.28z M58.856,16.454c0,3.689,2.022,6.474,4.872,6.474c2.784,0,4.872-2.75,4.872-6.543
		c0-2.854-1.358-6.474-4.806-6.474C60.348,9.91,58.856,13.251,58.856,16.454z"/>
	<path d="M75.263,12.556c0-1.74-0.033-3.167-0.133-4.56h2.552l0.132,2.715h0.1c0.895-1.601,2.386-3.098,5.038-3.098
		c2.188,0,3.844,1.392,4.541,3.376h0.066c0.497-0.94,1.126-1.67,1.79-2.193c0.961-0.766,2.021-1.183,3.546-1.183
		c2.121,0,5.27,1.462,5.27,7.309v9.919h-2.851v-9.537c0-3.237-1.127-5.186-3.48-5.186c-1.657,0-2.95,1.288-3.447,2.785
		c-0.132,0.417-0.232,0.974-0.232,1.531v10.407h-2.85V14.748c0-2.68-1.127-4.629-3.347-4.629c-1.823,0-3.149,1.531-3.613,3.063
		c-0.166,0.452-0.232,0.975-0.232,1.497v10.163h-2.85V12.556z"/>
	<path d="M106.153,3.263c0.033,1.044-0.696,1.879-1.856,1.879c-1.027,0-1.757-0.835-1.757-1.879c0-1.079,0.762-1.915,1.823-1.915
		C105.457,1.348,106.153,2.184,106.153,3.263z M102.905,24.842V7.996h2.917v16.846H102.905z"/>
	<path d="M110.66,12.556c0-1.74-0.033-3.167-0.133-4.56h2.585l0.166,2.784h0.066c0.795-1.601,2.651-3.167,5.303-3.167
		c2.221,0,5.667,1.392,5.667,7.17v10.059h-2.916v-9.71c0-2.715-0.961-4.978-3.712-4.978c-1.922,0-3.414,1.427-3.911,3.133
		c-0.132,0.383-0.199,0.905-0.199,1.427v10.128h-2.917V12.556z"/>
	<path d="M142.875,7.996c-0.066,1.218-0.132,2.576-0.132,4.629v9.78c0,3.863-0.729,6.23-2.287,7.692
		c-1.558,1.531-3.812,2.019-5.833,2.019c-1.922,0-4.043-0.487-5.336-1.393l0.729-2.332c1.061,0.696,2.718,1.323,4.706,1.323
		c2.982,0,5.17-1.636,5.17-5.883v-1.879h-0.066c-0.895,1.566-2.618,2.819-5.104,2.819c-3.978,0-6.827-3.55-6.827-8.214
		c0-5.708,3.546-8.945,7.225-8.945c2.784,0,4.309,1.531,5.005,2.923h0.065l0.133-2.541H142.875z M139.859,14.644
		c0-0.522-0.033-0.975-0.166-1.393c-0.53-1.775-1.955-3.237-4.076-3.237c-2.784,0-4.772,2.471-4.772,6.37
		c0,3.306,1.591,6.056,4.739,6.056c1.79,0,3.414-1.184,4.043-3.133c0.166-0.522,0.232-1.114,0.232-1.636V14.644z"/>
	<path d="M154.311,21.152c1.293,0.835,3.182,1.531,5.17,1.531c2.95,0,4.673-1.636,4.673-4.002c0-2.193-1.192-3.446-4.209-4.664
		c-3.646-1.357-5.899-3.341-5.899-6.648c0-3.655,2.884-6.37,7.226-6.37c2.287,0,3.943,0.557,4.938,1.149l-0.796,2.471
		c-0.729-0.418-2.221-1.114-4.242-1.114c-3.049,0-4.209,1.914-4.209,3.515c0,2.193,1.358,3.271,4.441,4.525
		c3.778,1.531,5.7,3.445,5.7,6.891c0,3.62-2.552,6.752-7.821,6.752c-2.154,0-4.508-0.661-5.701-1.496L154.311,21.152z"/>
	<path d="M185.663,16.28c0,6.23-4.109,8.945-7.987,8.945c-4.342,0-7.688-3.341-7.688-8.667c0-5.638,3.513-8.945,7.954-8.945
		C182.548,7.613,185.663,11.128,185.663,16.28z M172.937,16.454c0,3.689,2.021,6.474,4.872,6.474c2.784,0,4.872-2.75,4.872-6.543
		c0-2.854-1.359-6.474-4.806-6.474C174.428,9.91,172.937,13.251,172.937,16.454z"/>
	<path d="M203.859,16.28c0,6.23-4.109,8.945-7.987,8.945c-4.342,0-7.688-3.341-7.688-8.667c0-5.638,3.513-8.945,7.954-8.945
		C200.744,7.613,203.859,11.128,203.859,16.28z M191.133,16.454c0,3.689,2.021,6.474,4.872,6.474c2.784,0,4.872-2.75,4.872-6.543
		c0-2.854-1.359-6.474-4.806-6.474C192.624,9.91,191.133,13.251,191.133,16.454z"/>
	<path d="M207.539,12.556c0-1.74-0.033-3.167-0.132-4.56h2.585l0.166,2.784h0.065c0.796-1.601,2.651-3.167,5.303-3.167
		c2.221,0,5.668,1.392,5.668,7.17v10.059h-2.917v-9.71c0-2.715-0.961-4.978-3.712-4.978c-1.922,0-3.413,1.427-3.91,3.133
		c-0.133,0.383-0.199,0.905-0.199,1.427v10.128h-2.917V12.556z"/>
</g>
</svg>
