<svg id="BiologicalLevels-Interactive" xmlns="http://www.w3.org/2000/svg" viewBox="0 0 877.9 555.12" preserveAspectRatio="xMidYMin meet">
  <defs>
    <style>
      /* NAVIGATION BUTTONS */
      
      .navButton {
        cursor: pointer;
        transition: all .25s;
      }

      .navButton:hover {
        font-weight: bold;
        fill: #99CC00;
      }

      .navButton:hover + .allLevels{
        opacity: 0.2;
      }

      .navButtonRectangle {
        fill: #e6e6e6;
      }

      #World_eFP_button, #Plant_eFP_button, #Experiment_eFP_button, #Cell_eFP_button, #Chromosome_Viewer_button, #Interaction_Viewer_button, #Molecule_Viewer_button, #Sequence_Browser_button {
        stroke: #e6e6e6;
        stroke-width: 2px;
        transition: all .25s;
      }

      /* CHART */

      #phenotype, #localization, #subcellular_localization, #secondary_metabolism, #primary_metabolism, #metabolism, #protein_networks, #structure, #protein_sequence, #RNA_sequence, #signaling, #methylation, #ncRNA, #DNA_sequence, #natural_variation, #environment, #allArrows {
        opacity: 1;
        transform-origin: 50% 50%;
        transform:scale(1,1);
        transition: all .25s;
        -webkit-transition-timing-function: ease-in-out ; /* Safari and Chrome */
        transition-timing-function: ease-in-out ;
      }

      .cls-1, .cls-11, .cls-12, .cls-13, .cls-14, .cls-15, .cls-16, .cls-17, .cls-18, .cls-19, .cls-20, .cls-21, .cls-22, .cls-23, .cls-26, .cls-33, .cls-37, .cls-38, .cls-39, .cls-40, .cls-41, .cls-42, .cls-43, .cls-44, .cls-45, .cls-46, .cls-47, .cls-48, .cls-49 {
        isolation: isolate;
      }

      .cls-1, .cls-11, .cls-12, .cls-13, .cls-33 {
        font-family: "HelveticaNeue-Light", "Helvetica Neue Light", "Helvetica Neue", Helvetica, Arial, "Lucida Grande", sans-serif; 
      }

      .cls-2, .cls-24, .cls-27, .cls-28, .cls-3, .cls-31, .cls-34, .cls-35, .cls-4, .cls-5, .cls-50, .cls-51, .cls-52, .cls-6, .cls-8, .cls-9 {
        fill: none;
      }

      .cls-2, .cls-24, .cls-27, .cls-3, .cls-31, .cls-34, .cls-35, .cls-4, .cls-5, .cls-51, .cls-52, .cls-6 {
        stroke: #a5a5a5;
      }

      .cls-7 {
        fill: #a5a5a5;
      }

      .cls-29, .cls-32, .cls-36, .cls-50, .cls-8, .cls-9, .cls-30, .cls-56, .cls-57, .cls-58 {
        stroke: #000000;
      }

      .cls-10, .cls-29, .cls-30 {
        fill: #000000;
      }

      .cls-32, .cls-36, .cls-54, .cls-56, .cls-57 {
        fill: #fff;
      }

      .cls-55 {
        fill: #272727;
      }

      .cls-2, .cls-24, .cls-27, .cls-29, .cls-3, .cls-30, .cls-31, .cls-32, .cls-34, .cls-35, .cls-36, .cls-4, .cls-5, .cls-50, .cls-51, .cls-52, .navButtonRectangle, .cls-56, .cls-57, .cls-58, .cls-6, .cls-8, .cls-9 {
        stroke-miterlimit: 10;
      }

      .cls-2, .cls-4, .cls-5, .cls-6, .cls-27, .cls-31, .cls-34, .cls-35, .cls-51, .cls-52 {
        stroke-dasharray: 2 2;
      }

      .cls-24, .cls-8 {
        stroke-width: 3px;
      }

      .cls-1, .cls-13 {
        font-size: 12px;
      }

      .cls-11 {
        font-size: 11.01px;
      }

      .cls-12, .cls-33, .cls-38 {
        font-size: 8px;
      }

      .cls-12 {
        fill: #666666;
        font-style: italic;
      }

      .cls-14, .cls-15, .cls-16, .cls-17, .cls-18, .cls-19, .cls-20, .cls-21, .cls-22, .cls-23, .cls-26, .cls-37, .cls-38, .cls-39, .cls-40, .cls-41, .cls-42, .cls-43, .cls-44, .cls-45, .cls-46, .cls-47, .cls-48, .cls-49 {
        font-family: Courier;
      }

      .cls-14 {
        font-size: 9.08px;
      }

      .cls-15 {
        font-size: 9.07px;
      }

      .cls-16 {
        font-size: 9.09px;
      }

      .cls-17 {
        font-size: 9.1px;
      }

      .cls-18 {
        font-size: 9.1px;
      }

      .cls-19 {
        font-size: 9.06px;
      }

      .cls-20 {
        font-size: 9.08px;
      }

      .cls-21 {
        font-size: 9.12px;
      }

      .cls-22 {
        font-size: 9.13px;
      }

      .cls-23 {
        font-size: 9.1px;
      }

      .cls-25 {
        font-size: 10px;
      }

      .cls-26 {
        font-size: 9.11px;
      }

      .cls-29 {
        stroke-width: 2px;
      }

      .cls-32, .cls-50 {
        stroke-width: 0.5px;
      }

      .cls-37 {
        font-size: 7.99px;
      }

      .cls-39 {
        font-size: 8.01px;
      }

      .cls-40 {
        font-size: 7.98px;
      }

      .cls-41 {
        font-size: 8.03px;
      }

      .cls-42 {
        font-size: 7.98px;
      }

      .cls-43 {
        font-size: 8.01px;
      }

      .cls-44 {
        font-size: 8.01px;
      }

      .cls-45 {
        font-size: 7.99px;
      }

      .cls-46 {
        font-size: 7.97px;
      }

      .cls-47 {
        font-size: 8.04px;
      }

      .cls-48 {
        font-size: 7.98px;
      }

      .cls-49 {
        font-size: 8px;
      }

      .cls-56, .cls-58 {
        stroke-width: 0.25px;
      }

      .cls-57 {
        stroke-width: 4px;
      }
    </style>
  </defs>
  <title>BiologicalLevels-Interactive</title>

  <!-- allLevels -->
  <g id="allLevels">

      <!-- All Arrows -->
      <g id="allArrows">
          <g id="arrow_to_phenotype" data-name="arrow to phenotype">
            <path class="cls-2" d="M758.68,476.86c9.5-15.77,37.64-35.71,56.58-23.4,16.67,10.83,0,13.33-6,13.87" transform="translate(-13.67 0.03)"/>
            <path class="cls-3" d="M808.25,467.42l-1,.06,0.88,0.44" transform="translate(-13.67 0.03)"/>
            <line class="cls-4" x1="796.27" y1="468.88" x2="816.81" y2="479.56"/>
            <polyline class="cls-3" points="817.71 480.03 818.59 480.49 819.25 479.73"/>
            <line class="cls-5" x1="820.49" y1="478.3" x2="837.31" y2="458.96"/>
            <path class="cls-3" d="M851.6,458.21l0.66-.75-0.9.42" transform="translate(-13.67 0.03)"/>
            <path class="cls-6" d="M849.52,458.65c-5.52,2.16-17.49,5.56-18.26-5.19-1-13.73,6.46-48.46,37.14-61.26" transform="translate(-13.67 0.03)"/>
          </g>
          <g id="arrow_from_3D_structure_to_localization" data-name="arrow from 3D structure to localization">
            <path class="cls-3" d="M523.9,395.5a207.5,207.5,0,0,1-8.34,50" transform="translate(-13.67 0.03)"/>
            <path class="cls-7" d="M513.86,451.29a30.22,30.22,0,0,0-2.32-9.5l4.13,2.92,5-.4A30.2,30.2,0,0,0,513.86,451.29Z" transform="translate(-13.67 0.03)"/>
          </g>
          <g id="arrow_from_3D_structure_to_subcellular_localization" data-name="arrow from 3D structure to subcellular localization">
            <path class="cls-3" d="M474,391.57c-28.51,10.16-51,29.21-67,53.87" transform="translate(-13.67 0.03)"/>
            <path class="cls-7" d="M403.81,450.57a30.22,30.22,0,0,0,.52-9.77l3.11,4,4.94,1.07A30.2,30.2,0,0,0,403.81,450.57Z" transform="translate(-13.67 0.03)"/>
          </g>
          <g id="arrow_from_metabolism_to_secondary_metabolism" data-name="arrow from metabolism to secondary metabolism">
            <path class="cls-3" d="M651.67,367.62c22.72-.26,46.67,4.72,63.85,19.76" transform="translate(-13.67 0.03)"/>
            <path class="cls-7" d="M719.88,391.57a30.22,30.22,0,0,0-9.48-2.4l4.51-2.28,2-4.64A30.19,30.19,0,0,0,719.88,391.57Z" transform="translate(-13.67 0.03)"/>
          </g>
          <g id="arrow_from_metabolism_to_primary_metabolism" data-name="arrow from metabolism to primary metabolism">
            <path class="cls-3" d="M625.43,409c12,14.56,15.92,22.54,21.2,35.9" transform="translate(-13.67 0.03)"/>
            <path class="cls-7" d="M648.81,450.57a30.22,30.22,0,0,0-7.58-6.15l5-.16,3.78-3.36A30.19,30.19,0,0,0,648.81,450.57Z" transform="translate(-13.67 0.03)"/>
          </g>
          <g id="arrow_from_3D_structure_to_metabolism" data-name="arrow from 3D structure to metabolism">
            <path class="cls-3" d="M544.92,355.92c9.91-.6,28.22-0.91,45,1.64" transform="translate(-13.67 0.03)"/>
            <path class="cls-7" d="M595.92,358.6a30.22,30.22,0,0,0-9.23,3.25l2.5-4.4-0.9-5A30.2,30.2,0,0,0,595.92,358.6Z" transform="translate(-13.67 0.03)"/>
          </g>
          <g id="arrow_from_3D_structure_to_protein_networks" data-name="arrow from 3D structure to protein networks">
            <path class="cls-3" d="M543.92,330.11C560.28,311.4,683.31,287.55,732,287.52" transform="translate(-13.67 0.03)"/>
            <path class="cls-7" d="M738,287.65a30.22,30.22,0,0,0-8.6,4.66l1.77-4.74-1.67-4.77A30.2,30.2,0,0,0,738,287.65Z" transform="translate(-13.67 0.03)"/>
          </g>
          <g id="arrow_from_signaling_to_protein_networks" data-name="arrow from signaling to protein networks">
            <path class="cls-3" d="M610.9,224.21c24.72-.67,82.36,24.3,117.38,36.55" transform="translate(-13.67 0.03)"/>
            <path class="cls-7" d="M734,262.71a30.22,30.22,0,0,0-9.64,1.65l3.2-3.92v-5.06A30.2,30.2,0,0,0,734,262.71Z" transform="translate(-13.67 0.03)"/>
          </g>
          <g id="arrow_from_protein_to_structure" data-name="arrow from protein to structure">
            <path class="cls-3" d="M431,353.09c16.61,1.21,34.38-4.61,52.8,1.21" transform="translate(-13.67 0.03)"/>
            <path class="cls-7" d="M489.45,356.42a30.22,30.22,0,0,0-9.67,1.5l3.26-3.86V349A30.2,30.2,0,0,0,489.45,356.42Z" transform="translate(-13.67 0.03)"/>
          </g>
          <text class="cls-12" transform="translate(434.42 342.86)">folding</text>
          <text class="cls-12" transform="translate(280.57 302.37)">translation</text>
          <g id="arrow_from_RNA_to_protein" data-name="arrow from RNA to protein">
            <path class="cls-24" d="M339.29,266.06c0,27.87,2.38,41.13,16.64,55.78" transform="translate(-13.67 0.03)"/>
            <path class="cls-7" d="M363.78,329.09c-4.94-2.08-11.67-4-16.8-4.2l8-4.06,3.53-8.22C359,317.7,361.39,324.29,363.78,329.09Z" transform="translate(-13.67 0.03)"/>
          </g>
          <g id="arrow_from_DNA_to_RNA" data-name="arrow from DNA to RNA">
            <path class="cls-24" d="M483.86,164.49c-3.09,17.53-34,45.48-64.88,59" transform="translate(-13.67 0.03)"/>
            <path class="cls-7" d="M409,227.42c4-3.58,8.61-8.84,11-13.4l0.27,8.95,5.93,6.7C421.34,227.94,414.37,227.28,409,227.42Z" transform="translate(-13.67 0.03)"/>
          </g>
          <g id="arrow_from_natural_variation_to_RNA" data-name="arrow from natural variation to RNA">
            <path class="cls-27" d="M349.42,129.64c2.56,9.49-.42,29.76-1.08,49.64" transform="translate(-13.67 0.03)"/>
            <path class="cls-7" d="M348.22,187.3a30.22,30.22,0,0,0-4.61-8.63l4.73,1.8,4.78-1.64A30.2,30.2,0,0,0,348.22,187.3Z" transform="translate(-13.67 0.03)"/>
          </g>
          <text class="cls-12" transform="translate(394.13 189.71)">transcription</text>
          <g id="arrow_from_signaling_to_RNA" data-name="arrow from signaling to RNA">
            <path class="cls-3" d="M538.07,218.71c-39-.36-75.22,17.1-113,20.56" transform="translate(-13.67 0.03)"/>
            <path class="cls-7" d="M419.08,239.7a30.22,30.22,0,0,0,8.16-5.39l-1.36,4.87,2.07,4.61A30.2,30.2,0,0,0,419.08,239.7Z" transform="translate(-13.67 0.03)"/>
          </g>
          <g id="arrow_from_3d_structure_to_signaling" data-name="arrow from 3d structure to signaling">
            <path class="cls-3" d="M524.27,322.09c1.85-17.77,20.68-26.83,29-43.41" transform="translate(-13.67 0.03)"/>
            <path class="cls-7" d="M555.61,273.09a30.22,30.22,0,0,0,1,9.73l-3.7-3.44-5-.28A30.2,30.2,0,0,0,555.61,273.09Z" transform="translate(-13.67 0.03)"/>
          </g>
          <g id="arrow_from_environment_to_signaling" data-name="arrow from environment to signaling">
            <path class="cls-31" d="M595.83,57.13c-0.47,22.8,2,81.72-5.59,108.19" transform="translate(-13.67 0.03)"/>
            <path class="cls-7" d="M587.32,172.82a30.22,30.22,0,0,0-1.25-9.7l3.78,3.36,5,0.16A30.19,30.19,0,0,0,587.32,172.82Z" transform="translate(-13.67 0.03)"/>
          </g>
          <g id="arrow_from_environment_to_methylation" data-name="arrow from environment to methylation">
            <path class="cls-34" d="M638.61,21.07c35.73-1,120.7-.13,159.66,32.36" transform="translate(-13.67 0.03)"/>
            <path class="cls-7" d="M804.13,58.92a30.22,30.22,0,0,0-9.47-2.43l4.47-2.27,2-4.63A30.2,30.2,0,0,0,804.13,58.92Z" transform="translate(-13.67 0.03)"/>
          </g>
          <g id="arrow_from_signaling_to_methylation" data-name="arrow from signaling to methylation">
            <path class="cls-3" d="M610.9,214.21c21.6-2.05,205.73-22.43,215.63-81.86" transform="translate(-13.67 0.03)"/>
            <path class="cls-7" d="M826.93,126.33a30.22,30.22,0,0,0,4.07,8.9l-4.61-2.09-4.88,1.34A30.2,30.2,0,0,0,826.93,126.33Z" transform="translate(-13.67 0.03)"/>
          </g>
          <g id="arrow_from_environment_to_ncRNA" data-name="arrow from environment to ncRNA">
            <path class="cls-35" d="M623.62,55.91c21.67,18.88,45.51,14.51,61.51,31.31" transform="translate(-13.67 0.03)"/>
            <path class="cls-7" d="M690,93.54a30.22,30.22,0,0,0-9-3.95l4.83-1.5,2.76-4.24A30.19,30.19,0,0,0,690,93.54Z" transform="translate(-13.67 0.03)"/>
          </g>
          <g id="arrow_from_signaling_to_ncRNA" data-name="arrow from signaling to ncRNA">
            <path class="cls-3" d="M610.26,202.3c29-7.19,39.55-24.47,46.79-44.07" transform="translate(-13.67 0.03)"/>
            <path class="cls-7" d="M659,152.54a30.22,30.22,0,0,0,1.58,9.65L656.74,159h-5.06A30.2,30.2,0,0,0,659,152.54Z" transform="translate(-13.67 0.03)"/>
          </g>
          <g id="arrow_from_environment_to_DNA_sequence" data-name="arrow from environment to DNA sequence">
            <path class="cls-2" d="M570.71,58.15C557,76,539,75.22,522.13,89.29" transform="translate(-13.67 0.03)"/>
            <path class="cls-7" d="M516.32,94.82a30.22,30.22,0,0,0,2.86-9.35l2.06,4.62,4.54,2.23A30.2,30.2,0,0,0,516.32,94.82Z" transform="translate(-13.67 0.03)"/>
          </g>
          <g id="arrow_from_natural_variation_to_DNA_sequence" data-name="arrow from natural variation to DNA sequence">
            <path class="cls-34" d="M396.51,103.34c9.84,3.22,15.88,4.54,27.37,13.67" transform="translate(-13.67 0.03)"/>
            <path class="cls-7" d="M430,122.19a30.22,30.22,0,0,0-9.6-1.88l4.38-2.52,1.75-4.74A30.19,30.19,0,0,0,430,122.19Z" transform="translate(-13.67 0.03)"/>
          </g>
          <g id="arrow_from_signaling_to_DNA_sequence" data-name="arrow from signaling to DNA sequence">
            <path class="cls-3" d="M547.13,203.48c-16.3-8.17-33.46-19.3-43.87-34.63" transform="translate(-13.67 0.03)"/>
            <path class="cls-7" d="M500.08,163.7a30.22,30.22,0,0,0,8.55,4.72l-5,1-3.13,4A30.2,30.2,0,0,0,500.08,163.7Z" transform="translate(-13.67 0.03)"/>
          </g>
          <g id="arrow_from_environment_to_natural_variation" data-name="arrow from environment to natural variation">
            <path class="cls-51" d="M537.19,22.89c-47-.51-115.14-2.07-145.44,22.93" transform="translate(-13.67 0.03)"/>
            <path class="cls-7" d="M386,51.42a30.22,30.22,0,0,0,2.71-9.4l2.13,4.58,4.57,2.16A30.2,30.2,0,0,0,386,51.42Z" transform="translate(-13.67 0.03)"/>
          </g>
      </g>

      <!-- Phenotype -->
      <g id="phenotype" class="biologicalLevel">
          <g id="phenotype_icon" data-name="phenotype icon">
            <path d="M808.59,494c-1.74,5.1-3.26,10.25-7.17,14.22a24.71,24.71,0,0,1-9.41,5.94,2,2,0,0,0-1.34,1.34,24.57,24.57,0,0,0-1.22,11.06l0.11,1-1.18.32c-1.59-10.24,2.69-18.32,8.6-25.63-0.86.35-3,2.5-4.75,5.19-1.35,2-2.57,4.19-3.84,6.29-1.87-5-.52-12.33,5.1-17.26C797.81,492.66,804.49,491.47,808.59,494Z" transform="translate(-13.67 0.03)"/>
            <path d="M826.62,506.09c-1.12,3.28-2.1,6.59-4.61,9.14a15.89,15.89,0,0,1-6,3.82,1.29,1.29,0,0,0-.86.86,15.79,15.79,0,0,0-.78,7.11l0.07,0.67-0.76.2c-1-6.58,1.73-11.78,5.53-16.48a11.08,11.08,0,0,0-3,3.34c-0.87,1.32-1.65,2.69-2.47,4-1.2-3.19-.34-7.92,3.28-11.1C819.68,505.24,824,504.48,826.62,506.09Z" transform="translate(-13.67 0.03)"/>
            <path d="M857.76,494a14.33,14.33,0,0,0-5,8.49c-0.52,2.6-.22,3.75-2.17,5.73-1.3,1.32-3.31.8-4.83,1.77s-2.74,3.51-4.58,4.17a2,2,0,0,0-1.34,1.34,24.57,24.57,0,0,0-1.22,11.06l0.11,1-1.18.32c-1.59-10.24,2.69-18.32,8.6-25.63-0.86.35-3,2.5-4.75,5.19-1.35,2-2.57,4.19-3.84,6.29-1.12-3,.2-6.75,2-10.26,0.75-1.5,1-4.27,3.25-6.25,1.68-1.47,5.16-1,5.75-2.5C849.51,492.21,851.51,493.71,857.76,494Z" transform="translate(-13.67 0.03)"/>
            <path d="M891.26,491c-8,1.25-15.1,13.26-19,17.23-2.67,2.72-2.84,4.65-6.41,5.94a2,2,0,0,0-1.34,1.34,24.57,24.57,0,0,0-1.22,11.06l0.11,1-1.18.32c-1.59-10.24,2.69-18.32,8.6-25.63-0.86.35-3,2.5-4.75,5.19-1.35,2-2.57,4.19-3.84,6.29-1.87-5-.52-10.33,5.1-15.26C871.64,494.66,881.26,488.71,891.26,491Z" transform="translate(-13.67 0.03)"/>
          </g>
          <text class="cls-1" transform="translate(757.42 546.05)">phenotype / response</text>
      </g>
      <!-- Localization -->
      <g id="localization" class="biologicalLevel">
          <text class="cls-1" transform="translate(420 535)">spatio-temporal distribution<tspan x="5" y="12">/ perturbation response</tspan></text>
          <g id="localization_icon">
            <path d="M494,517.5h-2.4l0.6-29h1.2l0.2,10.2c2.1-5.6,5.6-9.7,11.5-11.6C498.5,496.1,494,506,494,517.5z"/>
            <path d="M482.4,478.1c2.7,0.5,5.3,1.5,7.6,3c0.8,0.6,1.5,1.4,2.1,2.2c1,1.2,0.9,2.9-0.2,4c-1,1.2-2.8,1.4-4.1,0.5
              c-1.5-0.9-2.7-2.3-3.5-3.9C483.5,482,482.8,480.1,482.4,478.1z"/>
            <path d="M502.5,474.6c-1,3.6-1.8,7-4.9,9.3c-0.5,0.4-1.1,0.7-1.7,0.9c-1.2,0.3-2.5-0.2-3.2-1.2c-0.8-0.8-0.9-2.1-0.3-3.1
              c0.6-1,1.3-1.9,2.1-2.6C496.7,476.1,499.5,475.4,502.5,474.6z"/>
            <path d="M490.7,454.2c1.5,2.5,3,4.9,2.9,7.8c0,0.5-0.1,1.1-0.2,1.6c-0.4,1.5-1.9,2.4-3.4,2.1c-1-0.2-1.8-1-2.1-2
              c-0.4-1.3-0.4-2.7,0-4c0.6-1.9,1.4-3.7,2.5-5.3L490.7,454.2z"/>
            <path d="M500.8,468.3c-0.7,2.7-1.4,5.2-3.4,7.2c-0.6,0.6-1.3,1-2.1,1.3c-1.4,0.4-2.9-0.5-3.2-1.9c-0.1-0.5-0.1-1.1,0.1-1.6
              c0.5-1.1,1.3-2.1,2.4-2.8C496.5,469.5,498.6,468.7,500.8,468.3z"/>
            <path d="M484,471.7c2.8,0.7,5.4,1.3,7.4,3.4c0.4,0.4,0.7,0.9,1,1.4c0.6,1,0.5,2.3-0.4,3.1c-0.8,0.9-2.1,1.1-3.1,0.5
              c-0.7-0.4-1.3-0.8-1.8-1.4C485.3,476.8,484.7,474.3,484,471.7z"/>
            <path d="M485.1,465.9c2.7,0.7,5.3,1.3,7,3.6c0.8,0.8,0.9,2.2,0.2,3.1c-0.7,1-2,1.3-3.1,0.6c-1-0.6-1.9-1.5-2.5-2.5
              C486,469.2,485.4,467.6,485.1,465.9z"/>
            <path d="M499.8,462.5c-0.7,2.4-1.2,4.7-3,6.4c-0.3,0.3-0.7,0.6-1.1,0.8c-1,0.7-2.3,0.5-3-0.4c-0.8-0.7-0.9-2-0.2-2.9
              c0.3-0.5,0.7-1,1.2-1.4C495.3,463.6,497.5,463.1,499.8,462.5z"/>
          </g>
      </g>

      <!-- Subcelluar Localization -->      
      <g id="subcellular_localization" class="biologicalLevel">
          <text class="cls-1" transform="translate(293.12 499.97)">subcellular localization</text>
          <g id="subcellular_localization_icon" data-name="subcellular localization icon">
            <rect class="cls-8" x="341.06" y="435.81" width="28.11" height="44.84" rx="7.76" ry="7.76"/>
            <path class="cls-9" d="M378.81,463.84c0,3.5.1,7.48-1.3,9.59-1.13,1.71-3.59,1.9-5.19,1.9-2,0-3-1.56-4.16-4.08-0.94-2-2.32-4.61-2.32-7.41s-0.13-5.48.82-7.48a6.84,6.84,0,0,1,5.67-4c2.22,0,4.57,1.48,5.74,4.5C378.78,458.69,378.81,461.42,378.81,463.84Z" transform="translate(-13.67 0.03)"/>
            <circle class="cls-10" cx="349.38" cy="443.28" r="4.28"/>
            <circle class="cls-10" cx="346.14" cy="469.84" r="1.22"/>
            <circle class="cls-10" cx="351.69" cy="475.36" r="1.03"/>
            <circle class="cls-10" cx="363.25" cy="443.33" r="1.69"/>
            <circle class="cls-10" cx="345.66" cy="459.5" r="1.32"/>
          </g>
      </g>

      <!-- Secondary Metabolism -->
      <g id="secondary_metabolism" class="biologicalLevel">
          <text class="cls-1" transform="translate(676.74 429.45)">secondary metabolism</text>
          <g id="secondary_metabolism_icon" data-name="secondary metabolism icon">
            <path class="cls-10" d="M758.73,406.13c0,0.56-.28.61-0.7,0.29-1-.74-2-1.44-3-2.21a1.12,1.12,0,0,0-1.51-.1c-1.56,1-3.17,1.85-4.75,2.79a1,1,0,0,1-1.22,0q-2.59-1.57-5.23-3a1,1,0,0,1-.59-1v-6.24a0.9,0.9,0,0,1,.53-0.93c1.63-.9,3.21-1.89,4.85-2.77a1.28,1.28,0,0,0,.77-1.37c-0.06-1.47,0-3,0-4.42a0.77,0.77,0,0,0-.46-0.8c-1.29-.7-2.55-1.46-3.83-2.18-0.33-.19-0.56-0.38-0.35-0.79h0a36.33,36.33,0,0,1,4.07,2.19c0.18,0.09.36,0.42,0.61,0s0.23-.39-0.1-0.57c-1.17-.65-2.33-1.31-3.48-2-0.23-.14-0.64-0.25-0.44-0.61s0.51,0,.73.08c1.28,0.72,2.56,1.44,3.81,2.2a0.67,0.67,0,0,0,.82,0c0.89-.55,1.81-1.06,2.71-1.59a1,1,0,0,1,.91-0.17h0a0.82,0.82,0,0,1-.51.67c-1.14.64-2.26,1.33-3.4,2a0.83,0.83,0,0,0-.5.85q0.06,2.76,0,5.52a0.87,0.87,0,0,0,.53.86c1.71,1,3.4,2,5.12,2.92a0.83,0.83,0,0,1,.5.85v5.76a1,1,0,0,0,.77,1.13c1,0.4,2.08.86,3.11,1.29a2.46,2.46,0,0,1,.87.51ZM754,399.81v-2.92a0.79,0.79,0,0,0-.47-0.81q-2.47-1.39-4.91-2.83a0.73,0.73,0,0,0-.85,0q-2.44,1.45-4.9,2.84a0.8,0.8,0,0,0-.48.8v5.77a0.75,0.75,0,0,0,.41.76l5,2.9a0.75,0.75,0,0,0,.86,0c1.63-1,3.26-1.92,4.9-2.85a0.85,0.85,0,0,0,.48-0.88c-0.06-.93,0-1.85,0-2.78h0Z" transform="translate(-13.67 0.03)"/>
            <path class="cls-10" d="M753.25,382.94a7.62,7.62,0,0,1-.17-1,1.52,1.52,0,0,1,1.11-1.54,1.55,1.55,0,0,1,1.75.75,1.81,1.81,0,0,1-.31,2,1.63,1.63,0,0,1-1.91.11c-0.17-.11-0.32-0.26-0.48-0.38C753.23,382.92,753.13,382.74,753.25,382.94Zm2.23-1a0.86,0.86,0,0,0-.71-1h-0.19a0.81,0.81,0,0,0-.85.91,0.84,0.84,0,0,0,.66,1h0.22a0.86,0.86,0,0,0,.87-0.85s0,0,0,0v0Z" transform="translate(-13.67 0.03)"/>
            <path class="cls-10" d="M749.52,414a1.51,1.51,0,1,1-1.51-1.62A1.45,1.45,0,0,1,749.52,414Zm-0.62,0a0.86,0.86,0,0,0-.71-1h-0.13a0.82,0.82,0,0,0-.91.93,0.83,0.83,0,0,0,.7.94H748a0.86,0.86,0,0,0,.93-0.91v0Z" transform="translate(-13.67 0.03)"/>
            <path class="cls-10" d="M735.81,405.06a1.44,1.44,0,0,1,1.53,1.6A1.51,1.51,0,1,1,735.81,405.06Zm0.91,1.61a0.86,0.86,0,0,0-.71-1h-0.12a0.81,0.81,0,0,0-.92.92,0.83,0.83,0,0,0,.64,1l0.17,0a0.86,0.86,0,0,0,.94-0.92h0Z" transform="translate(-13.67 0.03)"/>
            <path class="cls-10" d="M742.4,383.42a1.18,1.18,0,0,1-.52.11,1.49,1.49,0,0,1-1.66-.88,1.72,1.72,0,0,1,.38-2,1.52,1.52,0,0,1,1.83-.13,1.74,1.74,0,0,1,.62,2,2,2,0,0,1-.25.5Zm-1.68-1.55a0.89,0.89,0,0,0,.77,1h0.09a0.82,0.82,0,0,0,.89-0.88,0.88,0.88,0,1,0-1.75-.14v0Z" transform="translate(-13.67 0.03)"/>
            <path class="cls-10" d="M759.13,382v1c0,0.32.1,0.55-.35,0.53s-0.28-.32-0.27-0.52c0-.44.06-0.79-0.61-0.77s-0.73.18-.67,0.72c0,0.21.17,0.56-.29,0.58s-0.32-.32-0.33-0.55v-2.13c0-.21-0.09-0.49.31-0.49s0.33,0.26.32,0.48c0,0.46-.08.86,0.65,0.82a0.52,0.52,0,0,0,.63-0.68c0-.23-0.2-0.63.33-0.61s0.26,0.37.28,0.59S759.13,381.65,759.13,382Z" transform="translate(-13.67 0.03)"/>
            <path class="cls-10" d="M750,413.86a6,6,0,0,1,0-.87c0-.23-0.22-0.63.29-0.65s0.34,0.39.32,0.62c0,0.51.12,0.66,0.65,0.66s0.69-.15.65-0.66c0-.22-0.21-0.64.32-0.62s0.28,0.42.29,0.65v1.89c0,0.24.19,0.63-.33,0.61s-0.3-.38-0.28-0.58c0.06-.55-0.12-0.72-0.69-0.7s-0.64.14-.61,0.62c0,0.22.23,0.64-.28,0.66s-0.29-.44-0.33-0.69A5.88,5.88,0,0,1,750,413.86Z" transform="translate(-13.67 0.03)"/>
            <path class="cls-10" d="M765.27,406.89v1.18c0,0.2,0,.35-0.28.36a0.29,0.29,0,0,1-.35-0.37v-0.24c0.07-.48-0.06-0.7-0.62-0.68s-0.72.1-.67,0.65c0,0.22.22,0.63-.3,0.64s-0.3-.4-0.31-0.63v-2.13c0-.23,0-0.41.32-0.4s0.3,0.2.31,0.42c0,0.39-.23.92,0.57,0.88,0.53,0,.77-0.11.7-0.69,0-.23-0.18-0.63.34-0.6s0.25,0.38.27,0.6S765.27,406.55,765.27,406.89Z" transform="translate(-13.67 0.03)"/>
            <path class="cls-10" d="M759.43,405.9a2.57,2.57,0,0,1,1-.62,1.6,1.6,0,1,1,.73,3.11l-0.21,0a1.45,1.45,0,0,1-1.67-1.59A2.77,2.77,0,0,1,759.43,405.9Zm2.21,1a0.86,0.86,0,0,0-.77-0.95H760.8a0.82,0.82,0,0,0-.91.93,0.83,0.83,0,0,0,.7.94h0.12a0.86,0.86,0,0,0,.94-1v0Z" transform="translate(-13.67 0.03)"/>
            <path class="cls-10" d="M734,406.68v1.1c0,0.19.07,0.43-.28,0.45s-0.34-.2-0.36-0.45,0.24-.86-0.53-0.84c-0.55,0-.84.09-0.75,0.72,0,0.21.16,0.56-.3,0.57s-0.31-.33-0.32-0.56v-2.21c0-.22,0-0.41.32-0.41s0.31,0.19.32,0.41c0,0.44-.17,1,0.65.89,0.54,0,.66-0.2.63-0.69,0-.23-0.19-0.63.34-0.61s0.26,0.38.28,0.59S734,406.34,734,406.68Z" transform="translate(-13.67 0.03)"/>
            <path class="cls-10" d="M738.53,406c0,0.27-.15.43-0.29,0.37a1.69,1.69,0,0,1-.77-1.17,0.21,0.21,0,0,1,.26-0.27A2.2,2.2,0,0,1,738.53,406Z" transform="translate(-13.67 0.03)"/>
            <path class="cls-10" d="M748.13,411.25h0.47a0.33,0.33,0,0,1,.34.32s0,0,0,0c0,0.38-.39.27-0.62,0.26a0.92,0.92,0,0,1-1-.24c-0.08-.18.13-0.33,0.32-0.36a2.68,2.68,0,0,1,.46,0h0Z" transform="translate(-13.67 0.03)"/>
            <path class="cls-10" d="M739.5,405.36c0,0.19-.11.39-0.29,0.33a1.22,1.22,0,0,1-.65-0.91c0-.15,0-0.37.22-0.33A1.36,1.36,0,0,1,739.5,405.36Z" transform="translate(-13.67 0.03)"/>
            <path class="cls-10" d="M748.13,410.71c-0.25,0-.68.09-0.67-0.32s0.43-.26.69-0.27,0.62-.08.64,0.25S748.43,410.66,748.13,410.71Z" transform="translate(-13.67 0.03)"/>
            <path class="cls-10" d="M748.13,409.53c-0.26,0-.57,0-0.52-0.34s0.35-.28.57-0.27,0.54,0,.5.34S748.35,409.5,748.13,409.53Z" transform="translate(-13.67 0.03)"/>
            <path class="cls-10" d="M739.88,403.95a0.9,0.9,0,0,1,.55.69,0.24,0.24,0,0,1-.13.31l-0.1,0a0.67,0.67,0,0,1-.54-0.59C739.55,404.17,739.68,404.05,739.88,403.95Z" transform="translate(-13.67 0.03)"/>
            <path class="cls-10" d="M748.57,408a0.32,0.32,0,0,1-.31.33h0a0.36,0.36,0,0,1-.43-0.24,0.3,0.3,0,0,1,.22-0.36h0.08a0.38,0.38,0,0,1,.47.25v0Z" transform="translate(-13.67 0.03)"/>
            <path class="cls-10" d="M740.91,403.49a0.54,0.54,0,0,1,.48.48,0.25,0.25,0,0,1-.18.3h-0.07a0.46,0.46,0,0,1-.45-0.44A0.37,0.37,0,0,1,740.91,403.49Z" transform="translate(-13.67 0.03)"/>
            <path class="cls-10" d="M748.31,394.5l-0.43.25L744,397c-0.17.1-.38,0.25-0.55,0s0.07-.41.27-0.52l3.8-2.19a0.51,0.51,0,0,1,.51-0.1A1.47,1.47,0,0,1,748.31,394.5Z" transform="translate(-13.67 0.03)"/>
          </g>
      </g>

      <!-- Primary Metabolism -->
      <g id="primary_metabolism" class="biologicalLevel">
          <text class="cls-11" transform="translate(608.01 532.48)">primary metabolism</text>
          <g id="primary_metabolism_icon" data-name="primary metabolism icon">
            <path d="M648.81,469.42a5,5,0,0,1,4.91-5.09h0.15a5.1,5.1,0,1,1-5.06,5.14S648.81,469.44,648.81,469.42Z" transform="translate(-13.67 0.03)"/>
            <path d="M667.89,487.36c-1.1.35-2,.62-3,1a1,1,0,0,0-.52.6,2.83,2.83,0,0,1-5.59-.69,2.77,2.77,0,0,1,2.67-2.74,6.32,6.32,0,0,1,1.78.49,1.22,1.22,0,0,0,.49.17c0.6-.18,1.18-0.43,1.78-0.61s1.21-.32,1.88-0.49l-0.94-2.32a15.1,15.1,0,0,1,4.45,3.25l-3,3.76v-2.42Z" transform="translate(-13.67 0.03)"/>
            <path d="M658.54,483.69a3.5,3.5,0,1,1,3.5-3.5A3.5,3.5,0,0,1,658.54,483.69Z" transform="translate(-13.67 0.03)"/>
            <path d="M676,515.28l1.16-4.66,1.07,2,2.84-2.61,1.89,1.53-3.3,3.09,1.76,1.64A15.43,15.43,0,0,1,676,515.28Z" transform="translate(-13.67 0.03)"/>
            <path d="M656.31,503.3l1.12,3.73-2.19,1-1.34-4.33-2.23.88a14.67,14.67,0,0,1,3.29-4.4l3.7,3.08h-2.35v0Z" transform="translate(-13.67 0.03)"/>
            <path d="M683.51,508.56l-2-4.36,2.12,1,0.6-3.8h2.41L686,505.86l2.38,0.19A15.06,15.06,0,0,1,683.51,508.56Z" transform="translate(-13.67 0.03)"/>
            <path d="M678.84,484.42a15.09,15.09,0,0,1,1.42,5.32l-4.69,1,1.39-1.87-3.57-1.4,0.52-2.37,4.23,1.61Z" transform="translate(-13.67 0.03)"/>
            <path d="M687.38,493.57a15.11,15.11,0,0,1-2.19,5l-4.29-2.13,2.23-.6-1.92-3.33L683.1,491l2.3,3.89Z" transform="translate(-13.67 0.03)"/>
            <path d="M654.21,497.23l1.67-4.2-2.29-.73a14.57,14.57,0,0,1,5.31-1.36l1,4.69-1.83-1.41-1.46,3.55Z" transform="translate(-13.67 0.03)"/>
            <path d="M673.61,517.26l-4.5.37,0.33,2.36a15.08,15.08,0,0,1-3.54-4.19l3.77-2.88a5.88,5.88,0,0,1-.16,1c-0.07.36-.16,0.73-0.28,1.24l3.85-.23Z" transform="translate(-13.67 0.03)"/>
            <path d="M659.06,513.35l-1.2,2.09a15.6,15.6,0,0,1-.17-5.49h4.9l-1.87,1.58,3.15,2.19-1.06,2.19Z" transform="translate(-13.67 0.03)"/>
          </g>
      </g>

      <!-- Metabolism -->
      <g id="metabolism" class="biologicalLevel">
          <text class="cls-1" transform="translate(580.21 394.65)">metabolism</text>
          <g id="metabolism_icon" data-name="metabolism icon">
            <path d="M627.43,350.89v9.9h-14.8a0.35,0.35,0,0,1-.35-0.35v-9.2a0.35,0.35,0,0,1,.35-0.35h14.8Z" transform="translate(-13.67 0.03)"/>
            <path d="M614.28,378.14c-2-.31-2.79-2.63-2.57-4.15a4,4,0,0,1,1-2.27,2.83,2.83,0,0,1,2.06-.81h3.39a2.71,2.71,0,0,1,2.7,1.73,4.17,4.17,0,0,1-.51,4.57,2.38,2.38,0,0,1-1.52.89h-4.56v0Z" transform="translate(-13.67 0.03)"/>
            <path d="M629.13,378.14a0.35,0.35,0,0,1-.35-0.35V371h6.79a0.35,0.35,0,0,1,.35.35v6.46a0.35,0.35,0,0,1-.35.35h-6.44Z" transform="translate(-13.67 0.03)"/>
            <path d="M633.92,366h2.6l-3.93,3.92a0.35,0.35,0,0,1-.49,0h0l-3.28-3.32a0.35,0.35,0,0,1,.25-0.6h1.69a0.35,0.35,0,0,0,.35-0.35v-8.72a1.46,1.46,0,0,0-1.46-1.46h-1.21a0.35,0.35,0,0,1-.35-0.35V353a0.35,0.35,0,0,1,.35-0.35h1.85a4,4,0,0,1,2.73.68,2.69,2.69,0,0,1,.84,1.85c0.06,0.73,0,1.46,0,2.19v8.38A0.26,0.26,0,0,1,633.92,366Z" transform="translate(-13.67 0.03)"/>
            <path d="M615.6,361.42h2.11a0.35,0.35,0,0,1,.35.35v3.84a0.35,0.35,0,0,0,.35.35h2.23l-3.91,3.91a0.35,0.35,0,0,1-.49,0h0L613,366.56a0.35,0.35,0,0,1,.25-0.6h1.68a0.35,0.35,0,0,0,.35-0.35v-3.84a0.35,0.35,0,0,1,.35-0.35h0Z" transform="translate(-13.67 0.03)"/>
          </g>
      </g>

      <!-- Protein Networks -->      
      <g id="protein_networks" class="biologicalLevel">
          <path class="cls-10" d="M752.33,266.34v-0.65a0.38,0.38,0,0,0,0-.25v-0.18a8.51,8.51,0,0,1,.13-0.92,5.1,5.1,0,0,1,.9-1.69,5,5,0,0,1,5.16-1.68,4.83,4.83,0,0,1,2.31,1.35,4.91,4.91,0,0,1,1.38,3,5.32,5.32,0,0,1-.1,1.68c0,0.21,0,.24.18,0.28l2.49,0.53,5.66,1.21,2.28,0.49c0.27,0.06.28,0,.39-0.21a4,4,0,0,1,.59-1,0.2,0.2,0,0,0,0-.28l0,0c-0.55-.51-1.09-1-1.64-1.54l-0.72-.68-1.68-1.59-2-1.84-0.63-.6c-0.19-.18-0.22-0.19-0.43,0a3,3,0,1,1-1.63-5.38,2.82,2.82,0,0,1,1.77.68,2.91,2.91,0,0,1,1.08,2.43,2.77,2.77,0,0,1-.43,1.41c-0.14.21-.14,0.24,0,0.41l1.82,1.72,2.2,2.08,1.23,1.16L774,267.5c0.21,0.21.24,0.2,0.49,0a4.22,4.22,0,0,1,1.54-.69c0.22,0,.24-0.08.2-0.3l-1.47-8.73c-0.3-1.75-.59-3.5-0.89-5.25,0-.22-0.06-0.25-0.28-0.24a4.5,4.5,0,0,1-3.57-7.43,4.26,4.26,0,0,1,2.14-1.37c0.24-.07.5,0,0.75-0.09h0.07a0.28,0.28,0,0,0,.22,0h0.43a0.28,0.28,0,0,0,.22,0h0.44a3.68,3.68,0,0,1,1.88.85,4.33,4.33,0,0,1,1.14,1.34,4.51,4.51,0,0,1-2.6,6.46c-0.27.09-.27,0.1-0.22,0.39l0.42,2.49,0.72,4.27,0.8,4.71,0.54,2.51a0.2,0.2,0,0,0,.2.2h0a4.26,4.26,0,0,1,1.54.35,0.2,0.2,0,0,0,.28-0.05l0,0c0.59-1,1.14-2,1.71-3l1.85-3.32,1.53-2.76,0.77-1.37,0.09-.18a0.18,0.18,0,0,0-.06-0.25h0a2.93,2.93,0,0,1-.88-1.08,2.64,2.64,0,0,1,.46-2.79,2.58,2.58,0,0,1,2-.86,2.61,2.61,0,0,1,1.31,4.85,2.49,2.49,0,0,1-1.87.32,0.31,0.31,0,0,0-.38.18c-0.75,1.33-1.48,2.66-2.22,4l-1.9,3.42c-0.6,1.08-1.21,2.15-1.8,3.23-0.1.18-.1,0.2,0.06,0.33a4.39,4.39,0,0,1,1.07,1.28c0.09,0.17.14,0.18,0.3,0.08l4.13-2.41,4.93-2.87c0.4-.23.39-0.23,0.24-0.65a3.93,3.93,0,0,1,.59-3.92,3.81,3.81,0,0,1,2.69-1.51,4,4,0,1,1-2,7.17,3.23,3.23,0,0,1-.63-0.61,0.22,0.22,0,0,0-.3-0.09l0,0-3.91,2.28-5.37,3.1-0.15.09a0.22,0.22,0,0,0-.12.28,3.88,3.88,0,0,1,.13,1.13,0.19,0.19,0,0,0,.15.23h0l1.22,0.13,2.26,0.24,2.15,0.23,1.88,0.2,1.83,0.19,0.52,0a0.2,0.2,0,0,0,.25-0.13v0a5.24,5.24,0,0,1,.23-0.66A4.43,4.43,0,0,1,794,269a4.52,4.52,0,0,1,4.88.55,4.4,4.4,0,0,1,1.54,2.24,4,4,0,0,1,.11.8,0.13,0.13,0,0,0,0,.09v0.14a0.38,0.38,0,0,0,0,.25v0.22a0.38,0.38,0,0,0,0,.25v0.18a1.59,1.59,0,0,0,0,.35,3.8,3.8,0,0,1-.92,2,4.42,4.42,0,0,1-2,1.42,4.6,4.6,0,0,1-3.2,0,4.41,4.41,0,0,1-1.65-1,4.53,4.53,0,0,1-1.36-2.8v-0.59c0-.19,0-0.27-0.25-0.29l-1.11-.12-2.22-.24-1.83-.19c-0.51,0-1-.12-1.52-0.16l-1.34-.1-1.63-.17h-0.17c-0.23,0-.24,0-0.31.21a4.21,4.21,0,0,1-1.23,1.94,0.2,0.2,0,0,0,0,.28l0,0,0.92,1.38,2.82,4.24,0.07,0.1a0.2,0.2,0,0,0,.26.1h0a5.85,5.85,0,0,1,1.44-.39,6.18,6.18,0,1,1-5.26,6.91,6,6,0,0,1,1.41-4.77,5.79,5.79,0,0,1,1.42-1.25c0.22-.13.22-0.15,0.08-0.36l-3.69-5.54c-0.14-.2-0.15-0.21-0.36-0.11a4.19,4.19,0,0,1-2.45.42c-0.27,0-.28,0-0.38.24l-1.31,3.52-1.43,3.84-1.49,4a0.22,0.22,0,0,0,.09.3h0a4,4,0,0,1,1,6,3.85,3.85,0,0,1-1.77,1.22,3.21,3.21,0,0,1-.83.11,0.57,0.57,0,0,0-.22,0h-0.51a0.28,0.28,0,0,0-.22,0h0a5.64,5.64,0,0,1-.85-0.15,3.93,3.93,0,0,1-2.63-3.31,3.8,3.8,0,0,1,.81-3,3.92,3.92,0,0,1,2.69-1.53,4.13,4.13,0,0,1,1.62.13,0.2,0.2,0,0,0,.3-0.15q0.82-2.23,1.65-4.45l1.43-3.84c0.38-1,.76-2,1.13-3a0.19,0.19,0,0,0-.12-0.28,4,4,0,0,1-1.08-.67c-0.14-.12-0.19-0.12-0.39,0l-1.65,1.28-6.21,4.75c-0.29.22-.28,0.22-0.12,0.56a3.51,3.51,0,0,1-5.8,3.81,3.45,3.45,0,0,1-.41-4.2,3.51,3.51,0,0,1,5.48-.68c0.2,0.19.22,0.2,0.43,0,0.86-.68,1.74-1.35,2.61-2l4.19-3.25,1-.77c0.15-.12.15-0.15,0-0.31a4.07,4.07,0,0,1-.63-1.39,4,4,0,0,1-.09-1.47c0-.22,0-0.26-0.23-0.3l-7.11-1.52-3.39-.72c-0.27-.06-0.27,0-0.4.2a5,5,0,0,1-9.26-.89C752.36,266.9,752.39,266.61,752.33,266.34Z" transform="translate(-13.67 0.03)"/>
          <text class="cls-1" transform="translate(720.52 315.01)">protein networks</text>
      </g>



      <!-- 3D Structure -->
      <g id="structure" class="biologicalLevel">
          <text class="cls-1" transform="translate(470.04 380.88)">3D structure</text>
          <g id="structure_icon" data-name="structure icon">
            <path d="M519.07,354.88c-0.9-1.24-2-1.51-2.9-.73s-0.94,1.92-.1,3.13a5.41,5.41,0,0,1-6.51-2.37,6.57,6.57,0,0,1,1.07-8.28,5.47,5.47,0,0,1,7.73.32l0.12,0.14A6.49,6.49,0,0,1,519.07,354.88ZM509,351.72a4.6,4.6,0,0,0,0,.48,2.06,2.06,0,0,0,.49,1.3c0.4,0.41.75,0.31,0.9-.27a3.25,3.25,0,0,0,.09-0.47,10.13,10.13,0,0,1,1.63-4.76,4.76,4.76,0,0,0,.46-0.86c0.19-.45,0-0.75-0.44-0.74a1.41,1.41,0,0,0-.74.19,3.51,3.51,0,0,0-.85.75A7.35,7.35,0,0,0,509,351.72Z" transform="translate(-13.67 0.03)"/>
            <path d="M524.24,345.23l1.28-1.13a1.21,1.21,0,0,0,.29-1.59,1,1,0,0,0-1.38-.31l-0.1.07-1.45.94a4,4,0,0,1,1.61-4.56,3.49,3.49,0,0,1,4.74,1,4.17,4.17,0,0,1-.42,5.26A3.39,3.39,0,0,1,524.24,345.23Zm-1.16-4a0.39,0.39,0,0,0,0,.19c0.11,0.19.25,0.37,0.37,0.55a2.29,2.29,0,0,0,.44-0.4c0.22-.35.39-0.74,0.62-1.08s0.53-.66.77-1a0.35,0.35,0,0,0-.23-0.6,1,1,0,0,0-.47,0,2.76,2.76,0,0,0-1.45,2.24Z" transform="translate(-13.67 0.03)"/>
            <path d="M519.07,361.85a2.18,2.18,0,1,1,0,.3A2.18,2.18,0,0,1,519.07,361.85Zm0.94-.19h0.17a1.36,1.36,0,0,0,.28-0.47,0.33,0.33,0,0,0-.26-0.39h-0.13a0.56,0.56,0,0,0-.35.39A1.14,1.14,0,0,0,520,361.66Z" transform="translate(-13.67 0.03)"/>
            <path d="M519.13,360.42l-3-3.54a1.69,1.69,0,0,1-.27-1.78,1.49,1.49,0,0,1,2.76-.12c0.7,1.39,1.38,2.79,2.09,4.23A2.7,2.7,0,0,0,519.13,360.42Zm-0.15-.51,0.11-.1c-0.11-.19-0.2-0.38-0.32-0.56l-1.64-2.5c-0.18-.27-0.35-0.55-0.55-0.8a0.85,0.85,0,0,0-.33-0.15,1,1,0,0,0-.11.42,1.55,1.55,0,0,0,.28.55q1.08,1.41,2.19,2.8a2.68,2.68,0,0,0,.37.3v0Z" transform="translate(-13.67 0.03)"/>
            <path d="M520.2,335.35l-0.6-.45a0.63,0.63,0,0,0-.89.08l0,0a0.75,0.75,0,0,0,.1,1l0.46,0.46a2,2,0,0,1-2.63-.42,2.5,2.5,0,0,1-.11-3,2.07,2.07,0,0,1,2.76-.6A2.44,2.44,0,0,1,520.2,335.35ZM517,333.54h-0.16a1.44,1.44,0,0,0-.28.47,0.33,0.33,0,0,0,.38.41,0.56,0.56,0,0,0,.36-0.39,1.18,1.18,0,0,0-.31-0.49h0Z" transform="translate(-13.67 0.03)"/>
            <path d="M529.78,348.52l0.43,0.58a0.63,0.63,0,0,0,.86.17,0.74,0.74,0,0,0,.22-0.94l-0.34-.75a2.05,2.05,0,0,1,2.54,1.07,2.49,2.49,0,0,1-.56,3,2.06,2.06,0,0,1-2.81-.12A2.45,2.45,0,0,1,529.78,348.52Zm0.36,2.31a2,2,0,0,0,.37-0.58,0.38,0.38,0,1,0-.75,0,2,2,0,0,0,.37.58h0Z" transform="translate(-13.67 0.03)"/>
            <path d="M522.74,343.82a0.82,0.82,0,0,1,.16-0.2l1.68-1.09a0.66,0.66,0,0,1,.93.09l0.07,0.11a0.8,0.8,0,0,1-.2,1.06l-4.09,3.63-1.37,1.22-1.43-2.11,1.11-.72,2.5-1.62a2.4,2.4,0,0,1,.33-0.15l-0.32.26c-0.76.58-1.53,1.15-2.29,1.75a6.69,6.69,0,0,0-.58.58l0.09,0.14,5.08-3.58-0.09-.18Z" transform="translate(-13.67 0.03)"/>
            <path d="M508,360.66a2.35,2.35,0,0,1-.88,2.48,2.07,2.07,0,0,1-2.61-.17,2.45,2.45,0,0,1-.57-2.75,2.08,2.08,0,0,1,2.27-1.33,1.4,1.4,0,0,0,.26,1.67A1.15,1.15,0,0,0,508,360.66Zm-3.67.54h0.16a1.38,1.38,0,0,0,.3-0.46,0.33,0.33,0,0,0-.22-0.41h-0.14a0.56,0.56,0,0,0-.37.38A1.17,1.17,0,0,0,504.33,361.2Z" transform="translate(-13.67 0.03)"/>
            <path d="M510.3,342.95a1.23,1.23,0,0,0-1.68-.24,1.5,1.5,0,0,0-.38,1.81,2.09,2.09,0,0,1-2-1.49,2.46,2.46,0,0,1,.74-2.71,2.07,2.07,0,0,1,2.59,0A2.43,2.43,0,0,1,510.3,342.95Zm-2.64-1.64v-0.19a1,1,0,0,0-.45-0.3,0.56,0.56,0,0,0-.36.38,0.32,0.32,0,0,0,.37.4,1.3,1.3,0,0,0,.44-0.29h0Z" transform="translate(-13.67 0.03)"/>
            <path d="M531,339.94c0.31-.36.62-0.73,1-1.09a0.76,0.76,0,0,0,.16-1,0.65,0.65,0,0,0-.9-0.18h0l-1.19.63a2.18,2.18,0,0,1,.9-2.31,2.05,2.05,0,0,1,2.84.45,2.48,2.48,0,0,1-.08,3.13A2,2,0,0,1,531,339.94Zm0-2.44v-0.18a1.07,1.07,0,0,0-.46-0.32,0.4,0.4,0,0,0,0,.79,1.06,1.06,0,0,0,.43-0.29h0Z" transform="translate(-13.67 0.03)"/>
            <path d="M507.89,357.62c0.23-.3.45-0.62,0.71-0.91s0.69-.72,1-1l1.51,1.42c-1.09,1.07-2.19,2.16-3.3,3.23a0.8,0.8,0,0,1-1.12,0,0.92,0.92,0,0,1-.23-1.14c0.43-.57,1-1.06,1.42-1.58a6.17,6.17,0,0,0-1.17,1.67l2.82-3A6.46,6.46,0,0,0,507.89,357.62Z" transform="translate(-13.67 0.03)"/>
            <path d="M523.9,338.6L523,339.66l-0.15-.12-3.7-3.64-0.11-.11a0.38,0.38,0,0,1-.13-0.52l0,0a0.33,0.33,0,0,1,.46-0.06l0.06,0.06,1.93,1.47Z" transform="translate(-13.67 0.03)"/>
            <path d="M511.65,345.42l-1.59,1.2c-0.5-.79-1-1.58-1.53-2.4a1,1,0,0,1,.26-1.2,0.81,0.81,0,0,1,1.14.1C510.53,343.88,511.13,344.67,511.65,345.42Zm-1.44.87,0.1-.08-1.61-2.4-0.1.08A8,8,0,0,0,510.21,346.29Z" transform="translate(-13.67 0.03)"/>
            <path d="M528.27,345.84l1-.89a0.94,0.94,0,0,1,.11.15l1.57,3.3c0.1,0.21.14,0.44-.09,0.54a0.49,0.49,0,0,1-.46-0.13c-0.72-.94-1.42-1.91-2.12-2.87A0.46,0.46,0,0,1,528.27,345.84Z" transform="translate(-13.67 0.03)"/>
            <path d="M530,340.35l-0.77-1.26c0.72-.39,1.44-0.78,2.17-1.15a0.41,0.41,0,0,1,.41.11,0.5,0.5,0,0,1,0,.45Z" transform="translate(-13.67 0.03)"/>
            <path d="M536,367.62l0.34,0.22h-0.11a2,2,0,0,1-.29-0.22H536Z" transform="translate(-13.67 0.03)"/>
          </g>
      </g>

      <!-- Protein -->
      <g id="protein_sequence" class="biologicalLevel">
          <text class="cls-13" transform="translate(317.96 369.93) scale(0.99 1)">protein sequence</text>
          <g id="protein_icon" data-name="protein icon">
            <text class="cls-14" transform="matrix(0.73, 0.68, -0.68, 0.73, 318.73, 342.71)">I</text>
            <text class="cls-15" transform="translate(322.67 346.45) rotate(43.78)">L</text>
            <text class="cls-16" transform="matrix(0.82, 0.57, -0.57, 0.82, 326.99, 350.73)">V</text>
            <text class="cls-17" transform="matrix(0.98, 0.2, -0.2, 0.98, 332.88, 354.34)">F</text>
            <text class="cls-18" transform="translate(338.77 355.44) rotate(2.95)">M</text>
            <text class="cls-17" transform="translate(344.49 355.75) rotate(-1.15)">C</text>
            <text class="cls-18" transform="translate(350.99 355.5) rotate(-17.45)">A</text>
            <text class="cls-19" transform="matrix(0.83, -0.55, 0.55, 0.83, 357.12, 353.38)">G</text>
            <text class="cls-20" transform="matrix(0.74, -0.67, 0.67, 0.74, 362.07, 349.98)">P</text>
            <text class="cls-15" transform="translate(366.13 346.23) rotate(-43.78)">T</text>
            <text class="cls-18" transform="matrix(0.78, -0.62, 0.62, 0.78, 369.96, 342.5)">S</text>
            <text class="cls-18" transform="translate(374.01 339.2) rotate(-26.9)">Y</text>
            <text class="cls-18" transform="translate(378.53 336.84) rotate(-11.69)">W</text>
            <text class="cls-18" transform="translate(383.58 335.78) rotate(2.68)">Q</text>
            <text class="cls-21" transform="translate(388.76 336.01) rotate(14.45)">N</text>
            <text class="cls-22" transform="translate(393.83 337.33) rotate(23.5)">H</text>
            <text class="cls-23" transform="translate(398.67 339.46) rotate(30.67)">K</text>
            <text class="cls-18" transform="translate(403.27 342.2) rotate(36.24)">R</text>
          </g>
      </g>

      <!-- RNA Sequence -->  
      <g id="RNA_sequence" class="biologicalLevel">    
          <text class="cls-1" transform="translate(290.38 226.43)">RNA transcript<tspan class="cls-25"><tspan x="-11.41" y="12">(sequence, abundance</tspan><tspan x="-8.06" y="22">&amp; altenative splicing)</tspan></tspan></text>
          <g id="RNA_icon" data-name="RNA icon">
            <text class="cls-18" transform="matrix(0.99, -0.14, 0.14, 0.99, 287.14, 195.33)">A</text>
            <text class="cls-18" transform="translate(292.4 194.57) rotate(-1.93)">C</text>
            <text class="cls-22" transform="matrix(1, 0.08, -0.08, 1, 297.68, 194.38)">U</text>
            <text class="cls-17" transform="matrix(0.98, 0.2, -0.2, 0.98, 302.98, 194.8)">G</text>
            <text class="cls-18" transform="translate(308.15 195.86) rotate(19.02)">A</text>
            <text class="cls-18" transform="matrix(0.89, 0.45, -0.45, 0.89, 313.17, 197.58)">C</text>
            <text class="cls-18" transform="matrix(0.83, 0.55, -0.55, 0.83, 317.88, 199.96)">U</text>
            <text class="cls-18" transform="translate(322.55 203.06) rotate(30.89)">G</text>
            <text class="cls-18" transform="translate(327.43 205.98) rotate(27.26)">A</text>
            <text class="cls-18" transform="translate(332.57 208.63) rotate(22.24)">C</text>
            <text class="cls-21" transform="translate(338.07 210.87) rotate(14.45)">U</text>
            <text class="cls-18" transform="matrix(1, 0.04, -0.04, 1, 344.1, 212.43)">G</text>
            <text class="cls-18" transform="translate(350.21 212.6) rotate(-7.61)">A</text>
            <text class="cls-15" transform="matrix(0.96, -0.27, 0.27, 0.96, 356.13, 211.75)">C</text>
            <text class="cls-26" transform="translate(361.73 210.14) rotate(-21.7)">U</text>
            <text class="cls-18" transform="translate(366.91 208.07) rotate(-24.1)">G</text>
          </g>
      </g>

      <!-- Signaling -->
      <g id="signaling" class="biologicalLevel">
          <text class="cls-1" transform="translate(515.11 247.3)">signaling &amp; signal<tspan x="-14.34" y="12">transduction cascades</tspan></text>
          <g id="Signaling_icon" data-name="Signaling icon">
            <path class="cls-28" d="M566.37,238.42l1.38-3.22,0.67-1.56L569.2,232c0.55-1.14,1.1-2.42,1.72-3.53,1.18-2.37,2.46-4.46,3.41-6l1.64-2.38-24.14-17.8-2.7,3.89c-0.76,1.17-1.54,2.54-2.42,4L546,211.28l-0.6,1.14-1.22,2.32c-0.85,1.57-1.52,3.09-2.21,4.53l-1,2.08-0.79,1.84L538.6,227Z" transform="translate(-13.67 0.03)"/>
            <path class="cls-10" d="M559.51,215.92l2.62,1.5,1.14-1.9,1.25-1.81L562,212l-1.31,1.9Z" transform="translate(-13.67 0.03)"/>
            <path class="cls-28" d="M576,220.06l0.12-.17,0.35-.42,1.23-1.53c0.5-.63,1.15-1.19,1.79-1.91a8.79,8.79,0,0,1,1-.94l1.07-.95c0.79-.52,1.52-1.1,2.27-1.57a22.7,22.7,0,0,1,2.15-1.18c0.66-.32,1.26-0.54,1.66-0.72s0.62-.29.63-0.28l-10.71-28-0.34.14-1,.41-3.41,1.5c-1.4.67-3,1.62-4.71,2.58a54.37,54.37,0,0,0-5.1,3.53l-2.38,2a29.29,29.29,0,0,0-2.21,2c-1.31,1.38-2.62,2.66-3.56,3.8l-2.25,2.78-0.62.78a3.2,3.2,0,0,0-.2.28Z" transform="translate(-13.67 0.03)"/>
            <path class="cls-10" d="M576.68,198.2l1.48,2.61,1.89-1,2-.87-1.19-2.76-2.13.93Z" transform="translate(-13.67 0.03)"/>
            <path class="cls-10" d="M569.89,203l2,2.25,1.63-1.41,1.76-1.24-1.71-2.46s-1,.66-1.9,1.35Z" transform="translate(-13.67 0.03)"/>
            <path class="cls-10" d="M564.21,209.05l2.35,1.87,1.37-1.7c0.35-.42.74-0.79,1-1.09l0.47-.49-2.16-2.08-0.5.52c-0.29.32-.72,0.72-1.09,1.17Z" transform="translate(-13.67 0.03)"/>
            <path class="cls-28" d="M588.27,210.42s1-.31,2.53-0.84c0.78-.24,1.79-0.43,2.81-0.71l0.79-.2,0.88-.14,1.78-.3c1.16-.25,2.49-0.32,3.67-0.46l1.72-.19,1.61-.09,3.33-.19-1-30-4.29.23-2.08.12-2.39.25c-1.67.2-3.39,0.31-5.23,0.67l-2.71.46-1.33.23-1.33.31c-1.75.44-3.36,0.79-4.77,1.22l-4.69,1.63Z" transform="translate(-13.67 0.03)"/>
            <path class="cls-10" d="M592.32,192.73l0.56,2.95,2.18-.37c0.55-.09,1.09-0.2,1.5-0.24l0.69-.07-0.38-3-0.71.08c-0.43.05-1,.16-1.56,0.25Z" transform="translate(-13.67 0.03)"/>
            <path class="cls-10" d="M584.33,194.8l1,2.84,2.07-.69,2.13-.53-0.72-2.91-2.24.56Z" transform="translate(-13.67 0.03)"/>
            <circle class="cls-29" cx="548.55" cy="213.7" r="6.61"/>
            <circle class="cls-30" cx="565.06" cy="210.01" r="3.3"/>
            <circle class="cls-30" cx="561.44" cy="223.31" r="2.79"/>
            <circle class="cls-30" cx="574.39" cy="220.5" r="2.13"/>
            <circle class="cls-30" cx="575.89" cy="199.57" r="1.47"/>
            <polyline class="cls-9" points="547.77 214.47 565.26 210.59 561.37 224.19 574.58 220.69 575.75 229.63"/>
            <path class="cls-10" d="M555.6,223.15l2.7,1.31,0.3-.63,0.71-1.36,1-2L557.67,219l-1.06,2-0.73,1.4Z" transform="translate(-13.67 0.03)"/>
            <path class="cls-10" d="M552.25,230.59l2.76,1.17,0.88-2.06,0.61-1.42,0.3-.63-2.73-1.23-0.3.65-0.64,1.43Z" transform="translate(-13.67 0.03)"/>
            <path class="cls-10" d="M600.48,191.63l0.26,3,0.69-.07,1.53-.09,2.23-.12-0.14-3-2.28.13-1.57.09Z" transform="translate(-13.67 0.03)"/>
          </g>
      </g>

      <!-- Methylation -->
      <g id="methylation" class="biologicalLevel">
          <text class="cls-1" transform="translate(791.83 112.57)">methylation</text>
          <g id="methylation_icon" data-name="methylation icon">
            <path d="M845.13,77.14l-1.4,2.28-1.81-1.05c-0.27-.15-0.54-0.28-0.82-0.42-2.15-1-3.64-.83-5.26.89s-2.87,3.24-4.21,4.94A63.23,63.23,0,0,1,825.5,91a15.15,15.15,0,0,1-10.09,4.58c-0.35,0-.71.06-1.06,0.08a1.36,1.36,0,0,1-1.54-1.16v0A1.34,1.34,0,0,1,814,92.94h0.11c0.63-.07,1.26-0.11,1.89-0.16a11.55,11.55,0,0,0,6.4-2.69,37.1,37.1,0,0,0,6-6.53c1.45-1.87,2.9-3.74,4.45-5.53a14.27,14.27,0,0,1,2.65-2.34,6,6,0,0,1,5.6-.63A16.78,16.78,0,0,1,845.13,77.14Z" transform="translate(-13.67 0.03)"/>
            <path d="M831.77,85.88l1.61-2.14c0.83,0.42,1.63.85,2.45,1.21a12.2,12.2,0,0,0,1.91.67,4.39,4.39,0,0,0,4.9-1.73,46.61,46.61,0,0,0,2.79-4.33,26.28,26.28,0,0,1,4.33-6.14,9.59,9.59,0,0,1,3.9-2.29,1.36,1.36,0,1,1,.78,2.58A7.75,7.75,0,0,0,850.2,77c-1.27,1.94-2.4,4-3.6,5.95a14.07,14.07,0,0,1-3.21,3.95,6.86,6.86,0,0,1-5.26,1.5,15,15,0,0,1-5.33-2Z" transform="translate(-13.67 0.03)"/>
            <path d="M827.36,82.79c-0.65-.52-1.28-1-1.85-1.47a15,15,0,0,0-11.76-3.65c-0.49,0-1,.09-1.47.09a1.31,1.31,0,0,1-1.33-1.26,1.29,1.29,0,0,1,1.13-1.4,21.27,21.27,0,0,1,10.22,1,21,21,0,0,1,5.19,3.3c0.4,0.32.8,0.63,1.18,1a0.39,0.39,0,0,1,.09.36Z" transform="translate(-13.67 0.03)"/>
            <path d="M817.69,91.42l-2.32.29-0.69-13H817Z" transform="translate(-13.67 0.03)"/>
            <path d="M848.44,82.58l1.38-2.39,0.24,0.08a10.93,10.93,0,0,0,6.91.66,1.94,1.94,0,0,1,1.1.12,1.21,1.21,0,0,1,.67,1.35,1.31,1.31,0,0,1-1.08,1.12,13.21,13.21,0,0,1-6.44,0C850.31,83.26,849.42,82.91,848.44,82.58Z" transform="translate(-13.67 0.03)"/>
            <path d="M820,79.28c0.83,0.39,1.56.71,2.27,1.08a0.65,0.65,0,0,1,.29.46c0.14,2.35.26,4.7,0.38,7a0.62,0.62,0,0,1-.1.38,5.65,5.65,0,0,1-2.26,1.58Z" transform="translate(-13.67 0.03)"/>
            <path d="M839.32,78.35c0.72,0.33,1.43.65,2.14,1a0.5,0.5,0,0,1,.17.31c0.22,0.88.44,1.76,0.65,2.64a0.54,0.54,0,0,1-.06.42c-0.48.53-1,1-1.56,1.63l-1.45-5.82Z" transform="translate(-13.67 0.03)"/>
            <path d="M855.13,74.64l1.66,5.22c-0.47.07-.89,0.15-1.31,0.19a0.4,0.4,0,0,1-.31-0.22c-0.5-1.51-1-3-1.48-4.61Z" transform="translate(-13.67 0.03)"/>
            <path d="M853.52,80.12c-0.56-.11-1-0.19-1.51-0.32a0.58,0.58,0,0,1-.31-0.34,16.27,16.27,0,0,1-.51-1.58,0.59,0.59,0,0,1,.07-0.46c0.3-.38.63-0.74,1-1.19Z" transform="translate(-13.67 0.03)"/>
            <path d="M837.38,78.56l-1.52,1.8a0.5,0.5,0,0,0,0,.35c0.17,0.89.34,1.78,0.53,2.66a0.54,0.54,0,0,0,.23.36c0.66,0.28,1.33.52,2.1,0.81l-1.15-5.88Z" transform="translate(-13.67 0.03)"/>
            <circle class="cls-32" cx="819.94" cy="73.11" r="6.83"/>
            <text class="cls-33" transform="translate(814.46 76.74)">Me</text>
          </g>
      </g>

      <!-- nCRNA -->   
      <g id="ncRNA" class="biologicalLevel">   
          <text class="cls-1" transform="translate(634.11 128.45)">ncRNA &amp; conserved<tspan x="-5" y="12">regions outside genes</tspan></text>
          <g id="ncRNA_icon" data-name="ncRNA icon">
            <line class="cls-9" x1="644.75" y1="108.79" x2="727.31" y2="108.79"/>
            <rect class="cls-36" x="655.89" y="104.84" width="3.73" height="7.26"/>
            <rect class="cls-36" x="649.13" y="104.84" width="3.73" height="7.26"/>
            <polygon class="cls-36" points="693.4 112.1 667.16 112.1 667.16 104.84 693.4 104.84 700.79 108.41 693.4 112.1"/>
            <path class="cls-9" d="M739.36,103c-1.88,0-1.88-1.92-3.77-1.92s-1.88,1.92-3.77,1.92-1.88-1.92-3.77-1.92-1.88,1.92-3.77,1.92-1.88-1.92-3.77-1.92-1.88,1.92-3.77,1.92" transform="translate(-13.67 0.03)"/>
            <path class="cls-9" d="M739.36,98.5c-1.88,0-1.88-1.92-3.77-1.92s-1.88,1.92-3.77,1.92-1.88-1.92-3.77-1.92-1.88,1.92-3.77,1.92-1.88-1.92-3.77-1.92-1.88,1.92-3.77,1.92" transform="translate(-13.67 0.03)"/>
            <path class="cls-9" d="M739.36,94c-1.88,0-1.88-1.92-3.77-1.92S733.71,94,731.82,94s-1.88-1.92-3.77-1.92S726.17,94,724.28,94s-1.88-1.92-3.77-1.92S718.63,94,716.74,94" transform="translate(-13.67 0.03)"/>
          </g>
      </g>

      <!-- DNA -->
      <g id="DNA_sequence" class="biologicalLevel">
          <text class="cls-1" transform="translate(433.59 135.26)">DNA sequence<tspan class="cls-25"><tspan x="0.04" y="12">(gene &amp; promotor)</tspan></tspan></text>
          <g id="DNA_Sequence_icon" data-name="DNA Sequence icon">
            <text class="cls-37" transform="matrix(0.86, -0.55, 0.54, 0.84, 433.29, 116.24)">.</text>
            <text class="cls-38" transform="matrix(0.87, -0.53, 0.52, 0.85, 437.36, 113.55)">.</text>
            <text class="cls-39" transform="matrix(0.95, -0.38, 0.37, 0.93, 441.36, 111.04)">.</text>
            <text class="cls-40" transform="matrix(0.99, -0.23, 0.23, 0.97, 445.73, 109.31)">A</text>
            <text class="cls-38" transform="matrix(1.01, -0.14, 0.14, 0.99, 450.43, 108.21)">C</text>
            <text class="cls-38" transform="matrix(1.02, -0.03, 0.03, 1, 455.14, 107.53)">T</text>
            <text class="cls-41" transform="matrix(1.02, 0.08, -0.08, 1, 459.92, 107.37)">G</text>
            <text class="cls-38" transform="matrix(1, 0.2, -0.2, 0.98, 464.66, 107.74)">A</text>
            <text class="cls-38" transform="translate(469.33 108.68) rotate(18.74) scale(1.02 1)">C</text>
            <text class="cls-38" transform="translate(473.82 110.19) rotate(26.15) scale(1.02 1)">T</text>
            <text class="cls-38" transform="translate(478.09 112.33) rotate(32.93) scale(1.02 1)">G</text>
            <text class="cls-38" transform="translate(482.28 115.04) rotate(30.31) scale(1.02 1)">A</text>
            <text class="cls-42" transform="matrix(0.91, 0.46, -0.45, 0.89, 486.67, 117.61)">C</text>
            <text class="cls-38" transform="translate(491.31 119.95) rotate(21.66) scale(1.02 1)">T</text>
            <text class="cls-43" transform="matrix(0.99, 0.25, -0.25, 0.97, 496.23, 121.9)">G</text>
            <text class="cls-44" transform="matrix(1.02, 0.04, -0.04, 1, 501.64, 123.25)">A</text>
            <text class="cls-45" transform="matrix(1.01, -0.13, 0.13, 0.99, 507.07, 123.38)">.</text>
            <text class="cls-38" transform="translate(512.33 122.64) rotate(-15.39) scale(1.02 1)">.</text>
            <text class="cls-38" transform="translate(517.35 121.22) rotate(-21.1) scale(1.02 1)">.</text>
            <text class="cls-38" transform="translate(521.98 119.41) rotate(-23.67) scale(1.02 1)">.</text>
            <text class="cls-38" transform="matrix(0.85, -0.62, 0.59, 0.81, 432.59, 111.8)">.</text>
            <text class="cls-38" transform="matrix(0.86, -0.61, 0.58, 0.82, 436.63, 108.81)">.</text>
            <text class="cls-38" transform="matrix(0.9, -0.54, 0.52, 0.86, 440.68, 105.92)">.</text>
            <text class="cls-41" transform="matrix(0.97, -0.42, 0.4, 0.92, 444.86, 103.37)">T</text>
            <text class="cls-43" transform="matrix(1.02, -0.26, 0.25, 0.97, 449.33, 101.4)">G</text>
            <text class="cls-46" transform="matrix(1.05, -0.11, 0.11, 0.99, 454.05, 100.17)">A</text>
            <text class="cls-38" transform="translate(458.91 99.61) rotate(1.86) scale(1.05 1)">C</text>
            <text class="cls-47" transform="matrix(1.04, 0.18, -0.17, 0.99, 463.81, 99.77)">T</text>
            <text class="cls-38" transform="matrix(1.01, 0.29, -0.27, 0.96, 468.69, 100.6)">G</text>
            <text class="cls-38" transform="matrix(0.98, 0.39, -0.37, 0.93, 473.43, 101.94)">A</text>
            <text class="cls-48" transform="matrix(0.93, 0.49, -0.47, 0.88, 478.03, 103.75)">C</text>
            <text class="cls-38" transform="matrix(0.87, 0.59, -0.56, 0.83, 482.39, 106.07)">T</text>
            <text class="cls-38" transform="translate(486.52 108.91) rotate(34.1) scale(1.05 1)">G</text>
            <text class="cls-38" transform="translate(490.94 111.93) rotate(28.35) scale(1.05 1)">A</text>
            <text class="cls-38" transform="matrix(1.01, 0.29, -0.28, 0.96, 496.01, 114.64)">C</text>
            <text class="cls-49" transform="matrix(1.05, 0.01, -0.01, 1, 501.71, 116.16)">T</text>
            <text class="cls-38" transform="translate(507.24 116.15) rotate(-8.3) scale(1.05 1)">.</text>
            <text class="cls-43" transform="matrix(1.02, -0.27, 0.25, 0.97, 512.58, 115.34)">.</text>
            <text class="cls-38" transform="matrix(0.99, -0.34, 0.33, 0.95, 517.7, 113.99)">.</text>
            <text class="cls-38" transform="translate(522.58 112.29) rotate(-21.93) scale(1.05 1)">.</text>
          </g>
      </g>

      <!-- Natural Variation -->
      <g id="natural_variation" class="biologicalLevel">
          <text class="cls-1" transform="translate(280.75 116.82)">natural variation</text>
          <path id="plant4" d="M289.62,89.07c0.74-.24,1.48-0.5,2.23-0.7a12.43,12.43,0,0,1,2-.35,15.79,15.79,0,0,1,2,0,6.47,6.47,0,0,1,1.15.16,4,4,0,0,1,1.49.74,6.19,6.19,0,0,1,1.78,2,2.6,2.6,0,0,1,.16,2,5.3,5.3,0,0,1-.43-0.38,9.09,9.09,0,0,0-2.84-2,7,7,0,0,0-2.17-.63l-1.55-.18c0.92,0.38,1.86.73,2.74,1.16A14.93,14.93,0,0,1,298,92a6.15,6.15,0,0,1,1,.84,9,9,0,0,1,1.5,1.88l0.39,0.7a5.86,5.86,0,0,1,1.71-2.3,11.82,11.82,0,0,1-.58-1.21,1.45,1.45,0,0,1,.41-1.48,3.74,3.74,0,0,1,2.16-1.12,5.82,5.82,0,0,1,1.25-.15,7,7,0,0,1,2.52.47,6.85,6.85,0,0,1,2.45,1.65c0.2,0.21.37,0.45,0.58,0.71a3.86,3.86,0,0,0-1.77,1.52,6,6,0,0,1-2,1.83,3.65,3.65,0,0,1-1.73.44,2.19,2.19,0,0,1-1.38-.53,6.48,6.48,0,0,1-.74-0.84,0.29,0.29,0,0,1,0-.26,2.5,2.5,0,0,1,1-1,11.94,11.94,0,0,1,3.49-1.26c0.27-.06.55-0.08,0.83-0.12h-1.58a10.53,10.53,0,0,0-1.39.21,6.71,6.71,0,0,0-2.54,1.1,4.8,4.8,0,0,0-2.06,4.61c0.06,0.41,0,.83.06,1.25h-1.21c0-.61,0-1.21-0.1-1.82a4.18,4.18,0,0,0-1.51-2.88l-0.2.13c-0.52.38-1,.79-1.55,1.14a2.86,2.86,0,0,1-2.55.36,3.76,3.76,0,0,1-1.22-.69,5.26,5.26,0,0,1-1.55-1.92c-0.35-.81-0.63-1.64-1-2.45a3.2,3.2,0,0,0-1.16-1.65V89.12Z" transform="translate(-13.67 0.03)"/>
          <path id="plant3" d="M341.13,76.74c0.74-.24,1.48-0.5,2.23-0.7a12.43,12.43,0,0,1,2-.35,15.79,15.79,0,0,1,2,0,6.47,6.47,0,0,1,1.15.16,3.74,3.74,0,0,1,1.49.74,6.19,6.19,0,0,1,1.78,2,2.6,2.6,0,0,1,.16,2,5.3,5.3,0,0,1-.43-0.38,9.52,9.52,0,0,0-2.84-2,7,7,0,0,0-2.17-.63l-1.55-.18c0.92,0.38,1.86.73,2.74,1.16a15.45,15.45,0,0,1,1.83,1.12,6.15,6.15,0,0,1,1,.84A9,9,0,0,1,352,82.4l0.39,0.7a5.86,5.86,0,0,1,1.71-2.3,11.82,11.82,0,0,1-.58-1.21,1.45,1.45,0,0,1,.41-1.48,3.74,3.74,0,0,1,2.18-1.16,5.82,5.82,0,0,1,1.25-.15,7,7,0,0,1,2.52.47,6.85,6.85,0,0,1,2.45,1.65c0.2,0.21-6.63.45-6.42,0.71-0.83.27,5.72,0.91,5.23,1.52a6,6,0,0,1-2,1.83,3.65,3.65,0,0,1-1.73.44,2.19,2.19,0,0,1-1.38-.53,6.48,6.48,0,0,1-.74-0.84,0.29,0.29,0,0,1,0-.26,2.5,2.5,0,0,1,1-1,11.94,11.94,0,0,1,3.49-1.26,2.61,2.61,0,0,1,.89-0.11h-1.58a10.53,10.53,0,0,0-1.39.21,6.71,6.71,0,0,0-2.54,1.1,4.8,4.8,0,0,0-2.06,4.61c0.06,0.41,0,13.16.06,13.57H352c0-.61,0-13.54-0.1-14.14a4.18,4.18,0,0,0-1.51-2.88l-0.2.13c-0.52.38-1,.79-1.55,1.14a2.86,2.86,0,0,1-2.55.36,3.76,3.76,0,0,1-1.22-.69,5.26,5.26,0,0,1-1.55-1.92c-0.35-.81-0.63-1.64-1-2.45a3.2,3.2,0,0,0-1.16-1.67V76.74Z" transform="translate(-13.67 0.03)"/>
          <path id="plant2" d="M315.4,89.07c0.74-.24,1.48-0.5,2.23-0.7a12.43,12.43,0,0,1,2-.35,15.79,15.79,0,0,1,2,0,6.47,6.47,0,0,1,1.15.16,3.74,3.74,0,0,1,1.49.74,6.19,6.19,0,0,1,1.78,2,2.6,2.6,0,0,1,.16,2,5.3,5.3,0,0,1-.43-0.38,9.52,9.52,0,0,0-2.84-2,7,7,0,0,0-2.17-.63l-1.55-.18c0.92,0.38,1.86.73,2.74,1.16A15.45,15.45,0,0,1,323.79,92a6.15,6.15,0,0,1,1,.84,9,9,0,0,1,1.5,1.88l0.39,0.7a5.86,5.86,0,0,1,1.71-2.3,11.82,11.82,0,0,1-.58-1.21,1.45,1.45,0,0,1,.41-1.48,3.74,3.74,0,0,1,2.16-1.12,5.82,5.82,0,0,1,1.25-.15,7,7,0,0,1,2.52.47,6.85,6.85,0,0,1,2.45,1.65c0.2,0.21.37,0.45,0.58,0.71a3.86,3.86,0,0,0-1.77,1.52,6,6,0,0,1-2,1.83,3.65,3.65,0,0,1-1.73.44,2.19,2.19,0,0,1-1.38-.53,6.48,6.48,0,0,1-.74-0.84,0.29,0.29,0,0,1,0-.26,2.5,2.5,0,0,1,1-1A11.94,11.94,0,0,1,334,91.9c0.27-.06.55-0.08,0.83-0.12H333.3a10.53,10.53,0,0,0-1.39.21,6.71,6.71,0,0,0-2.54,1.1,4.8,4.8,0,0,0-2.06,4.61c0.06,0.41,0,.83.06,1.25h-1.21c0-.61,0-1.21-0.1-1.82a4.18,4.18,0,0,0-1.51-2.88l-0.2.13c-0.52.38-1,.79-1.55,1.14a2.86,2.86,0,0,1-2.55.36,3.76,3.76,0,0,1-1.22-.69,5.26,5.26,0,0,1-1.55-1.92c-0.35-.81-0.63-1.64-1-2.45a3.2,3.2,0,0,0-1.16-1.65V89.12Z" transform="translate(-13.67 0.03)"/>
          <path id="plant1" d="M366.95,89.07c0.74-.24,1.48-0.5,2.23-0.7a12.43,12.43,0,0,1,2-.35,15.79,15.79,0,0,1,2,0,6.47,6.47,0,0,1,1.15.16,3.74,3.74,0,0,1,1.49.74,6.19,6.19,0,0,1,1.78,2,2.6,2.6,0,0,1,.16,2,5.3,5.3,0,0,1-.43-0.38,9.52,9.52,0,0,0-2.84-2,7,7,0,0,0-2.17-.63l-1.55-.18c0.92,0.38,1.86.73,2.74,1.16A15.45,15.45,0,0,1,375.34,92a6.15,6.15,0,0,1,1,.84,9,9,0,0,1,1.5,1.88l0.39,0.7a5.86,5.86,0,0,1,1.71-2.3,11.82,11.82,0,0,1-.58-1.21,1.45,1.45,0,0,1,.41-1.48,3.74,3.74,0,0,1,2.16-1.12,5.82,5.82,0,0,1,1.25-.15,7,7,0,0,1,2.52.47,6.85,6.85,0,0,1,2.45,1.65c0.2,0.21.37,0.45,0.58,0.71A3.86,3.86,0,0,0,387,93.52a6,6,0,0,1-2,1.83,3.65,3.65,0,0,1-1.73.44,2.19,2.19,0,0,1-1.38-.53,6.48,6.48,0,0,1-.74-0.84,0.29,0.29,0,0,1,0-.26,2.5,2.5,0,0,1,1-1,11.94,11.94,0,0,1,3.49-1.26c0.27-.06.55-0.08,0.83-0.12h-1.58a10.53,10.53,0,0,0-1.39.21,6.71,6.71,0,0,0-2.54,1.1,4.8,4.8,0,0,0-2.06,4.61c0.06,0.41,0,.83.06,1.25h-1.21c0-.61,0-1.21-0.1-1.82a4.18,4.18,0,0,0-1.51-2.88l-0.2.13c-0.52.38-1,.79-1.55,1.14a2.86,2.86,0,0,1-2.55.36,3.76,3.76,0,0,1-1.22-.69A5.26,5.26,0,0,1,369,93.27c-0.35-.81-0.63-1.64-1-2.45a3.18,3.18,0,0,0-1.16-1.65V89.12Z" transform="translate(-13.67 0.03)"/>
          <g id="track">
            <line class="cls-50" x1="303.45" y1="38.92" x2="346.44" y2="38.92"/>
            <rect class="cls-32" x="308.39" y="35.74" width="3.27" height="6.37"/>
            <rect class="cls-32" x="314.32" y="35.74" width="3.27" height="6.37"/>
            <line class="cls-50" x1="303.45" y1="48.95" x2="346.44" y2="48.95"/>
            <rect class="cls-32" x="308.39" y="45.77" width="3.27" height="6.37"/>
            <rect class="cls-32" x="314.32" y="45.77" width="3.27" height="6.37"/>
            <rect class="cls-32" x="320.24" y="45.77" width="3.27" height="6.37"/>
            <line class="cls-50" x1="303.45" y1="58.98" x2="346.44" y2="58.98"/>
            <rect class="cls-32" x="308.39" y="55.8" width="3.27" height="6.37"/>
            <rect class="cls-32" x="320.24" y="55.8" width="3.27" height="6.37"/>
          </g>
      </g>

      <!-- Environment -->   
      <g id="environment" class="biologicalLevel">   
          <path id="sun" d="M621.43,14.42a20.11,20.11,0,0,0-5.37,2.72,1.65,1.65,0,0,0-.52,1.17,10.46,10.46,0,0,0,.82,3.61c0.31,0.83.63,1.66,1,2.53-1.08-.42-2.08-0.87-3.11-1.21a25.09,25.09,0,0,0-2.51-.58,1.93,1.93,0,0,0-2.2,1.16c-0.76,1.41-1.42,2.87-2.12,4.31,0,0.11-.08.23-0.12,0.34a0.74,0.74,0,0,1-.11.14c-0.36-.72-0.66-1.42-1-2.09-0.63-1.09-1.28-2.16-2-3.21a2.06,2.06,0,0,0-2.25-.7c-0.82.23-1.66,0.46-2.45,0.77s-1.56.72-2.42,1.12c0.28-.76.59-1.44,0.79-2.15,0.34-1.28.66-2.56,0.89-3.86a1.64,1.64,0,0,0-.89-1.71c-1.18-.68-2.39-1.3-3.61-1.91a15,15,0,0,0-1.42-.54c0.35-.17.59-0.31,0.84-0.42a24.61,24.61,0,0,0,4.57-2.49,1.75,1.75,0,0,0,.51-1.93c-0.49-1.8-1-3.59-1.56-5.38,0.3,0.13.71,0.33,1.13,0.47,1.35,0.44,2.7.93,4.08,1.27A2,2,0,0,0,604.66,5,18.41,18.41,0,0,0,607,0h0.21A24.66,24.66,0,0,0,610,5,2,2,0,0,0,612,6a13.65,13.65,0,0,0,3.72-1.19c0.52-.24,1-0.47,1.63-0.74-0.21.53-.37,1-0.55,1.38a13.57,13.57,0,0,0-1.14,4.43,1.55,1.55,0,0,0,.54,1.5,6.91,6.91,0,0,0,.75.55c1.49,0.75,3,1.48,4.49,2.21v0.31h0Zm-14.25-6.6a6.46,6.46,0,1,0,.38,0h-0.38Z" transform="translate(-13.67 0.03)"/>
          <path id="cloud" d="M588.31,17.05c-0.08.28-.16,0.55-0.25,0.83a6.07,6.07,0,0,1-5.73,4.28H563.78a3.11,3.11,0,0,1-3.16-2.38,2,2,0,0,0-.11-0.24V18.45a0.43,0.43,0,0,0,.09-0.12,3.17,3.17,0,0,1,2-2.29A1,1,0,0,0,563,15.6a4.54,4.54,0,0,1,2.25-2.1,12,12,0,0,1,1.24-.4V12.89a6.69,6.69,0,0,1,5-5.89c0.42-.11.84-0.18,1.26-0.27h0.76l0.41,0.11a6.78,6.78,0,0,1,5.25,3.58,1,1,0,0,0,.14.16l0.42-.18a6.14,6.14,0,0,1,8.09,3.16q0.12,0.27.21,0.55L588.32,15V17h0Zm-10.18-2.63H578c-0.12-.55-0.24-1.09-0.35-1.64a4.51,4.51,0,0,0-8.92,1.37l0,0.2c0.06,0.4.11,0.81,0.18,1.25-1-.07-2-0.52-3,0a3.14,3.14,0,0,0-1.39,2.49h-0.84a1,1,0,1,0,0,2h18.63a3.94,3.94,0,1,0-2.68-6.93A17,17,0,0,0,578.13,14.42ZM566.27,30l-0.45-.29a1.77,1.77,0,0,1-.32-2.92,10.13,10.13,0,0,1,1.17-.79l2-1.26c-0.07,1.25-.08,2.54-0.25,3.81a3.11,3.11,0,0,1-.87,1.16,2.09,2.09,0,0,1-.36.28h-0.92Zm16.07,0a0.58,0.58,0,0,1,.15-0.15,2,2,0,0,0,1.28-2.11c0-1,.07-2,0.1-3l-2,1.32a9.2,9.2,0,0,0-1,.69,1.78,1.78,0,0,0,.31,3,3.41,3.41,0,0,1,.37.28h0.87Zm-7.71,0a0.56,0.56,0,0,1,.15-0.15A2,2,0,0,0,576,27.71c0-1,.07-2,0.11-3l-1.52,1.06a15.56,15.56,0,0,0-1.56,1.06,1.75,1.75,0,0,0,.36,2.9,2.53,2.53,0,0,1,.33.25h0.86Z" transform="translate(-13.67 0.03)"/>
          <text class="cls-1" transform="translate(543.74 42.39)">envi<tspan x="21.78" y="0">r</tspan><tspan x="25.56" y="0">onment</tspan></text>
      </g>


  </g> <!-- end of 'allLevels' -->

  <!-- NAVIGATION PANEL -->

  <g id="World_eFP" class="navButton" onmouseover="fadeOutAllLevels();world_eFP();" onmouseout="fadeInAllLevels();">
    <text class="cls-1" transform="translate(53.01 36.69)">World eFP</text>
    <rect id="World_eFP_button" data-name="World eFP button" class="navButtonRectangle" x="0.5" y="15.46" width="41.32" height="33.06" rx="4.96" ry="4.96"/>
    <path id="World_eFP_icon" data-name="World eFP icon" d="M24.48,32.61a9.93,9.93,0,1,1,9.93,9.79A9.87,9.87,0,0,1,24.48,32.61Zm14.13-8-2.89,2a2.37,2.37,0,0,1-.27.18l-1,.5A4.94,4.94,0,0,1,34,26a2.11,2.11,0,0,0-1.51-1.91c-1.45-.49-2.06,1-3.52,1.14l1.12,0.27c-0.4.59-1.12,1.18-1.05,1.68s0.91,0.88,1.53,1.41l0.36-2L33.66,29c-1.62.91-3.16,1.46-3.61,3l-1.88-.12-0.1.4c1,0.65,1.5,2,3.06,1.9a2.13,2.13,0,0,1,1.23.38c1,0.65,1.88,1.37,2.9,2.12-0.54,2-2.6,2.77-3.86,4.42a9,9,0,0,0,8-1c1.58-1,1.69-1.49,1.38-3.37a1.11,1.11,0,0,0-1.39-1.15c-1,0-1.92-1-1.59-1.8a3.86,3.86,0,0,1,1.55-1.86,1.8,1.8,0,0,1,2.48.37,1.6,1.6,0,0,0,1.33.19,2.46,2.46,0,0,0,.44-1.09,2.24,2.24,0,0,1-.86.08c-1-.55-1.93-1-3-0.09a1.6,1.6,0,0,1-.84-0.06,1.5,1.5,0,0,1,.25-0.75c0.85-.36.6-1,0.55-1.65,0-.24-0.06-0.47-0.08-0.71l0.33-.08,0.56,1.38,0.91-.72,1.08,0.41,0.19-.28A8.72,8.72,0,0,0,38.61,24.62ZM29.89,40.22a9.18,9.18,0,0,0,.58-1.49,1.58,1.58,0,0,0-.1-1.19,2.2,2.2,0,0,1-.36-3,23.52,23.52,0,0,1-2.08-1.29,19.66,19.66,0,0,1-1.64-1.57l0,0.18-0.81-.35C24.82,34.89,26.94,39,29.89,40.22Z" transform="translate(-13.67 0.03)"/>
  </g>

  <g id="Plant_eFP" class="navButton" onmouseover="fadeOutAllLevels();plant_eFP();" onmouseout="fadeInAllLevels();">
    <text class="cls-1" transform="translate(52.58 93.16)">Plant eFP</text>
    <rect id="Plant_eFP_button" data-name="Plant eFP button" class="navButtonRectangle" x="0.5" y="72.22" width="41.32" height="33.06" rx="4.96" ry="4.96"/>
    <path id="Plant_eFP_icon" data-name="Plant eFP icon" d="M41.67,77.21c-0.18,5.05-2.4,7.46-6.54,6.85-0.56,1-.62,4.06-0.14,7.12l0.31,0c0-.36,0-0.72-0.07-1.07a3.31,3.31,0,0,1,1.07-3.3,25.17,25.17,0,0,1,4.27-2.58c1.49-.72,3-1.31,4.06-3.12,0,3.15-.39,5.87-2.23,8.13s-4.08,2.52-6.77,2c-1.41,2.14-.29,4.58-0.6,6.93H33.65c0-1,0-2,0-3s0-1.76,0-2.64c0-1.64-.92-2.28-2.62-2.11a3.22,3.22,0,0,1-2.29-.76,15.45,15.45,0,0,1-2.06-2.92c-0.67-1.05-1.3-2.13-1.87-3.08,4.11-.18,8.25,1.66,7.43,6.55l1.28,0.43c0.54-1.45.45-6.67-.1-7.26L34.7,83c0.06-2.19,1.61-3.1,3.32-3.91C39.28,78.53,40.49,77.83,41.67,77.21ZM29,80.83c0.51,1,1.08,2.07,2.29,2.34S33.09,83,33,81.84a2.92,2.92,0,0,0-1.52-2.51,39.56,39.56,0,0,0-4-1.34C28.07,79.2,28.56,80,29,80.83Z" transform="translate(-13.67 0.03)"/>
  </g>

  <g id="Experiment_eFP" class="navButton" onmouseover="fadeOutAllLevels();experiment_eFP();" onmouseout="fadeInAllLevels();">
    <text class="cls-1" transform="translate(52.58 149.64)">Tissue &amp; Experiment eFP</text>
    <rect id="Experiment_eFP_button" data-name="Experiment eFP button" class="navButtonRectangle" x="0.5" y="128.98" width="41.32" height="33.06" rx="4.96" ry="4.96"/>
    <path id="Experiment_eFP_icon" data-name="Experiment eFP icon" d="M37.47,153.29c1.88,0.12,1.91.15,1.82,1.86H27.87c-0.4-1.38-.11-1.8,1.31-1.81,0.88,0,1.76,0,2.64,0a5,5,0,0,0,4.95-2.5c1-1.73.89-3.51-.38-5.63l1.13-1.33C39.93,145.94,39.95,149.42,37.47,153.29ZM36,137.05c-0.27.39-1,.49-1.2,0.89-1.59,2.65-3.11,5.35-4.7,8.13l2.77,1.58,1.48-2.59c-0.89-.87-1.33-1.82-0.66-2.93s1.69-1.18,2.89-.79c0.38-.8.78-1.52,1.07-2.29,0.19-.5.11-1.1,0.33-1.57a11.79,11.79,0,0,1,1.19-1.68l-1.91-1.09A20,20,0,0,1,36,137.05Zm-0.69,4.69A1.32,1.32,0,0,0,34,143.25a1.36,1.36,0,0,0,1.46,1.42,1.48,1.48,0,0,0,1.49-1.52A1.46,1.46,0,0,0,35.34,141.75Zm-6.75,4.81c1.55,1.38,4.26,2.71,4.89,2.42C32.24,147.69,29.14,146.16,28.59,146.55ZM30,148.34l-1.22-.73L28,148.92l1.21,0.74Zm0.34,1.91L31.51,151l0.76-1.32-1.2-.74Z" transform="translate(-13.67 0.03)"/>
  </g>

  <g id="Cell_eFP" class="navButton" onmouseover="fadeOutAllLevels();cell_eFP();" onmouseout="fadeInAllLevels();">
    <rect id="Cell_eFP_button" data-name="Cell eFP button" class="navButtonRectangle" x="0.5" y="185.74" width="41.32" height="33.06" rx="4.96" ry="4.96"/>
    <path id="Cell_eFP_icon" data-name="Cell eFP icon" d="M35,208.27A10.77,10.77,0,0,1,28.15,206a5.31,5.31,0,0,1,0-8.6,11.51,11.51,0,0,1,13.75,0,5.31,5.31,0,0,1,0,8.67A10.82,10.82,0,0,1,35,208.27Zm-1.66-5.82c1.51,0,2.77-.85,2.79-1.87s-1.22-1.9-2.74-1.92-2.86.86-2.84,1.92S31.84,202.46,33.35,202.46Z" transform="translate(-13.67 0.03)"/>
    <text class="cls-1" transform="translate(52.58 206.12)">Cell eFP</text>
  </g>

  <g id="Chromosome_Viewer" class="navButton" onmouseover="fadeOutAllLevels();chromosome_viewer();" onmouseout="fadeInAllLevels();">
    <rect id="Chromosome_Viewer_button" data-name="Chromosome Viewer button" class="navButtonRectangle" x="0.5" y="242.51" width="41.32" height="33.06" rx="4.96" ry="4.96"/>
    <path id="Chromosome_Viewer_icon" data-name="Chromosome Viewer icon" d="M29.27,247.64a7.53,7.53,0,0,1,2,6.4,8.46,8.46,0,0,1,6.1,2.23,7,7,0,0,1,2.22,6.07,8.31,8.31,0,0,1,6.23,2.09v0.23c-0.75.56-1.53,1.07-2.23,1.67a14.46,14.46,0,0,0-3.52,4.31H39.85a7.69,7.69,0,0,1-2-6.43,7.91,7.91,0,0,1-6.2-2.19,6.54,6.54,0,0,1-2.12-5.76,42.19,42.19,0,0,1-4.27-.84,12.39,12.39,0,0,1-2.41-1.34v-0.46l1.05-.86L24,253a2.45,2.45,0,0,0,1-.31c1.55-1.54,3.31-2.92,4.08-5.08h0.23ZM35,256.33l-3.43,3.18,0.85,1.06,3.63-3.52Zm-9.47-2.58,0.11,0.51a3.9,3.9,0,0,0,1.85-.2c2.38-2,2.35-2,1.76-3.73Zm12.25,5.58-1-1.41-3,3.93c0.57,0.59,1.25.26,2-.57S37.1,260,37.79,259.32Zm2.06,8.53,3.7-3.49a3.48,3.48,0,0,0-1.5.1c-0.94.8-1.79,1.71-2.63,2.55Zm-6.27-12-0.1-.33c-0.84.07-1.85-.11-2.45,0.3-0.35.24-.06,1.43-0.06,2.45Zm4.56,6.67v-1.38l-1.61,1.41,0,0.22Zm-9.45-12.81-3.79,3.67L25,253.51Zm11.73,19-0.25-.22,3.61-3.62L44,265.13Zm-4-11.19,0.1,0.06-2.68,2.53ZM34,255.77l0.35,0.34a0.58,0.58,0,0,0-.14-0.09l-2.89,2.61,0.25,0.26Zm5.49,8-0.24,1.29,1.45-1.29H39.44Z" transform="translate(-13.67 0.03)"/>
    <text class="cls-1" transform="translate(52.58 262.6)">Chomosome Viewer</text>    
  </g>

  <g id="Interaction_Viewer" class="navButton" onmouseover="fadeOutAllLevels();interaction_viewer();" onmouseout="fadeInAllLevels();">
    <rect id="Interaction_Viewer_button" data-name="Interaction Viewer button" class="navButtonRectangle" x="0.5" y="299.27" width="41.32" height="33.06" rx="4.96" ry="4.96"/>
    <g id="Interaction_Viewer_icon" data-name="Interaction Viewer icon">
      <path class="cls-56" d="M25.35,311.32l16.24,9.38m-16.24,0,16.24-9.37m-8.12-4.69v18.75" transform="translate(-13.67 0.03)"/>
      <circle class="cls-57" cx="19.8" cy="316.04" r="3.44"/>
      <circle class="cls-58" cx="19.77" cy="306.22" r="1.27"/>
      <circle class="cls-58" cx="19.77" cy="325.86" r="1.27"/>
      <circle class="cls-58" cx="28.65" cy="321.15" r="1.27"/>
      <circle class="cls-58" cx="28.65" cy="310.93" r="1.27"/>
      <circle class="cls-58" cx="11.22" cy="310.93" r="1.27"/>
      <circle class="cls-58" cx="11.5" cy="320.83" r="1.27"/>
    </g>
    <text class="cls-1" transform="translate(52.58 319.08)">Interaction Viewer</text>
  </g>

  <g id="Molecule_Viewer" class="navButton" onmouseover="fadeOutAllLevels();molecule_viewer();" onmouseout="fadeInAllLevels();">
    <rect id="Molecule_Viewer_button" data-name="Molecule Viewer button" class="navButtonRectangle" x="0.5" y="356.03" width="41.32" height="33.06" rx="4.96" ry="4.96"/>
    <g id="Molecule_Viewer_icon" data-name="Molecule Viewer icon">
      <path d="M36.3,374a2.38,2.38,0,0,0,2.62-.46,3.05,3.05,0,0,0,1-1,1.16,1.16,0,0,1,2.13.79,1.09,1.09,0,0,1-1.1,1,3.44,3.44,0,0,0-3.24,2.64,5,5,0,0,0,1.6,3.45,1.78,1.78,0,1,1-1.31,3.3,1.68,1.68,0,0,1-.82-2.46,1.69,1.69,0,0,0-.13-1.72c-0.14-.45-0.36-0.89-0.48-1.34a0.81,0.81,0,0,0-.82-0.72,0.72,0.72,0,0,0-.72.69,1.16,1.16,0,0,1-1.38,1.09,1.13,1.13,0,0,1-1.06-1.09,1.22,1.22,0,0,1,1.17-1.32,1.33,1.33,0,0,0,.53-2.15A3.89,3.89,0,0,0,31,373.1a2.77,2.77,0,0,0-2.24,1.32,1.1,1.1,0,0,1-1.37.58,0.94,0.94,0,0,1-.66-1.12,1.07,1.07,0,0,1,1.15-.92c1.59-.2,3.31-2,2.3-3.83a10.35,10.35,0,0,1-.66-1.63,1.71,1.71,0,0,0-1.25-1.31,1.86,1.86,0,0,1-1-2.55,2,2,0,0,1,2.5-1,1.81,1.81,0,0,1,1,2.52,1.88,1.88,0,0,0,0,2,22.67,22.67,0,0,1,.85,2.14,1.13,1.13,0,0,0,1,.65c0.4,0.12.42-.29,0.53-0.55a1,1,0,0,1,1.24-.64,0.92,0.92,0,0,1,.78,1,1,1,0,0,1-1,1c-1,0-.71.81-0.73,1.27S35.51,374.07,36.3,374Z" transform="translate(-13.67 0.03)"/>
      <path class="cls-55" d="M38.15,366.14c2.12-.13,5,2.42,5.18,4.73A9.81,9.81,0,0,0,38.15,366.14Z" transform="translate(-13.67 0.03)"/>
      <path class="cls-55" d="M25.31,377.42a11.56,11.56,0,0,0,5.16,4.65C28.63,382.33,25.52,379.48,25.31,377.42Z" transform="translate(-13.67 0.03)"/>
    </g>
    <text class="cls-1" transform="translate(52.58 375.55)">Molecule Viewer</text>
  </g>

  <g id="Sequence_Browser" class="navButton" onmouseover="fadeOutAllLevels();sequence_browser();" onmouseout="fadeInAllLevels();">
    <rect id="Sequence_Browser_button" data-name="Sequence Browser button" class="navButtonRectangle" x="0.5" y="412.8" width="41.32" height="33.06" rx="4.96" ry="4.96"/>
    <g id="Sequence_Browser_icon" data-name="Sequence Browser icon">
      <path d="M34.38,430.31h9.35a2.7,2.7,0,0,1,1.18.09,1.88,1.88,0,0,1,1,1,2.39,2.39,0,0,1-.61,1.28c-0.09.14-.47,0.11-0.52,0.24-0.48,1.1-.89,1.73-1.59.1-0.19-.44-1.5-0.12-1.76.4-0.38.74-.75,0.77-1.18,0.06a1,1,0,0,0-1.85,0c-0.37.62-.75,0.67-1.14,0a1.08,1.08,0,0,0-2-.06,1,1,0,0,1-.58.49,1,1,0,0,1-.57-0.5,1.1,1.1,0,0,0-2,.07c-0.38.62-.75,0.65-1.14,0a1.07,1.07,0,0,0-2,0c-0.42.71-.78,0.71-1.17,0a1.1,1.1,0,0,0-2,0c-0.27.51-.73,0.91-1,0.26a1.85,1.85,0,0,0-1.31-.93,1.68,1.68,0,0,1-.91-1.17,1.94,1.94,0,0,1,.95-1.16,2.36,2.36,0,0,1,1.17-.1h9.59Z" transform="translate(-13.67 0.03)"/>
      <path d="M27.52,435.3l0.9-1.12,1,1.11h1.13l1.09-1.1,0.85,1.1h1.24l1-1.11,0.89,1.13h1.24l1-1.14,0.92,1.13h1.11l1-1.11,0.78,1.1h1.39l0.79-1.11a7.69,7.69,0,0,0,.69.88,7.75,7.75,0,0,1,.75.49,2,2,0,0,1,.61,1.17,1.94,1.94,0,0,1-.92,1.07,2.45,2.45,0,0,1-1.17.11H24.77c-0.24,0-.48,0-0.72,0a1.28,1.28,0,0,1-1.45-1.27,1.24,1.24,0,0,1,1.32-1.27l0.37,0,1.05-1.15,0.87,1.12h1.31Z" transform="translate(-13.67 0.03)"/>
      <path d="M32.47,422.71a1.83,1.83,0,0,0-.44.08,8.38,8.38,0,0,0,0,3.13A2.8,2.8,0,0,0,34.18,427c2.83,0.13,5.67,0,8.5.05a2.48,2.48,0,0,1,.95,0,4.65,4.65,0,0,1,.93.73,5.15,5.15,0,0,1-1,.65,2.83,2.83,0,0,1-1,0H35a2.83,2.83,0,0,0-2.5.76,1.58,1.58,0,0,1-2.33-.3,1.61,1.61,0,0,1,.19-2.35,1.89,1.89,0,0,0,.79-1.94c0-1.48,0-3,0-4.43,0-.37.06-0.74,0.1-1.13l2.47,1.08-2.08-.31Z" transform="translate(-13.67 0.03)"/>
      <path class="cls-54" d="M32.47,422.71l-0.85-2.84,2.08,0.31h2.58l0.94-.16,0.16,2.65h-5Z" transform="translate(-13.67 0.03)"/>
      <path d="M32.42,422.68h5L37.22,420l-0.94.16,1.44-.62v3.06A8,8,0,0,1,32.42,422.68Z" transform="translate(-13.67 0.03)"/>
    </g>
    <text class="cls-1" transform="translate(52.58 432.03)">Sequence Browser</text>
  </g>


  <!-- Legend -->
  <g id="legend">
      <text class="cls-12" transform="translate(53.35 528.45)">leads to</text>
      <text class="cls-12" transform="translate(53.35 510.45)">influences</text>
      <text class="cls-12" transform="translate(53.32 546.45)">central dogma of molecular biology</text>
      <path class="cls-52" d="M52.75,507.42H14.13" transform="translate(-13.67 0.03)"/>
      <path class="cls-3" d="M52.75,525.42H14.13" transform="translate(-13.67 0.03)"/>
      <path class="cls-24" d="M52.75,542.42H14.13" transform="translate(-13.67 0.03)"/>
  </g>



<script>
  // DEFINE VARIABLES
  var navButtons = document.getElementsByClassName('navButton');
  var allArrows = document.getElementById('allArrows'); 
  var phenotype = document.getElementById('phenotype'); 
  var localization = document.getElementById('localization');  
  var subcellular_localization = document.getElementById('subcellular_localization');  
  var secondary_metabolism = document.getElementById('secondary_metabolism');  
  var primary_metabolism = document.getElementById('primary_metabolism');  
  var metabolism = document.getElementById('metabolism');  
  var protein_networks = document.getElementById('protein_networks');  
  var structure = document.getElementById('structure');  
  var protein_sequence = document.getElementById('protein_sequence');  
  var RNA_sequence = document.getElementById('RNA_sequence');  
  var signaling = document.getElementById('signaling');  
  var methylation = document.getElementById('methylation');  
  var ncRNA = document.getElementById('ncRNA');  
  var DNA_sequence = document.getElementById('DNA_sequence');  
  var natural_variation = document.getElementById('natural_variation');  
  var environment = document.getElementById('environment'); 

  var World_eFP_button = document.getElementById('World_eFP_button');    
  var Plant_eFP_button = document.getElementById('Plant_eFP_button');    
  var Experiment_eFP_button = document.getElementById('Experiment_eFP_button');    
  var Cell_eFP_button = document.getElementById('Cell_eFP_button');    
  var Chromosome_Viewer_button = document.getElementById('Chromosome_Viewer_button');    
  var Interaction_Viewer_button = document.getElementById('Interaction_Viewer_button');    
  var Molecule_Viewer_button = document.getElementById('Molecule_Viewer_button');    
  var Sequence_Browser_button = document.getElementById('Sequence_Browser_button');  



  // FADE OUT ALL LEVELS
  function fadeOutAllLevels() {
    allArrows.style.opacity = "0.05";
    phenotype.style.opacity = "0.05";
    localization.style.opacity = "0.05";
    subcellular_localization.style.opacity = "0.05";
    secondary_metabolism.style.opacity = "0.05";
    primary_metabolism.style.opacity = "0.05";
    metabolism.style.opacity = "0.05";
    protein_networks.style.opacity = "0.05";
    structure.style.opacity = "0.05";
    protein_sequence.style.opacity = "0.05";
    RNA_sequence.style.opacity = "0.05";
    signaling.style.opacity = "0.05";
    methylation.style.opacity = "0.05";
    ncRNA.style.opacity = "0.05";
    DNA_sequence.style.opacity = "0.05";
    natural_variation.style.opacity = "0.05";
    environment.style.opacity = "0.05";
  }

  // FADE IN ALL LEVELS
  function fadeInAllLevels() {
    // reset opacity to full
    allArrows.style.opacity = "1";
    phenotype.style.opacity = "1";
    localization.style.opacity = "1";
    subcellular_localization.style.opacity = "1";
    secondary_metabolism.style.opacity = "1";
    primary_metabolism.style.opacity = "1";
    metabolism.style.opacity = "1";
    protein_networks.style.opacity = "1";
    structure.style.opacity = "1";
    protein_sequence.style.opacity = "1";
    RNA_sequence.style.opacity = "1";
    signaling.style.opacity = "1";
    methylation.style.opacity = "1";
    ncRNA.style.opacity = "1";
    DNA_sequence.style.opacity = "1";
    natural_variation.style.opacity = "1";
    environment.style.opacity = "1";

    // reset scale to 1
    allArrows.style.transform = "scale(1,1)";
    phenotype.style.transform = "scale(1,1)";
    localization.style.transform = "scale(1,1)";
    subcellular_localization.style.transform = "scale(1,1)";
    secondary_metabolism.style.transform = "scale(1,1)";
    primary_metabolism.style.transform = "scale(1,1)";
    metabolism.style.transform = "scale(1,1)";
    protein_networks.style.transform = "scale(1,1)";
    structure.style.transform = "scale(1,1)";
    protein_sequence.style.transform = "scale(1,1)";
    RNA_sequence.style.transform = "scale(1,1)";
    signaling.style.transform = "scale(1,1)";
    methylation.style.transform = "scale(1,1)";
    ncRNA.style.transform = "scale(1,1)";
    DNA_sequence.style.transform = "scale(1,1)";
    natural_variation.style.transform = "scale(1,1)";
    environment.style.transform = "scale(1,1)";

    // reset stroke around button to grey
    World_eFP_button.style.stroke = "#e6e6e6";
    Plant_eFP_button.style.stroke = "#e6e6e6";
    Experiment_eFP_button.style.stroke = "#e6e6e6";
    Cell_eFP_button.style.stroke = "#e6e6e6";
    Chromosome_Viewer_button.style.stroke = "#e6e6e6";
    Interaction_Viewer_button.style.stroke = "#e6e6e6";
    Molecule_Viewer_button.style.stroke = "#e6e6e6";
    Sequence_Browser_button.style.stroke = "#e6e6e6";
  }


  // SHOW WORLD EFP LEVELS ONLY
  function world_eFP() {
    World_eFP_button.style.stroke = "#99CC00";
    natural_variation.style.opacity = "1";
    natural_variation.style.transform = "scale(1.15,1.15)";
    DNA_sequence.style.opacity = "1";
    DNA_sequence.style.transform = "scale(1.15,1.15)";
    RNA_sequence.style.opacity = "1";
    RNA_sequence.style.transform = "scale(1.15,1.15)";
  }

  // SHOW PLANT EFP LEVELS ONLY
  function plant_eFP() {
    Plant_eFP_button.style.stroke = "#99CC00";
    localization.style.opacity = "1";
    localization.style.transform = "scale(1.15,1.15)";
    RNA_sequence.style.opacity = "1";
    RNA_sequence.style.transform = "scale(1.15,1.15)";
  }

  // SHOW EXPERIMENT EFP LEVELS ONLY
  function experiment_eFP() {
    Experiment_eFP_button.style.stroke = "#99CC00";
    RNA_sequence.style.opacity = "1";
    RNA_sequence.style.transform = "scale(1.15,1.15)";
    localization.style.opacity = "1";
    localization.style.transform = "scale(1.15,1.15)";
  }

  // SHOW CELL EFP LEVELS ONLY
  function cell_eFP() {
    Cell_eFP_button.style.stroke = "#99CC00";
    subcellular_localization.style.opacity = "1";
    subcellular_localization.style.transform = "scale(1.15,1.15)";
  }

  // SHOW CHROMOSOME LEVELS ONLY
  function chromosome_viewer() {
    Chromosome_Viewer_button.style.stroke = "#99CC00";
    DNA_sequence.style.opacity = "1";
    DNA_sequence.style.transform = "scale(1.15,1.15)";
  }

  // SHOW INTERACTION LEVELS ONLY
  function interaction_viewer() {
    Interaction_Viewer_button.style.stroke = "#99CC00";
    protein_networks.style.opacity = "1";
    protein_networks.style.transform = "scale(1.15,1.15)";
    subcellular_localization.style.opacity = "1";
    subcellular_localization.style.transform = "scale(1.15,1.15)";
    DNA_sequence.style.opacity = "1";
    DNA_sequence.style.transform = "scale(1.15,1.15)";
  }

  // SHOW MOLECULE LEVELS ONLY
  function molecule_viewer() {
    Molecule_Viewer_button.style.stroke = "#99CC00";
    natural_variation.style.opacity = "1";
    natural_variation.style.transform = "scale(1.15,1.15)";
    structure.style.opacity = "1";
    structure.style.transform = "scale(1.15,1.15)";
    protein_sequence.style.opacity = "1";
    protein_sequence.style.transform = "scale(1.15,1.15)";
  }

  // SHOW SEQUENCE BROWSER LEVELS ONLY
  function sequence_browser() {
    Sequence_Browser_button.style.stroke = "#99CC00";
    protein_sequence.style.opacity = "1";
    protein_sequence.style.transform = "scale(1.15,1.15)";    
    DNA_sequence.style.opacity = "1";
    DNA_sequence.style.transform = "scale(1.15,1.15)";
    RNA_sequence.style.opacity = "1";
    RNA_sequence.style.transform = "scale(1.15,1.15)";
    methylation.style.opacity = "1";
    methylation.style.transform = "scale(1.15,1.15)";
    ncRNA.style.opacity = "1";
    ncRNA.style.transform = "scale(1.15,1.15)";
  }

</script>



</svg>

