<?xml version="1.0" encoding="utf-8"?>
<!-- Generator: Adobe Illustrator 16.0.0, SVG Export Plug-In . SVG Version: 6.00 Build 0)  -->
<!DOCTYPE svg PUBLIC "-//W3C//DTD SVG 1.1//EN" "http://www.w3.org/Graphics/SVG/1.1/DTD/svg11.dtd">
<svg version="1.1" id="Layer_1" xmlns="http://www.w3.org/2000/svg" xmlns:xlink="http://www.w3.org/1999/xlink" x="0px" y="0px"
	 width="900px" height="600px" viewBox="0 0 900 600" enable-background="new 0 0 900 600" xml:space="preserve">
<g id="Samples">
	<g id="Central_Zone">
		<path fill="none" d="M207,314.5c-0.645,0-0.645,1,0,1S207.645,314.5,207,314.5z"/>
		<path fill="none" d="M232.901,309.934c-0.279-3.937-1.461-7.629-3.67-10.638c-0.644-3.866-3.498-7.296-8.564-7.296
			c-1.265,0-2.383,0.224-3.372,0.605c-3.851-0.401-7.875,0.188-11.619,0.752c-0.517,0.078-1.003,0.225-1.473,0.404
			c-5.081-0.571-10.458,2.189-10.854,8.316c-0.05,0.054-0.092,0.101-0.148,0.159c-1.388,1.494-2.639,3.062-3.835,4.716
			c-2.638,3.646-1.154,9.101,0.984,12.581c0.564,0.919,1.239,1.744,1.977,2.511c0.726,2.957,3.061,5.455,7.008,5.455
			c0.104,0,0.2-0.012,0.301-0.015c0.137,0.085,0.272,0.172,0.409,0.258c1.247,8.26,11.625,8.303,16.695,4.328
			c1.485-1.164,1.472-0.734,3.257-1.424c2.776-1.068,5.217-2.168,7.447-4.169C232.085,322.314,233.325,315.913,232.901,309.934z"/>
	</g>
	<g id="Rib_Meristem">
		<path fill="none" d="M453.622,338.078c0.139-0.564,0.213-1.148,0.212-1.744c-0.005-1.791-0.211-3.578-0.602-5.328
			c-0.24-1.074-0.751-2.02-1.435-2.814c-0.093-1.073-0.405-2.088-0.885-2.998c0.084-3.813-2.328-7.692-7.247-7.692
			c-0.197,0-0.384,0.016-0.573,0.028c-2.871-1.657-6.562-1.182-9.062,1.168c-2.452,2.303-4.098,5.188-4.862,8.462
			c-0.258,1.103-0.354,2.249-0.533,3.366c-0.093,0.585-0.242,1.15-0.408,1.718c0.214-0.844-0.535,0.749-0.702,0.973
			c-1.554,2.064-1.356,4.854-0.193,7.106c-0.1,1.216-0.08,2.437,0.087,3.646c-0.854,2.957-0.061,6.454,2.387,8.392
			c0.02,0.03,0.034,0.062,0.054,0.094c0.161,0.266,0.341,0.514,0.528,0.754c0.525,0.989,1.146,1.95,1.895,2.89
			c3.306,4.146,9.262,3.439,13.396,1.347c3.863-1.956,6.68-5.689,7.741-9.834C454.229,344.452,453.91,341.261,453.622,338.078z"/>
	</g>
	<g id="Peripheral_Zone">
		<path fill="none" d="M625.753,333.913c-0.032-0.219-0.055-0.437-0.092-0.655c-0.854-5.072-4.568-8.863-8.543-11.732
			c-0.661-0.479-1.392-0.781-2.148-0.946c-0.655-0.615-1.345-1.206-2.109-1.747c-3.468-2.451-8.125-1.259-11.499,0.569
			c-6.627,3.592-11.254,10.794-9.519,18.454c0.755,3.33,2.261,6.412,4.9,8.648c2.298,1.946,5.201,2.809,7.521,4.641
			c2.847,2.249,5.222,4.452,9.037,4.707c2.663,0.179,5.025-0.839,7.04-2.388c2.912-0.933,5.303-3.627,5.491-7.131
			c0.06-1.112,0.126-2.206,0.179-3.291C627.742,340.346,627.657,336.493,625.753,333.913z"/>
		<path fill="none" d="M743.251,327.694c-0.08-0.322-0.16-0.645-0.258-0.96c-2.125-6.889-6.972-11.105-13.666-13.301
			c-4.572-1.498-7.838,1.312-8.854,4.891c-3.342,2.751-5.951,6.525-8.376,10.061c-2.128,3.104-5.171,6.77-4.745,10.857
			c0.221,2.113,0.326,4.347,1.459,6.226c0.347,0.625,0.759,1.205,1.203,1.762c0.505,6.112,7.309,9.727,12.623,5.074
			c1.083-0.947,2.273-0.588,3.696-0.471c4.436,0.366,6.808-2.609,7.153-6.008c4.16-0.071,6.483-2.944,6.984-6.16
			C745.247,337.831,746.174,331.34,743.251,327.694z"/>
	</g>
</g>
<g id="Outlines">
	<g>
		
			<path fill="none" stroke="#000000" stroke-width="0.75" stroke-linecap="round" stroke-linejoin="round" stroke-miterlimit="10" d="
			M464.414,307.17c-0.543,5.566-1.88,9.831-8.938,10.592c-4.332,0.469-6.656,3.179-3.707,8.835
			c4.186,8.024,1.485,17.015-0.047,25.337c-0.833,4.522-10.139,7.93-14.888,6.946c-4.816-0.997-9.063-6.873-9.67-13.098
			c-0.956-9.821,1.903-18.539,6.719-27.001c1.177-2.068,3.143-0.187,3.642-1.959c4.373,1.242,9.558-0.321,13.1,3.792"/>
		
			<path fill="none" stroke="#000000" stroke-width="0.75" stroke-linecap="round" stroke-linejoin="round" stroke-miterlimit="10" d="
			M225.166,303.723c1.547,0.116,3.076,0.112,4.467-1.231c-0.18-6.959-4.088-10.388-14.102-9.576
			c-6.188,0.502-12.816-0.998-18.634,2.535"/>
		
			<path fill="none" stroke="#000000" stroke-width="0.75" stroke-linecap="round" stroke-linejoin="round" stroke-miterlimit="10" d="
			M725.726,337.507c-3.053-5.423-8.312-7.69-13.652-10.245c-1.435,2.816-3.995,4.629-3.514,7.476
			c0.902,5.328,1.19,11.149,3.682,15.703c2.289,4.185,7.373,2.95,11.417,0.855"/>
		
			<path fill="none" stroke="#000000" stroke-width="0.75" stroke-linecap="round" stroke-linejoin="round" stroke-miterlimit="10" d="
			M734.688,345.78c5.306-1.59,5.593-7.964,10.18-10.624c1.764-1.022-0.468-5.075-1.4-7.224c-2.788-6.42-5.506-12.596-14.221-14.257
			c-5.336-1.017-6.615,2.646-9.728,4.181"/>
		
			<path fill="none" stroke="#000000" stroke-width="0.75" stroke-linecap="round" stroke-linejoin="round" stroke-miterlimit="10" d="
			M625.062,344.401c0.562,2.377,2.107,5.579-0.756,6.729c-5.185,2.082-10.197,7.158-16.453,2.884
			c-4.179-2.854-8.64-5.427-11.5-8.655c-1.062-4.116,3.793-5.214,2.511-8.541"/>
		
			<path fill="none" stroke="#000000" stroke-width="0.75" stroke-linecap="round" stroke-linejoin="round" stroke-miterlimit="10" d="
			M441.662,303.033c-1.859,2.105-4.353-1.481-6.553,1.098c-1.487,3.958,1.011,8.325,0.348,12.691"/>
		
			<path fill="none" stroke="#000000" stroke-width="0.75" stroke-linecap="round" stroke-linejoin="round" stroke-miterlimit="10" d="
			M230.681,327.164c-0.825-3.203-3.971-1.946-4.696-1.244c-4.962,4.805-11.66,6.232-17.549,9.263
			c-2.166-3.026-7.153-3.193-8.781-7.329"/>
		
			<path fill="none" stroke="#000000" stroke-width="0.75" stroke-linecap="round" stroke-linejoin="round" stroke-miterlimit="10" d="
			M449.935,301.654c0.23-0.92,0.592-1.827,0.669-2.76c0.591-7.062,2.469-8.467,8.974-6.174c9.462,3.335,19.12,6.294,28.197,10.49
			c7.587,3.507,13.763,9.573,19.214,15.831c3.521,4.041,8.404,7.009,10.402,12.37c-1.958,1.958-4.025,4.025-6.095,6.096"/>
		
			<path fill="none" stroke="#000000" stroke-width="0.75" stroke-linecap="round" stroke-linejoin="round" stroke-miterlimit="10" d="
			M228.565,297.518c4.552-3.298,10.363-1.823,14.494-0.582c19.221,5.775,33.228,18.559,44.85,34.361
			c-2.072,2.072-4.14,4.141-6.208,6.21"/>
		
			<path fill="none" stroke="#000000" stroke-width="0.75" stroke-linecap="round" stroke-linejoin="round" stroke-miterlimit="10" d="
			M671.258,303.033c-1.858,2.105-4.353-1.481-6.457,0.984c-1.545,3.151,0.379,6.6,0.252,10.047"/>
		
			<path fill="none" stroke="#000000" stroke-width="0.75" stroke-linecap="round" stroke-linejoin="round" stroke-miterlimit="10" d="
			M614.032,316.133c-8.015,0.839-15.987,1.752-20.007,10.336c-0.13,0.277-0.655,0.476-0.646,0.694
			c0.289,7.47-6.277,11.352-9.237,16.933c2.158,2.811,6.247,1.326,7.828,4.442"/>
		
			<path fill="none" stroke="#000000" stroke-width="0.75" stroke-linecap="round" stroke-linejoin="round" stroke-miterlimit="10" d="
			M170.008,311.996c-4.52,1.765-8.553,4.16-13.929,0.922c-3.916-2.357-8.642,1.764-10.596,4.146
			c-7.177,8.751-15.399,16.856-20.402,27.201c2.027,2.64,6.116,1.155,7.697,4.271"/>
		
			<path fill="none" stroke="#000000" stroke-width="0.75" stroke-linecap="round" stroke-linejoin="round" stroke-miterlimit="10" d="
			M401.514,310.962c-4.52,1.765-10.462,5.194-15.839,1.956c-3.916-2.357-8.642,1.764-10.596,4.146
			c-7.178,8.751-15.399,16.856-20.402,27.201c2.027,2.64,6.116,1.155,7.697,4.271"/>
		
			<path fill="none" stroke="#000000" stroke-width="0.75" stroke-linecap="round" stroke-linejoin="round" stroke-miterlimit="10" d="
			M675.395,316.133c0,2.769,0,5.535,0,8.562c-2.986,0.444-5.285,0.937-7.584-0.289"/>
		
			<path fill="none" stroke="#000000" stroke-width="0.75" stroke-linecap="round" stroke-linejoin="round" stroke-miterlimit="10" d="
			M244.47,298.896c-1.555,2.788-3.109,5.577-4.787,8.583c-5.629-2.681-7.548-0.072-7.654,5.206c-0.033,1.612-0.43,3.219-0.659,4.826
			"/>
		
			<path fill="none" stroke="#000000" stroke-width="0.75" stroke-linecap="round" stroke-linejoin="round" stroke-miterlimit="10" d="
			M629.201,311.996c-4.332,3.092-10.174,1.657-14.43,4.517c-0.399,2.783,0.857,4.812,2.753,5.735
			c5.338,2.605,5.604,8.603,8.579,12.743c1.484,2.065,2.543,7.712-3.091,9.469c-1.727,0.539-3.235,1.78-4.845,2.699"/>
		
			<path fill="none" stroke="#000000" stroke-width="0.75" stroke-linecap="round" stroke-linejoin="round" stroke-miterlimit="10" d="
			M694.01,307.17c-0.694,5.097-1.281,10.281-8.272,10.342"/>
		
			<path fill="none" stroke="#000000" stroke-width="0.75" stroke-linecap="round" stroke-linejoin="round" stroke-miterlimit="10" d="
			M679.531,301.654c0.229-0.92,0.591-1.827,0.669-2.76c0.59-7.062,2.468-8.467,8.974-6.174c9.462,3.335,18.849,6.887,28.281,10.304
			c4.605,1.67,17.354,6.537,18.612,11.041"/>
		
			<path fill="none" stroke="#000000" stroke-width="0.75" stroke-linecap="round" stroke-linejoin="round" stroke-miterlimit="10" d="
			M415.462,317.512c-0.46-0.919-1.06-1.795-1.356-2.765c-2.988-9.746-2.975-9.75-11.054-3.44"/>
		
			<path fill="none" stroke="#000000" stroke-width="0.75" stroke-linecap="round" stroke-linejoin="round" stroke-miterlimit="10" d="
			M645.059,317.512c-0.46-0.919-1.061-1.795-1.356-2.765c-2.987-9.746-2.974-9.75-11.053-3.44"/>
		
			<path fill="none" stroke="#000000" stroke-width="0.75" stroke-linecap="round" stroke-linejoin="round" stroke-miterlimit="10" d="
			M584.386,346.47c-1.03,1.544-2.061,3.09-3.032,4.548c2.466,2.791,6.075,2.468,8.549,4.415"/>
		
			<path fill="none" stroke="#000000" stroke-width="0.75" stroke-linecap="round" stroke-linejoin="round" stroke-miterlimit="10" d="
			M675.395,324.695c1.855,0.305,6.896,1.09,6.896,1.09c5.285-6.621-1.243-15.458,4.037-22.098c4.438,0.459,8.015,3.621,12.724,3.479
			c1.503-2.694,3.059-5.483,4.612-8.271"/>
		
			<path fill="none" stroke="#000000" stroke-width="0.75" stroke-linecap="round" stroke-linejoin="round" stroke-miterlimit="10" d="
			M474.066,298.896c-1.556,2.788-3.109,5.577-4.613,8.271c-4.708,0.142-8.285-3.021-12.912-3.5
			c-2.481,4.281-2.103,9.137-2.469,13.844"/>
		
			<path fill="none" stroke="#000000" stroke-width="0.75" stroke-linecap="round" stroke-linejoin="round" stroke-miterlimit="10" d="
			M723.657,340.265c0.746-1.325,1.493-2.65,2.239-3.978c3.877,1.723,3.291,4.889,5.301,6.115c2.293,1.398,2.204,4.286,1.266,6.052
			c-1.335,2.511-3.761,3.744-6.796,1.542c-1.013-0.734-2.699-0.539-4.078-0.77"/>
		
			<path fill="none" stroke="#000000" stroke-width="0.75" stroke-linecap="round" stroke-linejoin="round" stroke-miterlimit="10" d="
			M642.99,307.17c1.252-1.521,2.976-1.777,4.815-2.118c8.366-1.546,8.308-1.598,10.379,6.938c0.686,2.82,3.177,4.878,2.956,8.296
			c-0.094,1.441-0.606,5.126,3.222,4.807c1.333-0.11,2.445-0.055,2.869-2.041c0.583-2.734,1.648-5.487-0.869-7.521
			c-1.457-1.178-3.607-1.445-5.446-0.086"/>
		
			<path fill="none" stroke="#000000" stroke-width="0.75" stroke-linecap="round" stroke-linejoin="round" stroke-miterlimit="10" d="
			M354.79,346.47c-1.03,1.544-2.06,3.089-3.033,4.548c2.466,2.791,6.075,2.468,8.548,4.415"/>
		
			<path fill="none" stroke="#000000" stroke-width="0.75" stroke-linecap="round" stroke-linejoin="round" stroke-miterlimit="10" d="
			M125.193,346.47c-1.03,1.544-2.06,3.089-3.032,4.548c2.465,2.791,6.075,2.468,8.548,4.415"/>
		
			<path fill="none" stroke="#000000" stroke-width="0.75" stroke-linecap="round" stroke-linejoin="round" stroke-miterlimit="10" d="
			M407.188,320.959c-4.365,2.758-8.732,5.516-13.1,8.273"/>
		
			<path fill="none" stroke="#000000" stroke-width="0.75" stroke-linecap="round" stroke-linejoin="round" stroke-miterlimit="10" d="
			M177.593,320.959c-4.367,2.758-8.733,5.516-13.1,8.273"/>
		
			<path fill="none" stroke="#000000" stroke-width="0.75" stroke-linecap="round" stroke-linejoin="round" stroke-miterlimit="10" d="
			M252.744,314.064c3.225,0.102,5.296,2.316,7.598,4.112c-0.643,3.934-4.763,5.847-4.597,9.995
			c-2.328-0.727-3.362-2.224-5.069-1.698"/>
		
			<path fill="none" stroke="#000000" stroke-width="0.75" stroke-linecap="round" stroke-linejoin="round" stroke-miterlimit="10" d="
			M482.34,314.064c3.226,0.102,5.296,2.316,7.6,4.112c-0.645,3.934-4.765,5.847-4.599,9.995c-2.329-0.727-3.362-2.224-5.069-1.698"
			/>
		
			<path fill="none" stroke="#000000" stroke-width="0.75" stroke-linecap="round" stroke-linejoin="round" stroke-miterlimit="10" d="
			M192.761,326.475c-13.538,4.776-24.185,14.249-35.852,22.063"/>
		
			<path fill="none" stroke="#000000" stroke-width="0.75" stroke-linecap="round" stroke-linejoin="round" stroke-miterlimit="10" d="
			M636.785,320.959c-4.137,2.758-8.273,5.516-12.411,8.273"/>
		
			<path fill="none" stroke="#000000" stroke-width="0.75" stroke-linecap="round" stroke-linejoin="round" stroke-miterlimit="10" d="
			M192.083,317.585c0.037,2.648-0.94,6.703,3.482,8.047c1.546,0.47,3.164,3.198,5.6,0.262"/>
		
			<path fill="none" stroke="#000000" stroke-width="0.75" stroke-linecap="round" stroke-linejoin="round" stroke-miterlimit="10" d="
			M430.137,326.475c-7.701-1.269-16.184,3.431-22.176,7.031c-7.466,4.488-14.332,9.978-21.456,15.032"/>
		
			<path fill="none" stroke="#000000" stroke-width="0.75" stroke-linecap="round" stroke-linejoin="round" stroke-miterlimit="10" d="
			M444.419,305.102c0,3.907,0,7.813,0,11.722"/>
		
			<path fill="none" stroke="#000000" stroke-width="0.75" stroke-linecap="round" stroke-linejoin="round" stroke-miterlimit="10" d="
			M184.487,297.518c0.578,5.119,3.029,9.828,2.973,15.17c-0.017,1.595,2.542,3.216,3.921,4.823"/>
		
			<path fill="none" stroke="#000000" stroke-width="0.75" stroke-linecap="round" stroke-linejoin="round" stroke-miterlimit="10" d="
			M382.368,358.88c1.101-6.157-4.499-5.613-7.584-7.584"/>
		
			<path fill="none" stroke="#000000" stroke-width="0.75" stroke-linecap="round" stroke-linejoin="round" stroke-miterlimit="10" d="
			M194.829,302.344c-0.112-2.412-0.133-4.807,1.458-6.802c-3.028-4.078-6.742-1.811-9.677-0.647
			c-7.061,2.8-13.86,6.265-20.728,9.539c-2.132,1.017-10.9,6.413-12.969,7.562"/>
		
			<path fill="none" stroke="#000000" stroke-width="0.75" stroke-linecap="round" stroke-linejoin="round" stroke-miterlimit="10" d="
			M152.772,358.88c1.101-6.157-4.499-5.613-7.584-7.584"/>
		
			<path fill="none" stroke="#000000" stroke-width="0.75" stroke-linecap="round" stroke-linejoin="round" stroke-miterlimit="10" d="
			M736.067,314.064c3.331,6.633,23.905,33.059,25.51,40.679"/>
		
			<path fill="none" stroke="#000000" stroke-width="0.75" stroke-linecap="round" stroke-linejoin="round" stroke-miterlimit="10" d="
			M517.392,331.411c3.332,6.633,12.985,15.712,14.591,23.332"/>
		
			<path fill="none" stroke="#000000" stroke-width="0.75" stroke-linecap="round" stroke-linejoin="round" stroke-miterlimit="10" d="
			M287.909,331.297c3.332,6.633,12.872,15.826,14.476,23.446"/>
		
			<path fill="none" stroke="#000000" stroke-width="0.75" stroke-linecap="round" stroke-linejoin="round" stroke-miterlimit="10" d="
			M682.289,292.002c-12.986,0.293-25.917-0.693-38.704,3.872c-8.795,3.14-26.626,17.354-35.047,20.949"/>
		
			<path fill="none" stroke="#000000" stroke-width="0.75" stroke-linecap="round" stroke-linejoin="round" stroke-miterlimit="10" d="
			M452.693,292.002c-12.986,0.293-25.917-0.693-38.704,3.872c-8.795,3.14-23.818,12.528-32.239,16.123"/>
		
			<path fill="none" stroke="#000000" stroke-width="0.75" stroke-linecap="round" stroke-linejoin="round" stroke-miterlimit="10" d="
			M419.599,305.791c1.058,3.139,2.157,6.269,2.068,9.652"/>
		
			<path fill="none" stroke="#000000" stroke-width="0.75" stroke-linecap="round" stroke-linejoin="round" stroke-miterlimit="10" d="
			M649.195,305.791c1.057,3.139,2.156,6.269,2.067,9.652"/>
		
			<path fill="none" stroke="#000000" stroke-width="0.75" stroke-linecap="round" stroke-linejoin="round" stroke-miterlimit="10" d="
			M165.182,314.754c1.498,3.167,0.889,7.236,4.137,9.652"/>
		
			<path fill="none" stroke="#000000" stroke-width="0.75" stroke-linecap="round" stroke-linejoin="round" stroke-miterlimit="10" d="
			M394.778,314.754c1.499,3.167,0.889,7.236,4.137,9.652"/>
		
			<path fill="none" stroke="#000000" stroke-width="0.75" stroke-linecap="round" stroke-linejoin="round" stroke-miterlimit="10" d="
			M624.374,314.754c1.499,3.167,0.89,7.236,4.138,9.652"/>
		
			<path fill="none" stroke="#000000" stroke-width="0.75" stroke-linecap="round" stroke-linejoin="round" stroke-miterlimit="10" d="
			M241.023,307.859c2.919,3.354,8.122,2.142,11.18,5.688c-1.056,4.623-5.725,8.636-2.386,14.403
			c1.311,2.266-1.557,4.356-3.278,6.106"/>
		
			<path fill="none" stroke="#000000" stroke-width="0.75" stroke-linecap="round" stroke-linejoin="round" stroke-miterlimit="10" d="
			M651.953,294.07c1.435,2.837,1.432,5.897,1.379,8.963"/>
		
			<path fill="none" stroke="#000000" stroke-width="0.75" stroke-linecap="round" stroke-linejoin="round" stroke-miterlimit="10" d="
			M413.394,307.17c1.253-1.521,2.977-1.777,4.817-2.118c8.272-1.526,8.279-1.596,10.339,6.947c0.568,2.354,2.161,3.737,4.149,4.823"
			/>
		
			<path fill="none" stroke="#000000" stroke-width="0.75" stroke-linecap="round" stroke-linejoin="round" stroke-miterlimit="10" d="
			M683.668,325.785c8.044,2.758,16.087,5.516,24.131,8.272"/>
		
			<path fill="none" stroke="#000000" stroke-width="0.75" stroke-linecap="round" stroke-linejoin="round" stroke-miterlimit="10" d="
			M470.619,307.859c2.919,3.354,8.122,2.142,11.18,5.688c-1.056,4.623-5.725,8.636-2.386,14.403
			c1.311,2.266-1.558,4.356-3.278,6.106"/>
		
			<path fill="none" stroke="#000000" stroke-width="0.75" stroke-linecap="round" stroke-linejoin="round" stroke-miterlimit="10" d="
			M243.781,310.617c-1.379,2.986-2.758,5.976-4.137,8.963"/>
		
			<path fill="none" stroke="#000000" stroke-width="0.75" stroke-linecap="round" stroke-linejoin="round" stroke-miterlimit="10" d="
			M702.973,310.617c-1.379,2.986-2.758,5.976-4.137,8.963"/>
		
			<path fill="none" stroke="#000000" stroke-width="0.75" stroke-linecap="round" stroke-linejoin="round" stroke-miterlimit="10" d="
			M473.377,310.617c-1.379,2.986-2.758,5.976-4.137,8.963"/>
		
			<path fill="none" stroke="#000000" stroke-width="0.75" stroke-linecap="round" stroke-linejoin="round" stroke-miterlimit="10" d="
			M674.016,305.102c0,2.987,0,5.977,0,8.964"/>
		
			<path fill="none" stroke="#000000" stroke-width="0.75" stroke-linecap="round" stroke-linejoin="round" stroke-miterlimit="10" d="
			M254.812,303.033c-1.379,2.986-2.758,5.976-4.137,8.963"/>
		
			<path fill="none" stroke="#000000" stroke-width="0.75" stroke-linecap="round" stroke-linejoin="round" stroke-miterlimit="10" d="
			M484.408,303.033c-1.379,2.986-2.758,5.976-4.137,8.963"/>
		
			<path fill="none" stroke="#000000" stroke-width="0.75" stroke-linecap="round" stroke-linejoin="round" stroke-miterlimit="10" d="
			M158.288,320.27c3.677,6.205,7.354,12.41,11.031,18.616"/>
		
			<path fill="none" stroke="#000000" stroke-width="0.75" stroke-linecap="round" stroke-linejoin="round" stroke-miterlimit="10" d="
			M714.004,303.033c-1.379,2.986-2.758,5.976-4.137,8.963"/>
		
			<path fill="none" stroke="#000000" stroke-width="0.75" stroke-linecap="round" stroke-linejoin="round" stroke-miterlimit="10" d="
			M387.884,320.27c3.677,6.205,7.354,12.41,11.031,18.616"/>
		
			<path fill="none" stroke="#000000" stroke-width="0.75" stroke-linecap="round" stroke-linejoin="round" stroke-miterlimit="10" d="
			M700.215,307.859c2.919,3.354,8.122,2.142,11.233,5.75c-1.409,3.283-2.874,6.695-4.339,10.106"/>
		
			<path fill="none" stroke="#000000" stroke-width="0.75" stroke-linecap="round" stroke-linejoin="round" stroke-miterlimit="10" d="
			M595.417,326.475c3.967,4.465,10.118,6.198,13.789,11.032"/>
		
			<path fill="none" stroke="#000000" stroke-width="0.75" stroke-linecap="round" stroke-linejoin="round" stroke-miterlimit="10" d="
			M660.916,325.096c-10.479,2.21-20.666,5.053-29.008,12.354c-1.009,0.884-2.707,0.978-4.086,1.438"/>
		
			<path fill="none" stroke="#000000" stroke-width="0.75" stroke-linecap="round" stroke-linejoin="round" stroke-miterlimit="10" d="
			M422.357,294.07c1.435,2.837,1.432,5.897,1.379,8.963"/>
		
			<path fill="none" stroke="#000000" stroke-width="0.75" stroke-linecap="round" stroke-linejoin="round" stroke-miterlimit="10" d="
			M693.32,295.449c-1.379,2.758-2.758,5.516-4.138,8.273"/>
		
			<path fill="none" stroke="#000000" stroke-width="0.75" stroke-linecap="round" stroke-linejoin="round" stroke-miterlimit="10" d="
			M649.195,318.201c0.919,2.758,1.839,5.516,2.758,8.272"/>
		
			<path fill="none" stroke="#000000" stroke-width="0.75" stroke-linecap="round" stroke-linejoin="round" stroke-miterlimit="10" d="
			M166.561,305.102c3.414,5.438,10.176,8.287,11.437,15.368c3.808-0.812,7.672-0.794,9.247-5.025"/>
		
			<path fill="none" stroke="#000000" stroke-width="0.75" stroke-linecap="round" stroke-linejoin="round" stroke-miterlimit="10" d="
			M396.157,305.102c5.638,4.982,9.014,11.961,15.033,16.72c1.796,1.419,1.974,4.885,2.893,7.412"/>
		
			<path fill="none" stroke="#000000" stroke-width="0.75" stroke-linecap="round" stroke-linejoin="round" stroke-miterlimit="10" d="
			M625.753,305.102c5.639,4.982,9.015,11.961,15.033,16.72c1.796,1.419,1.974,4.885,2.894,7.412"/>
		
			<path fill="none" stroke="#000000" stroke-width="0.75" stroke-linecap="round" stroke-linejoin="round" stroke-miterlimit="10" d="
			M463.725,295.449c-1.379,2.758-2.758,5.516-4.137,8.273"/>
		
			<path fill="none" stroke="#000000" stroke-width="0.75" stroke-linecap="round" stroke-linejoin="round" stroke-miterlimit="10" d="
			M181.729,320.959c0.919,2.758,1.839,5.516,2.758,8.273"/>
		
			<path fill="none" stroke="#000000" stroke-width="0.75" stroke-linecap="round" stroke-linejoin="round" stroke-miterlimit="10" d="
			M661.605,293.381c1.919,2.954-0.899,6.923,2.067,9.652"/>
		
			<path fill="none" stroke="#000000" stroke-width="0.75" stroke-linecap="round" stroke-linejoin="round" stroke-miterlimit="10" d="
			M719.52,318.891c-1.838,2.873-3.677,5.746-5.516,8.618"/>
		
			<path fill="none" stroke="#000000" stroke-width="0.75" stroke-linecap="round" stroke-linejoin="round" stroke-miterlimit="10" d="
			M694.699,318.891c-1.379,2.759-2.758,5.517-4.138,8.273"/>
		
			<path fill="none" stroke="#000000" stroke-width="0.75" stroke-linecap="round" stroke-linejoin="round" stroke-miterlimit="10" d="
			M465.104,318.891c-1.379,2.759-2.758,5.517-4.137,8.273"/>
		
			<path fill="none" stroke="#000000" stroke-width="0.75" stroke-linecap="round" stroke-linejoin="round" stroke-miterlimit="10" d="
			M432.009,293.381c1.919,2.954-0.898,6.923,2.068,9.652"/>
		
			<path fill="none" stroke="#000000" stroke-width="0.75" stroke-linecap="round" stroke-linejoin="round" stroke-miterlimit="10" d="
			M374.095,320.27c5.251,3.738,5.783,11.297,11.875,14.566c2.938-0.142,3.648-4.167,6.74-4.225"/>
		
			<path fill="none" stroke="#000000" stroke-width="0.75" stroke-linecap="round" stroke-linejoin="round" stroke-miterlimit="10" d="
			M267.223,337.507c-2.833,1.765-3.326,5.866-6.895,6.896"/>
		
			<path fill="none" stroke="#000000" stroke-width="0.75" stroke-linecap="round" stroke-linejoin="round" stroke-miterlimit="10" d="
			M186.556,308.549c-4.863-1.439-9.614-2.346-13.1,2.758"/>
		
			<path fill="none" stroke="#000000" stroke-width="0.75" stroke-linecap="round" stroke-linejoin="round" stroke-miterlimit="10" d="
			M419.599,318.201c0.919,2.758,1.839,5.516,2.759,8.272"/>
		
			<path fill="none" stroke="#000000" stroke-width="0.75" stroke-linecap="round" stroke-linejoin="round" stroke-miterlimit="10" d="
			M496.818,337.507c-2.832,1.765-3.326,5.866-6.896,6.896"/>
		
			<path fill="none" stroke="#000000" stroke-width="0.75" stroke-linecap="round" stroke-linejoin="round" stroke-miterlimit="10" d="
			M144.499,320.27c5.251,3.738,5.784,11.297,11.875,14.566c2.938-0.142,3.649-4.167,6.74-4.225"/>
		
			<path fill="none" stroke="#000000" stroke-width="0.75" stroke-linecap="round" stroke-linejoin="round" stroke-miterlimit="10" d="
			M158.977,315.443c0.057,6.045-4.67,7.646-8.963,9.651"/>
		
			<path fill="none" stroke="#000000" stroke-width="0.75" stroke-linecap="round" stroke-linejoin="round" stroke-miterlimit="10" d="
			M581.628,353.364c-3.146,1.221-1.304,5.936-4.826,6.895"/>
		
			<path fill="none" stroke="#000000" stroke-width="0.75" stroke-linecap="round" stroke-linejoin="round" stroke-miterlimit="10" d="
			M528.534,349.917c-2.73,1.008-5.839,1.322-7.585,4.137"/>
		
			<path fill="none" stroke="#000000" stroke-width="0.75" stroke-linecap="round" stroke-linejoin="round" stroke-miterlimit="10" d="
			M388.573,315.443c0.057,6.045-4.671,7.646-8.963,9.651"/>
		
			<path fill="none" stroke="#000000" stroke-width="0.75" stroke-linecap="round" stroke-linejoin="round" stroke-miterlimit="10" d="
			M352.032,353.364c-3.147,1.221-1.303,5.936-4.826,6.895"/>
		
			<path fill="none" stroke="#000000" stroke-width="0.75" stroke-linecap="round" stroke-linejoin="round" stroke-miterlimit="10" d="
			M122.436,353.364c-3.147,1.221-1.303,5.936-4.826,6.895"/>
		
			<path fill="none" stroke="#000000" stroke-width="0.75" stroke-linecap="round" stroke-linejoin="round" stroke-miterlimit="10" d="
			M264.465,309.238c-1.609,2.527-3.218,5.056-4.827,7.584"/>
		
			<path fill="none" stroke="#000000" stroke-width="0.75" stroke-linecap="round" stroke-linejoin="round" stroke-miterlimit="10" d="
			M494.061,309.238c-1.607,2.527-3.218,5.056-4.825,7.584"/>
		
			<path fill="none" stroke="#000000" stroke-width="0.75" stroke-linecap="round" stroke-linejoin="round" stroke-miterlimit="10" d="
			M298.938,349.917c-2.73,1.008-5.839,1.322-7.584,4.137"/>
		
			<path fill="none" stroke="#000000" stroke-width="0.75" stroke-linecap="round" stroke-linejoin="round" stroke-miterlimit="10" d="
			M632.648,325.785c2.834,1.733,1.73,5.616,4.137,7.584"/>
		
			<path fill="none" stroke="#000000" stroke-width="0.75" stroke-linecap="round" stroke-linejoin="round" stroke-miterlimit="10" d="
			M745.03,349.228c-2.886,1.131-5.198,4.747-8.963,2.068"/>
		
			<path fill="none" stroke="#000000" stroke-width="0.75" stroke-linecap="round" stroke-linejoin="round" stroke-miterlimit="10" d="
			M505.781,351.296c-2.038,1.979-3.753,4.422-7.465,4.135c-8.189-13.539-21.274-22.101-36.679-27.526
			c-2.606-0.919-5.43-1.335-8.256-0.739"/>
		
			<path fill="none" stroke="#000000" stroke-width="0.75" stroke-linecap="round" stroke-linejoin="round" stroke-miterlimit="10" d="
			M403.052,325.785c2.834,1.733,1.732,5.616,4.138,7.584"/>
		
			<path fill="none" stroke="#000000" stroke-width="0.75" stroke-linecap="round" stroke-linejoin="round" stroke-miterlimit="10" d="
			M173.456,325.785c2.833,1.733,1.731,5.616,4.137,7.584"/>
		
			<path fill="none" stroke="#000000" stroke-width="0.75" stroke-linecap="round" stroke-linejoin="round" stroke-miterlimit="10" d="
			M515.434,349.228c-2.576,1.462-4.864,3.788-8.272,2.759"/>
		
			<path fill="none" stroke="#000000" stroke-width="0.75" stroke-linecap="round" stroke-linejoin="round" stroke-miterlimit="10" d="
			M285.838,349.228c-2.577,1.462-4.866,3.788-8.273,2.759"/>
		
			<path fill="none" stroke="#000000" stroke-width="0.75" stroke-linecap="round" stroke-linejoin="round" stroke-miterlimit="10" d="
			M498.197,325.785c-2.449,2.847-2.699,8.341-9.06,6.548c-1.163-0.328-3.581,3.795-5.42,5.863"/>
		
			<path fill="none" stroke="#000000" stroke-width="0.75" stroke-linecap="round" stroke-linejoin="round" stroke-miterlimit="10" d="
			M414.083,297.518c0.69,2.528,1.379,5.056,2.069,7.583"/>
		
			<path fill="none" stroke="#000000" stroke-width="0.75" stroke-linecap="round" stroke-linejoin="round" stroke-miterlimit="10" d="
			M268.602,325.785c-2.45,2.847-2.699,8.341-9.06,6.548c-1.163-0.328-3.581,3.795-5.419,5.863"/>
		
			<path fill="none" stroke="#000000" stroke-width="0.75" stroke-linecap="round" stroke-linejoin="round" stroke-miterlimit="10" d="
			M643.68,297.518c0.689,2.528,1.379,5.056,2.068,7.583"/>
		
			<path fill="none" stroke="#000000" stroke-width="0.75" stroke-linecap="round" stroke-linejoin="round" stroke-miterlimit="10" d="
			M758.13,349.917c-2.729,1.008-5.839,1.322-7.584,4.137"/>
		
			<path fill="none" stroke="#000000" stroke-width="0.75" stroke-linecap="round" stroke-linejoin="round" stroke-miterlimit="10" d="
			M592.659,354.054c1.607,0.46,3.678,0.44,4.743,1.465c3.763,3.616,3.688-0.559,4.908-2.153"/>
		
			<path fill="none" stroke="#000000" stroke-width="0.75" stroke-linecap="round" stroke-linejoin="round" stroke-miterlimit="10" d="
			M293.422,340.265c-2.298,1.379-4.597,2.759-6.895,4.138"/>
		
			<path fill="none" stroke="#000000" stroke-width="0.75" stroke-linecap="round" stroke-linejoin="round" stroke-miterlimit="10" d="
			M523.018,340.265c-2.298,1.379-4.596,2.759-6.895,4.138"/>
		
			<path fill="none" stroke="#000000" stroke-width="0.75" stroke-linecap="round" stroke-linejoin="round" stroke-miterlimit="10" d="
			M752.614,340.265c-2.298,1.379-4.598,2.759-6.896,4.138"/>
		
			<path fill="none" stroke="#000000" stroke-width="0.75" stroke-linecap="round" stroke-linejoin="round" stroke-miterlimit="10" d="
			M281.701,340.265c-2.298,1.839-4.597,3.678-6.895,5.517"/>
		
			<path fill="none" stroke="#000000" stroke-width="0.75" stroke-linecap="round" stroke-linejoin="round" stroke-miterlimit="10" d="
			M511.297,340.265c-2.298,1.839-4.597,3.678-6.895,5.517"/>
		
			<path fill="none" stroke="#000000" stroke-width="0.75" stroke-linecap="round" stroke-linejoin="round" stroke-miterlimit="10" d="
			M160.356,340.954c-1.186-1.582-2.372-3.163-3.847-5.129c-3.043,3.048-6.482,5.895-9.172,9.328
			c-3.766,4.808-6.975-3.071-10.422-0.062"/>
		
			<path fill="none" stroke="#000000" stroke-width="0.75" stroke-linecap="round" stroke-linejoin="round" stroke-miterlimit="10" d="
			M389.952,340.954c-1.187-1.582-2.373-3.163-3.847-5.129c-3.043,3.048-6.482,5.895-9.172,9.328
			c-3.767,4.808-6.975-3.071-10.423-0.062"/>
		
			<path fill="none" stroke="#000000" stroke-width="0.75" stroke-linecap="round" stroke-linejoin="round" stroke-miterlimit="10" d="
			M272.738,344.401c-2.298,1.839-4.597,3.677-6.895,5.516"/>
		
			<path fill="none" stroke="#000000" stroke-width="0.75" stroke-linecap="round" stroke-linejoin="round" stroke-miterlimit="10" d="
			M502.334,344.401c-2.298,1.839-4.597,3.677-6.895,5.516"/>
		
			<path fill="none" stroke="#000000" stroke-width="0.75" stroke-linecap="round" stroke-linejoin="round" stroke-miterlimit="10" d="
			M622.306,330.611c-1.607,0.92-3.236,1.805-4.82,2.765c-3.492,2.116-0.564,3.356,0.685,4.82"/>
		
			<path fill="none" stroke="#000000" stroke-width="0.75" stroke-linecap="round" stroke-linejoin="round" stroke-miterlimit="10" d="
			M701.594,323.027c-0.887,2.43-1.342,5.074-3.447,6.895"/>
		
			<path fill="none" stroke="#000000" stroke-width="0.75" stroke-linecap="round" stroke-linejoin="round" stroke-miterlimit="10" d="
			M471.998,323.027c-0.887,2.43-1.342,5.074-3.447,6.895"/>
		
			<path fill="none" stroke="#000000" stroke-width="0.75" stroke-linecap="round" stroke-linejoin="round" stroke-miterlimit="10" d="
			M242.402,323.027c-0.887,2.43-1.342,5.074-3.447,6.895"/>
		
			<path fill="none" stroke="#000000" stroke-width="0.75" stroke-linecap="round" stroke-linejoin="round" stroke-miterlimit="10" d="
			M658.848,314.754c-6.206,1.836-12.861,2.153-18.614,5.516"/>
		
			<path fill="none" stroke="#000000" stroke-width="0.75" stroke-linecap="round" stroke-linejoin="round" stroke-miterlimit="10" d="
			M429.251,314.754c-6.206,1.836-12.862,2.153-18.616,5.516"/>
		
			<path fill="none" stroke="#000000" stroke-width="0.75" stroke-linecap="round" stroke-linejoin="round" stroke-miterlimit="10" d="
			M682.979,315.443c-5.285,0.653-10.57-2.104-15.856,0"/>
		
			<path fill="none" stroke="#000000" stroke-width="0.75" stroke-linecap="round" stroke-linejoin="round" stroke-miterlimit="10" d="
			M634.027,300.965c0.919,2.068,1.838,4.137,2.758,6.205"/>
		
			<path fill="none" stroke="#000000" stroke-width="0.75" stroke-linecap="round" stroke-linejoin="round" stroke-miterlimit="10" d="
			M490.613,318.201c9.527,7.099,18.248,15.141,23.921,25.624c2.354,4.353,6.311,8.194,6.415,13.676"/>
		
			<path fill="none" stroke="#000000" stroke-width="0.75" stroke-linecap="round" stroke-linejoin="round" stroke-miterlimit="10" d="
			M275.496,332.68c-1.839,2.068-3.677,4.139-5.516,6.206"/>
		
			<path fill="none" stroke="#000000" stroke-width="0.75" stroke-linecap="round" stroke-linejoin="round" stroke-miterlimit="10" d="
			M404.431,300.965c0.919,2.068,1.839,4.137,2.759,6.205"/>
		
			<path fill="none" stroke="#000000" stroke-width="0.75" stroke-linecap="round" stroke-linejoin="round" stroke-miterlimit="10" d="
			M130.02,358.88c-0.372-2.062,0.893-3.426,2.055-4.848c3.067,0.057,5.684,1.396,8.771,3.094c1.711-3.159,5.256-5.521,2.964-9.967"
			/>
		
			<path fill="none" stroke="#000000" stroke-width="0.75" stroke-linecap="round" stroke-linejoin="round" stroke-miterlimit="10" d="
			M281.012,324.406c-1.839,2.067-3.677,4.137-5.516,6.205"/>
		
			<path fill="none" stroke="#000000" stroke-width="0.75" stroke-linecap="round" stroke-linejoin="round" stroke-miterlimit="10" d="
			M718.141,316.822c-2.121-0.8-3.634-2.969-6.205-2.758"/>
		
			<path fill="none" stroke="#000000" stroke-width="0.75" stroke-linecap="round" stroke-linejoin="round" stroke-miterlimit="10" d="
			M291.354,357.501c-4.318-12.463-11.408-23.062-21.378-31.71c-2.957-2.564-5.971-5.062-8.958-7.59"/>
		
			<path fill="none" stroke="#000000" stroke-width="0.75" stroke-linecap="round" stroke-linejoin="round" stroke-miterlimit="10" d="
			M174.835,300.965c0.919,2.068,1.838,4.137,2.758,6.205"/>
		
			<path fill="none" stroke="#000000" stroke-width="0.75" stroke-linecap="round" stroke-linejoin="round" stroke-miterlimit="10" d="
			M276.186,351.296c-2.04,1.979-3.751,4.425-7.466,4.135c-8.188-13.539-21.291-22.05-36.659-27.577"/>
		
			<path fill="none" stroke="#000000" stroke-width="0.75" stroke-linecap="round" stroke-linejoin="round" stroke-miterlimit="10" d="
			M510.607,324.406c-1.84,2.067-3.678,4.137-5.517,6.205"/>
		
			<path fill="none" stroke="#000000" stroke-width="0.75" stroke-linecap="round" stroke-linejoin="round" stroke-miterlimit="10" d="
			M359.616,358.88c-0.372-2.062,0.893-3.426,2.054-4.848c3.067,0.057,5.684,1.396,8.771,3.094c1.711-3.159,5.255-5.521,2.964-9.967"
			/>
		
			<path fill="none" stroke="#000000" stroke-width="0.75" stroke-linecap="round" stroke-linejoin="round" stroke-miterlimit="10" d="
			M505.092,332.68c-1.839,2.068-3.677,4.139-5.516,6.206"/>
		
			<path fill="none" stroke="#000000" stroke-width="0.75" stroke-linecap="round" stroke-linejoin="round" stroke-miterlimit="10" d="
			M360.305,337.507c2.068,0.919,4.137,1.838,6.205,2.758"/>
		
			<path fill="none" stroke="#000000" stroke-width="0.75" stroke-linecap="round" stroke-linejoin="round" stroke-miterlimit="10" d="
			M130.709,337.507c2.069,0.919,4.137,1.838,6.206,2.758"/>
		
			<path fill="none" stroke="#000000" stroke-width="0.75" stroke-linecap="round" stroke-linejoin="round" stroke-miterlimit="10" d="
			M247.228,323.717c-6.083-1.13-10.806-5.596-17.188-6.537"/>
		
			<path fill="none" stroke="#000000" stroke-width="0.75" stroke-linecap="round" stroke-linejoin="round" stroke-miterlimit="10" d="
			M202.413,302.344c-4.508,1.861-10.508-0.541-13.789,4.826"/>
		
			<path fill="none" stroke="#000000" stroke-width="0.75" stroke-linecap="round" stroke-linejoin="round" stroke-miterlimit="10" d="
			M741.583,341.644c4.799,4.263,7.112,9.929,8.963,15.857"/>
		
			<path fill="none" stroke="#000000" stroke-width="0.75" stroke-linecap="round" stroke-linejoin="round" stroke-miterlimit="10" d="
			M671.947,293.381c1.147,3.386-1.074,6.997,0.756,11.238c4.099-1.18,8.398-3.902,12.344-0.207"/>
		
			<path fill="none" stroke="#000000" stroke-width="0.75" stroke-linecap="round" stroke-linejoin="round" stroke-miterlimit="10" d="
			M442.351,293.381c1.149,3.386-1.074,6.997,0.756,11.238c4.099-1.18,8.399-3.902,12.345-0.207"/>
		
			<path fill="none" stroke="#000000" stroke-width="0.75" stroke-linecap="round" stroke-linejoin="round" stroke-miterlimit="10" d="
			M223.097,296.139c-1.807,6.948-6.636,8.679-13.1,7.583"/>
		
			<path fill="none" stroke="#000000" stroke-width="0.75" stroke-linecap="round" stroke-linejoin="round" stroke-miterlimit="10" d="
			M152.772,338.886c-1.839-1.379-3.677-2.758-5.516-4.138"/>
		
			<path fill="none" stroke="#000000" stroke-width="0.75" stroke-linecap="round" stroke-linejoin="round" stroke-miterlimit="10" d="
			M382.368,338.886c-1.839-1.379-3.677-2.758-5.516-4.138"/>
		
			<path fill="none" stroke="#000000" stroke-width="0.75" stroke-linecap="round" stroke-linejoin="round" stroke-miterlimit="10" d="
			M380.3,343.022c2.312,2.062,4.623,4.125,8.355,7.454c-2.507,1.603-4.052,2.59-5.597,3.576"/>
		
			<path fill="none" stroke="#000000" stroke-width="0.75" stroke-linecap="round" stroke-linejoin="round" stroke-miterlimit="10" d="
			M150.704,343.022c2.312,2.062,4.623,4.125,8.355,7.454c-2.507,1.603-4.052,2.59-5.597,3.576"/>
		
			<path fill="none" stroke="#000000" stroke-width="0.75" stroke-linecap="round" stroke-linejoin="round" stroke-miterlimit="10" d="
			M264.465,334.748c6.664,4.001,9.485,10.92,13.1,17.237"/>
		
			<path fill="none" stroke="#000000" stroke-width="0.75" stroke-linecap="round" stroke-linejoin="round" stroke-miterlimit="10" d="
			M378.231,327.854c-1.981,0.776-3.36,2.155-4.137,4.138"/>
		
			<path fill="none" stroke="#000000" stroke-width="0.75" stroke-linecap="round" stroke-linejoin="round" stroke-miterlimit="10" d="
			M148.635,327.854c-1.981,0.776-3.36,2.155-4.137,4.138"/>
		
			<path fill="none" stroke="#000000" stroke-width="0.75" stroke-linecap="round" stroke-linejoin="round" stroke-miterlimit="10" d="
			M367.89,328.543c1.608,1.149,3.217,2.299,4.826,3.447"/>
		
			<path fill="none" stroke="#000000" stroke-width="0.75" stroke-linecap="round" stroke-linejoin="round" stroke-miterlimit="10" d="
			M138.293,328.543c1.608,1.149,3.218,2.299,4.826,3.447"/>
		
			<path fill="none" stroke="#000000" stroke-width="0.75" stroke-linecap="round" stroke-linejoin="round" stroke-miterlimit="10" d="
			M494.061,334.748c6.664,4.001,9.485,10.92,13.101,17.237"/>
		
			<path fill="none" stroke="#000000" stroke-width="0.75" stroke-linecap="round" stroke-linejoin="round" stroke-miterlimit="10" d="
			M135.536,345.78c-2.546,1.937-2.917,4.664-2.758,7.584"/>
		
			<path fill="none" stroke="#000000" stroke-width="0.75" stroke-linecap="round" stroke-linejoin="round" stroke-miterlimit="10" d="
			M595.417,345.78c-4.584,3.174-3.668,8.954-6.205,13.1"/>
		
			<path fill="none" stroke="#000000" stroke-width="0.75" stroke-linecap="round" stroke-linejoin="round" stroke-miterlimit="10" d="
			M365.131,345.78c-2.546,1.937-2.916,4.664-2.758,7.584"/>
		
			<path fill="none" stroke="#000000" stroke-width="0.75" stroke-linecap="round" stroke-linejoin="round" stroke-miterlimit="10" d="
			M692.631,316.822c5.745,3.218,11.491,6.436,17.236,9.651"/>
		
			<path fill="none" stroke="#000000" stroke-width="0.75" stroke-linecap="round" stroke-linejoin="round" stroke-miterlimit="10" d="
			M463.035,316.822c4.827,1.839,8.271,6.438,13.789,6.895"/>
		
			<path fill="none" stroke="#000000" stroke-width="0.75" stroke-linecap="round" stroke-linejoin="round" stroke-miterlimit="10" d="
			M216.202,322.338"/>
	</g>
</g>
<g id="labels">
	<text transform="matrix(1 0 0 1 177.5962 405.5)"><tspan x="0" y="0" font-family="'Helvetica'" font-size="10">Central Zone</tspan><tspan x="13.616" y="12" font-family="'Helvetica'" font-size="10">CLV3p</tspan></text>
	<text transform="matrix(1 0 0 1 411.0518 405.5)"><tspan x="0" y="0" font-family="'Helvetica'" font-size="10">Rib Meristem</tspan><tspan x="15.002" y="12" font-family="'Helvetica'" font-size="10">WUSp</tspan></text>
	<text transform="matrix(1 0 0 1 637.9238 405.5)"><tspan x="0" y="0" font-family="'Helvetica'" font-size="10">Peripheral Zone</tspan><tspan x="25.571" y="12" font-family="'Helvetica'" font-size="10">FILp</tspan></text>
</g>
</svg>
