<?xml version="1.0" encoding="utf-8"?>
<!-- Generator: Adobe Illustrator 16.0.0, SVG Export Plug-In . SVG Version: 6.00 Build 0)  -->
<!DOCTYPE svg PUBLIC "-//W3C//DTD SVG 1.1//EN" "http://www.w3.org/Graphics/SVG/1.1/DTD/svg11.dtd">
<svg version="1.1" id="Layer_1" xmlns="http://www.w3.org/2000/svg" xmlns:xlink="http://www.w3.org/1999/xlink" x="0px" y="0px"
	 width="250px" height="450px" viewBox="0 0 250 450" enable-background="new 0 0 250 450" xml:space="preserve">
<g>
	<title>Solanum lycopersicum</title>
	<g id="outlines">
		
			<path id="svg_1" fill="none" stroke="#000000" stroke-width="0.75" stroke-linecap="round" stroke-linejoin="round" stroke-miterlimit="10" d="
			M101.129,52.134c-0.575-1.35,3.329-3.579,4.041-4.854c1.202-2.157,1.839-3.751,3.849-5.352"/>
		
			<path id="svg_2" fill="none" stroke="#000000" stroke-width="0.75" stroke-linecap="round" stroke-linejoin="round" stroke-miterlimit="10" d="
			M95.706,52.134c-3.821-0.994-6.608-0.671-10.108,1.4c-1.662,0.983-3.128,2.176-4.585,3.421c-1.352,1.154-3.59,2.834-4.167,4.514"
			/>
		
			<path id="svg_3" fill="none" stroke="#000000" stroke-width="0.75" stroke-linecap="round" stroke-linejoin="round" stroke-miterlimit="10" d="
			M100.389,54.872c-1.101,2.915-2.816,5.859-3.914,8.864c-1.198,3.278-0.121,7.321-1.633,10.427"/>
		
			<path id="svg_4" fill="none" stroke="#000000" stroke-width="0.75" stroke-linecap="round" stroke-linejoin="round" stroke-miterlimit="10" d="
			M114.072,54c0.028-0.007-0.312,0.152-0.447,0.252c1.905,1.332,4.213-3.274,5.87-2.244"/>
		
			<path id="svg_5" fill="none" stroke="#000000" stroke-width="0.75" stroke-linecap="round" stroke-linejoin="round" stroke-miterlimit="10" d="
			M113.949,54.499c-0.015-0.086-0.219-0.016-0.104-0.23c4.057,0.885,0.697,8.678,0.72,11.307"/>
		
			<path id="svg_6" fill="none" stroke="#000000" stroke-width="0.75" stroke-linecap="round" stroke-linejoin="round" stroke-miterlimit="10" d="
			M142.545,52.383c-0.203,1.991,3.139,4.011,4.684,4.757c2.243,1.083,4.575,1.006,6.766,1.823
			c-1.836-4.953-6.088-6.798-10.709-8.199"/>
		
			<path id="svg_7" fill="none" stroke="#000000" stroke-width="0.75" stroke-linecap="round" stroke-linejoin="round" stroke-miterlimit="10" d="
			M156.598,47.653c0.111,1.812,0.457,3.084,1.479,4.605"/>
		
			<path id="svg_8" fill="none" stroke="#000000" stroke-width="0.75" stroke-linecap="round" stroke-linejoin="round" stroke-miterlimit="10" d="
			M156.845,47.778c2.103,0.017,2.931,1.174,3.944,2.987c0.792,1.417,2.451,2.936,2.572,4.586c-0.86,0.195-1.407-0.593-1.955-1.102"
			/>
		
			<path id="svg_9" fill="none" stroke="#000000" stroke-width="0.75" stroke-linecap="round" stroke-linejoin="round" stroke-miterlimit="10" d="
			M117.4,98.183c0.942-1.093,2.511-2.941,3.821-3.485"/>
		
			<path id="svg_10" fill="none" stroke="#000000" stroke-width="0.75" stroke-linecap="round" stroke-linejoin="round" stroke-miterlimit="10" d="
			M189.879,61.344c-1.395,1.347-2.139,3.266-3.051,4.951c-1.137,2.1-2.35,4.091-3.39,6.25c-1.728,3.587-4.572,7.42-4.776,11.45"/>
		
			<path id="svg_11" fill="none" stroke="#000000" stroke-width="0.75" stroke-linecap="round" stroke-linejoin="round" stroke-miterlimit="10" d="
			M198.014,60.473c0.778-0.389,3.992,1.489,4.904,1.9c1.689,0.764,3.247,1.49,4.841,2.421c3.042,1.776,6.06,3.845,8.406,6.354
			c1.864,1.994,4.089,3.106,5.729,5.407c1.625,2.278,3.2,4.339,3.485,7.19"/>
		
			<path id="svg_12" fill="none" stroke="#000000" stroke-width="0.75" stroke-linecap="round" stroke-linejoin="round" stroke-miterlimit="10" d="
			M81.9,112.496c1.157-0.072,2.157-0.273,3.328-0.125"/>
		
			<path id="svg_13" fill="none" stroke="#000000" stroke-width="0.75" stroke-linecap="round" stroke-linejoin="round" stroke-miterlimit="10" d="
			M85.105,110.131c4.048-1.773,9.142,0.865,12.943,2.236c2.626,0.948,4.955,2.332,7.396,3.613c1.833,0.962,3.958,1.163,5.303,2.866
			c0.127,0.16,0.249,0.327,0.367,0.494"/>
		
			<path id="svg_14" fill="none" stroke="#000000" stroke-width="0.75" stroke-linecap="round" stroke-linejoin="round" stroke-miterlimit="10" d="
			M107.909,118.718c1.043-0.036,1.735,1.167,2.095,1.992"/>
		
			<path id="svg_15" fill="none" stroke="#000000" stroke-width="0.75" stroke-linecap="round" stroke-linejoin="round" stroke-miterlimit="10" d="
			M57.001,148.463c0.882-2.104,3.125-3.83,4.718-5.448c1.481-1.504,3.227-2.835,5.021-3.917c4.188-2.527,9.509-3.739,14.175-5.044
			c6.763-1.892,12.668,0.547,17.997,4.702"/>
		
			<path id="svg_16" fill="none" stroke="#000000" stroke-width="0.75" stroke-linecap="round" stroke-linejoin="round" stroke-miterlimit="10" d="
			M90.528,150.58c-1.06,1.898-0.681,5.344-0.493,7.467c0.221,2.499,0.403,4.861-0.216,7.346c-0.681,2.734-1.962,5.42-2.958,8.087
			c-1.614,4.319-2.265,8.57-2.989,13.068"/>
		
			<path id="svg_17" fill="none" stroke="#000000" stroke-width="0.75" stroke-linecap="round" stroke-linejoin="round" stroke-miterlimit="10" d="
			M84.488,192.147c-0.813,2.33-0.024,6.753,0.616,9.085"/>
		
			<path id="svg_18" fill="none" stroke="#000000" stroke-width="0.75" stroke-linecap="round" stroke-linejoin="round" stroke-miterlimit="10" d="
			M92.131,152.322c-0.437,1.331-0.167,2.974-0.37,4.355c-0.233,1.582-0.713,3.136-1.109,4.729"/>
		
			<path id="svg_19" fill="none" stroke="#000000" stroke-width="0.75" stroke-linecap="round" stroke-linejoin="round" stroke-miterlimit="10" d="
			M103.717,142.116c0.632,0.013,1.053,0.469,1.603,0.622"/>
		
			<path id="svg_20" fill="none" stroke="#000000" stroke-width="0.75" stroke-linecap="round" stroke-linejoin="round" stroke-miterlimit="10" d="
			M106.183,144.232c0-0.054-0.206-0.035-0.108-0.233c1.223,0.421,2.764,2.906,3.526,3.995c1.071,1.53,2.038,3.122,2.991,4.701"/>
		
			<path id="svg_21" fill="none" stroke="#000000" stroke-width="0.75" stroke-linecap="round" stroke-linejoin="round" stroke-miterlimit="10" d="
			M114.811,154.562c1.014,2.092,3.809,3.389,5.173,5.352c1.279,1.84,1.721,3.971,2.595,5.974c1.886,4.324,4.948,6.712,8.469,9.614
			c1.334,1.099,2.859,2.276,3.979,3.578"/>
		
			<path id="svg_22" fill="none" stroke="#000000" stroke-width="0.75" stroke-linecap="round" stroke-linejoin="round" stroke-miterlimit="10" d="
			M188.77,140.499c0.553,1.414,0.35,4.194,0.246,5.849c-0.14,2.267-1.381,4.169-2.311,6.195c-1.879,4.091-4.885,9.649-4.1,14.217"/>
		
			<path id="svg_23" fill="none" stroke="#000000" stroke-width="0.75" stroke-linecap="round" stroke-linejoin="round" stroke-miterlimit="10" d="
			M182.113,169.248c-0.663,0.855-0.562,2.516-0.863,3.623c-0.312,1.148-0.715,2.352-1.105,3.471
			c-0.807,2.316-0.902,5.136-0.373,7.592"/>
		
			<path id="svg_24" fill="none" stroke="#000000" stroke-width="0.75" stroke-linecap="round" stroke-linejoin="round" stroke-miterlimit="10" d="
			M184.949,108.637c0,5.201,1.543,10.249,1.602,15.433c0.027,2.372,0.1,4.757,0.124,7.094c0.022,2.14,0.251,3.773-0.37,5.85"/>
		
			<path id="svg_25" fill="none" stroke="#000000" stroke-width="0.75" stroke-linecap="round" stroke-linejoin="round" stroke-miterlimit="10" d="
			M209.231,133.404c0.425-1.49,1.595-1.942,2.595-2.99c0.936-0.979,1.664-2.264,2.49-3.351c1.522-2.006,2.599-5.284,4.529-6.852"/>
		
			<path id="svg_26" fill="none" stroke="#000000" stroke-width="0.75" stroke-linecap="round" stroke-linejoin="round" stroke-miterlimit="10" d="
			M212.93,136.018c1.948,6.341-0.252,12.618-1.479,18.793"/>
		
			<path id="svg_27" fill="none" stroke="#000000" stroke-width="0.75" stroke-linecap="round" stroke-linejoin="round" stroke-miterlimit="10" d="
			M185.935,195.881c-1.386,0.942-1.109,2.268-1.109,3.858"/>
		
			<path id="svg_28" fill="none" stroke="#000000" stroke-width="0.75" stroke-linecap="round" stroke-linejoin="round" stroke-miterlimit="10" d="
			M197.152,226c-0.211,1.131-1.312,2.338-1.884,3.363c-0.56,1.006-1.269,1.841-2.089,2.607c-1.916,1.789-4.062,3.318-6.01,5.133
			c-4.271,3.984-8.313,8.436-11.867,13.045c-1.213,1.573-1.31,3.139-2.927,4.477"/>
		
			<path id="svg_29" fill="none" stroke="#000000" stroke-width="0.75" stroke-linecap="round" stroke-linejoin="round" stroke-miterlimit="10" d="
			M65.999,225.378c-0.816,0.417-1.324,2.058-1.874,2.862c-0.707,1.035-1.465,1.788-1.825,3.009
			c-0.949,3.222-1.329,6.974-1.603,10.308"/>
		
			<path id="svg_30" fill="none" stroke="#000000" stroke-width="0.75" stroke-linecap="round" stroke-linejoin="round" stroke-miterlimit="10" d="
			M60.452,247.656c0.652,2.766,1.043,5.706,2.341,8.241c0.927,1.813,2.16,3.607,2.958,5.449"/>
		
			<path id="svg_31" fill="none" stroke="#000000" stroke-width="0.75" stroke-linecap="round" stroke-linejoin="round" stroke-miterlimit="10" d="
			M67.355,232.473c0.573,1.655,1.095,3.295,1.849,4.889c0.671,1.42,2.092,2.709,2.588,4.072"/>
		
			<path id="svg_32" fill="none" stroke="#000000" stroke-width="0.75" stroke-linecap="round" stroke-linejoin="round" stroke-miterlimit="10" d="
			M93.733,213.679c2.364-1.23,4.225,1.07,6.041,2.365c2.404,1.715,4.657,3.534,6.656,5.725"/>
		
			<path id="svg_33" fill="none" stroke="#000000" stroke-width="0.75" stroke-linecap="round" stroke-linejoin="round" stroke-miterlimit="10" d="
			M49.235,251.142c-2.889,3.88-1.844,16.034-1.39,16.829c0.354,0.619,0.425,0.723,0.649,1.342c0.07,0.193-0.809,6.373,1.602,7.196
			c0.08,0.035,0.162,0.044,0.246,0.022"/>
		
			<path id="svg_34" fill="none" stroke="#000000" stroke-width="0.75" stroke-linecap="round" stroke-linejoin="round" stroke-miterlimit="10" d="
			M65.259,288.603c0.046,1.631,0.537,3.384,1.013,4.944c0.618,2.023,0.971,4.165,1.729,6.132c0.961,2.491,2.281,5.546,4.16,7.468"/>
		
			<path id="svg_35" fill="none" stroke="#000000" stroke-width="0.75" stroke-linecap="round" stroke-linejoin="round" stroke-miterlimit="10" d="
			M71.792,284.992c-0.846,1.723,0.057,2.477,1.02,3.831c0.819,1.152,1.61,2.624,2.185,3.886"/>
		
			<path id="svg_36" fill="none" stroke="#000000" stroke-width="0.75" stroke-linecap="round" stroke-linejoin="round" stroke-miterlimit="10" d="
			M73.395,289.35c-0.008,1.227-0.074,3.498-0.986,4.355"/>
		
			<path id="svg_37" fill="none" stroke="#000000" stroke-width="0.75" stroke-linecap="round" stroke-linejoin="round" stroke-miterlimit="10" d="
			M64.767,308.765c-1.388,2.006-3.328,4.669-0.493,6.721"/>
		
			<path id="svg_38" fill="none" stroke="#000000" stroke-width="0.75" stroke-linecap="round" stroke-linejoin="round" stroke-miterlimit="10" d="
			M30.992,298.684c1.168,2.426,2.29,4.9,3.818,7.097c1.18,1.696,2.342,4.015,3.947,5.349"/>
		
			<path id="svg_39" fill="none" stroke="#000000" stroke-width="0.75" stroke-linecap="round" stroke-linejoin="round" stroke-miterlimit="10" d="
			M39.374,296.443c1.21,1.514,4.312,2.613,4.814,4.474c0.279,1.036-0.192,2.303-0.01,3.367c0.204,1.191,1.15,2.36,1.975,3.11"/>
		
			<path id="svg_40" fill="none" stroke="#000000" stroke-width="0.75" stroke-linecap="round" stroke-linejoin="round" stroke-miterlimit="10" d="
			M76.6,309.636c0.788,1.783,2.76,3.109,3.821,4.729"/>
		
			<path id="svg_41" fill="none" stroke="#000000" stroke-width="0.75" stroke-linecap="round" stroke-linejoin="round" stroke-miterlimit="10" d="
			M96.199,311.005c0.649,0.457,1.388,1.302,1.479,2.115"/>
		
			<path id="svg_42" fill="none" stroke="#000000" stroke-width="0.75" stroke-linecap="round" stroke-linejoin="round" stroke-miterlimit="10" d="
			M47.879,319.468c0.001,1.032-0.697,2.308-0.863,3.457c-0.161,1.109-0.247,2.131-0.247,3.264"/>
		
			<path id="svg_43" fill="none" stroke="#000000" stroke-width="0.75" stroke-linecap="round" stroke-linejoin="round" stroke-miterlimit="10" d="
			M46.4,336.145c0,1.576,0,3.153,0,4.729"/>
		
			<path id="svg_44" fill="none" stroke="#000000" stroke-width="0.75" stroke-linecap="round" stroke-linejoin="round" stroke-miterlimit="10" d="
			M30.129,337.016c0.787-2.145,3.918-2.442,4.034-4.826c0.059-1.196-0.079-1.847,0.5-3.042c0.442-0.913,0.74-2.327,1.383-3.084"/>
		<path id="svg_45" fill="none" stroke="#000000" stroke-linecap="round" stroke-linejoin="round" stroke-miterlimit="10" d="
			M87.697,50.485c-3.341,1.772-5.568,3.972-8.047,6.842c-1.185,1.372-2.032,2.683-2.801,4.262c-0.717,1.473-1.986,2.841-2.804,4.387
			c-0.957,1.806-1.533,3.582-1.911,5.545c-0.218,1.136-0.273,5.078,1.664,3.142c0.854-0.854,4.451-6.142,5.42-7.191
			c1.216-1.315,1.229-2.815,2.342-4.107c1.25-1.452,3.309-1.106,4.626-2.174c0.88-0.715,0.631-1.118,1.972-1.369
			c0.72-0.135,1.891-0.167,2.369-0.844c0.473-0.669,0.077-1.55,0.494-2.24c0.337-0.558,0.888-0.927,1.225-1.501
			c1.106-1.882,1.086-2.24,3.437-2.38c-0.298,0.018,1.153-0.923,1.065-0.781c0.376-0.616,0.403-0.539-0.053-1.307
			c-0.552-0.929-1.636-1.487-2.65-1.699C91.912,48.625,89.561,49.496,87.697,50.485z"/>
		<path id="svg_46" fill="none" stroke="#000000" stroke-linecap="round" stroke-linejoin="round" stroke-miterlimit="10" d="
			M95.848,54.143c0.072,0.188-0.004,0.521,0.089,0.704c-1.133,0.314-1.722,0.514-2.319,1.4c-0.478,0.709-1.029,1.429-1.486,2.137
			c-0.465,0.721-0.692,1.641-0.989,2.461c-0.296,0.818-0.897,1.432-1.202,2.268c-0.36,0.992,0.147,1.646,0.369,2.558
			c0.253,1.042,0.131,1.881-0.12,2.894c-0.585,2.36,0.143,2.944,1.698,4.347c1.399,1.262,0.627,2.632-0.357,3.864
			c3.649,2.718,5.682-5.128,7.349-6.754c0.947-0.923,1.18-1.054,1.627-2.207c0.434-1.119,0.943-1.119,1.825-1.771
			c1.767-1.307,1.757-3.296,1.757-5.324c0-1.912-0.146-3.211-1.504-4.574c-0.5-0.501-1.059-1.123-1.702-1.4
			C100.5,54.583,95.807,54.036,95.848,54.143z"/>
		<path id="svg_47" fill="none" stroke="#000000" stroke-linecap="round" stroke-linejoin="round" stroke-miterlimit="10" d="
			M96.815,52.383c0.148,2.008,2.578,0.32,3.445,0.125c1.175-0.264,0.886,0.241,1.63,0.594c0.605,0.287,1.554,0.374,2.194,0.405
			c0.693,0.033,1.443-0.131,2.068,0.153c0.5,0.228,0.767,0.872,1.257,1.096c1.182,0.538,3.273,0.366,4.584,0.367
			c-0.498,0.136-1.098,0.555-1.712,0.898c-0.788,0.44-0.867,0.573-2.006,0.474c-1.667-0.147-2.74-1.11-4.314-1.369
			c-1.565-0.257-3.041-0.508-4.561-0.871c-1.165-0.279-3.354-0.376-4.145-1.506c0.512-0.012,1.003-0.172,1.313-0.612L96.815,52.383z
			"/>
		<path id="svg_48" fill="none" stroke="#000000" stroke-linecap="round" stroke-linejoin="round" stroke-miterlimit="10" d="
			M99.277,50.174c-0.755-0.759-1.466-0.303-1.38-1.773c0.094-1.601,0.647-3.255,2-4.356c1.413-1.149,2.029-2.837,3.821-3.239
			c1.69-0.378,3.272-1.668,5.054-1.742c1.551-0.064,3.489,1.979,3.454,3.612c-0.011,0.516-0.4,0.713-0.348,1.22
			c0.03,0.3,0.517,0.775,0.588,1.142c0.163,0.838-0.14,1.586-0.76,2.212c-0.68,0.686-1.551,1.051-2.164,1.902
			c-0.447,0.621-0.684,1.69-1.233,2.143c-1.294,1.067-4.008-0.078-5.55,0.75c-0.351,0.188-0.464,0.297-0.539,0.694
			C100.034,53.176,100.352,51.254,99.277,50.174z"/>
		<path id="svg_49" fill="none" stroke="#000000" stroke-linecap="round" stroke-linejoin="round" stroke-miterlimit="10" d="
			M113.298,52.916c-0.754-0.363-1.529-0.125-1.571-1.154c-0.032-0.79,1.016-1.523,1.575-1.895c1.339-0.893,2.33-1.382,3.821-0.812
			c0.433,0.166,0.245,0.575,0.893,0.472c0.462-0.073,0.479-0.477,0.771-0.725c0.592-0.504,0.927-1.24,1.8-1.253
			c0.102,2.051-0.674,3.716-0.598,5.706c0.076,1.98,1.363,3.351,1.482,5.349c0.229,3.86-0.932,7.678-2.194,11.107
			c-0.795,2.161-2.182,6.859-4.814,7.42c-0.622-2.041-2.264-2.063-3.321-3.618c-1.063-1.564-0.208-3.79-0.921-5.417
			c-0.203-0.463-0.612-2.163-0.586-2.645c0.07-1.257-0.47-1.556-0.743-2.613c-0.326-1.268-0.099-3.936-0.003-4.985
			c0.011-0.102,0.896-1.251,0.997-1.375c0.651-0.805,1.145-1.126,2.128-1.446C113.197,54.646,115.574,54.01,113.298,52.916z"/>
		<path id="svg_50" fill="none" stroke="#000000" stroke-linecap="round" stroke-linejoin="round" stroke-miterlimit="10" d="
			M120.852,64.206c1.394,0.846,3.509,3.085,4.32,4.568c-0.05-4.118,8.958-15.428,11.426-17.916c1.264-1.272,2.848-2.35,4.342-3.23
			c1.863-1.096,3.775-1.302,5.79-1.725c3.563-0.747,17.773-1.787,17.242,0.109c-2.274,0.926-5.28,0.289-7.725,0.415
			c0.017,0.175-0.061,0.411-0.037,0.585c-2.345,0.756-5.324-0.191-7.747,0.267c-1.366,0.258-6.209,0.904-6.516,2.713
			c0.344,0.351,0.679,0.698,1.049,1.027c-0.777-0.096-0.976,0.578-0.82,1.257c-0.133-0.713-1.264-0.965-2.096-0.889
			c-1.217,0.111-1.395,0.649-1.941,1.524c-0.896,1.433-2.175,2.729-3.266,4.049c-2.469,2.987-4.986,6.087-6.26,9.729
			c-0.627,1.797-2.045,5.813-2.325,5.751c0.763,2.092,2.524,4.221,3.054,6.307c-0.116,0.044-0.219,0.007-0.336,0.04
			c-0.482,1.445,0.23,2.038,1.124,3.192c0.774,0.999,1.199,2.089,1.692,3.267c0.455,1.087,0.783,1.925,1.508,2.694
			c0.814,0.865,1.421,1.654,2.08,2.601c-0.134-0.232-0.357-0.497-0.487-0.681c0.269,0.412,0.532,0.867,0.845,1.229"/>
		<path id="svg_51" fill="none" stroke="#000000" stroke-linecap="round" stroke-linejoin="round" stroke-miterlimit="10" d="
			M120.235,66.82c3.277,1.596,4.467,5.462,5.671,8.712c0.362,0.981,0.5,1.938,0.862,2.869c0.312,0.799,0.942,1.331,1.325,2.116
			c0.833,1.704,1.297,3.73,2.161,5.595c0.417,0.898,0.983,1.593,1.479,2.464c0.628,1.104,0.241,1.364,0.062,2.487
			c-0.266,1.666,0.232,3.875,0.739,5.406c0.618,1.871,1.15,3.439,1.259,5.449c0.111,2.057-0.068,4.145,0.027,6.195
			c0.064,1.345-0.056,2.66-0.123,4.01c-0.033,0.671-0.116,1.442-0.027,2.116c0.094,0.709,0.461,1,0.623,1.611
			c0.324,1.223-0.225,2.497-0.773,3.588c-0.809,1.608-1.018,1.645-2.932,1.645"/>
		<path id="svg_52" fill="none" stroke="#000000" stroke-linecap="round" stroke-linejoin="round" stroke-miterlimit="10" d="
			M147.35,60.006c1.848,1.115,9.425,4.757,9.495,0.591c0.054-3.142-2.239-6.646-4.407-8.867c-1.329-1.362-3.076-1.988-4.947-2.026
			c-0.917-0.019-1.832,0.109-2.731,0.278c-1.281,0.241-1.489,0.222-1.933,1.304C141.509,54.494,144.727,58.422,147.35,60.006z"/>
		<path id="svg_53" fill="none" stroke="#000000" stroke-linecap="round" stroke-linejoin="round" stroke-miterlimit="10" d="
			M155.735,47.031c1.396,0.764,0.306,4.138,0.37,5.476c0.093,1.96,1.115,2.933,2.557,4.138c1.329,1.11,2.781,2.078,4.338,2.832
			c1.547,0.748,3.399,1.92,4.078-0.118c1.173-3.521,1.487-6.618-1.877-9.186c-1.115-0.851-2.754-1.977-4.07-2.368
			c-0.877-0.261-1.859-0.092-2.809-0.152c-1.024-0.064-1.428-0.482-2.324-0.858c0.072,0.39-0.18,0.225-0.264,0.36L155.735,47.031
			L155.735,47.031z"/>
		<path id="svg_54" fill="none" stroke="#000000" stroke-linecap="round" stroke-linejoin="round" stroke-miterlimit="10" d="
			M136.013,80.635c0.411-0.287,0.671-0.717,0.599-1.227c-1.645-0.039,0.311-1.705,0.751-2.038c0.876-0.663,1.718-1.394,2.604-2.044
			c-0.031,1.361,0.417,2.973-0.498,3.784c-0.973,0.86-2.836,0.788-3.578,1.773L136.013,80.635z"/>
		<path id="svg_55" fill="none" stroke="#000000" stroke-linecap="round" stroke-linejoin="round" stroke-miterlimit="10" d="
			M138.479,81.133c0.912-0.598,1.835-1.492,2.81-1.979c-0.078,0.835,0.871,1.219,0.888,2.228c0.014,0.824-0.314,1.833-1.082,2.277
			c-0.393,0.227-0.869,0.054-1.26,0.21c-0.328,0.13-0.561,0.609-0.887,0.721C136.065,85.576,136.94,82.139,138.479,81.133z"/>
		<path id="svg_56" fill="none" stroke="#000000" stroke-linecap="round" stroke-linejoin="round" stroke-miterlimit="10" d="
			M139.834,86.484c0.218-0.784,0.225-1.78,0.266-2.595c1.749,0.135,1.948-1.181,2.221-2.492c1.359,0.34,2.682,0.431,3.291,1.954
			c-1.494-0.122-1.915-0.079-3.033,0.796c-0.889,0.695-2.162,1.078-2.867,1.964L139.834,86.484z"/>
		<path id="svg_57" fill="none" stroke="#000000" stroke-linecap="round" stroke-linejoin="round" stroke-miterlimit="10" d="
			M144.764,85.613c0.754-0.345,0.895-1.078,1.727-1.244c0.707-0.141,1.994,0.288,1.99,1.101c0.896-0.079,2.654,0.042,3.324,0.511
			c-1.418,2.459-4.354,3.174-6.986,2.858c-0.982-0.118-2.453-0.202-2.623-1.398C141.932,85.593,143.807,86.051,144.764,85.613z"/>
		<path id="svg_58" fill="none" stroke="#000000" stroke-linecap="round" stroke-linejoin="round" stroke-miterlimit="10" d="
			M141.825,89.863c0.065,1.769,1.415,2.133,2.819,2.813c1.33,0.644,2.285,1.914,3.541,2.551c0.987,0.501,1.01,0.303,1.14-0.902
			c0.079-0.731,0.146-1.955-0.116-2.621C148.444,89.762,143.51,89.371,141.825,89.863z"/>
		<path id="svg_59" fill="none" stroke="#000000" stroke-linecap="round" stroke-linejoin="round" stroke-miterlimit="10" d="
			M129.356,78.768c1.354,0,2.583-0.173,3.927-0.106c0.189,0.586,1.068,2.59,0.609,3.192c-0.561,0.735-2.705,0.086-3.427,0.399"/>
		<path id="svg_60" fill="none" stroke="#000000" stroke-linecap="round" stroke-linejoin="round" stroke-miterlimit="10" d="
			M133.169,74.956c0.385,0.512,0.729,1.052,1.118,1.556c0.703-0.477,1.387-1.82,2.197-1.959c-0.008,0.74,0.42,1.565,0.398,2.218
			c-0.031,0.854-0.58,1.375-0.854,2.101c1.136,0.146,0.355,1.248-0.004,1.745c0.346-0.182,0.712-0.23,1.066-0.335
			c0.173,0.507,0.229,1.024,0.26,1.577c-1.232,0.246-0.422,5.556-0.496,6.846c-0.764,0.229-0.976,1.088-1.334,1.72
			c-0.203-0.604-0.512-1.232-0.965-1.595c-0.123-2.119-0.234-4.276-0.126-6.404c0.354,0.089,0.786,0.173,1.081,0.274
			c-0.477-0.172-0.896-0.348-1.238-0.694c0.161-0.086,0.404-0.388,0.594-0.47C133.359,82.188,133.469,75.538,133.169,74.956z"/>
		<path id="svg_61" fill="none" stroke="#000000" stroke-linecap="round" stroke-linejoin="round" stroke-miterlimit="10" d="
			M139.834,86.235c-0.156,0.131-0.878,0.95-1.195,1.158c-0.527,0.343-1.094,0.275-1.529,0.709c0.406,0.732-0.902,1.425-0.831,2.345
			c1.278,0.096,1.97-0.452,2.296-1.589c0.078,1.371,1.186,2.171,2.239,2.887c1.388,0.942,1.755,1.137,0.835,2.8
			c-0.674,1.223-1.434,1.188-2.4,1.927c-0.977,0.745-1.396,2.063-2.718,2.196c-0.041-0.544,0.034-1.111-0.148-1.605"/>
		<path id="svg_62" fill="none" stroke="#000000" stroke-linecap="round" stroke-linejoin="round" stroke-miterlimit="10" d="
			M139.341,96.689c0.491-0.764,0.14-1.914,0.644-2.738c0.494-0.807,1.467-1.056,1.699-1.991"/>
		<path id="svg_63" fill="none" stroke="#000000" stroke-linecap="round" stroke-linejoin="round" stroke-miterlimit="10" d="
			M148.092,95.196c0.45,3.497-3.271-0.683-4.539-0.855c0.104,1.078-0.785,1.376-1.347,2.097c-0.534,0.685-0.881,1.596-1.29,2.339
			c-0.869,1.579-1.479,2.966-1.977,4.63c-1.084,3.634-2.359,7.521-2.293,11.31c0.232,0.013,0.36,0.144,0.578,0.164
			c0.771,2.665,0.24,5.86,0.391,8.691c0.077,1.479,0.611,2.829,0.746,4.225c0.145,1.509,0.053,2.943,0.486,4.363"/>
		<path id="svg_64" fill="none" stroke="#000000" stroke-linecap="round" stroke-linejoin="round" stroke-miterlimit="10" d="
			M120.232,91.958c-1.648,0.411-2.825-0.379-4.29-0.728c-0.136,1.252,1.638,1.735,1.303,2.818c-0.228,0.736-2.096,1.813-2.708,2.238
			c-1.001,0.695-2.199,1.421-0.349,1.779c1.294,0.251,2.524-0.229,3.691-0.36c-0.663,1.576-1.802,2.585-1.195,4.324
			c1.479-1.054,4.815-1.579,5.529-3.591c0.417-1.179,0.126-2.392,0.733-3.615c0.45-0.905,1.889-2.942,0.703-3.775
			C122.75,90.416,121.109,91.738,120.232,91.958z"/>
		<path id="svg_65" fill="none" stroke="#000000" stroke-linecap="round" stroke-linejoin="round" stroke-miterlimit="10" d="
			M126.275,97.063c-0.823,1.942-4.455,1.242-5.19,3.111c1.062,1.072,0.82,2.003,0.894,3.466c1.739,0.266,1.844-2.246,3.18-2.725
			c0.645-0.231,1.466,0.347,2.101,0.379c0.83,0.042,1.591-0.082,2.336-0.374c1.334-0.525,2.828-2.037,0.623-2.365
			c-0.764-0.114-1.709,0.216-2.438-0.028c-0.591-0.198-1.189-0.914-1.631-1.217L126.275,97.063z"/>
		<path id="svg_66" fill="none" stroke="#000000" stroke-linecap="round" stroke-linejoin="round" stroke-miterlimit="10" d="
			M126.152,97.685c0.113-1.32,0.693-3.052,1.387-4.228c0.979-1.666,2.504-1.616,4.283-1.622"/>
		<path id="svg_67" fill="none" stroke="#000000" stroke-linecap="round" stroke-linejoin="round" stroke-miterlimit="10" d="
			M123.316,91.089c0.55-0.423,0.706-0.778,1.355-1.008c0.397-0.14,5.328-0.466,7.026-0.236"/>
		<path id="svg_68" fill="none" stroke="#000000" stroke-linecap="round" stroke-linejoin="round" stroke-miterlimit="10" d="
			M145.258,82.75c3.58,1.399,6.825-3.489,8.906-5.694c1.15-1.219,2.072-2.608,3.266-3.796c1.26-1.251,2.887-2.1,4.346-3.08
			c3.021-2.033,5.724-4.607,9.029-6.192c1.725-0.827,3.51-1.391,5.27-1.929c0.91-0.278,1.91-0.519,2.832-0.712
			c0.488-0.103,2.499-0.825,2.867-0.602c-0.039-0.024,0.306,0.103,0.29,0.1c-0.741,0.654,0.073,1.186,0.431,1.742
			c-0.546,0.555-2.061,0.19-2.847,0.346c-0.92,0.184-1.726,0.61-2.562,1.058c-1.571,0.841-3.229,1.553-4.805,2.358
			c-3.325,1.701-6.026,3.722-8.812,6.289c-2.311,2.13-5.178,3.91-6.965,6.536c-1.359,2-2.944,6.291-5.207,7.309"/>
		<path id="svg_69" fill="none" stroke="#000000" stroke-linecap="round" stroke-linejoin="round" stroke-miterlimit="10" d="
			M187.168,59.851c2.184-0.098,3.555-1.261,5.148,1.026c1.005,1.44,1.691,3.317,1.754,5.072c0.087,2.468-1.608,3.129-2.803,4.861
			c-1.041,1.507-0.263,3.595-1.418,5.065c-0.651,0.828-1.414,0.715-1.812,1.531c-0.393,0.807-0.396,1.872-0.742,2.738
			c-0.689,1.725-2.211,2.985-2.744,4.696c-0.583,1.875-0.908,3.273-2.095,4.972c-1.104,1.578-2.344,2.694-3.827,3.861
			c-0.765,0.601-1.499,1.237-2.301,1.801c-0.716,0.502-1.656,0.736-2.318,1.245c-1.032,0.792-1.129,1.506-1.91,0.002
			c-0.424-0.818-0.708-1.729-0.982-2.645c-0.57-1.902-0.713-3.976-0.713-5.974c0-4.263,1.723-7.402,3.055-11.229
			c0.36-1.033,0.939-1.38,1.482-2.243c0.482-0.765,0.331-1.772,0.733-2.585c0.499-1.009,1.368-1.173,2.096-1.895
			c0.8-0.794,0.552-1.509,0.552-2.486c-0.001-1.821,1.086-2.271,2.438-3.208c0.531-0.369,1.111-0.764,1.238-1.491
			c0.242-1.377-0.771-2.194,0.934-2.983C184.26,59.367,185.773,59.913,187.168,59.851z"/>
		<path id="svg_70" fill="none" stroke="#000000" stroke-linecap="round" stroke-linejoin="round" stroke-miterlimit="10" d="
			M189.139,59.601c0.412-0.794,1.016-1.833,0.986-2.738c-0.029-0.901-0.66-1.589-1.078-2.369c-0.489-0.911-0.611-1.68-0.892-2.613
			c-0.216-0.718-1.033-1.642-0.718-2.489c0.315-0.848,1.668-1.126,2.44-0.878c1.144,0.368,0.924,1.264,1.944,0.231
			c0.676-0.683,0.577-1.668,2.006-1.348c0.713,0.16,1.408,1.03,1.877,1.466c0.951,0.886,0.853,1.062,1.726,0.069
			c0.523-0.596,0.999-1.642,2.036-1.254c0.719,0.268,0.881,1.621,2.004,1.351c0.805-0.193,1.211-1.366,1.631-1.971
			c1.248-1.797,3.155-1.446,5.141-1.27c1.204,0.107,1.551-0.321,2.588-0.503c1.105-0.194,1.479,0.499,2.226,0.993
			c0.577,0.381,1.659,0.715,2.308,1.284c0.747,0.654,0.846,0.954,1.877,1.214c2.062,0.521,2.891,0.8,4.194,2.61
			c0.624,0.865,3.779,2.569,2.958,3.36c-0.873,0.84-4.665-0.074-5.793-0.124c-7.145-0.317-15.543-4.821-22.098,0.093
			c-1.316,0.986-4.52,3.717-4.67,5.488c-1.031-0.251-1.966-0.735-3.186-0.603L189.139,59.601L189.139,59.601z"/>
		<path id="svg_71" fill="none" stroke="#000000" stroke-linecap="round" stroke-linejoin="round" stroke-miterlimit="10" d="
			M191.728,59.353c1.04,0,2.092-0.058,3.082,0.152c1.027,0.217,1.874,0.901,2.962,0.841c1.156-0.064,1.066-0.841,2.119-1.335
			c0.742-0.348,2.184-0.241,2.931-0.031c1.936,0.544,0.26,0.701-0.249,1.587c-0.557,0.968,0.307,1.502,1.115,1.894
			c1.893,0.916,3.418-0.373,5.174-1.213c1.377-0.659,4.016-2.136,5.43-0.934c0.682,0.58,1.877,3.757,3.199,4.017
			c2.678,0.527-0.235,2.912,0.646,4.825c0.678,1.47,2.657,2.023,3.637,3.422c0.651,0.929,0.639,1.67,0.895,2.704
			c0.226,0.914,2.863,6.042,2.957,8.089c0.096,2.069,0.105,4.142,0.003,6.226c-0.093,1.907-0.012,4.167-0.743,5.978
			c-1.334,3.305-7.478,13.226-9.364,12.311c-2.05-0.994,0.603-3.051,1.261-4.197c1.002-1.749,1.965-7.06,1.849-7.903
			c-0.11-0.804-1.375-3.148-1.387-4.076c-0.005-0.453,0.304-0.462,0.092-0.965c-0.152-0.36-0.787-0.432-0.991-0.775
			c-0.562-0.946,0.607-4.463-1.178-4.341c-0.041,0.738,0.178,2.203-0.601,2.628c-0.767,0.419-1.964-0.676-2.132-1.4
			c-0.223-0.967,0.566-1.72,0.25-2.747c-0.295-0.959-1.229-4.664-1.635-5.567c-0.361-0.807-5.754-4.121-6.009-5.255
			c-0.378-1.69,3.214-3.823,2.375-4.887c-0.372-0.473-2.245-0.211-2.741-0.087c-0.783,0.195-4.159,0.175-4.294-0.75
			c-0.168-1.152,0.624-1.272,0.935-2.144c0.727-2.034-2.75-1.968-4.164-1.963c-0.441,0.001-0.805,0.054-1.214,0.105
			c-0.089-0.45-0.008-0.97,0.089-1.356c-0.754-0.494-1.89-0.143-2.695-0.484c-0.887-0.375-1.246-1.013-1.727-1.874L191.728,59.353z"
			/>
		<path id="svg_72" fill="none" stroke="#000000" stroke-linecap="round" stroke-linejoin="round" stroke-miterlimit="10" d="
			M138.602,130.791c0.406,1.754,1.021,3.495,1.479,5.227c0.508,1.917,2.637,13.358,3.232,17.299c0.426,2.81,0.924,5.335,0.978,8.196
			c1.847,0.343,3.64-1.814,5.036-2.748c1.656-1.107,3.592-1.637,5.275-2.741c1.688-1.107,3.057-2.772,4.701-3.979
			c1.73-1.271,3.54-2.553,5.428-3.551c2.799-1.479,5.604-3.108,8.508-4.511c1.651-0.798,3.334-1.533,5.061-2.116
			c1.449-0.49,3.146-1.371,4.678-1.369"/>
		<path id="svg_73" fill="none" stroke="#000000" stroke-linecap="round" stroke-linejoin="round" stroke-miterlimit="10" d="
			M112.346,120.212c1.148,0.443,1.857,2.401,2.805,3.267c1.001,0.915,2.34,1.433,3.327,2.315c0.845-1.961,3.589-3.696,5.578-4.094
			c2.36-0.473,4.834-0.74,7.272-0.74"/>
		<path id="svg_74" fill="none" stroke="#000000" stroke-linecap="round" stroke-linejoin="round" stroke-miterlimit="10" d="
			M111.483,121.581c0.873,0.924,1.477,2.14,2.496,3.08c1.138,1.05,1.264,1.501,1.184,3.121c-3.279,1.072-6.701,3.546-9.72,5.28
			c-3.183,1.827-5.188,4.701-7.771,7.163c-1.355,1.292-2.16,2.946-3.415,4.287c-1.569,1.676-2.848,2.311-2.725,4.804
			c0.687-0.137,1.469-0.131,2.182-0.249c0.056-1.107-0.123-1.688,0.629-2.494c0.736-0.791,1.817-1.184,2.625-1.934
			c0.678-0.629,1.224-1.418,1.975-1.994c0.739-0.564,1.66-0.847,2.432-1.394c1.776-1.258,2.258-3.344,3.698-4.763
			c0.772-0.762,1.861-1.225,2.705-1.871c0.825-0.631,10.232-4.943,13.654-3.419c1.523,0.678,3.267,1.513,4.684,2.486
			c0.745,0.511,1.444,1.159,2.226,1.618c1,0.588,7.447,6.376,8.135,9.926c0.369,1.9,1.102,3.82,1.384,5.725
			c0.312,2.113,0.56,4.209,0.768,6.348c0.225,2.308,0.729,4.646,0.712,6.969"/>
		<path id="svg_75" fill="none" stroke="#000000" stroke-linecap="round" stroke-linejoin="round" stroke-miterlimit="10" d="
			M126.645,123.068c2.326-0.494,5.158-0.158,7.381,0.526c-0.398,1.415-0.063,3.432,0.012,4.957c0.051,1.03,1.192,3.855,0.25,4.492
			c-1.033-0.49-1.908-1.375-2.931-1.91c-1.118-0.585-2.294-0.88-3.479-1.303c-1.113-0.397-2.076-0.996-3.175-1.434
			c-1.592-0.635-4.707-0.542-2.754-2.993C122.999,124.083,125.065,123.403,126.645,123.068z"/>
		<path id="svg_76" fill="none" stroke="#000000" stroke-linecap="round" stroke-linejoin="round" stroke-miterlimit="10" d="
			M78.942,118.594c-0.267-0.616-0.304-2.355,0.023-2.962c0.327-0.605,1.086-1.251,1.486-1.888c0.488-0.778,1.013-1.058,1.726-1.591
			c1.468-1.098,2.864-2.29,4.25-3.55c1.394-1.268,2.637-3.077,4.594-3.332c2.046-0.268,3.8,0.415,5.67,0.747
			c1.75,0.312,4.159,0.32,5.672,1.283c1.863,1.184,1.639,3.3,2.339,5.071c0.845,2.136,2.064-1.647,4.068-0.615
			c0.788,0.406,0.9,1.37,0.986,2.357c0.032,0.368-0.177,1.182-0.009,1.494c0.302,0.559,0.77,0.414,1.21,0.778
			c0.942,0.781,2.013,3.785,0.99,4.698c-0.534,0.476-1.926,0.076-2.684,0.152c-1.226,0.125-1.5-0.023-2.496-0.619
			c-1.447-0.867-3.968-0.819-5.397,0.125c-0.926,0.611-1.035,1.011-2.216,1.089c-1.014,0.066-1.92-0.084-2.829-0.255
			c-1.504-0.283-1.231-0.476-2.009-1.711c-0.489-0.775-1.227-1.246-1.91-1.798c-1.372-1.106-2.651-2.343-4.102-3.333
			c-1.18-0.805-1.42-0.894-2.249,0.254c-0.688,0.954-0.983,1.417-2.062,1.833C82.906,117.24,79.681,120.299,78.942,118.594z"/>
		<path id="svg_77" fill="none" stroke="#000000" stroke-linecap="round" stroke-linejoin="round" stroke-miterlimit="10" d="
			M59.935,139.253c0.998-1.92,2.63-3.598,4.338-4.978c1.587-1.281,3.604-1.329,5.267-2.524c1.548-1.113,2.651-2.479,4.071-3.73
			c1.571-1.386,3.49-1.401,5.448-1.083c1.85,0.3,3.364,1.616,5.43,1.363c1.928-0.236,3.06-1.596,5.087-0.656
			c3.504,1.624,8.073-0.969,10.659,3.277c0.752,1.235,1.572,3.914,0.925,5.251c-0.646,1.333-2.434,2.528-3.39,3.669
			c-0.74,0.882-1.852,2.879-2.783,3.253c-0.051-1.351-1.469-1.805-2.486-2.131c-1.083-0.347-1.691-1.272-2.681-1.569
			c-0.645,0.582-0.927,1.415-1.757,1.82c-0.941,0.461-2.034-0.009-2.927,0.426c-0.862,0.42-1.32,1.198-2.345,1.496
			c-1.047,0.305-1.791,0.007-2.863-0.058c-1.056-0.063-1.638,0.244-2.582,0.532c-1.059,0.322-1.8,0.029-2.842-0.125
			c-1.213-0.18-1.644-0.154-2.555,0.498c-0.752,0.538-1.302,1.088-2.252,1.334c-2.74,0.709-5.002-0.042-7.424,1.739
			c-1.109,0.815-4.937,4.907-6.052,2.633c-0.621-1.267,0.68-4.107,1.162-5.288C58.11,142.63,59.051,140.953,59.935,139.253z"/>
		<path id="svg_78" fill="none" stroke="#000000" stroke-linecap="round" stroke-linejoin="round" stroke-miterlimit="10" d="
			M85.228,148.214c-2.091-0.104-4.196-0.382-5.55,1.247c-1.219,1.467-2.522,3.072-2.832,4.976c-0.138,0.845-0.298,2.061-0.033,2.896
			c0.106,0.336,0.725,1.924,0.646,2.453c-0.123,0.831-0.198,2.147-0.607,2.865c-0.756,1.329-1.276,0.968-0.653,2.641
			c0.834,2.241-1.466,3.01-2.339,4.923c-0.701,1.538,0.281,3.791,1.476,4.913c0.771,0.724,0.542,3.428,0.401,4.449
			c-0.604,4.375,0.923,8.107,1.506,12.196c0.277,1.946,0.819,4.076,1.792,5.846c1.02,1.858,4.44,5.485,5.731,5.262
			c-0.014,0.002,1.201-0.338,1.081-0.271c0.415-0.237,0.794-0.32,0.87-0.884c0.037-0.277,0.771-3.911,1.131-4.727
			c0.967-2.188,4.902-8.023,4.9-10.454c-0.002-2.186,0.132-4.05,2.339-4.885c1.123-0.425,1.835-0.138,2.499-1.185
			c0.537-0.846,0.618-1.735,1.208-2.617c0.543-0.812,2.328-3.023,3.319-3.382c2.607-0.943,1.685-2.928,1.362-4.982
			c-0.441-2.808,2.238-2.731,3.448-4.605c1.201-1.86-0.744-3.864-0.034-5.725c0.299-0.783,0.953-1.306,1.42-1.961
			c0.826-1.155,0.349-1.101-0.061-2.24c-0.593-1.646,0.508-4.242-0.986-5.601c-0.402-0.366-1.209-0.691-1.723-0.75
			c-1.039-0.12-1.141,0.312-1.976,0.691c-1.154,0.523-2.939,0.201-4.188,0.373c-1.381,0.191-2.903,0.436-4.259,0.125
			c-0.592-0.136-1.079-0.604-1.624-0.722c-0.722-0.155-2.529,0.558-2.248-0.72C89.253,148.227,87.23,148.314,85.228,148.214z"/>
		<path id="svg_79" fill="none" stroke="#000000" stroke-linecap="round" stroke-linejoin="round" stroke-miterlimit="10" d="
			M99.403,142.365c1.023,0.224,2.063,0.271,3.063,0.143c-0.48,2.365,3.679,0.694,3.347,1.35c-0.369,0.728-0.682,0.975-0.634,1.973
			c-1.129,0.066-1.457-0.606-1.467,0.896c-0.005,0.711,0.26,1.6,0.247,2.439c1.634-2.187,3.697,0.621,3.943,2.16
			c0.182,1.132-0.045,2.41,0.346,3.491c0.186,0.516,0.657,0.744,0.674,1.335c0.014,0.502-0.359,0.845-0.505,1.372
			c0.729,0.486,0.684,1.447,1.211,2.051c0.738,0.843,1.454,1.074,1.978,2.212c0.771,1.679,1.174,3.483,2,5.193
			c0.436,0.902,0.809,1.907,1.233,2.766c0.554,1.126,1.138,0.768,1.976,1.584c1.421,1.384,2.22,3.139,3.938,4.359
			c1.716,1.219,3.417,1.627,5.398,2.05c1.951,0.416,3.48,1.552,5.308,2.212c1.331,0.48,4.507,0.662,4.931-1.114
			c0.275-1.157-1.607-3.913-2.103-4.978c-0.876-1.886-1.45-3.376-1.941-5.362c-0.462-1.867-0.477-3.957-0.891-5.847
			c-0.369-1.683-1.542-3.291-2.438-4.735c-0.968-1.562-1.43-3.269-2.521-4.571c-0.705-0.842-0.749-1.498-1.115-2.638
			c-0.311-0.968-0.585-1.545-1.443-2.147c-0.777-0.545-1.914-0.9-2.444-1.745c-0.493-0.787-0.332-1.96-0.637-2.838
			c-0.61-1.755-1.798-2.969-2.931-4.377c-1.019-1.268-1.657-4.043-3.239-4.579c-1.486-0.502-3.492,0.249-5.056,0
			c-0.877-0.14-1.279-0.436-2.124-0.027c-0.547,0.265-1.353,0.977-1.941,1.369c-1.368,0.91-1.656,2.271-2.678,3.426
			c-1.013,1.144-2.499,1.792-3.485,2.953L99.403,142.365L99.403,142.365z"/>
		<path id="svg_80" fill="none" stroke="#000000" stroke-linecap="round" stroke-linejoin="round" stroke-miterlimit="10" d="
			M139.341,163.149c0,8.019-2.413,15.113-5.301,22.409c-0.735,1.859-3.974,8.824-4.653,10.7c-0.622,1.721-2.906,9.179-3.332,11.198
			c-0.414,1.964-1.368,3.722-1.746,5.607c-0.379,1.891-0.639,3.927-1.396,5.691c-0.667,1.551-1.341,3.35-2.308,4.757
			c-0.806,1.172-0.856,0.871-1.979,0.374c-0.83-0.367-1.679-0.608-2.582-0.753c-1.05-0.169-1.664-0.456-2.589-0.865"/>
		<path id="svg_81" fill="none" stroke="#000000" stroke-linecap="round" stroke-linejoin="round" stroke-miterlimit="10" d="
			M182.606,141.867c-12.449,5.601-24.036,15.308-35.13,23.522c-2.219,1.493-2.219,5.227-2.959,7.467
			c0,0.747-8.135,20.162-10.354,29.87c-0.74,3.734-0.74,7.467-1.338,11.032c1.793-3.073,0.472-1.744,0,0
			c1.338-2.071,3.557-2.818,5.035-3.565c4.438-0.747,25.886-5.227,28.104-6.721c1.479-1.493,2.219-3.733,3.698-4.48
			c3.697-1.493,7.396-2.987,11.463-2.987"/>
		<path id="svg_82" fill="none" stroke="#000000" stroke-linecap="round" stroke-linejoin="round" stroke-miterlimit="10" d="
			M183.962,140c0.845-0.371,1.565-0.059,2.314-0.276c0.347-0.1,0.393-0.588,1.014-0.598c0.444-0.006,0.95,0.465,1.362,0.609
			c0.357-0.517,1.144-1.63,1.846-1.696c1.081-0.101,0.478,1.261,0.609,2.209c0.318,2.276,2.57,2.59,4.441,2.987
			c0.834,0.177,2.209,0.296,1.975,1.369c-0.139,0.628-1.525,1.462-2.006,1.835c-0.559,0.433-1.504,0.878-1.79,1.552
			c-0.315,0.745-0.153,2.258-0.151,3.083c0.002,0.766-0.165,1.744,0,2.489c0.154,0.691,1.006,1.378,0.262,2.019
			c0.537,0.828,1.104,1.685,0.697,2.679c-0.36,0.88-1.479,1.222-1.673,2.144c-0.075,0.359,0.261,0.812,0.125,1.275
			c-0.14,0.477-0.49,0.576-0.735,1c-0.35,0.601-1.052,1.698-1.236,2.361c-0.217,0.773,0.352,1.752-0.179,2.686
			c-0.453,0.797-1.514,1.21-2.314,1.611c-1.102,0.553-1.474,0.615-2.003,1.649c-0.455,0.89-0.768,1.827-1.232,2.71
			c-0.886,1.686-1.76,3.434-2.523,5.159c-0.862,1.947-1.252,3.671-1.883,5.567c-1.477,4.433-4.978-5.079-5.328-6.438
			c-0.891-3.457-2.005-7.584-1.449-11.353c0.289-1.95,0.494-3.58,1.689-5.252c1.065-1.49,2.975-2.714,3.391-4.553
			c0.4-1.779-0.986-1.68-1.723-2.921c-0.779-1.312,0.421-2.213,1.047-3.327c0.436-0.776,0.471-1.192,1.145-1.776
			c0.44-0.382,0.955-0.64,1.383-1.056c0.904-0.877,2.604-2.948,2.559-4.254C183.542,142.04,181.938,140.888,183.962,140z"/>
		<path id="svg_83" fill="none" stroke="#000000" stroke-linecap="round" stroke-linejoin="round" stroke-miterlimit="10" d="
			M184.209,139.875c1.173-1.254,1.148-3.843,0.986-5.476c-0.244-2.456-1.285-2.659-2.835-4.356
			c-1.552-1.701,0.026-3.468-1.137-5.074c-1.079-1.49-3.075-1.776-3.544-3.761c-0.974-4.12-2.562-7.29,0.027-11.298
			c0.493-0.763,1.283-1.178,1.852-1.867c0.643-0.776,0.83-1.718,1.082-2.641c0.423-1.546,0.598-1.163,1.938-1.521
			c1.022-0.273,1.194-1.105,2.03-1.558c1.781-0.967,2.705,1.882,3.146,3.205c0.289,0.865,0.328,1.975,0.799,2.734
			c0.476,0.768,1.396,1.093,1.697,1.992c0.652,1.946-0.391,3.928,0.707,5.886c0.16,0.289,0.555,0.872,0.801,1.083
			c0.508,0.436,0.657,0.223,1.203,0.498c0.98,0.493,1.099,0.794,0.987,1.87c-0.11,1.059-0.397,1.508-0.277,2.518
			c0.103,0.865,0.409,2.143,0.003,2.962c-0.822,1.658-3.557,1.423-3.304,3.606c0.126,1.089,0.889,1.187,0.277,2.396
			c-0.449,0.886-1.244,1.129-1.886,1.809c-1.359,1.438-1.462,3.176-1.1,5.002c0.082,0.418,0.205,0.837,0.354,1.223
			c-0.826,0.174-1.156-0.076-1.836,0.268c-0.669,0.337-0.477,1.095-1.604,0.504h-0.369V139.875z"/>
		<path id="svg_84" fill="none" stroke="#000000" stroke-linecap="round" stroke-linejoin="round" stroke-miterlimit="10" d="
			M188.029,138.258c0.916,0.379,3.492-0.789,4.561-1.151c1.566-0.532,3.191-0.884,4.811-1.21c3.062-0.618,6.225-0.911,9.445-1.007
			c-0.345,0.434-0.199,0.975,0.153,1.352c-1.521-0.096-2.682,0.421-4.178,0.647c-1.312,0.199-2.763,0.304-4.064,0.619
			c-2.661,0.643-5.136,1.463-7.769,1.995"/>
		<path id="svg_85" fill="none" stroke="#000000" stroke-linecap="round" stroke-linejoin="round" stroke-miterlimit="10" d="
			M206.051,131.92c0.482,1.055,1.232,0.945,2.195,1.235c0.887,0.267,1.566,0.799,2.465,1.123c0.413,0.148,0.922,0.114,1.331,0.398
			c0.353,0.244,0.513,0.813,0.882,0.974c0.836,0.365,2.095-0.221,2.957,0.123c2.107,0.839,0.855,2.93,1.64,4.446
			c0.518,1.001,1.279,1.135,0.865,2.302c-0.116,0.327-0.626,0.546-0.772,0.965c-0.156,0.449,0.049,1.115-0.025,1.59
			c-0.291,1.894-0.099,3.717-0.099,5.752c0,0.881,0.138,1.931-0.123,2.738c-0.274,0.848-0.978,1.677-1.387,2.458
			c-0.845,1.616-2.003,3.131-2.776,4.788c-0.41,0.878-0.607,1.912-1.045,2.807c-0.396,0.806-1.125,1.42-1.479,2.23
			c-1.243-2.14-1.368-3.503-1.571-5.937c-0.175-2.096-2.018-2.938-2.496-4.851c-0.332-1.325,0.816-1.587,0.77-2.74
			c-0.043-1.033-1.084-1.122-1.636-1.708c-0.721-0.767-0.634-1.612-0.583-2.648c0.022-0.454-0.052-0.978,0.12-1.372
			c0.222-0.515,0.596-0.523,0.899-0.962c1.54-2.22-0.891-3.155-1.02-5.133c-0.096-1.483,1.43-2.012,1.746-3.293
			C207.363,135.365,205.947,133.701,206.051,131.92z"/>
		<path id="svg_86" fill="none" stroke="#000000" stroke-linecap="round" stroke-linejoin="round" stroke-miterlimit="10" d="
			M208.738,133.653c1.102-1.55-0.403-4.432,0.521-6.07c0.433-0.77,1.647-1.084,2.159-1.923c0.564-0.922,0.594-1.9,0.647-2.959
			c0.054-1.052-0.268-2.076-0.124-3.111c0.195-1.395,0.74-1.22,1.732-1.992c1.322-1.03,1.418-3.625,3.316-3.989
			c1.969-0.376,3.712,1.087,4.906,2.402c0.539,0.594,1.279,1.332,1.54,2.082c0.328,0.946-0.052,1.825-0.004,2.866
			c0.044,0.942,0.112,1.999,0.22,2.987c0.104,0.966,0.562,1.622,0.615,2.613c0.056,1.038-0.267,2.092-0.377,3.112
			c-0.159,1.494-0.426,1.443-1.814,1.901c-1.092,0.36-1.699,0.486-2.863,0.311c-0.866-0.13-2.098-0.706-2.965-0.604
			c-1.543,0.182-3.32,2-4.184,3.245L208.738,133.653z"/>
		<path id="svg_87" fill="none" stroke="#000000" stroke-linecap="round" stroke-linejoin="round" stroke-miterlimit="10" d="
			M216.381,84.617c0.556-0.631,0.812-1.456,0.986-2.24"/>
		<path id="svg_88" fill="none" stroke="#000000" stroke-linecap="round" stroke-linejoin="round" stroke-miterlimit="10" d="
			M181.341,199.646c1.054,0.995,2.626,3.142,3.886,2.239c1.125-0.807,3.161-3.088,2.656-4.486c-0.645-1.786-3.744-2.528-5.406-2.285
			c-1.114,0.164-1.504,0.711-1.958,1.755C179.92,198.245,180.279,198.645,181.341,199.646z"/>
		<path id="svg_89" fill="none" stroke="#000000" stroke-linecap="round" stroke-linejoin="round" stroke-miterlimit="10" d="
			M187.414,197.001c1.212,1.017,2.741,1.369,4.023,2.15c-1.193,0.479-2.604-0.64-3.777-0.035"/>
		<path id="svg_90" fill="none" stroke="#000000" stroke-linecap="round" stroke-linejoin="round" stroke-miterlimit="10" d="
			M128.617,222.889c0.1-1.455,0.809-4.005,1.756-5.2c1.814-2.287,1.215,3.188,2.709,0.125c0.479-0.981,0.625-1.02,1.819-1.275
			c0.892-0.19,1.577-0.432,2.376-0.837c1.27-0.645,3.146-2.425,4.634-2.128c-0.008,0.872-2.267,1.553-0.845,2.346"/>
		<path id="svg_91" fill="none" stroke="#000000" stroke-linecap="round" stroke-linejoin="round" stroke-miterlimit="10" d="
			M137.615,217.537c0.002-0.738-0.092-1.49,0.246-2.116"/>
		<path id="svg_92" fill="none" stroke="#000000" stroke-linecap="round" stroke-linejoin="round" stroke-miterlimit="10" d="
			M142.545,215.919c0.468-1.039-0.812-1.319-1.109-2.116"/>
		<path id="svg_93" fill="none" stroke="#000000" stroke-linecap="round" stroke-linejoin="round" stroke-miterlimit="10" d="
			M144.271,215.919c-0.152-1.53,1.394-1.732,1.091-3.216c-0.503,0.154-1.294,0.325-1.708,0.229"/>
		<path id="svg_94" fill="none" stroke="#000000" stroke-linecap="round" stroke-linejoin="round" stroke-miterlimit="10" d="
			M145.751,212.061c-1.188,1.375,1.536,2.915,0.739,4.231"/>
		<path id="svg_95" fill="none" stroke="#000000" stroke-linecap="round" stroke-linejoin="round" stroke-miterlimit="10" d="
			M145.751,212.061c0.596-0.217,1.206-0.365,1.829-0.445c-0.788,0.476-0.064,1.375,0.512,1.692c0.65,0.357,1.588-0.021,1.604,0.993"
			/>
		<path id="svg_96" fill="none" stroke="#000000" stroke-linecap="round" stroke-linejoin="round" stroke-miterlimit="10" d="
			M147.846,211.189c0.779,0,2.139-0.236,2.697,0.221c-0.811,0.389-1.678,1.811-0.602,2.393"/>
		<path id="svg_97" fill="none" stroke="#000000" stroke-linecap="round" stroke-linejoin="round" stroke-miterlimit="10" d="
			M152.777,211.936c0.211-0.709,0.698-1.686-0.139-2.112c0.472-0.454,2.605-0.152,3.451-0.109c-0.056,0.519-0.176,1.058-0.23,1.6"/>
		<path id="svg_98" fill="none" stroke="#000000" stroke-linecap="round" stroke-linejoin="round" stroke-miterlimit="10" d="
			M151.42,212.683c0.215-0.449,0.422-0.882,0.494-1.369"/>
		<path id="svg_99" fill="none" stroke="#000000" stroke-linecap="round" stroke-linejoin="round" stroke-miterlimit="10" d="
			M158.2,211.439c0.124-0.75,0.704-2.285-0.493-2.489"/>
		<path id="svg_100" fill="none" stroke="#000000" stroke-linecap="round" stroke-linejoin="round" stroke-miterlimit="10" d="
			M160.665,209.945c0.183-0.545,0.277-1.257-0.37-1.494"/>
		<path id="svg_101" fill="none" stroke="#000000" stroke-linecap="round" stroke-linejoin="round" stroke-miterlimit="10" d="
			M158.816,208.452c1.793,0.007,2.33-0.076,3.697-1.12"/>
		<path id="svg_102" fill="none" stroke="#000000" stroke-linecap="round" stroke-linejoin="round" stroke-miterlimit="10" d="
			M161.898,207.954c0.022,0.38,0.063,0.748,0.123,1.12"/>
		<path id="svg_103" fill="none" stroke="#000000" stroke-linecap="round" stroke-linejoin="round" stroke-miterlimit="10" d="
			M164.732,208.576c0.52-2.015,0.441-2.97,2.252-4.325c1.352-1.011,2.583-1.82,4.032-2.613c1.464-0.803,7.841-5.402,9.247-3.889"/>
		<path id="svg_104" fill="none" stroke="#000000" stroke-linecap="round" stroke-linejoin="round" stroke-miterlimit="10" d="
			M128.74,221.769c0.049,1.729-0.588,3.784-1.01,5.476c-0.494,1.98-0.772,3.838-1.078,5.85c-0.613,4.016-1.292,7.986-0.869,12.197
			c0.271,2.697-0.264,5.289-0.124,7.965c0.144,2.76-0.078,5.586-0.006,8.295c1.454-1.608,3.403-2.29,5.21-3.407
			c1.798-1.11,3.607-1.972,5.52-2.862c3.914-1.826,7.97-3.293,11.834-5.041c3.475-1.57,6.976-2.803,10.478-4.049
			c1.823-0.647,4.077-0.354,5.769-1.307c1.295-0.73,2.537-2.601,4.193-2.312c0.387,1.334,1.641,0.694,2.61,0.601"/>
		<path id="svg_105" fill="none" stroke="#000000" stroke-linecap="round" stroke-linejoin="round" stroke-miterlimit="10" d="
			M170.896,245.789c-0.725,0.496-1.209-0.411-1.818-0.729c-0.41,1.037-1.394,0.693-2.133,1.095c-1.062,0.575-1.18,0.933-2.555,1.03
			c-1.612,0.113-3.64,0.88-5.112,1.559c-1.833,0.846-3.327,1.841-5.27,2.428c-1.894,0.571-3.78,1.266-5.55,2.115
			c-6.873,3.301-15.362,6.068-20.557,12.075c-0.773,0.894-1.41,1.574-1.627,2.704c-0.24,1.243-0.057,2.415,0.146,3.596
			c1.401-1.336,3.778-1.704,5.523-2.258c1.947-0.617,3.821-1.04,5.793-1.488c3.892-0.888,7.536-2.254,11.587-2.463
			c1.854-0.097,3.597-0.147,5.423-0.249c0.886-0.048,1.686,0.062,2.459-0.276c0.754-0.33,1.246-0.992,2.102-1.092"/>
		<path id="svg_106" fill="none" stroke="#000000" stroke-linecap="round" stroke-linejoin="round" stroke-miterlimit="10" d="
			M184.825,230.355c-2.192-0.302-8.128,3.734-9.368,4.107c-0.593,0.178-4.311,4.143-4.438,6.348
			c-0.114,1.984-0.031,3.993-0.123,5.974c-0.092,1.95-0.416,4.081-0.371,6.099c0.031,1.318,1.906,3.382,3.322,3.619
			c1.558,0.26,3.734-1.54,4.938-2.344c1.654-1.104,3.162-2.264,4.69-3.613c2.809-2.48,6.665-4.193,9.882-6.09
			c0.789-0.467,1.465-1.384,2.188-1.752c0.846-0.432,2.097-0.109,2.992-0.617c1.516-0.863,2.445-2.557,3.518-3.917
			c1.271-1.614,1.812-3.084,3.506-4.298c1.723-1.232,2.437-2.938,0.736-4.544c-0.773-0.731-1.619-0.74-2.52-1.056
			c-0.893-0.313-3.85-1.416-4.678-2.116c-0.633-0.534-5.41-1.033-7.372-1.029c-0.944,0-1.94-0.048-2.958,0.003
			c-1.184,0.06-5.516-0.739-6.811-0.279c-0.766,0.271-2.997,0.511-3.457,1.238c-1.427,2.255,5.394,3.488,6.322,3.895
			L184.825,230.355L184.825,230.355z"/>
		<path id="svg_107" fill="none" stroke="#000000" stroke-linecap="round" stroke-linejoin="round" stroke-miterlimit="10" d="
			M200.727,240.063c0.648,0.188,1.789,0.415,2.711,0.374c0.917-0.043,12.271,0.865,13.714,2.704c0.528,0.673,9.03,3.757,9.803,4.043
			c0.573,0.213,3.726-0.401,4.348,0.838c0.306,0.608-0.007,2.688-0.007,3.118"/>
		<path id="svg_108" fill="none" stroke="#000000" stroke-linecap="round" stroke-linejoin="round" stroke-miterlimit="10" d="
			M197.645,242.304c0.537-0.001,0.668,0.413,1.104,0.504c0.484,0.102,1.109-0.007,1.608-0.006c1.026,0.003,1.922-0.126,2.958-0.124
			c2.023,0.002,4.055-0.213,6.012,0.152c1.605,0.297,3.054,1.581,4.586,2.243c1.746,0.755,3.307,1.728,5.15,2.364
			c1.416,0.488,2.82,1.172,4.215,1.594c1.047,0.316,4.086,0.666,3.826,1.859"/>
		<path id="svg_109" fill="none" stroke="#000000" stroke-linecap="round" stroke-linejoin="round" stroke-miterlimit="10" d="
			M232.158,251.016c0.84-0.672,1.146-3.955,2.589-3.608c0.88,0.21,0.601,3.863-0.595,3.63c-0.214,0.533-0.143,1.128-0.145,1.721"/>
		<path id="svg_110" fill="none" stroke="#000000" stroke-linecap="round" stroke-linejoin="round" stroke-miterlimit="10" d="
			M234.747,250.767c0.876,0.153,4.251-0.126,3.79,0.965c-0.191,0.452-1.227,0.853-1.599,1.269c-0.489,0.547-0.818,1.19-0.958,1.873"
			/>
		<path id="svg_111" fill="none" stroke="#000000" stroke-linecap="round" stroke-linejoin="round" stroke-miterlimit="10" d="
			M203.068,242.553c0.283,1.121,0.246,2.398,0.246,3.609"/>
		<path id="svg_112" fill="none" stroke="#000000" stroke-linecap="round" stroke-linejoin="round" stroke-miterlimit="10" d="
			M205.04,242.678c0,0.994,0,1.99,0,2.986"/>
		<path id="svg_113" fill="none" stroke="#000000" stroke-linecap="round" stroke-linejoin="round" stroke-miterlimit="10" d="
			M207.629,243.051c0.061,0.114-0.416,1.398-0.723,1.387c-0.024,0.375-0.014,0.765,0.105,1.103"/>
		<path id="svg_114" fill="none" stroke="#000000" stroke-linecap="round" stroke-linejoin="round" stroke-miterlimit="10" d="
			M208.122,246.189c1.511,1.125,2.413,2.775,2.862,4.549c0.417,1.648,0.995,4.316,0.188,5.975c-1.585,3.256-6.604,4.225-9.96,3.52
			c-3.274-0.689-3.746-6.051-2.902-8.629C199.395,248.289,204.576,243.549,208.122,246.189z"/>
		<path id="svg_115" fill="none" stroke="#000000" stroke-linecap="round" stroke-linejoin="round" stroke-miterlimit="10" d="
			M227.234,251.023c1.719-0.536,3.934-0.424,5.42,0.709c2.897,2.208,4.34,5.256,5.174,8.617c0.46,1.849,0.201,3.914-0.708,5.632
			c-0.669,1.265-2.121,3.306-3.39,4.045c-1.465,0.854-3.879,0.371-5.488,0.128c-2.25-0.341-3.006-1.057-4.218-3.028
			c-1.282-2.085-2.327-4.13-2.719-6.521C220.59,256.242,223.213,252.276,227.234,251.023z"/>
		<path id="svg_116" fill="none" stroke="#000000" stroke-linecap="round" stroke-linejoin="round" stroke-miterlimit="10" d="
			M182.453,269.217c0.908,1.867,2.448,2.942,4.591,2.182c3.011-1.068,2.449-5.176,0.521-7.017c-1.281-1.224-3.002-1.328-4.488-0.307
			C181.377,265.242,181.613,267.49,182.453,269.217z"/>
		<path id="svg_117" fill="none" stroke="#000000" stroke-linecap="round" stroke-linejoin="round" stroke-miterlimit="10" d="
			M183.962,263.088c0.185-0.639,1.017-3.633,2.194-3.462c1.612,0.233,1.229,3.505,1.134,4.458"/>
		<path id="svg_118" fill="none" stroke="#000000" stroke-linecap="round" stroke-linejoin="round" stroke-miterlimit="10" d="
			M187.537,262.715c2.023-1.012,1.141,2.569,1.232,3.361"/>
		<path id="svg_119" fill="none" stroke="#000000" stroke-linecap="round" stroke-linejoin="round" stroke-miterlimit="10" d="
			M188.893,266.076c0.307,0.428,1.158,0.803,1.326,1.275c0.273,0.77-0.414,1.203-0.709,1.959"/>
		<path id="svg_120" fill="none" stroke="#000000" stroke-linecap="round" stroke-linejoin="round" stroke-miterlimit="10" d="
			M183.962,263.213c-0.792-1.022-2.688-2.971-4.062-1.839c-1.402,1.155,1.37,2.728,1.966,3.83"/>
		<path id="svg_121" fill="none" stroke="#000000" stroke-linecap="round" stroke-linejoin="round" stroke-miterlimit="10" d="
			M159.887,260.604c0.174,0.348,1.056,1.511,1.398,1.744c0.646,0.442,0.4,0.451,1.227,0.115c1.217-0.495,0.807-1.642,1.235-2.941
			c0.135,0.4,0.827,2.27,1.134,2.427c0.904,0.463,1.411-0.901,1.572-1.368c0.139,0.555,0.878,3,0.475,3.353
			c-0.267,0.233-1.417-0.166-1.824-0.1c-0.953,0.155-0.64,0.476-1.323,0.905c-0.497,0.313-1.027,0.119-1.512,0.34
			c-0.538,0.244-0.493,0.576-0.953,0.902c-0.817,0.575-2.19,0.982-3.104,1.063c1.209-0.107,0.709-2.659,0.906-3.151
			c0.196-0.491,0.626-0.645,0.746-1.359C159.969,261.9,159.715,261.238,159.887,260.604z"/>
		<path id="svg_122" fill="none" stroke="#000000" stroke-linecap="round" stroke-linejoin="round" stroke-miterlimit="10" d="
			M166.829,262.092c4.075-0.002,8.188-0.124,12.326-0.124"/>
		<path id="svg_123" fill="none" stroke="#000000" stroke-linecap="round" stroke-linejoin="round" stroke-miterlimit="10" d="
			M181.127,264.706c-1.334-1.153-5.945-0.249-7.889-0.249c-1.431,0-2.959-0.002-4.314,0.377c-0.346,0.096-0.617-0.014-0.967,0.146
			c-0.105,0.046-0.059,0.554-0.386,0.696c-0.57,0.249-1.46-0.009-2.077,0.169c-0.164,0.854-1.969,0.27-2.732,0.355
			c-1.017,0.111-1.682,0.609-2.685,0.774c-1.888,0.31-3.876,0.505-5.821,0.718c-0.885,0.098-9.369,1.566-11.341,1.986
			c-0.894,0.191-8.718,3.719-10.477,4.266c-1.81,0.561-3.696,1.225-5.423,1.963c-1.066,0.457-1.425,0.582-1.604,1.742
			c-0.157,1.027,0.172,2.12-0.123,3.115c-0.224,0.754-0.825,7.747-0.494,9.455c0.728,3.753,0.126,21.901,0.126,21.901
			c0.5,1.646,0.856,15.46,0.832,17.179c-0.026,1.885-0.085,3.65,0.367,5.476c0.812,3.282,4.021,6.617,5.29,9.683
			c0.843-2.171,1.319-3.621,2.386-5.672c0.961-1.848,8.534-12.955,9.33-14.742c1.281-2.874,8.459-8.296,9.502-9.088
			c0.863-0.654,2.146-1.651,2.489-2.708"/>
		<path id="svg_124" fill="none" stroke="#000000" stroke-linecap="round" stroke-linejoin="round" stroke-miterlimit="10" d="
			M150.404,219.305c4.532,6.684-1.078,15.608-7.363,18.92c-3.305,1.742-7.707,0.832-10.144-2.115
			c-2.106-2.547-3.052-7.675-2.157-10.952C132.852,217.424,145.009,211.349,150.404,219.305z"/>
		<path id="svg_125" fill="none" stroke="#000000" stroke-linecap="round" stroke-linejoin="round" stroke-miterlimit="10" d="
			M147.23,216.542c1.349-1.016,2.383-2.41,3.941-3.33c1.727-1.02,3.676-1.795,5.673-1.773c3.377,0.037,7.384,4.107,8.019,7.342
			c0.604,3.082-0.965,9.126-3.581,11.204c-2.845,2.26-8.09,2.702-11.094,0.993"/>
		<path id="svg_126" fill="none" stroke="#000000" stroke-linecap="round" stroke-linejoin="round" stroke-miterlimit="10" d="
			M159.186,211.937c2.513-3.298,6.371-4.386,10.23-2.862c3.799,1.498,5.789,4.884,5.794,8.961c0.007,5.377-6.03,10.906-11.587,8.835
			"/>
		<path id="svg_127" fill="none" stroke="#000000" stroke-linecap="round" stroke-linejoin="round" stroke-miterlimit="10" d="
			M93.024,243.459c1.346-1.719,2.942-3.458,4.684-4.732c3.527-2.58,7.086-1.324,10.351,1.055c3.153,2.298,5.599,4.377,5.643,8.497
			c0.038,3.618-2.503,6.651-4.897,9.234c-2.441,2.632-7.431,3.608-10.881,2.811c-4.137-0.956-5.429-5.087-5.793-8.782
			C91.886,249.057,91.388,245.549,93.024,243.459z"/>
		<path id="svg_128" fill="none" stroke="#000000" stroke-linecap="round" stroke-linejoin="round" stroke-miterlimit="10" d="
			M71.423,245.665c1.115-1.528,1.888-2.776,3.418-4.007c1.416-1.139,3.204-2.314,4.868-3.06c4.029-1.806,7.4,0.097,10.204,3.056
			c0.918,0.971,1.511,2.301,2.342,3.14"/>
		<path id="svg_129" fill="none" stroke="#000000" stroke-linecap="round" stroke-linejoin="round" stroke-miterlimit="10" d="
			M71.916,244.918c-2.427,2.279-0.701,8.566,0.335,11.105c1.762,4.315,5.522,5.572,9.896,5.572c2.144,0,4.399-0.202,6.163-1.359
			c1.418-0.93,4.253-3.127,4.438-4.863"/>
		<path id="svg_130" fill="none" stroke="#000000" stroke-linecap="round" stroke-linejoin="round" stroke-miterlimit="10" d="
			M76.846,240.438c-1.203-0.979-2.384-3.845-2.567-5.313c0.674,0.952,3.319,4.431,4.172,1.829c0.585-1.782-0.713-4.023,1.609-4.997
			c0.914,1.208-0.387,1.8-0.409,2.978c-0.008,0.427,0.01,1.146,0.776,0.906c0.757-0.238,0.217-1.004,0.392-1.376
			c0.488-1.044,1.65-1.229,1.848,0.124c0.158,1.082-0.27,2.34-0.027,3.486"/>
		<path id="svg_131" fill="none" stroke="#000000" stroke-linecap="round" stroke-linejoin="round" stroke-miterlimit="10" d="
			M82.886,236.207c-0.14,0.002,0.539,0.151,0.721,0.142c0.108,0.237-0.05,0.241-0.104,0.355"/>
		<path id="svg_132" fill="none" stroke="#000000" stroke-linecap="round" stroke-linejoin="round" stroke-miterlimit="10" d="
			M83.749,237.949c0-2.357-0.401-4.464,0.268-6.703c1.555-0.309,1.454,3.087,1.938,3.945c-0.041,0.059-0.271,0.02-0.343,0.04
			c0.037,0.112,0.119,0.331,0.09,0.457c-0.331-0.103-0.669-0.157-1.053-0.229c0.417,0.02,0.826,0.148,1.15,0.363
			c-0.148,0.678,0.211,1.656-0.799,1.521c-0.075,0.348-0.03,0.75,0.104,0.977"/>
		<path id="svg_133" fill="none" stroke="#000000" stroke-linecap="round" stroke-linejoin="round" stroke-miterlimit="10" d="
			M85.845,235.335c1.092,0,1.894,0.017,2.814-0.52c-0.022-0.544,0.426-3.101,1.383-2.722c0.654,0.262,0.08,2.572,0.013,3.097
			c1.544,0.078,3.328-0.222,4.788,0.144"/>
		<path id="svg_134" fill="none" stroke="#000000" stroke-linecap="round" stroke-linejoin="round" stroke-miterlimit="10" d="
			M85.598,237.575c0.339-0.185,0.76-0.184,1.094-0.006c-0.08,0.285-0.103,0.716-0.23,1.001"/>
		<path id="svg_135" fill="none" stroke="#000000" stroke-linecap="round" stroke-linejoin="round" stroke-miterlimit="10" d="
			M87.324,239.317c0.591-1.056,2.047-1.503,2.364-2.69c1.67,0.342,3.393,0.021,5.032,0.077"/>
		<path id="svg_136" fill="none" stroke="#000000" stroke-linecap="round" stroke-linejoin="round" stroke-miterlimit="10" d="
			M94.103,236.828c1.537,0.014,5.019-1.295,4.191,1.369"/>
		<path id="svg_137" fill="none" stroke="#000000" stroke-linecap="round" stroke-linejoin="round" stroke-miterlimit="10" d="
			M95.212,236.704c0.054-0.649-0.076-1.214-0.324-1.751c1.362,0.14,1.269-2.607,1.332-3.709c0.102,0.085,0.47,0.211,0.598,0.344
			c0.305-0.809-0.292-1.786,0.275-2.553c0.351,0.281,0.575,0.385,1.062,0.345c-0.346,1.426,0.162,2.831,0.244,4.192
			c-0.426-0.148-0.664-0.035-0.986,0.143c1.7,0.688,0.578,0.951,0.628,2.32c0.178-0.156,0.075-0.258,0.129-0.453"/>
		<path id="svg_138" fill="none" stroke="#000000" stroke-linecap="round" stroke-linejoin="round" stroke-miterlimit="10" d="
			M98.294,235.335c0.32-0.352,0.803-1.089,0.956-1.53c0.237-0.683,0.233-0.562-0.077-1.435c0.851,0.034,0.865-2.664,0.988-3.491
			c1.726,0.047,0.755,2.599,1.079,3.595c-0.447,0.171-0.9,0.26-1.343,0.495"/>
		<path id="svg_139" fill="none" stroke="#000000" stroke-linecap="round" stroke-linejoin="round" stroke-miterlimit="10" d="
			M100.389,232.846c0.035,1.906,1.467,2.443,1.479,4.231"/>
		<path id="svg_140" fill="none" stroke="#000000" stroke-linecap="round" stroke-linejoin="round" stroke-miterlimit="10" d="
			M102.238,236.704c-0.018-0.913-0.152-1.788-0.104-2.719c1.684,0.363,0.543-0.878,0.74-1.743c0.921-0.22,2.016,0.773,1.226,1.572
			c0.47-0.011,0.843-0.092,1.323-0.077c0.313,0.687,0.282,1.44,0.25,2.206c-0.272-0.226-0.675-0.225-0.949-0.342
			c-0.032,0.648-0.019,1.316-0.019,1.973"/>
		<path id="svg_141" fill="none" stroke="#000000" stroke-linecap="round" stroke-linejoin="round" stroke-miterlimit="10" d="
			M103.225,237.077c0-0.788,0-1.575,0-2.364"/>
		<path id="svg_142" fill="none" stroke="#000000" stroke-linecap="round" stroke-linejoin="round" stroke-miterlimit="10" d="
			M105.69,235.086c1.184,0.455,2.996,0.186,4.298,0.271c-0.172,0.424-0.694,0.566-1.083,0.697c0.803-0.033,1.515,0.38,0.993,1.156
			c0.447,0.16,1.611-0.127,1.964,0.203c0.331,0.311,0.083,1.533,0.226,2.008c-0.201-0.08-0.627-0.014-0.832-0.086
			c0.057,0.33-0.095,0.753-0.038,1.082c-0.545,0.062-1.009-0.145-1.436-0.467c0.042,0.314-0.033,0.551,0.083,0.843
			c-0.899-0.961-1.325-0.631-1.341-2.225"/>
		<path id="svg_143" fill="none" stroke="#000000" stroke-linecap="round" stroke-linejoin="round" stroke-miterlimit="10" d="
			M106.923,238.944c0.144-0.632-0.12-1.046-0.74-0.747"/>
		<path id="svg_144" fill="none" stroke="#000000" stroke-linecap="round" stroke-linejoin="round" stroke-miterlimit="10" d="
			M112.223,237.451c0.703,0.065,1.171-0.197,1.825,0.031c0.456,0.16,0.93,0.677,1.476,0.867c1.027,0.356,2.175,0.833,3.211,1.2
			c0.451-1.854,1.573-10.581-1.089-10.688"/>
		<path id="svg_145" fill="none" stroke="#000000" stroke-linecap="round" stroke-linejoin="round" stroke-miterlimit="10" d="
			M111.977,243.051c0.713-0.43,1.952-0.789,2.807-0.469c0.495,0.184,0.81,0.727,1.26,1.005c0.338,0.208,1.124,0.263,1.362,0.454
			c1.485,1.197,0.872,3.988,0.734,5.606c-0.363,4.272-1.017,8.337-1.479,12.577c-0.146,1.342-0.123,2.723-0.123,4.1"/>
		<path id="svg_146" fill="none" stroke="#000000" stroke-linecap="round" stroke-linejoin="round" stroke-miterlimit="10" d="
			M87.94,217.911c1.296-1.265,2.619-2.563,4.314-3.485c0.739-0.402,1.519-1.122,2.342-1.245c1.1-0.165,2.915-0.636,3.944-0.871
			c4.092-0.934,6.524,1.446,9.614,3.982c1.319,1.083,2.219,2.329,3.328,3.609c1.201,1.385,1.723,2.05,2.925,3.392
			c1.167,1.302,2.176,2.802,2.837,4.446c0.379,0.94,0.063,1.806,0.497,2.52c0.521,0.858,1.269,0.981,1.383,2.213
			c0.066,0.72-0.102,1.692-0.141,2.471c-1.098,0.202-3.663-1.751-4.542-2.471c-0.594-0.487-1.368-1.003-1.821-1.646
			c-0.544-0.771-0.655-1.674-1.51-2.209c-0.719-0.449-1.636-0.463-2.369-1.093c-0.543-0.468-0.9-1.343-1.538-1.683
			c-1.16-0.621-4.066,0.603-4.718,0.033c-0.645-0.562-0.385-0.814-1.355-0.995c-0.67-0.125-3.81,0.465-4.808,0.25
			c-1.497-0.325-1.188-0.472-1.63-1.839c-0.119-0.368-0.784-1.943-1.304-1.745c-0.896,0.342,0.684,2.048,0.746,2.56
			c0.357,2.921-2.421,0.295-3.208-0.504c-0.833-0.844-3.601-2.376-3.46-3.556c1.381-0.17,2.93,0.305,4.419,0.23
			c0.813-0.041,4.06-0.498,2.081-1.739c1.358-1.14,0.311-2.714-1.217-2.741c-1.336-0.023-2.696,0.75-2.73,2.221
			c-0.641-0.109-1.32-0.116-1.954-0.23L87.94,217.911L87.94,217.911z"/>
		<path id="svg_147" fill="none" stroke="#000000" stroke-linecap="round" stroke-linejoin="round" stroke-miterlimit="10" d="
			M93.241,218.284c-1.191-0.008-2.729-0.024-3.822-0.374"/>
		<path id="svg_148" fill="none" stroke="#000000" stroke-linecap="round" stroke-linejoin="round" stroke-miterlimit="10" d="
			M61.089,228.242c-0.405,0.836-0.106,2.195-0.117,3.111c-0.022,1.824-1.485,3.325-2.739,4.701c-2.499,2.74-5.905,5.879-5.917,9.859
			c-0.001,0.457,0.297,1.002,0.099,1.469c-0.169,0.401-0.781,0.353-0.971,0.769c-0.293,0.644-0.048,2.599,0.154,3.218
			c0.295,0.171,0.796,0.505,1.115,0.49c0.334-0.014,0.81-0.659,1.078-0.607c0.675,0.124,1.305,1.683,1.514,2.252
			c0.702,1.914,0.89,3.887,1.329,5.854c0.501,2.244,1.251,3.515,3.201,4.729c1.812,1.129,2.864,2.496,4.037,4.236
			c1.03,1.525,2.46,2.675,4.098,3.384c0.68,0.294,2.203,0.979,2.965,0.601c0.769-0.381,0.555-1.84,0.514-2.62
			c-0.106-2.039-0.278-4.165-0.273-6.222c0.002-1.068-0.085-2.061-0.124-3.112c-0.043-1.164-0.37-1.677-0.647-2.735
			c-0.261-0.997,0.115-2.109-0.09-3.117c-0.172-0.847-0.629-1.529-0.77-2.459c-0.312-2.051,0.17-3.852,0.647-5.755
			c0.237-0.944,0.183-1.965,0.706-2.859c0.51-0.872,1.121-1.325,1.359-2.364c0.37-1.613,0.917-4.379-0.002-5.816
			c-2.085-3.255-3.051-7.062-4.676-10.591C65.932,224.452,61.835,226.703,61.089,228.242z"/>
		<path id="svg_149" fill="none" stroke="#000000" stroke-linecap="round" stroke-linejoin="round" stroke-miterlimit="10" d="
			M67.108,224.507c3.054-2.231,7.01-3.068,10.479-4.111c1.645-0.495,3.569-0.416,5.147-1.269c1.82-0.984,3.042-1.216,5.205-1.216"/>
		<path id="svg_150" fill="none" stroke="#000000" stroke-linecap="round" stroke-linejoin="round" stroke-miterlimit="10" d="
			M68.095,226.125c3.098-2.067,6.226-2.651,9.868-3.242c1.765-0.286,6.166-2.49,7.019-2.614c0.823-0.119,1.697,0.127,2.465-0.118"/>
		<path id="svg_151" fill="none" stroke="#000000" stroke-linecap="round" stroke-linejoin="round" stroke-miterlimit="10" d="
			M62.671,226.623c-1.208,0.807-2.728,1.416-3.976,2.336c-1.16,0.856-2.222,1.903-3.332,2.859c-2.075,1.789-4.338,2.922-5.637,5.384
			"/>
		<path id="svg_152" fill="none" stroke="#000000" stroke-linecap="round" stroke-linejoin="round" stroke-miterlimit="10" d="
			M50.961,238.322c1.46-1.764,2.915-3.426,4.678-5.006c1.614-1.447,3.43-4.068,5.554-4.578"/>
		<path id="svg_153" fill="none" stroke="#000000" stroke-linecap="round" stroke-linejoin="round" stroke-miterlimit="10" d="
			M49.358,237.451c0.617-0.018,1.185-0.051,1.707,0.27c0.699,2.048-0.222,5.164-0.721,7.072c-0.147,0.562-0.074,0.951-0.395,1.459
			c-0.411,0.652-0.889,0.752-1.084,1.528c-0.21,0.836-0.116,3.431,0.965,3.259c0.427,1.068,0.201,2.903,0.144,4.085
			c-0.069,1.444-0.214,2.797-0.219,4.203c-0.007,2.462-0.941,5.576-0.289,8.218c-0.363,0.129-0.421,0.412-0.675,0.616
			c0.472,0.63,1.217,1.297,1.433,2.021c0.279,0.938-0.228,2.038-0.105,2.966c0.966,0.451,0.768,1.286,0.725,2.137
			c-0.052,1.021,0,2.041,0.116,3.108c0.226,2.058,1.022,3.866,1.941,5.726c0.624,1.26,2.364,3.438,2.379,4.85
			c0.026,2.455-2.963-0.213-3.862-0.834c-1.611-1.112-2.525-2.083-4.527-2.146c-1.289-0.039-2.883-2.816-3.298-3.643
			c-0.766-1.524-1.891-3.066-2.615-4.823c-0.362-0.876-0.731-1.681-1.603-2.144c-0.579-0.307-0.899-0.051-1.232-0.592
			c-0.271-0.439-0.098-1.119-0.127-1.617c-0.241-4.044,0.588-7.99,1.73-11.82c0.575-1.93,1.517-3.406,2.492-5.203
			c0.996-1.83,1.266-3.326,1.448-5.379c0.198-2.227-0.409-5.989,0.524-7.934c0.779-1.625,5.645-3.869,4.899-5.632L49.358,237.451z"
			/>
		<path id="svg_154" fill="none" stroke="#000000" stroke-linecap="round" stroke-linejoin="round" stroke-miterlimit="10" d="
			M116.538,265.204c0.819,1.932,0.896,13.259,0.597,15.663c-0.561,0.091-1.541,0.062-2.077-0.105
			c-0.879-0.273-4.241-1.402-5.562-2.193c0.238,0.43,0.366,0.839,0.386,1.322"/>
		<path id="svg_155" fill="none" stroke="#000000" stroke-linecap="round" stroke-linejoin="round" stroke-miterlimit="10" d="
			M109.634,278.521c-1.251,0.25-1.292,2.395-1.338,3.59c1.089-0.461,3.685,1.219,4.786,1.977c1.483,1.023,3.909,2.413,3.489,4.27
			c-0.094,0.415-1.341,6.27-1.516,6.717c-0.174,0.443-0.556,3.375-0.614,4.355c-0.186,3.112,0.43,12.582,0.737,14.067
			c0.141,0.681,0.902,4.334-0.983,3.232"/>
		<path id="svg_156" fill="none" stroke="#000000" stroke-linecap="round" stroke-linejoin="round" stroke-miterlimit="10" d="
			M84.988,281.879c3.508-1.576,7.497-0.709,10.833,0.908c1.548,0.75,3.163,1.453,4.419,2.738c1.343,1.371,1.643,3.609,1.751,5.441
			c0.23,3.912-0.843,7.776-4.101,10.174c-2.819,2.074-6.636,4.244-10.204,2.895c-3.291-1.246-6.735-3.235-7.638-6.846
			c-0.726-2.9-2.394-5.895-1.326-8.846C79.771,285.444,82.229,283.118,84.988,281.879z"/>
		<path id="svg_157" fill="none" stroke="#000000" stroke-linecap="round" stroke-linejoin="round" stroke-miterlimit="10" d="
			M71.423,284.62c-0.461-0.976,1.613-3.065,2.311-3.765c1.27-1.268,3.104-1.977,4.715-2.424c3.438-0.955,5.906,0.785,8.629,2.703"/>
		<path id="svg_158" fill="none" stroke="#000000" stroke-linecap="round" stroke-linejoin="round" stroke-miterlimit="10" d="
			M74.504,280.514c0.68-1.115-1.417-3.092-2.049-3.994c1.925-0.172,2.62,1.385,3.405,2.748"/>
		<path id="svg_159" fill="none" stroke="#000000" stroke-linecap="round" stroke-linejoin="round" stroke-miterlimit="10" d="
			M77.092,278.646c0-2.059-0.172-4.02,0.021-6.062c1.126,1.326,2.086,2.633,2.465,4.297c1.438,0.032,2.347-1.933,2.081-3.22
			c-0.233-1.129-1.734-2.74-1.335-3.948c0.957-2.9,4.447,4.116,4.903,4.714c0.358-0.42,0.552-3.034,1.731-2.758
			c0.733,0.17,0.924,2.982,0.999,3.598c0.753,0.025,1.043-1.023,1.466-1.555c-0.011,0.737,0.179,1.738-0.003,2.447
			c-0.179,0.699-0.829,1.209-1.116,1.86c-0.088,0.2-0.335,0.706-0.342,0.905c-0.008,0.284,0.511,0.481,0.477,0.713
			c-0.078,0.535-0.831,1.243-1.118,1.746"/>
		<path id="svg_160" fill="none" stroke="#000000" stroke-linecap="round" stroke-linejoin="round" stroke-miterlimit="10" d="
			M88.433,279.393c0.37,0,0.74,0,1.109,0"/>
		<path id="svg_161" fill="none" stroke="#000000" stroke-linecap="round" stroke-linejoin="round" stroke-miterlimit="10" d="
			M89.542,280.762c0.014-2.068,1.956-4.021,3.578-5.214c0.417,0.909-0.605,1.694-0.896,2.472c-0.363,0.972-0.216,2.074-0.586,2.992"
			/>
		<path id="svg_162" fill="none" stroke="#000000" stroke-linecap="round" stroke-linejoin="round" stroke-miterlimit="10" d="
			M92.377,281.135c-0.598-0.74,2.082-2.57,2.937-2.846c-0.071,0.951,0.37,1.295,0.634,2.096c0.268,0.812,0.071,1.35-0.244,2.244"/>
		<path id="svg_163" fill="none" stroke="#000000" stroke-linecap="round" stroke-linejoin="round" stroke-miterlimit="10" d="
			M95.952,281.26c0.421-1.117,1.625-0.946,2.441-1.527c0.821-0.586,0.93-1.566,1.538-2.172c1.108-1.105,1.101,0.062,1.294,1.113
			c0.201,1.09,0.644,2.152,0.521,3.332"/>
		<path id="svg_164" fill="none" stroke="#000000" stroke-linecap="round" stroke-linejoin="round" stroke-miterlimit="10" d="
			M98.294,283.748c0.951-1.121,1.11-2.662,0.494-3.857"/>
		<path id="svg_165" fill="none" stroke="#000000" stroke-linecap="round" stroke-linejoin="round" stroke-miterlimit="10" d="
			M97.185,277.525c0.128-1.17,2.615-0.673,3.328-0.249"/>
		<path id="svg_166" fill="none" stroke="#000000" stroke-linecap="round" stroke-linejoin="round" stroke-miterlimit="10" d="
			M101.622,280.14c0.78-1.003,2.134-3.399,3.307-3.843c0.082,1.003-0.38,1.866-0.499,2.847c-0.133,1.097,0.146,2.085,0.151,3.236"/>
		<path id="svg_167" fill="none" stroke="#000000" stroke-linecap="round" stroke-linejoin="round" stroke-miterlimit="10" d="
			M105.197,278.148c0.884-0.305,1.769-0.584,2.47-1.201c-0.197,0.872-0.755,1.632-0.745,2.569"/>
		<path id="svg_168" fill="none" stroke="#000000" stroke-linecap="round" stroke-linejoin="round" stroke-miterlimit="10" d="
			M108.155,282.629c-1.187,0.773-2.956,0.254-2.722-1.5c0.189-1.416,1.786-1.914,2.968-1.985"/>
		<path id="svg_169" fill="none" stroke="#000000" stroke-linecap="round" stroke-linejoin="round" stroke-miterlimit="10" d="
			M98.294,284.122c1.129-2.052,2.541-1.866,4.808-1.866c2.11,0,3.36,0.356,5.05,1.648c1.279,0.979,2.7,2.148,3.485,3.547
			c0.857,1.528,0.746,3.733,0.832,5.507c0.19,3.894-0.833,7.185-3.575,9.954c-2.548,2.573-7.952,2.742-10.724,0.476
			c-0.496-0.406-1.188-1.115-1.356-1.718"/>
		<path id="svg_170" fill="none" stroke="#000000" stroke-linecap="round" stroke-linejoin="round" stroke-miterlimit="10" d="
			M71.916,297.189c1.62,0.861,2.604,2.641,4.215,3.579c2.122,1.235,4.425,0.571,6.755,0.653"/>
		<path id="svg_171" fill="none" stroke="#000000" stroke-linecap="round" stroke-linejoin="round" stroke-miterlimit="10" d="
			M65.013,282.006c0.942-1.042,2.744-0.453,3.609,0.34c1.059,0.971,1.824,1.527,3.17,2.148c2.821,1.305,3.912,3.986,6.163,5.975"/>
		<path id="svg_172" fill="none" stroke="#000000" stroke-linecap="round" stroke-linejoin="round" stroke-miterlimit="10" d="
			M65.383,281.757c-0.68,0.522-1.675,0.41-2.373,0.965c-0.618,0.491-1.048,1.483-1.359,2.14c-0.803,1.693-1.908,3.51-0.801,5.227
			c0.473,0.734,1.848,1.385,1.204,2.254c-0.904,1.221-1.665-0.584-2.465-0.637c-1.785-0.118-1.771,3.684-1.575,4.834
			c0.382,2.243,2.684,3.942,4.41,5.256c0.942,0.717,1.833,1.196,2.961,1.365c0.505,0.078,1.073,0.251,1.575-0.021
			c0.502-0.271,0.345-0.835,0.983-0.953c0.589,1.729,4.972,7.614,6.942,5.46c-1.582-1.132-2.884-3.711-2.97-5.601
			c-0.102-2.25-0.519-5.224,0.392-7.197c1.375-0.027,3.384,1.004,4.786,1.443c1.519,0.477,2.127,1.807,3.574,2.393"/>
		<path id="svg_173" fill="none" stroke="#000000" stroke-linecap="round" stroke-linejoin="round" stroke-miterlimit="10" d="
			M60.938,309.753c-1.293,0.387-3.775,1.703-4.061,2.869c-0.321,1.309,1.229,4.174,2.065,5.135c1.532,1.758,3.459,0.544,5.457,0.964
			c1.415,0.297,2.756,1.028,4.034,1.605c0.535-1.052,0.376-2.187,0.395-3.354c0.012-0.729,0.05-0.884-0.244-1.587
			c-0.188-0.451-0.524-0.715-0.606-1.27c-0.225-1.522,0.789-1.235,1.199-2.268c0.255-0.64,0.295-1.909,0.048-2.555
			c-0.514-1.337-0.929-0.604-2.149-0.506c-0.89,0.073-1.677-0.384-2.554-0.404C63.084,308.347,62.243,309.363,60.938,309.753z"/>
		<path id="svg_174" fill="none" stroke="#000000" stroke-linecap="round" stroke-linejoin="round" stroke-miterlimit="10" d="
			M40.483,313.979c-1.07,0.626-2.25,1.03-3.3,1.533c-0.636,0.305-2.335,1.231-3.202,1.248c-0.666,0.012-1.97-0.926-2.866-1.151
			c-1.163-0.292-2.407-0.962-2.819-2.218c1.472-0.141,4.582-2.399,1.957-3.135c-1.73-0.483-3.979-0.372-4.194-2.737
			c-0.059-0.643,0.116-2.26,0.462-2.764c0.502-0.732,1.399-0.84,1.974-1.724c0.396-0.608,1.154-1.404,1.239-2.084
			c0.129-1.032-0.766-1.222,0.391-2.171c1.396-1.146,3.604-1.107,5.208-1.686c1.005-0.361,1.58-0.639,2.685-0.518
			c1.223,0.135,1.109,0.131,2.126-0.474c1.566-0.929,3.604-1.341,5.393-0.804c1.283,0.385,1.006,0.806,1.569,1.893
			c0.418,0.807,1.121,1.118,1.851,1.525c0.985,0.547,2.402,1.213,2.838,2.361c0.745,1.959-1.5,2.098-2.564,2.703
			c-0.075,0.043-0.408,0.498-0.606,0.637c-0.249,0.172-0.764,0.048-1.026,0.332c-0.55,0.593-0.149,1.296-0.336,2.024
			c-0.231,0.907-0.72,0.805-1.109,1.495c-0.287,0.507-0.462,1.877,0.228,2.012c0.122,1.043-1.168,1.602-1.831,1.977
			c-0.207,0.116-0.337-0.268-0.592-0.105c-0.228,0.146-0.091,0.419-0.302,0.59c-0.386,0.312-0.447,0.778-0.946,0.969
			c0.636,0.196,3.452,0.68,3.426,1.654c-0.026,1-2.08,1.753-2.865,1.585C41.757,316.624,41.523,314.776,40.483,313.979z"/>
		<path id="svg_175" fill="none" stroke="#000000" stroke-linecap="round" stroke-linejoin="round" stroke-miterlimit="10" d="
			M72.505,312.221c-0.653,0.934-0.824,2.026-1.479,3.008c-0.594,0.89-1.096,1.684-1.809,2.472c1.923-0.285,3.353,0.018,4.949-1.189
			c1.639-1.237,2.926-2.416,5.01-2.004c-1.657,3.082-0.199,6.599,1.837,9.073c0.855,1.04,3.317,3.162,3.476,0.366
			c0.085-1.506-1.164-3.6,0.733-4.495c1.148,0.524,0.424,4.151,0.355,5.344c-0.17,0.042-0.284,0.125-0.453,0.171
			c0.558,1.688,2.19,3.13,3.09,4.675c1.032,1.771,1.496,3.587,1.698,5.631c0.169,1.705,0.189,4.368-0.771,5.814
			c-0.519,0.783-1.603,1.069-2.07,1.867c-0.299,0.51-0.33,1.973,0.37,2.28c1.142,0.504,3.623-2.621,4.323-3.467
			c1.076-1.297,2.066-3.048,2.925-4.535c1.979-3.431,0.549-8.21-0.243-11.765c-0.738-3.309-2.438-6.731-4.626-9.511
			c-1.097-1.394-2.257-2.638-3.482-3.958c-1.391-1.501-2.906-2.282-4.533-3.52c-0.276-0.21-0.67-0.651-1.014-0.713
			c-0.535-0.096-0.788,0.427-1.106,0.383c-0.449-0.062-0.481-0.607-0.99-0.728c-1.345-0.315-1.972,1.856-2.96,2.552
			C74.669,310.724,73.284,311.106,72.505,312.221z"/>
		<path id="svg_176" fill="none" stroke="#000000" stroke-linecap="round" stroke-linejoin="round" stroke-miterlimit="10" d="
			M96.388,315.949c0.847,0.993,2.81,4.066,4.229,3.749c0.299-1.312,0.928-1.997,0.515-3.249c-0.233-0.705-0.453-0.811-0.373-1.711
			c0.056-0.632,0.106-1.303,0.141-1.979c0.483,0.226,1.053,0.251,1.538,0.369c-1.413-1.098-4.518-6.236-6.015-1.897
			c-1.293-0.153-1.744-0.669-3.167-0.245c-0.083-0.535-0.488-0.908-0.988-1.087c0.08,0.726,0.744,2.3,1.111,2.965
			C94.02,314.017,95.523,314.935,96.388,315.949z"/>
		<path id="svg_177" fill="none" stroke="#000000" stroke-linecap="round" stroke-linejoin="round" stroke-miterlimit="10" d="
			M101.622,312.249c1.917,1.704,4.321,1.593,6.533,2.49c2.177,0.883,3.798,1.955,6.287,2.114"/>
		<path id="svg_178" fill="none" stroke="#000000" stroke-linecap="round" stroke-linejoin="round" stroke-miterlimit="10" d="
			M74.751,307.395c1.376,1.212,3.828-0.125,5.301-0.124c1.649,0.002,3.54,0.833,5.177,1.148c1.929,0.371,3.901,0.698,5.8,1.086
			c1.795,0.366,3.521,0.267,5.17,1.002"/>
		<path id="svg_179" fill="none" stroke="#000000" stroke-linecap="round" stroke-linejoin="round" stroke-miterlimit="10" d="
			M86.584,312c2.805,0,4.899,0.581,7.396,1.369"/>
		<path id="svg_180" fill="none" stroke="#000000" stroke-linecap="round" stroke-linejoin="round" stroke-miterlimit="10" d="
			M69.327,310.631c1.412,0.353,3.182,0.249,4.684,0.249"/>
		<path id="svg_181" fill="none" stroke="#000000" stroke-linecap="round" stroke-linejoin="round" stroke-miterlimit="10" d="
			M68.341,308.515c1.175,0.078,2.443-0.248,3.698-0.248c1.177,0,2.521,0.077,3.574-0.374"/>
		<path id="svg_182" fill="none" stroke="#000000" stroke-linecap="round" stroke-linejoin="round" stroke-miterlimit="10" d="
			M57.987,311.129c-1.992,0.236-3.955,0.927-6.04,1.591c-1.878,0.599-4.444,1.015-5.917,2.268"/>
		<path id="svg_183" fill="none" stroke="#000000" stroke-linecap="round" stroke-linejoin="round" stroke-miterlimit="10" d="
			M42.702,317.103c-0.698,0.704-1.717,1.626-1.973,2.613"/>
		<path id="svg_184" fill="none" stroke="#000000" stroke-linecap="round" stroke-linejoin="round" stroke-miterlimit="10" d="
			M48.988,318.846c0.843-2.439,5.58-4.807,8.136-4.605"/>
		<path id="svg_185" fill="none" stroke="#000000" stroke-linecap="round" stroke-linejoin="round" stroke-miterlimit="10" d="
			M40.457,319.868c-0.993-0.357-1.604-0.746-2.531-1.303c-1.367-0.82-4.142-1.302-5.3,0.184c-0.64,0.82-0.399,2.016-0.305,2.959
			c0.13,1.303,0.062,1.577-0.746,2.579c-1.416,1.754-2,3.705-1.291,5.88c0.179,0.546,0.534,0.499,0.496,1.124
			c-0.026,0.41-0.434,0.824-0.619,1.15c-0.432,0.765-1.021,1.41-0.746,2.432c0.134,0.495,0.637,0.738,0.714,1.271
			c0.062,0.428-0.204,0.938-0.246,1.369c-0.095,0.975-0.007,2.074,0.126,2.98c0.285,1.937,0.844,3.887,1.503,5.729
			c0.72,2.01,0.819,3.908,0.712,6.102c-0.045,0.939-0.022,1.967-0.246,2.862c-0.289,1.159-1.138,1.084-1.482,2.116
			c-0.204,0.61-0.156,2.554,0.133,3.11c0.549,1.056,1.476,0.521,2.458,0.118c0.652-0.267,1.626-0.975,2.252-0.497
			c0.488,0.372,0.629,1.771,1.106,2.34c1.208,1.44,2.641,1.943,3.181,3.89c0.257,0.924,0.164,2.158,1.318,1.337
			c0.586-0.416,1.04-1.549,1.143-2.209c0.277-1.788-1.448-3.325-2.592-4.48c-1.844-1.86-1.104-2.844-0.986-5.227
			c0.099-2.016-0.645-3.61-0.986-5.477c-0.168-0.92-0.175-1.902-0.363-2.869c-0.22-1.132-1.03-1.339-1.578-2.141
			c-0.805-1.178-0.205-1.473,0.956-1.587c1.125-0.11,1.556,0.028,2.373-0.837c2.477-2.624,3.152-7.395,1.818-10.737
			c-0.732-1.835-3.315-3.649-2.219-5.475C39.72,324.547,45.131,321.546,40.457,319.868L40.457,319.868z"/>
		<path id="svg_186" fill="none" stroke="#000000" stroke-linecap="round" stroke-linejoin="round" stroke-miterlimit="10" d="
			M44.644,318.846c1.269-0.871,2.48-0.77,3.602,0.264c1.291-1.425,3.834-0.241,5.03,0.882c1.423,1.337,2.368,2.691,2.643,4.579
			c0.144,0.985,0.148,2.091,0.096,3.112c-0.064,1.245,0.237,1.521,0.588,2.613c0.684,2.128-0.371,3.36-1.482,4.972
			c-0.501,0.728-1.229,1.333-1.476,1.998c-0.311,0.836-0.227,2.119-0.349,2.979c-0.247,1.75-0.233,4.091-1.625,5.207
			c-0.938,0.751-0.958,0.628-0.958,2.144c0,1.065-0.059,2.068-0.151,3.111c-0.142,1.616,0.465,4.508-1.325,5.134
			c-2.917,1.019-5.972-6.197-6.783-8.252c-0.669-1.695-2.128-3.829-2.342-5.594c-0.223-1.852,1.189-3.562,1.356-5.352
			c0.128-1.384-0.293-2.542-0.373-3.858c-0.079-1.316-0.029-2.694-0.093-3.982c-0.061-1.248-0.213-2.74-0.034-3.982
			C41.219,323.095,43.193,319.842,44.644,318.846L44.644,318.846z"/>
		<path id="svg_187" fill="none" stroke="#000000" stroke-linecap="round" stroke-linejoin="round" stroke-miterlimit="10" d="
			M101.376,316.979c1.439-0.126,3.671,0.804,4.958,1.338c1.793,0.744,3.601,1.611,5.393,2.299c0.655,0.251,2.28,0.737,2.72,1.311
			c0.48,0.626,0.274,2.07,0.365,2.894c0.226,2.058,0.714,3.968,1.081,5.974c0.668,3.65,0.762,7.399,1.51,10.952
			c0.377,1.791,1.356,3.462,1.626,5.227c0.225,1.475,1.401,3.565,1.328,4.73"/>
		<path id="svg_188" fill="none" stroke="#000000" stroke-linecap="round" stroke-linejoin="round" stroke-miterlimit="10" d="
			M153.637,311.378c-0.184-1.211,0.799-0.709,1.269-1.334c0.522-0.695,0.278-2.781,0.234-3.751c1.26,0.185,2.411,0.903,3.64,1.106
			c-1.688,0.18-2.045,0.443-2.309,2.108c-0.107,0.677-0.119,2.573-0.739,3.014C155.154,312.932,153.757,312.173,153.637,311.378z"/>
		<path id="svg_189" fill="none" stroke="#000000" stroke-linecap="round" stroke-linejoin="round" stroke-miterlimit="10" d="
			M158.816,307.396c1.43-0.01,1.161-0.214,1.996-1.12c0.643-0.695,1.549-0.904,2.441-0.996c1.662-0.17,3.34-0.596,4.314-2.24
			c0.555-0.939,0.231-1.655,1.355-2.213c0.43-0.213,0.795-0.021,1.232-0.304c0.354-0.229,0.703-0.885,0.986-1.217
			c0.892-1.042,2.961-2.819,4.296-2.968c0.065,1.226-1.436,1.711-2.05,2.594c-0.652,0.939-0.785,1.951-1.66,2.833
			c-1.514,1.525-3.289,2.913-4.653,4.635"/>
		<path id="svg_190" fill="none" stroke="#000000" stroke-linecap="round" stroke-linejoin="round" stroke-miterlimit="10" d="
			M168.061,301.67c-0.239-0.595-0.908-0.16-1.33-0.65c-0.387-0.448,0.15-1.074-0.521-1.452c-1.32,1.72-2.836,1.845-4.789,1.214
			c0.34-0.85,2.109-3.531,3.094-3.811c1.527-0.434,1.203,1.156,1.97,1.315c0.558,0.116,1.625-1.296,2.04-1.624
			c0.447-0.35,1.553-1.776,2.102-1.34c0.504,0.4,0.061,0.871,0.06,1.275c-0.003,0.541,0.12,0.896,0.185,1.244
			c0.094,0.504,0.398,0.316,0.25,0.934c-0.059,0.236-0.727,0.842-0.932,1.061c-0.259,0.277-0.354,0.629-0.642,0.847
			c-0.417,0.317-1.073-0.066-1.337,0.737c-0.033,0.082-0.041,0.166-0.024,0.252"/>
		<path id="svg_191" fill="none" stroke="#000000" stroke-linecap="round" stroke-linejoin="round" stroke-miterlimit="10" d="
			M164.234,306.055c-0.678,0.509-0.324,1.559-0.851,2.093c-0.128,0.13-0.851,0.057-1.118,0.24c-0.213,0.146-0.451,0.568-0.586,0.777
			c-0.381,0.592-0.765,1.471-0.625,2.194c0.62,0.234,1.328,0.28,1.933,0.538c0.302,0.845-0.427,2.094,1.015,1.506
			c0.894-0.364,1.136-1.305,1.226-2.149c0.146-1.375-0.153-1.667,0.985-2.239c0.812-0.408,1.308-0.089,1.301-1.354
			c-0.005-1.046-0.562-1.447-1.617-1.069C165.709,305.844,164.842,305.598,164.234,306.055z"/>
		<path id="svg_192" fill="none" stroke="#000000" stroke-linecap="round" stroke-linejoin="round" stroke-miterlimit="10" d="
			M161.282,311.502c-1.97,2.368-6.343,3.408-8.29,6.721c-1.167,1.988-2.951,3.562-4.162,5.483
			c-1.047,1.658-7.994,11.716-10.133,15.045c-2.064,3.212-3.547,6.114-5.27,9.459c-0.44,0.855-0.732,1.76-0.373,2.745"/>
		<path id="svg_193" fill="none" stroke="#000000" stroke-linecap="round" stroke-linejoin="round" stroke-miterlimit="10" d="
			M122.324,351.322c1.998-0.302,4.168-0.098,6.17,0.006c1.74,0.09,4.309-0.929,5.7,0.095c1.492,1.098,1.659,2.928,3.538,3.397
			c4.017,1.006,7.707,2.413,11.593,3.977c3.425,1.377,6.929,2.355,9.646,5.071c1.359,1.358,2.094,2.958,2.436,4.76
			c0.609,3.221-1.228,0.86-2.376-0.219c-1.104-1.037-2.075-2.36-3.412-3.049c-1.735-0.892-3.683-1.274-5.43-2.06
			c-3.6-1.618-7.136-3.166-10.333-5.609c0.578,1.562,1.411,3.619,2.29,5.092c0.572,0.961,1.268,1.605,1.481,2.732
			c0.193,1.009,0.081,2.087,0.179,3.111c0.364,3.83-0.219,8.469,0.706,12.203c0.413,1.67,0.931,3.346,1.767,4.944
			c0.907,1.733,1.275,3.44,1.965,5.228c1.109,2.874,2.894,7.702,0.24,10.319c0.054-1.291-0.538-1.448-0.915-2.421
			c-0.312-0.811-0.207-2.111-0.216-3.018c-0.022-2.392-0.321-3.656-1.384-5.723c-1.743-3.395-3.456-6.797-4.17-10.45
			c-0.777-3.981,0.227-8.46,0.034-12.452c-0.106-2.221-0.949-2.854-2.156-4.577c-0.511-0.731-1.058-1.494-1.545-2.269
			c-0.339-0.538-0.936-2.539-1.5-2.747c-1.753-0.645-0.428,1.556-0.153,2.004c0.428,0.703,0.698,1.361,1.229,2.019
			c1.272,1.574,1.907,2.8,2.003,4.823c0.196,4.139-0.279,8.219-0.246,12.321c0.016,1.964,0.608,4.143,0.992,6.099
			c0.227,1.157,2.17,4.452,1.35,5.363c-1.105-0.897-2.539-2.894-3.205-4.125c-0.865-1.604-0.33-3.739-0.492-5.593
			c-0.183-2.061-0.148-4.123-0.247-6.224c-0.089-1.889-1.417-3.37-1.604-5.1c-0.135-1.243,0.186-2.683,0.125-3.985
			c-0.062-1.348-0.727-2.339-1.137-3.609c-0.625-1.944-1.699-4.963-3.404-6.334c0.966,2.033,1.932,3.349,2.076,5.712
			c0.129,2.096,0.018,4.221,0.121,6.344c0.05,1.035,0.018,1.877-0.127,2.859c-0.191,1.291,0.177,1.724,0.471,2.869
			c0.467,1.817-0.234,4.356-0.341,6.223c-0.106,1.835-0.567,3.874-0.767,5.822c-0.199,1.92,0.193,3.971,0.979,5.752
			c1.642,3.72,3.085,7.35,4.221,11.208c0.356,1.212,0.545,2.24,0.478,3.587c-3.035-0.655-4.623-6.906-5.186-9.442
			c-0.451-2.038-1.628-3.601-2.469-5.446c-0.865-1.903-0.832-3.761-0.832-5.88c0-4.04,1.365-7.636,1.109-11.699
			c-0.244-3.895-0.708-7.873-0.739-11.823c-0.007-0.963-0.589-4.255-1.833-4.21c0.486,1.749,1.282,3.461,1.463,5.33
			c0.213,2.202-0.633,4.092-0.738,6.223c-0.189,3.809,1.074,8.532-0.617,11.949c-1.896,3.831-1.383,7.831-0.985,12.071
			c0.185,1.965,0.698,3.975,1.325,5.851c0.668,2,0.828,4.034,1.51,5.973c0.312,0.886,0.861,1.775,0.475,2.72
			c-2.242,0.507-1.24-2.551-3.042-2.571c-0.369,0.945,0.497,2.967-0.855,3.321c-0.657-1.076,0.081-3.079,0.095-4.34
			c0.017-1.511,0.048-3.025-0.116-4.48c-0.173-1.535-0.3-3.028-0.376-4.605c-0.076-1.559-0.569-2.878-0.765-4.346
			c-1.484,1.747-2.68,2.594-2.571,5.093c0.088,2.017,0.467,4.163,0.869,6.099c0.422,2.03,1.05,3.91,1.233,5.974
			c0.148,1.679,0.052,4.484-0.621,5.967c-0.402,0.888-1.871,2.503-2.683,2.984c-0.072-1.922,0.057-4.175,0.345-6.089
			c0.144-0.956,0.497-2.015,0.589-2.89c0.105-1.009-0.351-1.885-0.585-2.836c-0.876-3.541-1.973-7.972-1.017-11.698
			c0.417-1.624,1.458-3.048,2.403-4.447c1.265-1.875,1.266-3.513,0.958-5.634c-0.29-2-0.499-3.854-0.499-5.974
			c0-1.913-0.414-4.471,0.246-6.224c1.231-3.269,4.45-9.087,1.265-12.183c-0.749,1.712-0.068,4.371-0.155,6.209
			c-0.089,1.874-0.791,3.733-2.003,5.196c-0.87,1.05-1.009,1.263-1.078,2.645c-0.052,1.038,0.076,1.994,0.124,2.986
			c0.093,1.967,0.259,4.274,0,6.224c-0.164,1.229-0.935,1.854-1.954,2.475c-0.345-2.181,0.811-6.127-1.342-7.684
			c-0.826,1.195-0.436,3.866-0.647,5.333c-0.243,1.691-1.271,3.146-1.599,4.851c-0.339,1.764-0.633,3.522-0.743,5.355
			c-0.096,1.603-0.269,3.891-2.323,4.091c-0.061-1.393,0.095-2.842,0.231-4.216c0.097-0.978,0.724-3.426-0.007-4.123
			c-1.179,0.604-2.383,2.539-3.104,3.6c-0.84,1.235-1.461,2.586-1.576,4.094c0.012-2.124,0.288-4.405,1.082-6.337
			c0.85-2.066,2.367-2.54,4.003-3.801c1.183-0.911,2.717-2.624,3.044-4.013c0.471-2.006-0.342-3.912-0.24-5.974
			c0.058-1.163,0.224-2.834,0.832-3.865c0.378-0.641,1.151-0.895,1.608-1.487c0.369-0.479,0.634-1.198,0.888-1.735
			c0.633-1.342,1.453-2.61,1.575-4.113c0.066-0.813,1.085-3.115,0.64-3.503c-0.683,0.655-1.22,1.492-1.965,2.131
			c-0.856,0.733-2.036,1.229-2.348,2.368c-0.52,1.902,0.214,4.105-0.36,5.98c-0.562,1.834-0.788,3.632-1.332,5.47
			c-0.585,1.974-1.798,3.304-3.146,4.826c-0.905,1.022-1.541,1.186-2.787,1.375c0.358-0.957,1.62-1.851,2.173-2.838
			c0.704-1.257,1.29-2.604,1.51-3.985c0.282-1.771,1.21-6.514-0.494-7.729c-1.239,0.978-2.312,3.452-3.054,4.87
			c-0.894,1.704-1.682,3.516-2.339,5.348c-0.681,1.9-0.971,4.039-2.033,5.826c-0.53,0.892-0.887,1.155-0.956,2.265
			c-0.064,1.032,0.052,2.076,0,3.11c-0.131,2.617-0.543,4.75-1.482,7.215c-0.564,1.481-2.268,4.745-3.82,5.343
			c-0.729-2.678,7.366-13.425,1.629-14.53c-2.215,2.907-2.784,6.83-4.674,9.966c-1.487,2.466-4.268,6.992-7.667,6.423
			c1.106-1.345,2.174-2.705,3.226-4.185c1.203-1.695,1.688-3.064,2.435-5.003c0.727-1.887,1.59-3.835,2.965-5.354
			c1.429-1.58,3.213-2.554,4.677-4.076c2.677-2.785,3.637-6.146,4.934-9.731c1.32-3.651,2.352-7.07,4.714-10.338
			c2.282-3.157,5.954-5.085,8.376-7.955c1.85-2.193-0.422-3.051-2.342-2.212c-1.744,0.762-3.659,1.126-5.458,1.922
			c-1.6,0.707-3.36,1.271-3.719,3.146c-0.371,1.942-0.099,4.223-0.096,6.223c0.002,2.17-0.788,3.546-2.311,5.01
			c-1.604,1.543-2.677,3.517-3.763,5.445c-0.44,0.78-2.161,4.941-2.808,2.869c-0.394-1.264,1.751-4.658,2.444-5.731
			c1.086-1.683,2.707-3.065,2.992-5.103c0.277-1.973,0.562-4.106,0.487-6.099c-0.023-0.617,0.086-2.465-0.869-2.371
			c-0.603,0.06-1.179,1.772-1.383,2.219c-0.802,1.755-1.617,3.537-2.278,5.379c-1.32,3.678-3.164,7.473-5.667,10.482
			c-1.195,1.438-2.2,2.865-3.705,3.982c-1.583,1.175-3.302,1.954-5.081,2.805c-3.481,1.663-6.455,4.257-10.465,3.988
			c2.726-2.482,6.274-4.031,9.109-6.416c2.755-2.317,5.873-4.837,8.259-7.592c1.317-1.522,2.597-3.236,3.574-5.01
			c0.887-1.608,5.383-11.255,8.41-13.165c2.479-1.562,5.215-2.814,8.051-3.538C117.535,353.05,119.899,351.689,122.324,351.322z"/>
	</g>
</g>
<g>
	<path d="M52.917,25.424c-1.061,0.557-3.182,1.113-5.899,1.113c-6.297,0-11.036-4.176-11.036-11.868
		c0-7.344,4.739-12.321,11.666-12.321c2.784,0,4.54,0.626,5.303,1.044l-0.696,2.471c-1.094-0.557-2.651-0.975-4.507-0.975
		c-5.236,0-8.716,3.515-8.716,9.676c0,5.742,3.148,9.433,8.584,9.433c1.756,0,3.546-0.383,4.706-0.976L52.917,25.424z"/>
	<path d="M70.583,17.627c0,6.23-4.109,8.945-7.987,8.945c-4.341,0-7.689-3.342-7.689-8.666c0-5.639,3.513-8.945,7.954-8.945
		C67.467,8.961,70.583,12.477,70.583,17.627z M57.856,17.801c0,3.689,2.022,6.475,4.872,6.475c2.784,0,4.872-2.75,4.872-6.543
		c0-2.854-1.358-6.475-4.806-6.475C59.348,11.258,57.856,14.6,57.856,17.801z"/>
	<path d="M74.263,13.903c0-1.74-0.033-3.167-0.133-4.56h2.552l0.132,2.715h0.1c0.895-1.601,2.386-3.098,5.038-3.098
		c2.188,0,3.844,1.392,4.541,3.376h0.066c0.497-0.94,1.126-1.67,1.79-2.193c0.961-0.766,2.021-1.183,3.546-1.183
		c2.121,0,5.27,1.462,5.27,7.309v9.92h-2.851v-9.537c0-3.236-1.127-5.186-3.48-5.186c-1.657,0-2.95,1.287-3.447,2.785
		c-0.132,0.417-0.232,0.974-0.232,1.531v10.406h-2.85V16.096c0-2.68-1.127-4.629-3.347-4.629c-1.823,0-3.149,1.531-3.613,3.062
		c-0.166,0.453-0.232,0.975-0.232,1.497v10.163h-2.85V13.903z"/>
	<path d="M105.153,4.61c0.033,1.044-0.696,1.879-1.856,1.879c-1.027,0-1.757-0.835-1.757-1.879c0-1.079,0.762-1.915,1.823-1.915
		C104.457,2.696,105.153,3.531,105.153,4.61z M101.905,26.189V9.344h2.917v16.846H101.905z"/>
	<path d="M109.66,13.903c0-1.74-0.033-3.167-0.133-4.56h2.585l0.166,2.784h0.066c0.795-1.601,2.651-3.167,5.303-3.167
		c2.221,0,5.667,1.392,5.667,7.17v10.059h-2.916v-9.711c0-2.715-0.961-4.977-3.712-4.977c-1.922,0-3.414,1.427-3.911,3.133
		c-0.132,0.383-0.199,0.904-0.199,1.426v10.129h-2.917V13.903z"/>
	<path d="M141.875,9.344c-0.066,1.218-0.132,2.576-0.132,4.629v9.78c0,3.863-0.729,6.23-2.287,7.692
		c-1.558,1.531-3.812,2.019-5.833,2.019c-1.922,0-4.043-0.487-5.336-1.393l0.729-2.332c1.061,0.696,2.718,1.323,4.706,1.323
		c2.982,0,5.17-1.636,5.17-5.883v-1.879h-0.066c-0.895,1.566-2.618,2.819-5.104,2.819c-3.978,0-6.827-3.55-6.827-8.214
		c0-5.709,3.546-8.945,7.225-8.945c2.784,0,4.309,1.531,5.005,2.924h0.065l0.133-2.541H141.875z M138.859,15.992
		c0-0.523-0.033-0.975-0.166-1.393c-0.53-1.775-1.955-3.237-4.076-3.237c-2.784,0-4.772,2.472-4.772,6.37
		c0,3.306,1.591,6.056,4.739,6.056c1.79,0,3.414-1.184,4.043-3.133c0.166-0.522,0.232-1.114,0.232-1.636V15.992z"/>
	<path d="M153.311,22.5c1.293,0.836,3.182,1.531,5.17,1.531c2.95,0,4.673-1.636,4.673-4.002c0-2.193-1.192-3.446-4.209-4.664
		c-3.646-1.357-5.899-3.342-5.899-6.648c0-3.655,2.884-6.37,7.226-6.37c2.287,0,3.943,0.557,4.938,1.149l-0.796,2.471
		c-0.729-0.418-2.221-1.114-4.242-1.114c-3.049,0-4.209,1.914-4.209,3.515c0,2.193,1.358,3.271,4.441,4.525
		c3.778,1.531,5.7,3.445,5.7,6.891c0,3.62-2.552,6.752-7.821,6.752c-2.154,0-4.508-0.661-5.701-1.496L153.311,22.5z"/>
	<path d="M184.663,17.627c0,6.23-4.109,8.945-7.987,8.945c-4.342,0-7.688-3.342-7.688-8.666c0-5.639,3.513-8.945,7.954-8.945
		C181.548,8.961,184.663,12.477,184.663,17.627z M171.937,17.801c0,3.689,2.021,6.475,4.872,6.475c2.784,0,4.872-2.75,4.872-6.543
		c0-2.854-1.359-6.475-4.806-6.475C173.428,11.258,171.937,14.6,171.937,17.801z"/>
	<path d="M202.859,17.627c0,6.23-4.109,8.945-7.987,8.945c-4.342,0-7.688-3.342-7.688-8.666c0-5.639,3.513-8.945,7.954-8.945
		C199.744,8.961,202.859,12.477,202.859,17.627z M190.133,17.801c0,3.689,2.021,6.475,4.872,6.475c2.784,0,4.872-2.75,4.872-6.543
		c0-2.854-1.359-6.475-4.806-6.475C191.624,11.258,190.133,14.6,190.133,17.801z"/>
	<path d="M206.539,13.903c0-1.74-0.033-3.167-0.132-4.56h2.585l0.166,2.784h0.065c0.796-1.601,2.651-3.167,5.303-3.167
		c2.221,0,5.668,1.392,5.668,7.17v10.059h-2.917v-9.711c0-2.715-0.961-4.977-3.712-4.977c-1.922,0-3.413,1.427-3.91,3.133
		c-0.133,0.383-0.199,0.904-0.199,1.426v10.129h-2.917V13.903z"/>
</g>
</svg>
